/* XPM */
static char *heart[] = {
/* columns rows colors chars-per-pixel */
"128 128 2 1 ",
"  c #AC3232",
". c #FAA5D0",
/* pixels */
"................................................................................................................................",
".................................................................................................    ...........................",
"...............................................................................................         ........................",
"..............................................................................................          ........................",
"..............................................................................................  ..      ........................",
"..............................................................................................  ..  .   ........................",
"..............................................................................................  ....   .........................",
"..............................................................................................  ....   .........................",
"..............................................................................................   ..   ..........................",
".................................................................       ......................       ...........................",
".................................     .........................         .......................     ............................",
"................................      ........................     ...  ........................    ............................",
".      .........................  ..   .......................   .....  .........................   ......................     .",
"       .....................      ..   .......................  ......       .....................  .....................       ",
"   ..  ...................       ....  .......................  .....        ...........................................    .   ",
"  ...  ...................    .  ....  .......................  .....    ..  ...........................................   ...  ",
" ....  ..................   ...  ....  .......................  ...........  ..........................................   ..... ",
" ....  .................   .........   .......................  ...........  ..........................................   ..... ",
".....  .................  .........   ........................  ...........  ..........................................  .......",
"....   .................   .......    ........................  ...........  ..........................................  .......",
"....   .................    .....    .........................  ..........   ..........................................   ......",
"....  ...................    ..    ...........................  .........    ...........................................  ......",
"....  ....................        ............................  .........   ............................................   .....",
"....  ......................    ..............................  ........   .............................................   .....",
"...   ......................    ..............................  .......    ..............................................   ....",
"...   ........................................................  .....    .................................................    ..",
"...  .........................................................  ....    ...................................................    .",
" ..  .........................................................  ...    .....................................................    ",
"  .  .........................................................  ..    .......................................................   ",
"     .........................................................  .    .......................     .............................. ",
"     ........................................................       .......................       ..............................",
".    ........................................................     .........................   ..   .............................",
".    ........................................................  .........................     ....   ............................",
"..   ...................................................................................     ....   ............................",
"...  ..................................................................................   .  .....  ............................",
"...   .................       .........................................................  .........  ............................",
"...   ................        .........................................................  .........  ............................",
".....................   ....  .       .................................................  .........  ............................",
".....................   ....           ................................................   ........  ............................",
".....................  .....     ....  ................................................    .......  ............................",
".....................  .....    .....  .................................................     .....   ...........................",
".....................  .....   .....   ..................................................     ....    ..........................",
".....................  .....   .....   ....................................................      ..   ..........................",
".....................   ............  .......................................................         ..........................",
"......................    ..........  ..........................................................      ..........................",
"......................     .........  ..........................................................................................",
".........................   .......   ..........................................................................................",
".........................   ......   ...........................................................................................",
"..........................  .....    ...........................      ..........................................................",
"..........................  .....   ..........................         ...................................................     .",
"..........................   ...   ..........................     ..    ..........................................     .        ",
"...........................  ..   ..........................    ......  .........................................           .   ",
" ..........................  .    .........................    .......  ........................................    .     ....  ",
" ..........................      .........................    ........  ........................................   ..    ...... ",
" ..........................     ..........................   .........  ........................................  ...   ....... ",
" ..........................    ...........................  ..........  ........................................  ...   ....... ",
"  ..........................   ..........................   ..........  ........................................  ...   ....... ",
"  ..........................  ...........................   ..........  ........................................  ............. ",
"  ..........................  ...........................  ..........         ...............     ..............  ..............",
"  .......................................................  ..........         ...............     ..............   .............",
"  .......................................................  ..........    ...   .............   .  ..............   ............ ",
" ........................................................  ..........  .....   ............   .      ............   ........... ",
" ........................................................   .................  ............  ..      ............   ..........  ",
"..........................   ............................   .................  ............  ......  .............   .........  ",
".........................     ............................  ................   ............  ......  .............   .........  ",
".....................         ............................  ................  .............  ......  ..............   .......   ",
".....................      .  ............................  ...............   .............   ...    ..............    ......  .",
".....................  .....  ............................  ...............   ..............  ..    ................   .....   .",
".....................  ....   ...........................   ..............   ...............       ..................    ..   ..",
".....................   ..   ............................   ..............   ................     ....................        ..",
".....................       .............................  ..............   ................     ......................      ...",
"......................     ..............................  .............   .................  ..........................    ....",
".....................    ................................  ............    .............................................    ....",
".....................   ................................   ...........   .......................................................",
".......................................................   ...........    .......................................................",
".......................................................   ........      ........................................................",
".......................................................  ......       ..........................................................",
"......................................................   ..         ............................................................",
"......................................................           ...............................................................",
"......................................................       ...................................................................",
"......................................................   .................................................................     .",
"................................................................................................................     ...       .",
"...............................................................................................................      .     ..  .",
"..............................................................................................................    .      ....  .",
"................................    ..........................................................................   ..     .....  .",
"..............................       .........................................................................  ...    ......  .",
"......................     ..        ...............................................      ....................  ...   ......   .",
"....................        .   ...  .............................................        ....................  ...  .......  ..",
"...................     .      ....  ............................................     ..   ...................   ..........   ..",
"..................    ....    .....  ...........................................   .....   ..      ...........   ..........  ...",
"..................   .....    .....  ...........................................   ......          ............  ..........  ...",
".................   ......   ......  ...........................................  ......      ...  ............  .........   ...",
"................   .......   ......  ...........................................  ......    .....  ............   .......   ....",
"................  ........   .....   ...........................................  .....    ......  .............  .......   ....",
"................  ................   ...........................................  .....   .......  .............  ......   .....",
"...............   ................  ............................................  .....  ........  .............   .....   .....",
"...............  .................  ............................................  .....  ........  .............   ....   ......",
"...............  ................   ............................................  ...............  ..............    .   .......",
"...............   ..............   .............................................  ...............  ...............       .......",
"...............   ..............   .............................................  ..............   ................     ........",
"................  ..............  ..............................................   ............   ..................    ........",
"................   ............   ...............................................   ...........   ...................  .........",
"................    ..........    ...............................................   ..........   ...............................",
".................    .........   ...................      ........................    .......   ................................",
"..................   ........   ..................        .........................    .....   .................................",
"...................    ......   ..................   ...  ...........................    ..   ..................................",
"....................    ....   ...................  ....        ......................       ...................................",
".....................    ...   ...................  ....        .......................      ...................................",
"......................    .   ....................  ....  ...   ........................    ....................................",
".......................      .....................  ....  ...   .........................  .....................................",
".     ..................     .....................  .........  ..........................  .....................................",
"       ..................    .....................  ........   ..........................  .....................................",
"   .   ...................   .....................   .......   ..........................  ..................................   ",
"  ...  ....................  ......................  ......   ..............................................................    ",
"  ..   ............................................   .....  ...............................................................  ..",
"...   ..............................................  ...    ...............................................................  ..",
"..    ..............................................   ..    ...............................................................   .",
"..   ...............................................       .................................................................   .",
"    .................................................      ..................................................................   ",
"   ..................................................    .....................................................................  ",
"   ...................................................  ....................................................................... ",
"   ............................................................................................................................ ",
"  ............................................................................................................................. ",
" .............................................................................................................................. ",
"................................................................................................................................",
"................................................................................................................................",
"................................................................................................................................",
"................................................................................................................................"
};
