/* XPM */
static char *minecraft_s6[] = {
/* columns rows colors chars-per-pixel */
"64 64 154 2 ",
"   c #160F07",
".  c #171008",
"X  c #1C140B",
"o  c #1E1B18",
"O  c #261C11",
"+  c #211E1C",
"@  c #2B2114",
"#  c #27231E",
"$  c #2C251D",
"%  c #322617",
"&  c #382B1B",
"*  c #3F311F",
"=  c #242423",
"-  c #292622",
";  c #2D2C2C",
":  c #322C25",
">  c #322E2B",
",  c #3C3224",
"<  c #3B3B24",
"1  c #35342B",
"2  c #3D362E",
"3  c #3B3F2F",
"4  c #343434",
"5  c #3C3E33",
"6  c #3E3E3E",
"7  c #422F18",
"8  c #4D3920",
"9  c #443A2F",
"0  c #403B36",
"q  c #403D39",
"w  c #394027",
"e  c #3B4329",
"r  c #3E4B2D",
"t  c #3E4432",
"y  c #3E413B",
"u  c #5D401F",
"i  c #414D2C",
"p  c #44542D",
"a  c #414636",
"s  c #4C4134",
"d  c #414B34",
"f  c #42453C",
"g  c #464D3B",
"h  c #494D3E",
"j  c #534739",
"k  c #455134",
"l  c #485632",
"z  c #4C5A34",
"x  c #475238",
"c  c #4A543B",
"v  c #4E5B3A",
"b  c #515E39",
"n  c #6C4B23",
"m  c #7A582E",
"M  c #7F5E34",
"N  c #54623B",
"B  c #413E41",
"V  c #444444",
"C  c #474945",
"Z  c #4A4E45",
"A  c #484748",
"S  c #454A4A",
"D  c #4C4C4C",
"F  c #4D5344",
"G  c #4D5B44",
"H  c #4E524B",
"J  c #4B5A4D",
"K  c #505342",
"L  c #5F5346",
"P  c #535C43",
"I  c #51554A",
"U  c #555B4D",
"Y  c #4A4F50",
"T  c #504F50",
"R  c #4D5354",
"E  c #4E5D54",
"W  c #4D5658",
"Q  c #4E5A5A",
"!  c #545354",
"~  c #5D5652",
"^  c #555953",
"/  c #5A5C54",
"(  c #535758",
")  c #585758",
"_  c #555B5C",
"`  c #5A5A5A",
"'  c #605447",
"]  c #65594B",
"[  c #4D6149",
"{  c #556244",
"}  c #586147",
"|  c #53644D",
" . c #5A634C",
".. c #54684E",
"X. c #4F6557",
"o. c #4F6558",
"O. c #536356",
"+. c #5D6154",
"@. c #566952",
"#. c #586B52",
"$. c #54645B",
"%. c #59645D",
"&. c #566C5F",
"*. c #5A6C5E",
"=. c #62635C",
"-. c #4F5E61",
";. c #555E61",
":. c #5A5F60",
">. c #605F60",
",. c #556265",
"<. c #5B6264",
"1. c #5B6C63",
"2. c #566569",
"3. c #5C6669",
"4. c #5C696C",
"5. c #5E6C70",
"6. c #5C7176",
"7. c #636364",
"8. c #626966",
"9. c #636669",
"0. c #686668",
"q. c #626A6C",
"w. c #6C696C",
"e. c #60726E",
"r. c #6A726E",
"t. c #636E71",
"y. c #6B6E71",
"u. c #637175",
"i. c #6A7276",
"p. c #657579",
"a. c #6A767A",
"s. c #64797E",
"d. c #69797D",
"f. c gray44",
"g. c #805E34",
"h. c #85653A",
"j. c #937245",
"k. c #678573",
"l. c #6D8A7B",
"z. c #667D82",
"x. c #6A7E83",
"c. c #6F8389",
"v. c #768286",
"b. c #74888E",
"n. c #678990",
"m. c #6C8D94",
"M. c #778B90",
"N. c #7E9197",
"B. c #769399",
"V. c #78959B",
"C. c #77989F",
"Z. c #818181",
"A. c #8BB3BB",
"S. c gray69",
/* pixels */
"6 ! 7.>.7.0.i.n.w.w.w.w.w.w.w.w.w.w.w.w.A.%.i N b / +.N m.a.+.p v N N N v v z p w.7.` ) ) ` 4.n.I T D A T ! t.C.! ! ` 7.7.7.7.7.",
"6 ! >.>.` ` q.z.:.7.7.0.7.7.7.7.>.7.7.w.v.U r z z U ) U p.4.`  .l b N v N l c U >.7.7.) ) ! _ 6.A ! ! ! ! %.4.t.! ) ` ` ) ` ` ` ",
"6 ! ` ` ` ` <.s.) ` ` ` >.` >.>.) ` 7.0.0.F d p c F U ` 1.<.` %.p z N z N l c ` ` 0.0.) ` ! ! ,.R ! ! ) ! ,.<.! ) ! ! ! ! ! ) / ",
"6 ! ` ` ` ` 4.z.) ) ` ` ) ) ) ) ` ` >.>.w.D a p _ x F 7.*.4.<.) p z z p v d c ` >.0.7.` ) ` ` ` 4._ ! ! ! _ ,.D I T R D D ! ) ` ",
"6 D ! ! ) <.s.V.=.` ) ) ) ) ) ) >.` ) ` w.D y r ! ! ) ! ) q.q.) ! K P >.r H ) ) ) 0.>.T ! ! q.B.) ` ` 7.7.4.3._ 7.` ` 7.7.` ` ` ",
"6 D ) ! ! <.t.s.) ) ) ) ` >.` ! ) ! T ! w.D V I ! ! ! ! _ %.%.) ) c G ` Z ! I c ! 7.7.! ! ! <.x.7.` 7.7.` 3.<./ ) ! ) ` ` ` ) ! ",
"6 T ) ) _ :.3.5.! ) ) ) ` ` ` ! ! T T T 0.Z f ! ! I H Z U O.O.I ) F F ` T H c p ! >.7.` ) H _ 5.` ` :.` ) <.<.) ! ! ! _ ) ) ^ ! ",
"6 D ! ) 2.( _ 4.) ) ) T ! ! T ! ) I A ! >.g a ! ` h r r b @.| p ! ! ! ) ! x p r T ` 7.7.! D R 4.Z D ! T ) 3.<.) / ) / ) ) ) ) ) ",
"B C C S 2.R R 3.D D S Z S Z S Z D D C D D d g ! ) ! F r r [ [ p r Z T ! D d r r T T ! ` ) ) %.4.D ! ! I 7.q.3.R 7.7.7.) ) ) ! H ",
"V V D _ D S Y ,.V V V V V V V A B V V V V f V C A f a e e &.1.y t V A A V a e y D A T ` ) ) ` 4.! D ! ) ` s.a.D ! ! ! D D ! ! ! ",
"R T _ 4.! ! ( 3.! D V 6 B D ! Y T D T T ! Z F Z Z h x h Z e.4.6 6 6 V T I Z h f Z h D ! ) ) ` 4.! ! ) ` ` a.a._ H ! ! T ! ! ! ! ",
"w.w.y.d.0.0.w.w.a.9.! 6 B ` w.w.w.w.w.w.w. .N N b =.w.w.w.p.3.6 q 6 T w.w.w.=.b N N P ! ) _ <.4.) ) ` 7.7.7.9.4.) %.=.( 7.7.7.7.",
") 3.3.>.>.>.` ) t.9.! B ) ` ` >.>.>.>.7.! P U >.=.>.>.>.` ` 9.t.B Y ` ! 7.>.>.>.=.c c ) 7.7.9.u.7.` ` 7.7.7.7.4.) ) ) ) 7.` ) / ",
"3.<.` >.>.7.>.! <.q.;.6 ! ( ` ` >.` ` ` ` ^ I v >.` ) >.! ) 7.a.6 T ) _ ` ` >.` ` / ^ ! ! ) :.4.` ) ) ` ! ! _ 2.I R ^ ) ) ) ! H ",
"q.` ` ` ` ` ) ! ( q.<.B I ! ) ) >.` ` ` ` ` I i ` ) ) ` ! ) <.a.6 D ! I ` ` ` ` ` ` ` ` ! _ %.<.) ! ) ) I ! _ 4.! ! ^ ) ! ) ! R ",
"7.` ` ` ` ! ! ` ` t.<.6 D T ! ) ` ` =.>.) ` I i ` ` ! ! ) _ 7.a.q A x p ` ` ` 7.7.` ` 7.) q.9._ ) ) _ / ) ) <.p.7.` ) ) ) ) ) ) ",
"! ! ! ` ) ` ) T ! 9.,.6 ! ! ! ! ` ! ) ) ) ! ! ! ) ` >.) N b | t.B D K k ! ! ) ` ) ) ) Y D _ _ A C ! ) ) T ! <.p.7.` ! ! I ) ) ) ",
"! T ! ( ! ! ! ! ! 4.;.6 ! ! D D ! ! ! ! ! ! ! ! ) ) ) ! U P ..u.6 D F p c H ! D ! ! ! I ! <.,.D ! ) ^ ! ! ! ` t.` ! ! ! ! ` 7.>.",
"T T I ! T T T T ! <.;.6 T Z D D T D D D T T ! ! ) T T ! I v | 5.6 D I x p c Z C T T ! ! _ <.<.! _ / ! ! ! ! _ t.` ! ! ) ) ` ` 7.",
"D S D A D C D D S _ Q 6 D C D S Z D S D D D D ! ! D D ! i r F 4.6 T ( ! p i r r D D ! 7.u.9.7.7.) ) ) ) ! ` :.q.` _ ! T I ! ) _ ",
"V V V V V V V V y R R 6 6 V V V V V V V V e 3 < V V f w e < t q ;.S B V e e < e < a D ( 4.( ! _ ) %.>.~ ) ! ! ) 5.` ) _ ) ` ) ) ",
"T I ! ! I D D D V _ -.Y D D D ! ) _ ` ) ) Z F / ) ` >.~ ! ^ ` ` 9.:.;.( / ) / / / ` ! g 1.| U ;.P } =.7.c b P P 1.| P P c ` 7.` ",
"( ) ) ! ! T Y ! D _ <.<.! ! ! ( >.` ` 7.>.I Y 7.` 7.7.7.` %.7.7.7.9.3.7.>.7.7.7.7.0.` d ..v G :.} P  .7.G v z b #.| P l v / 0.7.",
"T ! ! T D A D ) ) ) <.6.! ) ! T ` ! ! ) ) V A ` ) ` ) ) D Z T ) ) ( :.5.Z ! ` ` ` 7.8.$.p p c ( ) ` ` ) >.c l b v #.| r ) ) >.w.",
"` ! ` ` ` ) ! T ! :._ Z 4._ ! H V D D T ) V V D ! D D V V V ! f.S.7.S -.6 V V V ) ` %.-.p I I r >.P P ) ) c p b p ..[ r _ ` 7.w.",
"! ! ! ! ) ) ) ! 3.3.<.! ` 3.:.! ` ` ` ! ` C V T ` D D ` ` ` 7.f.Z.7.( 4.` :.! B T ` :.;.i F I I ) U ^ >.) I F b U O.^ Z ` ` 7.w.",
"! ! ! ! ) ` >.` p.9.` ( ` <.3.` ` =.` ` ! V V ! >.Y D =.:.7.0.w.0.` <.5.7.w.` B D <.,.W x D ! ` ) ~ U U ) ! I z ` ,.$.! I ! ` w.",
"( ) ! I T ` 7.>.u.9.` ! ` _ ` 4.D ! ) ` ! V A ) >.D V D ` ) =.0.0.` _ 3.) 0.` q ( t.<.y ` Y D ` ` P z l ` ` I k ! <.:.! p I ` w.",
"7.( D V ! D D T 4.` ` ) ` ) ` ` u.:.` 7.) V V ` >.D A ! ` ! ] j.n 9 S ,.T >.` B ) q.%.w ` ` H r r p p p p K T ! ) _ _ o.i Z ) >.",
"` ) ! I ! ! T T 2.1.%.>.! ` ` 7.9.9.3.` ! V A ! 0.T A D ! T ' h.8 2 B Y :.:.! B H 4.%.r ! ! I F r i p p p k K T ! H R o.r H ! ) ",
"` ) ) ) ! ! T T ;.1.1.` ! ` ` ` ` <.,.` I V V D w.T V D T T ' g.& > 4 B ;.3._ B ( <._ d D Y D Z r e e i d d g A T D H X.t C D T ",
") ` ) ) ! T T T ` 9.3.T D D D ! A D R 3.! V V S w.T V ! V A ' g.@ - ; 6 A q.<.6 q.<.) V V A y w w 3 < 7 6 6 6 6 V V Z E 6 V V V ",
"I ! ) ) ) ) ) ) 7.t.t.7.0.` ` 7.! 7.7.7.p.Y A ! w.D V D q q j g.% # = 6 T 4.;.B 2.<./ N N b U w.w.w.0.=.q B D >.w.w.y.a.v N N N ",
"! ) ` 7.%.7.` ` ` q.t.7.7.` ` ` ` >.>.) t.Y V T w.D B V B q 9 n @ > 4 4 Y :.;.W 2.9.=.b  ./ =.7.7.=.>.>.` A A ` ` 7.9.p./ +.P z ",
"( ! ` ` =.>.` ` ` 9.4.` ` ) ! ) ) ` ` ( 5.Y V ! 9.D B V 6 4 9 8 O > 4 4 D :.3.2.:.9.7.P U >.>.` >.` ) >.w.D V ) ` >.7.t.` >./ G ",
"! ! D ! ) ) ! ! _ <.;.Z C D T I ) ! ! ) ,.S V ! >.A B V > 4 > 7 X : 4 6 T >.y.6.) 7.7.) p U ` ! >.) ! ! w.D A ) ` ` 9.u.` ` :.,.",
"7.` ` 7.7.` ` ) ) <.<._ ) %.>.) ) ) ) ) 4.Y A ( 7.T V V ; ; , n X = ; 4 A >.y.6.) 0.0.>.p P ) ) T ! ) ! w.T V D ) ) <.t.>.7.>.` ",
"! I T ) ) ! ! ) 9._ ) ! ) 7.>.) ! ! ! I t.Y V ! *.D V B ; = - 8 . o = 4 6 Y ,.2.) 7.7.! F ! _ ,.! ~ P P 7.A A T c I ;.5.` ` ` ) ",
") ! ! Y H Y ! _ 3.! H R ) ` ` ! H ! ! ! u.W D ! %.! A A ; ; : ,   + ; 4 B R <.5.` 0.>.! ! ) ` _ ) U P b =.A A T p U _ <.! ! ) ) ",
"7.7.` T ! ! :.4.! ! D ! ) ` _ I R ) ` 7.u.,.W ! ) >.` ! B B q 7   > B V T :.t.x.:.:.;.! ) ) ! ! T ! U N >.A A T p O.:.! A T ! ! ",
"` 7.q.u.u.t.<._ ( ) ) ` ) ) ) ) ) ! _ 2.` _ W S T A A B 4 4 ; ; ; ; ; 4 B Y <.s.! ` ) D ! ! T D D x p p 4 6 V ) p [ [ r D Z D D ",
"! 3.9._ :.:.` >.7.` ! ! ! ) ) ) ` ! _ 4.) _ R V B B B 4 4 = = = = = = - 4 B R ,._ R Z t a C D V 9 5 5 t d 6 V A f J F e t 6 y x ",
"! $.#.K ` / / +.7./ I I P U U ^ U ^ %.q.` ( R R A A V B 4 4 ; = ; ; : : 4 A ( ,.,.R V a d C D D 0 0 6 6 v C A V Z Q E g g f C v ",
"X.{ N b `  .N N w.v z b N N N N v | %.w.:.D D 6.>.` ` >.T T A 4 B B A D A :.y.a.4.R D ! ) ) ` ` T I T C ) ) ! I ` <.3.7.7.7.7.7.",
"r p p p ` ) ) ) ` ! I p N v b N $.%.>.) w.D Y t.>.` ) ) B V B 4 B B B A 6 D :.4.5.( T ! ) ! H D ` ` ) ` ` _ ) ) 4.( ! ` ! ) ) ) ",
"t d l I x ) / P ` ` I p b z z N X.` ` :.w.D D 5.` Y T ) A A D D ( ( T T B A R 3.` 3.<.! ` ! ! ! ) ! ! ! ! D D ! 3._ T I T ( ) ` ",
"6 d x ! x ! ^ P ` ! I c z v c P O.) ) ` w.H S <.:.D A T A T ! ) ;.:.) ) B Y _ <.! 3.4.! ! ! ! ) ` ! ! ! ! H D ! 4._ ! ! ! ) _ ) ",
"y t g ! ! ! ! ) 7.` ! ` b / %.X._ ! ! T w.P c ! 3.Y A A A T ) ) ) ` ) ) B <.t.:.V ;.,.! ! T ! ` ) 7.7.7.) ) ` ) u.<.` 7.) ) ) ) ",
"B ! ! D D R I z b l c ` p $.2.` ! x c ! N._ V D T <.;.V ! ) ) T ) T D V :.3.,.! ) t.t.` ( ! ! 7.7.7.7.7.` ! ! ) 4.( I ! ) ) ! ! ",
"4 D ! D x x g l l p l ! O._ _ _ x k g ! b.W V Y V D R _ T ! T D T D T T ) <.:.! ! <.9.4.! H ! ) ! ^ ) ! ) ` ) ) 4._ ) ! _ ) ) ) ",
"5 D ! ! c k r p p p l ( ,.! ! ! i i g D c.( V D 6 V R 2.T ! T A A D Y T _ ;._ D D ` 7.t.! ! ! ! Z T I Y ` ` ! ! 4.<.` ) ) ! ! ! ",
"p I ) ) ! x r p p p v X.D ! ! D r r d D c.R B V V C W 4.T T T D A D T ! ,.Y D S D T _ 4.` ! ` ` D D T ! 7.! ! T u.8.>.) ` ! I ! ",
"p a B B 4 4 1 w X.Q R B y V V V * 5 q V x._ V V V V Y 2.V V V 6 V q V V ,.Y V B V V Y 4.` ) ! ! T ! ` ` ` ! I T Z _ _ A D D ! R ",
"z v v x ` :.<.<.8.<.R B W ` >.` ~ K c P l.9.` >.7.` :.t.B Y ) ! d f A D q.R D ` ` >.7.4.` ` ` ! ! ` ` ` 7.` ` ) ! 3.3.! ` ` ` ` ",
"N { } U y.y.y.t.7.7.) q ;.<.0.7.0.+.P } l.r.0.0.9.0.9.q.A R ) ` d C D _ 4.! ! 7.0.7.7.,.<.` ` ` ` ` ` 7.7.7.%.` _ 4.4.) 7.=.7.>.",
"z +.<.,.t.9.` ( ` 7.` 6 ) ` ) ) 7.>.>.>.k.8.` ( >.>.` ! ,.Y A ! 6 V W 4.) >.7.) 7.` ) ) i.9.7.7.7.` ` ` 7.7.7.7.` 3.<.` 7.` ) ) ",
"` c P 7.3.7.` ! ! 7.>.6 ! ! ! ) 7.` ` ) M.9.! V V ) >.>.:.<.;.T 6 6 S 2.V Y ! ) =.>.` ! ! ,.<.( _ ! ! ` Y Z D D ! <.<._ ) ) ! Z ",
"` c x ) 5.` ) ) T >.` 6 D F G ) ` ` ` >.9.:.! ! V ! ` ` >.3.3.7.q 6 S ,.B Y ) ) ` ` ` ` ! 3.q.:.) ) ! ` ! ! ! ` 3.:.` ` ) ) ! H ",
"` I F ` q.;.! U I >.` 6 D x x I ) ` =.` ` ) ! ) V ! ) ) ` :.9.y.B A T 4.D ! ! ` ) ) ` ` ! :.3.9.) ) ! ! ) ! ` 9.9._ ! ! ) ! ( ! ",
"T T ) 0.>.) U N b / ) B ~ x p p ! ! ) ) ` ! ! ! B ) :.) ` ` <.z.B ! 9.u.w.! D ) ) ` ! ! ! I ( 4.) ) ! ! T ! _ 4.` ! ! ! ! T ! ` ",
"T 3.3.) ! ! ! _ N o.W B ! c p p T T A D ! T D 6 B W ;.! ( T Y ! ;.! :.4.` D D ! S D ` 7.7.) _ 3.) ) ) H T <.<.! ) ! ! ) ` ` 7.7.",
"_ :.` ! H R H g k C V y V Z c i g k c A D D V B B D R T H D A A -.-.-.` ! T Y ! D D ! 7.7.` <.t./ ) ) ! ,.%._ ` ) ^ ( ) ! ) ` ` ",
",.R A T C S y e r y 6 6 y D C r e i d g D V V V B A D Y S A B B R -._ Y T A A T A A I :.=.` <.3.%.<.<.<.<._ ! ) ) ) ) / ! ) ` ` ",
"X.t t V V t e w < t 6 B y V f < , < < w V V V V V V V V V 6 B B B ;.:.V A V V A V V D ` ` ! ! _ 5.u.u.u.) ! R I ) ) ) ) ) ) ` ` "
};
