/* XPM */
static char *minecraft_l3[] = {
/* columns rows colors chars-per-pixel */
"48 48 120 2 ",
"   c #100B0B",
".  c #110B0B",
"X  c #16110C",
"o  c #17110C",
"O  c #1A120B",
"+  c #1B120B",
"@  c #1D170D",
"#  c #1E170D",
"$  c #160D13",
"%  c #160E14",
"&  c #180E13",
"*  c #1C1314",
"=  c #1C1414",
"-  c #1E1414",
";  c #1D1913",
":  c #1B1814",
">  c #20170D",
",  c #22180C",
"<  c #23180C",
"1  c #251D0E",
"2  c #341303",
"3  c #351904",
"4  c #391904",
"5  c #3D1A04",
"6  c #3B1F06",
"7  c #3F1F06",
"8  c #221513",
"9  c #201514",
"0  c #201A13",
"q  c #231A15",
"w  c #251A15",
"e  c #211D14",
"r  c #231E14",
"t  c #261F14",
"y  c #291C13",
"u  c #281F13",
"i  c #291B14",
"p  c #2B2310",
"a  c #2A2012",
"s  c #282315",
"d  c #292016",
"f  c #2D2015",
"g  c #292415",
"h  c #2C2515",
"j  c #2F2517",
"k  c #2D2816",
"l  c #322713",
"z  c #332616",
"x  c #302811",
"c  c #322A15",
"v  c #342A15",
"b  c #332E17",
"n  c #352F16",
"m  c #382F16",
"M  c #221F26",
"N  c #252025",
"B  c #2E2623",
"V  c #2B2525",
"C  c #282426",
"Z  c #2E2A26",
"A  c #2E292F",
"S  c #302722",
"D  c #322821",
"F  c #342B23",
"G  c #362C22",
"H  c #312B25",
"J  c #382D21",
"K  c #322B2E",
"L  c #332E2F",
"P  c #363025",
"I  c #393427",
"U  c #3E3524",
"Y  c #3D322B",
"T  c #3E382F",
"R  c #2A2831",
"E  c #2F2D31",
"W  c #353231",
"Q  c #3B3731",
"!  c #36343A",
"~  c #3B3638",
"^  c #3B383A",
"/  c #411A04",
"(  c #462006",
")  c #442407",
"_  c #472507",
"`  c #492909",
"'  c #4A2F0A",
"]  c #4E2F0A",
"[  c #5B340B",
"{  c #60360B",
"}  c #66370B",
"|  c #643B0C",
" . c #6C390A",
".. c #6F3E0B",
"X. c #6A3C0C",
"o. c #703A0A",
"O. c #743B0A",
"+. c #42392E",
"@. c #453A2C",
"#. c #403B31",
"$. c #473D35",
"%. c #4A3F33",
"&. c #403D39",
"*. c #6D400D",
"=. c #73420D",
"-. c #71450F",
";. c #4F4333",
":. c #4A4337",
">. c #454139",
",. c #9D670B",
"<. c #A46B0C",
"1. c #A56E0D",
"2. c #A96E0B",
"3. c #AE700B",
"4. c #AA710C",
"5. c #B3740C",
"6. c #BEAB2F",
"7. c #BAA930",
"8. c #C2AD2D",
"9. c #C6AF2C",
/* pixels */
"C t t 9 - o C - o e C E C 4 4 N M = : % %   M %   : M R M : % M ! ! R ! ! ! R ! ! R ! ! ! R R M ",
"u D 3. .4 C - q C C B E L C 4 8 ; M N : M M % % M M M R R M   % ! R M R R ! M R M M R M R M M   ",
"+ 3.a a e = = e N <.8.Y L d ; o o % : : : % % : M M R R R : %   R M ! R R M M M : M R ! R R M $ ",
"o.a C C C e % C L Y o.8.a = a   = : M M M : % M R R R ! : % :   ! ! M R R M M R R M M R M R : % ",
"d C C E E R : % C ^ :.u  .; d 5 ; N N R R R : % M ! ! : % % :   ! ! R M : M : M R M R M : M : M ",
"A E E E ! M ; ; $ - L 8 4 ; o 4 W R R R ! M : : % % R %   :     ! M ! ! R R R M : M R ! R R M M ",
"N R ! ! N   ; 2 ; - ; + 3 Z q g C R ! ! M   : % : % :     M % : R R M R R M M R R M M R M R : M ",
"N C e = @ 6 | C C ; ; C W w w d C N : $     : M M : : M R % % : R ! M ! R R M : ! R R : M : : % ",
"C N ; e w g Z W C = ,.{ 6 g q e C C : % % : M R M %   % % : % : ! ! R ! M R : : R R M : M : R   ",
"; s w e d u q g q 4 = a C C a 3 s : % % : % % : %   % : M M : % R R M R M ! R R M : : M M M R $ ",
"= e g H o.3.< i Z E L E E L B } = C M M %     % : R R R R R M   ! R ! R R R : M : $ R R : R R : ",
"e C W W F l 8.< Z C ^ ^ E B a 2.s C R R M : %   : M ! ! R M : : ! M R M R M M R M : R M : $ M = ",
"C C W W Q G 5.u e - C C e 9  .d N C R R R M : % : % M N : % % : ! R M M M M R M R : M : $ M M $ ",
"E E W ^ H # > } e % - C 8 / / N E E R ! M     : : % % N % % % M ! N R R % : M N R M M R % R R $ ",
"E ^ ^ C = o o 4   ; - d 8 9 u L E ^ ! N %     %   : % : % % : R E C E C : M : : : % $ M M R N : ",
"e e C =       ; &   ; d / a e C : : M %       : %   : : : : : C C ; s ; ; s = e e e ; : : : % = ",
"C ; : % %   M %   : N E Z ; = C ! ! R ! ! ! R ! ! R ! ! ! E E C C t u 8 u > C * o e C L C 5 2 M ",
"s C N : M M % % M M M R R M   % ! R N R R ! M R M M R M E C C X t B 2.o./ F 8 = C C B Q Q F _ $ ",
"  % : : : % % : M M R R R : %   R M ! R R M M M : M R ! E E C = + 2.a h c w = e C <.6.@.@.c g # ",
"% : M M M : % M R R R ! : % :   ! ! N R R M M R R M M R M W s - X.s C Z Z e = C L @.=.6.v u b 1 ",
": N M R R R : % M ! ! : % % :   ! ! R M : M : M R M R M ; C ; C ; C C E E E e - N >.:.v *.v m ` ",
"R R R R ! M : : % % R %   :     ! M ! ! R R R M : M R ! L E C C E E W R ! C e ; - d #.h ] v p ( ",
"M R ! ! M   : % : % :     M % : R R M R R M M R R M N R C R ; C C R ! ! N X q 4 ; j b k ' @.a k ",
"M M : %     : M M : : M R % % : R ! M ! R R M : ! R R = M ; ; % M M : % X 3 [ C Z g b U $.h g g ",
"M M : % % : M R M %   % % : % : ! ! R ! M R : : R R M : M : R   N M : = q s Z E Z q <.-._ k d g ",
": : % % : % % : %   % : M M : % R R M R M ! R R M : : M M M R % : : = : d u e d q ) y c P I b 6 ",
"% M M M %     % : R R R R R M   ! R ! R R R : M : % R R : R R : $ s : Z *.4., t K W W Q Q Q H X.",
": M R R M : %   : M ! ! R M : : ! M R M R M M R M : R M : % M : ; C W W G g 6.< Z N &.&.Q F g <.",
"M M R R R M : % : % M M : % % : ! R M M N N R M R : M : % M M % C C E E W F 4.u h - N C s t X.g ",
"R R R ! M     : : % % M % % % M ! M R R = e C M R M M R % R R % E E E ^ C @ > X.e % $ C 9 5 5 N ",
"R ! ! M %     %   : % : % % : R R N R C e C ; ; : % % N M R M : R ^ ^ C = + o 3   : $ e - - e E ",
": : M %       : %   : : : : : M M s ; : ; s - s s : s : : * % : : : C * o o o : %   : ; 4 e e C ",
"! ! R ! ! ! R ! ! R ! ! ! R R M C e a 8 - o Z q @ e C L C 4 2 N ! ! R ! ! ! R ! ! R ! ! ~ E E C ",
"! R M R R ! M R M M R M R M M X 0 S 2. .5 Z q q H D D L E C 4 % ~ R M R R ! M R M M R M R M M   ",
"R M ! R R M M M : M R ! R E C = + 2.t s e e q g z 3.9.Y L e - o R N ! R R M M M : M R ! R R M $ ",
"! ! M R R M M R R M M R M E ; -  .t B C C d q C L +.o.9.a - e o ~ ~ M R R M M R R M M R M R : $ ",
"! ! R M : M : M R M R M : C ; C t C C E E L t * C ^ ;.l X.q e 4 ~ ~ R M : M : M R M R M : M : M ",
"! M ! ! R R R M : M R ! R E C C E E L E ~ M ; g w a Q q 6 g @ 4 ~ N ! ! R R R M : M R ! R R M M ",
"R R M R R M M R R M M R M R s C C E ^ ^ C o a 4 g f k 1 6 Z q t R R M R R M M R R M M R M R : M ",
"R ! M ! R R M : ! R R : M : : * C C : - o 4 { V K g g P T q * e R ! M ! R R M : ! R R : M : : $ ",
"! ! R ! M R : : R R M : M : R   N N ; = = e C L H w <.| 6 s w g ^ ^ R ! M R : : R R M : M : R   ",
"R R M R M ! R R M : : M M M R % : : = = : s w h = 6 e g Z Z d / E E C R M ! R R M : : M M M R $ ",
"! R ! R R R : M : % R R : R R : % : : C X.4.; e H L W W W W B  .$.E ^ E R R : M : $ R R : R R : ",
"! M R M R M M R M : R M : $ M : : N R W Z c 8., Z Z ^ ^ A C u 2.$.C E C R M M R M : R M : $ M : ",
"! R M M M M R M R : M : $ M M $ N M R E W G 3.t d w Z C t 8  .a ^ L C C M M R M R : M : $ M M $ ",
"! M R R $ : M M R M M R $ R R $ R R R ^ C o O [ ; ; a C 8 / / B ^ C E R $ : M M R M M R $ R R $ ",
"R M R M : M : : : $ $ M M R M : R ! ! C - o o 3 o ; q ; * = s E E C R N : M : : : $ $ M M R M : ",
"M : : : : : $ : : : : : : : $ : : : N % o o o e - o = s 4 s ; N C : : : : : $ : : : : : : : $ : "
};
