/* XPM */
static char *minecraft_n2[] = {
/* columns rows colors chars-per-pixel */
"64 64 177 2 ",
"   c #3E5B5C",
".  c #395556",
"X  c #1A6A6C",
"o  c #1B7274",
"O  c #1D7679",
"+  c #1E7A7D",
"@  c #2A6062",
"#  c #2F6B6D",
"$  c #376162",
"%  c #3B6364",
"&  c #306769",
"*  c #32696B",
"=  c #3E6C6E",
"-  c #356E70",
";  c #2B7779",
":  c #277B7E",
">  c #357275",
",  c #3A7473",
"<  c #36797C",
"1  c #3D7B7D",
"2  c gray28",
"3  c #4C4C4D",
"4  c #4E4F50",
"5  c #4F5151",
"6  c #405E5F",
"7  c #485D5E",
"8  c #545454",
"9  c #555758",
"0  c #56595A",
"q  c #5A5A5A",
"w  c #4E5E60",
"e  c #505F60",
"r  c #5C5F60",
"t  c #446364",
"y  c #4C6666",
"u  c #4E6864",
"i  c #476768",
"p  c #4D6C6C",
"a  c #536565",
"s  c #5D6263",
"d  c #546A66",
"f  c #5E6668",
"g  c #566C6A",
"h  c #5D6A6B",
"j  c #4F726C",
"k  c #55716D",
"l  c #446E70",
"z  c #5E6F72",
"x  c #4B7475",
"c  c #467877",
"v  c #547473",
"b  c #5A7474",
"n  c #5B7976",
"m  c #547B7D",
"M  c #5B7E7A",
"N  c #626363",
"B  c #636768",
"V  c #646A6B",
"C  c #696C6C",
"Z  c #636F70",
"A  c #6A6F70",
"S  c #637274",
"D  c #6B7273",
"F  c #627876",
"G  c #6E7877",
"H  c #647679",
"J  c #697679",
"K  c #657A7D",
"L  c #6B7A7C",
"P  c #717373",
"I  c #717778",
"U  c #717B7C",
"Y  c #7A7E7F",
"T  c #5A817B",
"R  c #52887F",
"E  c #51857C",
"W  c #6E817F",
"Q  c #64827D",
"!  c #1C7F81",
"~  c #287E81",
"^  c #387D80",
"/  c #4D7E80",
"(  c #527D80",
")  c #667E82",
"_  c #6B7F82",
"`  c #707F81",
"'  c #1C878A",
"]  c #1A898D",
"[  c #1A8184",
"{  c #169397",
"}  c #1B9497",
"|  c #17979B",
" . c #179A9E",
".. c #1A9599",
"X. c #2C8281",
"o. c #298E8E",
"O. c #228487",
"+. c #328482",
"@. c #328689",
"#. c #35898A",
"$. c #348E91",
"%. c #229B9C",
"&. c #339395",
"*. c #359B9E",
"=. c #3A9C9C",
"-. c #33979B",
";. c #189CA0",
":. c #369DA1",
">. c #19A3A7",
",. c #1AA7AB",
"<. c #1AA8AD",
"1. c #35ACAB",
"2. c #4B8488",
"3. c #4C8A8D",
"4. c #478886",
"5. c #518184",
"6. c #558B82",
"7. c #51878B",
"8. c #55888B",
"9. c #419086",
"0. c #44948D",
"q. c #5D958D",
"w. c #4F8E92",
"e. c #469B93",
"r. c #519296",
"t. c #5D9991",
"y. c #529498",
"u. c #5E9194",
"i. c #648283",
"p. c #6A8285",
"a. c #6B8589",
"s. c #628A89",
"d. c #6D898C",
"f. c #728586",
"g. c #7B8080",
"h. c #72878A",
"j. c #66928B",
"k. c #718E93",
"l. c #649C94",
"z. c #6A9891",
"x. c #679898",
"c. c #749897",
"v. c #7C9E9A",
"b. c #4AA19A",
"n. c #42A29A",
"m. c #56A49A",
"M. c #5AAB9D",
"N. c #55A394",
"B. c #62A39B",
"V. c #7FA09B",
"C. c #48AEA6",
"Z. c #43A3A4",
"A. c #49B0A9",
"S. c #5FB3A6",
"D. c #58B3AE",
"F. c #48B0B2",
"G. c #66A7A0",
"H. c #67ABA8",
"J. c #71A6A2",
"K. c #60B4A7",
"L. c #62B6AA",
"P. c #73B4AE",
"I. c #76B9AF",
"U. c #78BAB1",
"Y. c #77BBBA",
"T. c #81908F",
"R. c #839291",
"E. c #849997",
"W. c #8BA19E",
"Q. c #87A5A1",
"!. c #91A7A4",
"~. c #8DBDB6",
"^. c #8EBFB8",
"/. c #9AB7B2",
"(. c #8FC0B9",
"). c #A3C2BE",
"_. c #A5C4C0",
/* pixels */
"N q q q B q 9 8 3 8 8 8 2 4 8 8 0 B C C B B N N N N r 8 8 4 8 q 4 3 3 4 4 8 q q q 8 q N N N N N q 8 3 8 8 8 3 2 3 8 8 q 8 8 q 8 ",
"q q 8 8 q 8 8 r q r N r 8 8 8 8 8 0 q s N r q r q q q 8 8 8 8 q 8 8 8 8 3 3 3 q q 8 q q q q q q 8 8 8 8 q q 8 8 8 3 3 3 q q 8 8 ",
"q 8 8 5 9 t t N N q r q 9 9 8 8 j i 7 q N q 8 q 3 8 8 8 8 8 8 8 8 8 8 8 3 3 4 q 8 8 8 8 8 8 3 8 3 8 q 8 8 8 8 q 8 3 3 3 q 8 q 8 ",
"q 8 4 3 3 ~ @.B q 4 4 3 9 8 8 3 M.+.- N r q q 8 3 2 3 3 4 8 3 3 8 4 4 8 q q q 8 q q q q q 3 2 2 8 8 3 8 2 3 3 3 3 q q q 8 q q 8 ",
"N N B C q J _ D 8 6.0.o a.L D B p.D B r 8 8 q 8 N N r q N q 8 8 N N q q 8 q 8 8 8 8 8 8 q q N N 8 N q q q N N N 8 q q 8 8 8 8 3 ",
"9 q s B V V V s 5 n i.5.S B B C U N q 0 q 8 8 q q 8 8 8 8 q 8 8 q N N N N q q 8 8 8 8 8 q q q 8 8 8 8 q 8 q N N N N q N 3 8 8 8 ",
"8 q N B V f V L v Z S L B I W Q C q 8 8 q 8 8 q q 8 8 8 8 8 q 8 8 q q q q q 8 3 8 q 8 8 q q 8 8 8 8 8 8 8 q q q q q q q 3 8 q q ",
"q B D B s r U _.L.v 0 N r E.~.K.q 8 4 8 N r q N 8 q 8 q 8 q 8 q q 8 4 8 3 3 3 2 3 q N 8 N q q q 8 8 q q 8 8 8 3 8 3 2 8 2 8 8 N ",
"8 9 B I ).U.A.,.,.' 1 d.B #...+ N r q 8 q 8 8 8 8 N N N N 8 q N N 8 8 3 8 8 q q 8 8 8 8 q q q N N N q 8 N N q 8 3 8 8 8 q q q 8 ",
"N 9 9 s R.c.x.u.r.7.m h q m 5.5.q N N C C 8 4 8 3 3 8 q 8 3 8 8 q q 8 8 3 8 8 q q q 8 3 8 3 3 3 8 8 8 3 q q q 8 8 3 8 8 q 8 q q ",
"r d p = U f.f.I F F J L v Z S H q q N C N q q q 4 4 8 8 3 8 q 8 q q 8 8 3 8 8 8 q 8 q 8 8 8 3 3 8 8 3 8 8 q q q 8 8 8 8 q 8 8 8 ",
"5 R n.| a.J V q r 9 G ).K.M q q 8 q q N 4 q N N N q q N 8 q q N N N q q q q q q 8 8 q N N N N q N q q q N N N N 8 q 8 8 q q 8 8 ",
"q F ) ) q 8 4 q q q.A.,.+ + < ) N C A P q 8 q q N q q q 8 N N N N q q q N N N N N q q q q q q q q 8 q N N N q q q q N N N N q q ",
"8 s h s a , > 9 8 S s.y.8.m b a 8 0 q r 8 3 8 8 8 q 8 4 8 8 4 4 q q 8 8 q q q q 8 8 3 3 8 q q 8 8 8 8 8 8 8 8 q 8 q q q 8 q 8 8 ",
"5 0 q 9 s c 1 q 0 B D a.p.D V v . 0 q q 8 3 4 q 8 8 q 8 8 8 4 3 8 8 q 8 q q q 8 8 8 8 3 q 8 8 q 8 8 8 8 3 8 8 8 8 8 q q q 8 8 8 ",
"r r r 0 s N N C C C A I r 0 b K.; f N N 8 q q 8 q q q 8 N N r q 8 q q 8 q q N N q q N q 8 q 8 q q q N N 8 q q q q q q N N q q N ",
"r 9 q A 5 8 8 N C q C M.).I.C.>. .[ * B 8 8 8 8 4 8 8 q N q 8 4 8 8 q 8 2 2 2 3 8 8 8 8 8 8 8 3 q q q q 3 8 8 8 q 3 3 2 3 3 8 3 ",
"N N V L 6., % 8 q q N W 3.n.=.w.3.x a q 8 q r q 8 8 4 8 q q 8 4 3 8 8 q 8 3 8 8 q N q N q 8 8 8 8 q q q 3 3 8 8 q 8 3 3 8 q q q ",
"q N B b t.c t 9 q q N N - +.9.H z N q 8 q q r N 8 8 8 8 q q 8 8 8 8 8 q q 8 8 q N N N N q q 8 8 8 8 q 8 8 8 8 8 q q 8 q q N N N ",
"9 8 5 8 ) A B C N q q q N S z q 4 5 8 3 q 8 q 9 8 8 8 q 8 q 8 q q 8 8 q 8 N N N N N q 8 q 8 8 q q 8 q q q q 8 q q 8 q N N N N N ",
"q q 9 q 9 9 0 9 8 q q q 8 q q q q q q N N q q q q 9 q 8 8 8 8 8 8 N N N q q 8 8 8 q 8 q q q 8 q q 8 8 3 8 8 q N N q 8 q 3 8 q q ",
"r r r N s q 9 5 8 q q 8 3 3 8 8 8 q q q q r q q q r q q 8 4 8 8 8 8 8 8 8 8 q q N q N q q N N q q 8 8 8 8 8 8 8 8 8 8 q 8 q q 8 ",
"r r q q r q 9 3 8 8 8 8 3 8 8 3 8 8 q 8 8 q q q 8 q q 8 9 q q q 8 8 8 8 8 8 8 q N q q N N q q N 8 8 8 8 q 8 8 3 8 3 3 8 8 q 8 8 ",
"q q 8 8 q 8 8 8 8 q q 8 q q 8 2 2 8 q q 4 8 q q 5 8 8 3 B N N B N q q 8 8 3 3 2 8 8 8 q 8 8 8 q 8 8 q 8 8 q 8 8 q 3 2 2 q q 8 8 ",
"8 8 8 2 2 3 4 8 4 2 3 4 8 3 8 8 q q 8 q 8 q 8 8 3 2 6 } f s 8 3 3 8 8 8 3 E R X 8 q 8 q 8 3 2 2 3 8 3 8 3 3 3 8 3 8 8 q q 8 q 8 ",
"q q q q q 8 q q q 8 q q q 8 8 q q 8 8 4 8 q q q q 8 a 5.C r a R 3 N C N 8 T E i 8 8 8 q q q 8 q 8 q q 8 8 q q q 8 q q q 8 8 8 8 ",
"8 q q q q q q q q 8 q q N q q q q 8 4 8 8 q q N N r N H B 0 d q.r k C N r Z Z r 8 8 8 8 q q q q 8 q q q 8 q N N q q q q 3 8 8 8 ",
"4 8 q q 8 4 3 8 8 8 8 q N N N N N 8 4 q q 8 8 q r r N s 0 9 s J W C r q r B N 8 q q 8 3 8 q q 8 3 8 8 8 8 q q N N N N N 8 8 q 8 ",
"q q q q 8 q q 8 q q 8 q 4 4 3 2 8 3 3 8 N q q C N s r 0 ).I.q.0 B q G /.N.k 5 3 8 q N q N q q q q q q 8 q q 8 3 8 3 3 3 2 3 q N ",
"8 q q q N q q N 8 q N N 3 8 8 3 8 8 8 8 q 8 8 N A T.V.t.F.1.&.# L V m Z.+.u 9 8 8 q q 8 q q q q q N q 8 q N q 8 3 3 8 8 8 8 q q ",
"3 8 8 8 q q q q 3 q q q 8 3 8 3 8 8 q 8 q 8 q 8 B T.Q.B.=.=.&.1 F V v $.> u q q q N q 8 8 8 8 q q q q 3 q q q 8 3 8 8 q 8 q q 8 ",
"4 8 3 2 2 3 3 3 8 3 8 q q 8 3 8 8 8 q q q N q 8 8 B L d.g.a.d.k.0 0 s G K s r N P P N 3 3 3 2 2 8 3 3 3 8 8 q q 8 3 3 3 q 8 q q ",
"N N N N 8 N q q q q N N N N 8 8 q q 9 9 8 3 a m...3.F C r 0 0 9 _.U.j.s 0 0 9 9 N q q N N N N q N q 8 q N N N N q q 8 q 8 8 8 8 ",
"q q q N q q q q N N N N q q q N q r N N 8 8 a q.2.b f 8 r 0 g R F.=.+.* b B B B C q q q q N q q q q q q N N N q q q N q N N q 8 ",
"q 8 q q 8 8 8 8 q q q N 8 8 q N r r q r 8 8 0 S z s e $ q 8 d q.*.#.< - z B N B N q 8 8 q q q 8 8 q q q q q q q 8 q N N q q q 8 ",
"2 8 8 8 q 8 3 8 2 2 2 8 q 8 8 8 q 8 5 3 8 3 8 r 0 9 l { 8 4 q C i.a._ D 5 3 3 8 8 3 3 2 8 8 8 q 4 4 3 2 2 3 8 8 8 8 8 q 8 8 3 8 ",
"q q 8 q 8 q q N N q q q q q 8 q N N q q B q q r s N s q C C C P D B s 0 S.#.> N N q q q q 8 8 q q N N N q 8 q q q 8 q N N q q N ",
"q 8 8 8 8 8 q N q q 8 8 8 q 8 4 4 8 8 8 q q r q V s q 8 N C B r l.V.v.q.1.%.O.& N q 8 q 8 8 8 8 q q N q 8 8 8 8 8 8 3 8 8 8 8 q ",
"q q 8 8 3 8 q N 8 8 3 8 8 8 8 4 3 3 4 q q s s s G b p 6 9 r N q l.J.H.C.*.-.@.& N 8 8 q 8 8 8 4 8 q q q 3 8 8 8 q 8 3 2 8 8 8 q ",
"N N q 8 8 3 8 8 q 8 3 3 8 8 q 8 4 4 8 N C C C C d.B.e.O 4 8 q N Y 1 ' ,.d.p.H N q q q N N q 8 4 4 8 q q 8 3 3 8 q 8 8 8 8 q N N ",
"q q 8 8 8 8 q q q 8 q 8 q q q q N N N N N N q 8 9 H L C C C B r N C D K q 9 8 8 5 8 q q q 8 4 q 8 q 8 q q q q 8 8 q q N N N N N ",
"q q q 8 q q q 8 4 8 8 q N q q q q q q q q q q q q N f r r q q N q r s s q 9 8 8 q r r 8 q q 8 q q q 8 8 8 8 q N N q q q 8 q q q ",
"q q q q q q 8 q 8 8 8 8 q q q 8 8 8 8 q q q q q q q q 9 8 5 8 r 9 8 8 8 8 9 q q N N N q q q q q q 8 8 3 8 8 8 q q q 8 q 8 8 8 q ",
"N N N N N q 8 3 3 8 8 8 2 3 8 3 q 8 q q 8 r r q q r r 8 8 8 8 q 8 3 3 8 8 q q N N N N N N N N N 8 8 8 3 8 8 3 2 8 3 8 8 q q 8 q ",
"q 8 8 8 q 3 8 q q q 8 q q 8 4 3 2 8 q 8 4 8 q 8 5 9 8 3 N B N B B q q 9 8 3 3 2 8 q 8 q q 8 8 q 8 8 q q q q 8 8 8 3 2 2 q q 8 8 ",
"q q 8 2 8 8 8 3 8 4 3 8 4 8 8 4 8 q 8 q q 8 8 8 3 3   : C N q 8 9 8 8 q 3 j c @ q q q q 8 4 3 3 8 3 8 8 3 8 8 8 8 8 8 8 8 q 8 8 ",
"8 q q 8 3 8 8 8 4 3 4 8 8 8 8 q q 8 q 8 q q q q 5 8 i $.C q 0 u . w s q 9 T 4.& q q q 8 q 8 8 8 8 q 8 3 3 8 8 8 8 8 8 q 8 8 8 q ",
"8 q q N N q q N q q q N N q q q 8 8 4 3 4 q N N B N Z d.C 9 u N.X x K P B H D B 8 8 8 q 8 r N r q q q q q q N N q q q 8 8 8 3 8 ",
"8 8 q q 8 3 3 8 q 8 8 8 N N N N r 8 8 q q 8 8 9 r N s s 0 9 0 B i.Z B s B P C 8 q q 8 8 q q 8 8 3 8 8 q 8 8 q N N N N N 3 8 8 q ",
"8 q q 8 q 8 8 8 q 8 8 q q 8 8 8 q 4 3 8 q 8 q r N N s s W.z.m 8 V B I Q.l.F q 3 8 q q 8 q q 8 8 8 8 8 8 8 q q 8 8 8 8 8 3 8 8 q ",
"q q q q q q q q 8 q q N 8 3 3 3 8 4 4 8 r q q q B I W M Y.D.0.  Z B i.Y.b.b q 4 8 q q q N q q q q q q 8 q q 8 8 8 3 3 8 3 8 q N ",
"8 8 8 q N N N N 3 q N N 8 8 3 8 8 q q 8 q 8 4 8 C !.^.L.<.<...o a.D m ,.[ p N N q q 8 3 8 q q N N N q 8 N N q 8 3 8 8 q q 8 q 8 ",
"3 8 3 2 2 3 3 2 8 8 8 8 8 8 8 3 8 8 q q 9 B s 5 8 B U k.g.f.p.p.5 5 s I g.P N N P P N 8 8 2 2 2 8 3 3 3 8 8 q q 8 3 3 8 8 8 q q ",
"q q q q 8 q q 8 8 q q N q q 8 8 8 q q 8 8 8 d 6.X.m K J C f a s E.j.T B P N q q N N q q q q q 8 q 8 8 q q q q N 8 q 8 8 q q 8 8 ",
"N q N N q q q q q N N N N q q q r q q q 8 8 g t.&.( Z s r 9 0 u P.m.4.i C N N N N q q q q N q q q q q q N N N q q q q N q q q 8 ",
"8 q q N q 8 q q N N N N q q q N N N N N 9 q B p.p.B 9 3 r q v N. .[ O O P P P P P N q q q N q q q q q N N N N q q q N N N N q 8 ",
"2 8 8 8 8 8 8 8 2 2 3 3 q 8 8 q q 8 4 8 3 4 8 r 9 q c | 8 5 q A a.d.h.U 8 5 5 8 q 8 8 2 q 8 8 8 8 8 3 2 3 3 8 q 8 8 q q 8 8 8 3 ",
"8 q 8 8 q 8 8 q q 8 8 8 q 8 8 q r q q 8 q q q N r B h x N N B C ` H Z s q., t N N q 8 8 q 8 8 q 8 q q q 8 8 8 8 8 q q q q 8 q q ",
"q 8 8 8 8 q q N N q 8 q q 8 8 8 q q q 8 q q q r C B s r V A C B d.f.W n A.o.; p C q q q 8 8 8 8 8 q N N 8 8 8 q 8 8 8 q q 8 q q ",
"q 8 8 3 8 8 q N q 8 3 3 8 q 8 2 3 3 4 8 8 8 q r U B 0 0 f C B 9 K.~.(.L.,. .] X N q 8 q 3 8 8 3 8 N q q 3 8 8 q q 3 2 2 8 8 3 8 ",
"q N N q 3 8 8 8 8 8 3 8 8 8 q 8 4 8 q N N N C I k.B.b.: 9 8 q B W 1 ] ,.a.K H s q 8 q N N q 8 8 8 8 q 8 8 3 8 8 q 8 q 8 8 q N N ",
"q q q 8 8 8 8 q q q 8 8 8 q q q q N q N N N q q Z s.q.v B N N s C k m w.f s 0 8 8 q q q q 8 8 8 8 q q q 8 8 8 8 q q q q q N N N ",
"8 q 8 8 q q 8 q 8 8 8 q q q q 8 q q r r r q 8 8 q Z Z B B N N N q N V D q 8 8 8 8 q q 8 q 8 8 q q q 8 8 q 8 q q q q q q q q N q ",
"q q 8 q 8 q q 8 8 8 8 q N N q q 9 8 8 9 q q q q q q q q 8 8 q N 9 q 8 q 9 q 9 9 N N N q q q q q 8 8 8 8 3 8 q N N q q q 8 8 q q "
};
