/* XPM */
static char *minecraft_s5[] = {
/* columns rows colors chars-per-pixel */
"64 64 153 2 ",
"   c #160F07",
".  c #171008",
"X  c #1C140B",
"o  c #1E1B18",
"O  c #261C11",
"+  c #211E1C",
"@  c #2B2114",
"#  c #27231E",
"$  c #2C251D",
"%  c #322617",
"&  c #382B1B",
"*  c #3F311F",
"=  c #242423",
"-  c #292622",
";  c #2D2C2C",
":  c #322C25",
">  c #322E2B",
",  c #3D3523",
"<  c #35342B",
"1  c #3E362C",
"2  c #393D2D",
"3  c #343334",
"4  c #3C3C32",
"5  c #383738",
"6  c #3E3D3E",
"7  c #422F18",
"8  c #4D3920",
"9  c #43392E",
"0  c #443D34",
"q  c #403D39",
"w  c #394027",
"e  c #3A4229",
"r  c #3E4B2D",
"t  c #3E4332",
"y  c #3E413B",
"u  c #5D401F",
"i  c #404D2C",
"p  c #44542C",
"a  c #414635",
"s  c #4C4134",
"d  c #424C33",
"f  c #42453C",
"g  c #454D3B",
"h  c #494D3E",
"j  c #534739",
"k  c #455134",
"l  c #485632",
"z  c #4C5A35",
"x  c #4A543B",
"c  c #4E5B3A",
"v  c #505E3A",
"b  c #6C4B23",
"n  c #7A582E",
"m  c #7F5E34",
"M  c #54623B",
"N  c #403E40",
"B  c #3E4441",
"V  c #444444",
"C  c #484540",
"Z  c #474946",
"A  c #4B4D45",
"S  c #484748",
"D  c #464A4B",
"F  c #4C4C4C",
"G  c #4D5344",
"H  c #4C5A42",
"J  c #4F534A",
"K  c #4D594C",
"L  c #505342",
"P  c #5F5346",
"I  c #535C43",
"U  c #51554B",
"Y  c #555B4D",
"T  c #4A4F50",
"R  c #504F50",
"E  c #4C5354",
"W  c #4E5D54",
"Q  c #4C5658",
"!  c #4F5A5B",
"~  c #535354",
"^  c #5D5652",
"/  c #555953",
"(  c #5A5C54",
")  c #555658",
"_  c #585758",
"`  c #545B5C",
"'  c #5A5A5A",
"]  c #605447",
"[  c #65594B",
"{  c #4D6149",
"}  c #556344",
"|  c #586147",
" . c #53644D",
".. c #5A634C",
"X. c #4F6557",
"o. c #4F6558",
"O. c #536355",
"+. c #5D6154",
"@. c #566952",
"#. c #586B52",
"$. c #54645B",
"%. c #5A645D",
"&. c #566C5F",
"*. c #5A6E5E",
"=. c #606357",
"-. c #62635C",
";. c #4F5E61",
":. c #555E61",
">. c #5A5F60",
",. c #605F60",
"<. c #556265",
"1. c #5B6264",
"2. c #5B6C63",
"3. c #56666A",
"4. c #5C6669",
"5. c #5C696C",
"6. c #5E6C70",
"7. c #5C7277",
"8. c #636364",
"9. c #626865",
"0. c #626669",
"q. c #686668",
"w. c #626A6C",
"e. c #6C696C",
"r. c #60726E",
"t. c #636E71",
"y. c #6B6E71",
"u. c #637175",
"i. c #697377",
"p. c #647478",
"a. c #6A767A",
"s. c #64797E",
"d. c #68787B",
"f. c gray44",
"g. c #72767A",
"h. c #805E34",
"j. c #85653A",
"k. c #937245",
"l. c #647E83",
"z. c #6A7E83",
"x. c #768286",
"c. c #72878C",
"v. c #74888D",
"b. c #678990",
"n. c #6C8D94",
"m. c #778B90",
"M. c #7E9197",
"N. c #769399",
"B. c #78959B",
"V. c #77989F",
"C. c #818181",
"Z. c #8BB3BB",
"A. c gray69",
/* pixels */
"6 ~ 8.,.8.q.i.b.e.e.e.e.e.q.q.e.e.e.e.e.Z.$.i M v ( +.M n.a.+.p M M M M c c l p e.q.' _ _ _ 5.b.U R F S R _ t.V.~ / ' 8.8.8.8.8.",
"6 ~ ,.,.' ' w.l.>.,.8.q.8.q.8.q.' q.q.e.x.U i l l Y ' Y p.9.' Y l c M v M l c Y ' q.8._ _ / ` 7.D ~ / ~ ~ >.4.t.~ ~ ' ' _ ' ' ' ",
"6 ~ ' ' ' ' 4.p._ ' ,.' ,.' ' ,.' ' ,.q.e.G i p x G / ' 5.1.%.' p c v z M k x ' ' q.8._ _ ~ _ <.T ) ) ~ ) <.1.~ ~ ~ ~ / ~ _ _ _ ",
"6 ~ ' ' _ ' w.l._ ' _ _ ' _ _ _ ' ' ,.,.e.R f p ' h x 8.*.5.1._ p z z p c k g ' ' q.q._ _ _ _ _ 5._ U R U <.` E ~ R ~ D J ~ ( _ ",
"6 F ~ R ' 1.p.B.,.' _ ' _ _ _ _ ,.' _ _ e.T y i ~ ~ ~ R ' w.5._ R I I ,.r J ) _ ' q.,.R F / w.N._ _ ' 8.8.w.2._ 9.' ' 0.8.' ' ' ",
"6 F _ ~ ) 1.t.l.~ _ _ ' ' ,.' / _ ~ U ) e.F C U ~ _ ) ) ' %.%.' _ x c ' G U U x ~ ,.q.) ~ / 1.z.,.,.8.8.' 1.1._ ~ ~ _ ' ' ' ~ ~ ",
"6 T _ ' ) >.4.6.~ ' _ ~ ' ' _ ~ ~ F F ~ q.F C ~ ) U G A Y O.O.U _ L G _ R J x d ~ ,.q.' _ ~ _ 7.' ' ' ' ' 1.1._ / ~ / _ _ _ ~ ~ ",
"q F ~ ' 3.) ` 5._ ' _ ~ ~ R ) R _ R F R ,.g a ~ _ g r r v @. .p ) R ~ _ ) x p r ~ ' ,.8.R F E 5.F R ~ ~ _ 5.5._ _ _ _ _ _ _ ' ' ",
"q V D D <.E E <.F S Z D F Z F Z Z D Z D A g g ~ ' ~ G r r { { p i A R ~ F d r r ~ ~ ) _ _ _ %.5.~ T R U 8.t.4.E 8.8.,._ ~ ) ) R ",
"V V F ` J Z E <.V C V V V V V Z V V C V V V f D A f t e r &.2.y 6 V S S V a e f S D F _ _ _ ` 5.R R ~ _ ' a.p.J ~ / ) T A ~ ~ R ",
"~ ~ ` 5.~ T _ 4.~ F S 6 6 F ~ J F R R R ~ G A h A A g h A r.5.y N 6 C R R A h f A h J ~ _ _ ' 5.~ ~ ~ ' ' a.i.) R ~ ~ A ~ _ _ / ",
"e.e.y.d.e.e.e.e.d.0.~ 6 6 ' e.e.e.e.e.e.e...M M c -.e.e.e.i.1.6 6 6 F e.e.e.-.v M M I R _ ' <.5._ _ ' 8.9.8.0.5._ ' 8.' 8.8.8.,.",
") 4.4.,.,.,.' _ u.0.~ 6 _ _ ' ,.,.,.,.8.~ c Y ,.,.-.,.,._ ' 8.u.6 ~ _ _ %.,.-.,.-.x x _ 8.8.9.u.8.' ' 8.9.8.4.5._ _ _ _ 8.' _ ~ ",
"4.>.>.,.,.8.' _ >.w.>.6 ) _ ' ' ,.,.' ' ' ( U c ,._ ' ,.~ _ 0.i.6 F ' ' ' ,.,.' ' ( Y ~ _ ~ 1.5.' ~ _ -._ ~ _ 3.~ ~ ~ _ _ _ ~ F ",
"w.' ' ' ' ' _ ) ' w.4.6 R ~ ~ ' ' ' ' ' ' ' U i ' _ _ ' ) _ 1.a.6 F ~ U _ ' ' ' ' ' ' _ ~ _ <.1.' ~ ~ ' ~ J ` 5.~ ~ / _ / _ / F ",
"8.' ' ' _ ) ~ ' ' w.1.6 Z R ) ' _ ,.,.,._ ' U i ' _ _ R _ _ 1.a.6 Z g p _ _ ' 8.8.' ,.8._ w.w._ ~ ' _ ' _ _ 1.i.8.' _ _ _ _ _ _ ",
"~ R ) _ _ _ _ R ~ 4.<.6 ~ ~ _ ~ _ _ _ _ _ R R ~ _ ' ,._ M v  .i.q F J p ) ~ _ ) _ _ ~ R Z ` _ S D ~ _ _ T ~ 1.i.8.' ~ ~ J _ _ _ ",
"R ~ ~ _ ~ ~ ~ ~ ~ 4.>.6 ~ ~ F R ) U U ~ ) ) ~ ' _ _ _ ~ ( v  .u.6 F G p x J ~ J ~ ~ ) R F :.<.R ~ _ ~ U ~ ~ ' 6.' _ _ ~ ~ ' -.1.",
"R ~ R / R R R R ~ 4.:.6 T F Z A R F F R R R R ~ _ ~ R R U c Y 6.6 T U x p h A A R U J ) >.<.1._ _ _ _ ~ ~ ~ ` 5.' _ ~ ~ _ ' >.,.",
"D D F Z F D A S F ! Q 6 D F D S D Z F Z S F R ~ R F R ) r r H 4.N R ~ ~ p i r r D D ~ q.i.0.8.8._ ' ) ' _ ' >.w._ _ ~ ~ ~ _ _ ' ",
"V V V C C V V V 6 Q E 6 6 V V V V V V V C t 2 2 V V f e w w 4 q :.D 6 V e 2 w e 2 a S _ 5.) E _ _ %.,._ _ ) ) ~ 6.' _ ) _ ' _ _ ",
"E ~ R ~ ~ F F F V ` :.J D F F ~ ' ' ' ~ _ A A ( _ ' ' ( Y _ ( ' 0.>.:.) ( ^ ( ^ ( ,.^ a 2.Y Y %.I | ..q.x c I } 2. .I I x ( 8.' ",
"~ _ _ ~ ~ R R ~ F ` 1.1.~ ~ ~ _ %.,.' 8.8.F U q.' 8.8.8.' ' ,.q.q.0.4.8.,.8.8.q.8.q.%.d  .c I %.| I ..8.G c c M #. .} l x ( 8.8.",
"U ~ / R F D F ' ) ~ %.7._ _ ~ R _ ~ ~ ' _ V C _ _ ' ' ' F F F _ ~ ) >.6.D / ~ ' ' 8.0.$.p p c _ _ _ _ _ <.x p v v #. .i ' ' ,.e.",
"_ _ _ ' ' _ ~ ~ ~ >.` F 5.` E F V F F ~ _ V V F ~ F D C V V ~ f.A.8.D ;.6 V C V ' ' 1.;.p J J r 8.I I / _ x l z p  . .r ~ ' 8.e.",
") R ~ ) _ ' _ ~ 4.4.1.~ ' 1.1./ ' ' ' ~ _ S C T ' F F ' ' ' q.f.C.8.) 5.' >.) 6 F ' >.:.i G ~ J _ / ( ' _ Y L z Y O.X.A _ ' 8.e.",
"~ ~ R ~ ~ ' ' ' i.0.,./ _ 1.4.` ' -.' ' ~ S V / 8.F R 8.%.8.q.e.e.' 1.t.q.e.' 6 J 1.<.E h J E ' ) Y Y ( _ _ U z ' <.` ~ U ~ ' e.",
"_ _ / R R ' q.q.i.0.' R ' ' ' 4.R ~ _ _ T C S _ ,.F V Z _ ' ,.q.q.' ) 3.~ q.' 6 _ w.1.y _ J F ' _ L z p _ _ U p ) >.1.~ p L ' e.",
"8.~ F V ~ F F R 3.` _ _ _ _ _ ' t.>.' 8.' V S _ ,.F S ~ _ R [ k.b 0 D <.R ,._ N ' t.%.2 ~ _ U r p p p p p G R ~ _ _ ) o.i J ) ,.",
"' _ ~ ~ ~ J R R <.1.%.8.~ ' -.1.0.0.4.' ~ V V ~ q.~ S F ) R ] j.8 1 6 T >.>.) 6 F 4.%.r ) ) ~ L i p p p p k G R ~ ~ E o.r A ) _ ",
"_ _ _ ' ) ~ R R <.2.2.' U ~ ' ' ' >.<.' ~ V V R e.R V F R F ] h., : 3 N :.1._ 6 / 4.' a R F A D r i i i d d f F T F J o.t Z F R ",
"_ _ ( ' ~ F R R _ w.1.R ~ F F ~ V Z E 5.~ V V D e.F V ) C F P h.O - ; 6 F w.4.6 5.4._ V V V a w w * * 2 6 6 6 q V V Z X.6 N V C ",
"~ ~ _ ' ' ~ ' _ 8.u.w.8.8.' ' 8._ 8.8.8.p.T S R e.F C D 5 q j h.% # ; 5 R 4.:.6 <.1.+.M M v ..q.e.e.q.,.q N S ,.e.e.y.d.v M M c ",
"~ ) ' -.%.8.' ' ' w.w.8.8.' ' ' ' ' ,._ t.T V R e.F N S N q 0 b O > 3 3 R >.>.Q 3.0.=.v +.( ( q.q.' ,.,.' S S ' ' q.0.a.^ ( Y l ",
"~ _ _ ' ,.,.' ' _ w.w.' ' ' ) ) _ ' ' ) t.T V ) q.F N V 5 5 9 u O > 3 3 T >.4.3.>.8.8.I Y ,.,.' ,.' ' ' q.R S _ _ ' q.u.' ,.+.c ",
"J ~ R R ' _ ~ / _ 1.` Z D R R U _ ~ ~ ` :.D V ~ ,.S N N 3 > : 7 O ; 3 5 R ,.y.7._ 8.q._ p Y ^ ~ ,.' ~ ' e.F S _ ' >.,.u.' %.%.&.",
"8.' ' 8.8.' ' _ _ <.1._ _ %.8.' _ _ _ _ 6.D Z ) q.F V V 3 ; > b X = ; 3 V ,.y.7.' q.q.,.p U _ _ R _ _ R e.F C D _ _ >.t.,.q.,._ ",
"~ ~ R ' ~ ~ ~ _ 5.%._ ~ _ 8.' ' ~ ~ ~ ~ 6.T S ~ %.F V V = = : 8 . o = 3 6 T :.5.~ q.,.~ J ~ ' :.~ Y I L 8.F V R x U >.t.' ' ' ' ",
"~ ~ ~ F R R ~ >.1.) J E _ ' ' ~ U ~ ~ / z.! D ~ %.~ S S ; ; ; 7   + ; 5 6 E 3.6.' q.1.~ ~ _ ' :.R Y v v ,.S V R k U ' <.~ ) ~ _ ",
"8.9.' ~ R ) :.6.R U R R _ ' _ U T ~ ' 9.B.6.) ~ ' >.' ~ N N q ,   > N N R >.y.z.,.<.` ~ _ _ ~ ) ~ _ ( M <.D V R p $.<.R D U ~ ~ ",
"' 8.w.i.u.6.1._ _ _ _ ~ _ _ _ _ _ ) ) 3.c.6.Q Z F F V N 5 > ; ; ; ; 3 ; 6 ~ <.s.) ' ' F W E F F R x d 6 6 d x ' p { K r D F Z F ",
"~ 4.0.` 1.' ' 1.1.' _ / ~ _ _ ' _ ~ ' 5.c.6.E B N N N 3 3 = = = = = = - 3 N E <.) E S 0 B C A k a a 2 9 N f f S g K H e t t t Z ",
"U $.$.L ' / +.+.8.( U J I Y Y / Y _ %.w.c.5.E T F S V N 5 3 ; = ; > > > 5 V ) <.<.T h 9 V Z Z c a q q 9 S S S V F W W g g g A J ",
"$.} M v ,...M M e.} p v M M M M v  .*.q.m.` T u.,.' _ >.~ R N 5 N N S F S >.y.d.t.~ S ' _ _ _ _ R ~ T F _ ' ~ ~ _ 1.4.8.8.8.8.8.",
"i p p p / ~ _ _ _ _ U p M c v M $.>.,._ M.:.T 6.,.' _ _ N N N 5 N N N V 6 F >.6.6.Q F ) R ~ ~ F ' ' ~ ~ ) ' _ ~ 5._ ~ _ ~ _ _ _ ",
"y d k Y x / ( I _ _ U p M z z M $.' _ ' g.T F 6._ R R ' F S S F ) ) U ~ V S E 5.>.1.1._ ) _ ~ ~ ~ ~ ~ ~ ~ R ~ ~ 5.) T U E ~ _ _ ",
"6 d x ~ k / ( I ' _ U x c c c H ` / _ >.e.T D >.>.F F R F F R _ ' ' _ _ N T ) 1.~ 4.w.~ ~ _ / _ _ ~ ~ _ ~ U E ~ 6.` ~ ~ ~ _ _ _ ",
"6 t h R R ) ~ ~ -.' ~ _ c ( %.X._ ~ ~ ~ e.T V ~ 6.R V V V R _ _ _ _ _ _ N <.y.,.V :.:.R R R ~ _ _ ,.8.9._ _ _ _ t.1.' 9._ ( _ _ ",
"6 R ~ D F ) U z z l x _ p $.5./ ~ g x ~ q.F V F R 1.>.V R _ _ R _ R F V 8.w.1.R _ t.t._ ' ~ ~ 9.8.9.8.8._ ~ ~ _ 5./ R _ _ _ ~ / ",
"5 F ~ R x g g l l l x ~ O.` ` _ x k k ~ ' F N R V T ) >.R R R R R R F R _ 4.>.R ) >.w.5.~ F F _ ~ / ~ / _ ' _ _ 5.` / ~ ' _ _ ~ ",
"t A ~ R x i i p p p x / :.) ~ ~ p r f R R V V R N S E 6.R R R F D F F R ` :.` R R _ >.t.~ J J ~ A F R ~ ' ~ ) ~ 6.1._ ) ' ~ ~ _ ",
"p U _ _ ~ k r p p p z X.F ~ E J r r g S ) V N V V S E 6.F R R F S D T T 1.T D S D R ` 5.' ) _ _ T R R R q.~ ~ R u.w.%._ ' ~ F ~ ",
"p f N N 5 3 3 2 $.! E y 6 V V V 7 4 N V V V V V V V T :.N N q N q q V V :.T N N C V R t._ _ _ ~ ~ ) _ ' _ ~ ~ J F ` ` Z A R R ~ ",
"v c c x ' >.>.%.9.1.E 6 Q ' ' >.( L x v c ^ ,.' >.>.>.6.N R ) / d f S T 4.T T >.' ,.>.6._ ' _ ~ ~ _ ' ,.8.' ' ~ ~ 4.4.~ ' >.' ' ",
"v | | I e.y.y.t.0.8._ 6 :.8.q.q.q.( I ..c -.q.q.q.q.q.w.T E _ ' k V F ' 1.) _ ,.q.q.0.<.1.' ' ' ' ' ' -.8.8.-.' _ 5.4._ 8.8.8.,.",
"z +.8.,.u.0.>.) _ 8.' 6 _ _ _ ) 8.,.,.-.p Y ' _ ,.,.' R :.H x ~ 6 V ) u._ ' ,._ ,.' _ _ i.0.8.q.8.' ' _ 8.8.8.8.' 1.1._ 9.' _ _ ",
"~ x v 8.5.0.' ~ ~ 8.' V ~ ~ ~ _ 8.' ' ' ,.' R C V ` <.,.,.>.:.R 6 6 D :.N ~ _ _ *.%.' ) R ` <._ _ E ~ _ ~ F Z V ~ <.4._ _ _ / F ",
"' G x ' 5.' ~ _ U 8.' 6 F G G _ ' ' ,.' ' ' _ ~ V ) ' ' ,.4.4.q.6 6 D <.N T _ ' ' ' ' %.~ 5.w.>._ / _ _ ~ ~ ~ ' 4.%.' _ _ _ ~ / ",
"' L G 1.5.` / Y U ,.' N F k x I ~ ' ' ' ' _ ) ~ V ~ ' _ >.0.0.y.6 V E 5.F ) ) _ _ ' ' ' _ <.5.8._ _ _ _ ~ _ ' 4.0.' ~ ~ ) ) ) ' ",
"R R ) 6.q.' Y M c ( ~ q ~ x p p ~ ' ' ' _ ) R ~ V ) ' _ _ ) ,.z.V ) 1.7.e.~ T _ ' _ ) J U R ) 5._ _ ~ ~ J ~ _ 5.) ~ ~ E R U ~ _ ",
") <.1.' ~ ~ ~ ~ M ( ) 6 R x p p ~ J F D R ) T 6 6 ) ' R _ ) R R ;.) >.5.' R F R D R _ 8.q.~ ) 5.( _ _ J ~ :.<.' _ ~ ~ _ _ ' 8.8.",
"` ' ) ~ F ~ J x p A V 6 S Z x p g g g F R F S q 6 D R ~ T F S V ;.;.:.:.~ R R ) F F ^ 8.8.%.1.5._ _ _ ) <.>.' ' _ / _ _ ~ _ ' ' ",
"<.E D F Z Z h i t 6 6 6 6 A h i e r d f S S V N N V F R S V N N E ;.:.R R F S F D Z ~ ' ' 8.1.1.' 1.1.1.<.' ~ / _ _ _ ( ~ _ ' ' ",
"X.d 0 N C 4 2 3 3 6 6 q 6 d i w 3 2 w w V C V V V V V C S 6 6 N N ;.>.V N V C N V C D _ ' ~ ~ _ 5.6.u.i.' ~ E ~ / _ _ _ _ _ _ ' "
};
