/* XPM */
static char *minecraft_s4[] = {
/* columns rows colors chars-per-pixel */
"64 64 156 2 ",
"   c #160F07",
".  c #171008",
"X  c #1C140B",
"o  c #1E1B18",
"O  c #261C11",
"+  c #211E1C",
"@  c #2B2114",
"#  c #27231E",
"$  c #2C251D",
"%  c #322617",
"&  c #382B1B",
"*  c #3F311F",
"=  c #242423",
"-  c #292622",
";  c #2C2C2C",
":  c #322C25",
">  c #312E2B",
",  c #3D3523",
"<  c #35342B",
"1  c #3E362C",
"2  c #393D2D",
"3  c #343434",
"4  c #3D3D32",
"5  c #383738",
"6  c #3E3D3E",
"7  c #422F18",
"8  c #4D3920",
"9  c #433A2E",
"0  c #433B33",
"q  c #403D39",
"w  c #394027",
"e  c #3A4229",
"r  c #3E4B2D",
"t  c #3E4432",
"y  c #3F4933",
"u  c #3E413B",
"i  c #5D401F",
"p  c #404D2C",
"a  c #44542D",
"s  c #424636",
"d  c #4C4134",
"f  c #424C33",
"g  c #42453B",
"h  c #464D3B",
"j  c #494D3E",
"k  c #534739",
"l  c #455134",
"z  c #485632",
"x  c #4C5A35",
"c  c #475238",
"v  c #4A543B",
"b  c #4E5B3A",
"n  c #515E39",
"m  c #6C4B23",
"M  c #7A582E",
"N  c #7F5E34",
"B  c #53623B",
"V  c #413E41",
"C  c #3E4641",
"Z  c #444444",
"A  c #474945",
"S  c #4A4D44",
"D  c #484748",
"F  c #454A4B",
"G  c #4C4C4C",
"H  c #4D5344",
"J  c #4F5F43",
"K  c #47554B",
"L  c #4E524B",
"P  c #4A5C4B",
"I  c #505342",
"U  c #5F5346",
"Y  c #535C43",
"T  c #51554B",
"R  c #555B4D",
"E  c #595F4E",
"W  c #4B4F50",
"Q  c #504E50",
"!  c #4D5354",
"~  c #4E5C55",
"^  c #4E5658",
"/  c #4F5A5B",
"(  c #545354",
")  c #5D5652",
"_  c #555A53",
"`  c #5A5C54",
"'  c #545758",
"]  c #585758",
"[  c #545A5C",
"{  c #5A5A5A",
"}  c #605447",
"|  c #65594B",
" . c #4D614A",
".. c #556344",
"X. c #586147",
"o. c #53644D",
"O. c #5A644B",
"+. c #54684E",
"@. c #4F6557",
"#. c #4F6459",
"$. c #546355",
"%. c #5D6154",
"&. c #546954",
"*. c #586B52",
"=. c #54635B",
"-. c #5A645D",
";. c #566C5F",
":. c #5A6C5E",
">. c #5C725F",
",. c #606357",
"<. c #62635C",
"1. c #4F5E61",
"2. c #555E61",
"3. c #5A5F61",
"4. c #605F60",
"5. c #566265",
"6. c #5B6264",
"7. c #5B6C63",
"8. c #566669",
"9. c #5C6669",
"0. c #5C696C",
"q. c #5E6C70",
"w. c #5C7277",
"e. c #636364",
"r. c #626865",
"t. c #636769",
"y. c #686668",
"u. c #626A6C",
"i. c #6C696C",
"p. c #60726E",
"a. c #636D71",
"s. c #6A6E71",
"d. c #637175",
"f. c #697275",
"g. c #647579",
"h. c #6A767A",
"j. c #64797E",
"k. c #68787B",
"l. c gray44",
"z. c #805E34",
"x. c #85653A",
"c. c #937245",
"v. c #647E83",
"b. c #697D83",
"n. c #6E8387",
"m. c #6F8489",
"M. c #768286",
"N. c #72878C",
"B. c #678990",
"V. c #6C8D94",
"C. c #769399",
"Z. c #78959B",
"A. c #77989F",
"S. c #818181",
"D. c #8BB3BB",
"F. c gray69",
/* pixels */
"6 ( e.4.e.y.h.B.i.i.i.i.i.i.i.i.i.i.i.i.D.=.p B b %.%.B V.h.,.a n n B B n b x a i.4.4.{ ] ] 0.B.T Q G D ( ( a.A.( ] { e.e.r.e.e.",
"6 ( 4.4.{ { u.b.3.4.e.e.e.e.e.e.4.e.y.i.M.T p x x T ] R g.7.{ ` z n B n B z v R 3.e.4.{ ] ( [ w.D ( ( ( ( 2.0.u.] ] { { { { { { ",
"6 ( { { { { 6.g.] { 4.{ { 4.4.4.] { 4.y.i.H f a v L R { 0.5.6.{ a x n x B l j { { y.y.{ ] ( ] 5.! ( ( ( ( 6.5.] ( ( ( ( ( ( { { ",
"6 ( { { ] { u.v.] ] ] { ] ] ] ] ] 4.4.4.i.G g a ] j v r.:.7.6.] a x x a x f v { 4.y.e.] { ] { ] 0.] ( ( L 5.[ L L ! T D T ( ] ] ",
"6 G ( Q { 6.v.C.<.{ ] ] ] ] ] ] 4.] ] ] i.G u r ( ( ( ( { t.t.] ( I Y 4.r L ] { ] y.4.Q ( ( u.C.] ] { r.e.9.8.] r.{ { e.e.{ { { ",
"6 G ] ( ( 6.q.b.] ] ] ] 4.{ { ] ] ( T ( i.G A L ( ] ] ( ] -.;.] ( b I { L T T v ( y.4.] ( ( 6.b.<.6.e.e.{ 9.6.] ] ( ] { { { ( ( ",
"6 W ] { [ 3.9.q.( ] ] ] { { ] ( ( L G ( y.S A ( ( T L A R &.$.T { H H { ( G v p Q 4.e.{ ( ( [ q.{ { { { ] 6.9.] ( ( _ ] ] ] ' ( ",
"q G ( { 8.' [ 9.] ] ] ( ( Q ( ( ] Q G ( 4.g s T ] c r r b &.+.a ( ( ( ] ( v a r ( { e.e.T G ! 0.G Q ( ( ] 0.0.] ] ] ] ] ] ] ] { ",
"6 A D A 8.! ! 8.D G A G A F G A D G G A D f h ( { ( L p r  . .a r S ( ( S s r r ( ( ( ] ] ] -.0.Q Q Q T r.u.9.Q r.<.e.' ( ( ] ( ",
"Z Z W [ L D W 5.A Z Z Z Z Z A A q Z Z A A Z Z A G g t e r ;.7.u u g A D A s e u D D W { ` ] [ 0.( Q ( _ { h.g.! ( ( ( G G ( ( G ",
"W ( [ 0.( W ' 9.! G A 6 q G ( W Q G G ( ( H S S j j j j j p.0.6 6 V Z Q ( S j g H j G ( ] ] { 0.( ( ] { { h.g.] L ( ( L ( ] ] ( ",
"i.i.s.h.i.i.i.i.h.t.( 6 V { i.i.i.i.i.i.i.O.B B n <.i.i.i.d.9.V 6 q W i.i.i.<.n B B Y ( ] ] 6.0.{ { { e.e.e.9.0.{ { e.{ r.e.e.e.",
"] 9.9.4.4.4.{ ] a.t.( 6 ] ] { 4.4.4.4.4.( I Y 4.4.4.4.4.{ { e.a.V W ] ` 6.4.<.4.{ n v { e.e.r.g.e.{ { r.r.e.r.0.] { ` ] <.{ ] ( ",
"9.3.3.4.4.4.4.( 6.u.2.6 ( ' { { e.4.{ { { _ R v 4.{ { 4.( ] r.g.6 Q ] ] { { 4.{ { ] R ( ] ( 6.0.{ ( ( 4.] ( ] 8.( ( ( ] ] ] ( G ",
"u.{ { 4.{ 4.{ ( { u.9.V Q ( ] { { { { { { { T a { ] ] { ( ] 6.h.q G ( L { { { { { { { { ( [ 6.6.{ ( ( { ( L ' 0.] ( ( [ ( ] ( ( ",
"e.{ ] ] { ( ( ( { a.6.g D Q ( ] ] 4.4.4.{ { T p { ] ] Q { { 6.k.V A j a { ] { e.e.{ { e.] t.0.] ] ] ] { ] ] 6.d.r.{ ] ] ` ] ] ] ",
"( Q ( { { ] ( ( ( 9.6.6 ( ( ( ( { { ' { ] ( ( Q ] { 4.] B n o.a.6 G G a ( ( ] ] { ] ( ( S [ [ D S ( ] ] Q ( 6.d.r.{ ] ( G ] { { ",
"( ( ( { ( ( ( ( ( 0.2.6 ( ( G L ( L ( ( ( ( ( ] ] ] ] ( ` n O.p.6 G L a v T ( G ( ( ( Q W 2.5.L ( ( ] ( Q ( { q.{ ] ( ( ( { 3.<.",
"G ! Q ( Q L Q Q ( 6.2.6 G G G F Q G G L Q Q ( ] ] ( Q Q T b R w.6 G T v a v A S Q Q ( ( { 6.6.] ` ] ] ! ( ( { 0.{ ( ( ( ] { 4.4.",
"D G S D D G G D G / ^ 6 D G A G D G G F S G G Q Q Q Q ( r r H 0.q Q ] ( a p r p G D ( e.d.u.e.e.] ] ] ] { ] 6.0.] { ] ( ( ( ] ] ",
"Z Z Z A A Z Z Z u ! ! 6 6 Z Z A Z A Z A Z e 2 w A Z u e w w 4 V 2.F 6 Z w w w e w g G ] 0.' ( ] ] -.4.] ] ( ] ] 0.3.] ] ] { ] ] ",
"( ( Q ( ( G G G Z [ 1.! D G G ( ] ] ] ] ] G S ` { { { ` R ` ] { t.6.2.( ` ] ` ` ` { ( Z 7.O.R 6...X.,.y.v n Y Y 7.o.Y Y v %.r.{ ",
"( ( ' ( ( L G ( G [ 6.6.( ( ( ( { 4.-.4.d.( ( e.{ e.e.e.{ { e.e.e.r.0.e.e.e.e.e.e.i.{ C +.B Y -.Y Y O.e.v v n n *.+.Y z v ` e.e.",
"( ( ( ( D D G { ] ] 6.w.( { ( Q ] ( ( ] N.( D ] ] { { ] G G G ] ' { 3.q.D ( { { { e.r.@.a a v { { ( ( ] 4.b z n b *.o.p { ] 4.i.",
"] ] ] ] { ] ( Q ( 2.2.D 9.[ ( ! A D G T N.^ Z D ( G D A A Z ( l.F.e.F 1.6 Z Z Z { { 6.1.a T L r e.Y Y ( ] v z n a o.o.r ' { e.i.",
"( ( ( ( ] ] ] ( 9.r.-.( -.6.3.( ] { ] ' N.' Z W { G T { { { e.l.S.e.' q.{ 3.( V G { -.=.r L T L { _ ` { ] T H b R $.$.A { { 4.i.",
"( ( ( ( ] { 4.{ g.t.{ { ] 9.9.{ { 4.{ { N.! D ( 4.G W 4.<.e.y.i.y.{ { q.e.y.{ V ! -.6.K h L ( ] ( _ R ` ] ( T x { -./ ( T ( 4.i.",
"] { ( L Q { e.4.d.t.{ ( ] ] { 0.Q ( ] { m.! D ] 4.G A D { { { y.i.{ [ 9.{ y.{ 6 ] u.9.u ] L G ] ] Y x a ` ] T a ( 6.5.( a I { i.",
"r.( G A L G Q Q 0.{ { ] ] { { ] d.{ { r.N.' Z ] 4.W D ( ] Q | c.m 0 F 8.( 4.] 6 ] u.6.3 ] { L r a a a a a L T Q ] ] [ @.p S ] e.",
"{ { ( ! ' Q Q Q 8.7.-.4.( { 4.e.t.t.9.{ m.! A ( i.Q D Q ( Q } x.8 1 6 W 3.3.] 6 L 9.-.t ( ( T H p a a a a h S ( ( ( P @.r G ( ( ",
"{ ] ] ] ] Q Q Q 2.7.7.4.T ] { { { 6.5.{ d.W Z W i.Q Z Q Q Q } z.& > 3 V 2.6.] V ' 9.[ y G G G S r p p p f y g G G D K $.t S Q G ",
"] ] ` ] ( Q Q Q ] 9.6.Q W G Q Q A G ! 9.( Z Z A i.G Z Q Z G } z.O - ; 6 G 0.6.V 0.9.] Z Z S g w w * * 2 V u u 6 Z A F ~ 6 Z Z Z ",
"( ( { ] ] { ] ] r.a.u.e.e.e.{ e.] <.e.e.a.W Z ( i.W Z A 6 q k z.% $ = 5 ( 9.2.V 8.6.` B B n E i.i.i.y.4.V 6 D 4.i.i.s.h.b B B b ",
"( ( { e.<.<.{ ] { u.a.e.e.{ { { ] 3.4.] g.W D Q i.G V D q q 0 m @ > 3 3 Q 3.2.^ 8.t.,.n %.%.4.e.e.4.4.4.{ D D { 4.4.i.d.] %.P z ",
"] ( ] { 3.4.-.] { 9.0.{ { ( ( ( { { { ( q.W Z ( y.G V Z 5 3 9 i O > 5 3 G 3.9.8.3.y.<.T R { <.{ 4.{ ] { i.G A ] ] 4.y.d.4.6.$.b ",
"! ( Q T ] ] ] ( ] 6.-.G D G Q T ] ( ( ' 8.F D ( 4.D V D ; 3 : 7 X > 5 5 Q 4.a.w.{ e.e.Q a R { ] e.] ( ) i.G D ] ] { 3.d.{ { -.>.",
"e.{ { e.e.{ ] ] ] 6.9.] ] 6.4.] { ( { { 0.F A ] 4.Q Z Z 3 = 1 m X = ; 3 D 4.s.w.] e.y.4.a T { ] Q ( ] ( i.G Z S { ] 6.d.4.e.4.{ ",
"( T ( ] ( ( ( ] 0.{ ' ( { <.4.] ( ( ( ( q.W D ( 7.G V Z = = - 8 . o = 3 6 W 8.9.{ e.e.] H ( ] 2.( R ..I e.I j Q v T [ q.{ { { ] ",
"] ( Q ( ! Q ( [ 9.( L ! ] { { ( L ( ( ( g.^ D Q -.( D D ; ; ; 9   + ; 3 V Q 5.q.{ e.6.T ( ] { [ ] E Y n 3.L g Q l T { 6.( ( ] ] ",
"e.e.{ G ( ( 3.0.( ( G ( { { ] Q Q ( { e.d.5.[ ( { 4.{ ( V V 0 7   > V Z Q 3.a.b.4.6.[ ( ] [ ] ( ( ( R B 9.F A Q a =.6.( D Q ( Q ",
"{ r.t.d.d.q.6.{ ] ] ] ] ` ] { ] { ( ' 8.' [ ^ A G G D q 3 3 ; ; ; ; ; 3 6 G 6.j.Q { ] G ( Q W G ( v f 6 6 6 A { a  .P r D G G G ",
"( 6.t.[ 6.3.3.3.e.{ ] ( ( ' ' { { ( [ 9.] 2.^ Z Z V 6 3 3 = = = = = = - 3 Z ! 8.[ ( G t V A S h 9 0 2 1 f g V D u ! K e t t t A ",
"_ -.$.I ] ` ` ,.e.` T H H R R O.R ` -.u.{ ^ ! W G Z Z V 5 3 ; = - ; > : 5 D ( 8.5.! Z f Z S S v 9 q q 9 v S D D S / ~ h h h S L ",
"@...B n 4.X.B B i.Y a B B B B B b o.;.i.4.D W g.4.{ { 4.Q Q V 3 V Z D Q D 3.s.h.0.! G ] ] { { { Q ( Q G ] ] ( ( ] 6.u.e.e.e.e.e.",
"r a a a ] { ] { ] ] T a B x n B =.{ 4.] i.G W q.4.{ ] ] V D V 3 V V V V 6 G 3.q.q.! G ( ( ( T D ] ] ] ( ] ] ] ( 9.[ ( { Q ' ] ] ",
"u l z T v T ` I ] ] T a n x x n @.{ { 4.i.W W q.{ W Q ] G D D Q ] ( ( Q Z D ! 5.3.0.9.( ( ] ( ( ] ( ( L ( W ( ( 0.' L G ( ( ] { ",
"6 p c ( h ( ` Y { { T v n b b  .=.] ] { i.Q F 6.3.G G Q G G Q ] { { ] { Z ! ' 5.( 0.0.( ( ] ] ] ] { ( ] ( T ( ( q.[ T ( ( ] { ] ",
"6 t h ( ( ( ( ] 4.{ ( { b ` -.@.] ( ( Q i.W D Q q.W Z V D Q ] ] { ] ] ] 6 6.a.e.Z [ 6.Q Q Q ( ] ] { e.r.] ] ' [ a.3.{ r.] ] ] ] ",
"6 G ( G G Q T n x z v ] a =.0.] ( v c ( y.G V G ( 6.2.D ( ] ( Q { Q G Z 4.0.6.( { u.a.] ] ( ( r.e.e.e.e.] ( ( ] 0.' ( { ] ] ] ( ",
"6 D ( L v c h z z a v ( $.=.[ ] v f h ( { D Z Q D G ! 2.( ( Q Q Q G G Q ] 9.6.Q ( 6.y.0.( Q Q ( ( _ ] ( { ] ( { 0.[ ( ( ] ] ] ( ",
"4 G ( ( v f p a a a x _ 5.( ( ( a r h ! ( Z Z G V D W q.Q Q Q G D D W Q ' 2.[ W Q ] 6.a.T Q ( ( G Q T W { { ( ( 0.6.{ ( ] ] ] _ ",
"a T ] ] T h p a a a v @.G ( ! G r r f D Q D q Z Z F ! 0.D Q Q G G G W Q 6.W G A D Q [ 0.] ] ] { G G Q ( e.( ( Q d.t.<.{ ] ( ! L ",
"a g V V 5 3 2 2 $./ ! 6 u Z Z Z 7 4 V A Z A Z Z Z Z W 2.D V V V 6 6 g Z 9.W Z V A Z ! q.] ] ] T ( ( ( { { ( ( T F 2.[ A G ( Q T ",
"x b v v ] 3.5.6.r.6.! 6 ^ [ 4.{ ) I v I v ) 4.3.4.3.3.q.V W ( ] f f h G q.! G { { 4.6.0.] { ] ] ( ] { e.e.{ { ( ( 9.6.( { { 3.{ ",
"B ..X.Y i.a.a.u.e.e.] V 2.e.y.e.y.%.Y X.n ,.y.y.y.e.y.u.F ! ` { f f H ] u.( ] e.y.y.e.6.6.{ 4.{ { { { <.e.e.-.{ { 0.9.{ e.e.4.4.",
"x %.e.e.d.t.4.] { e.{ 6 ' { ] ] e.4.4.4.a R { ] 4.4.{ ( 2.H c T 6 A ' w.] 4.{ ] 3.{ ] { d.t.e.e.e.{ { { e.e.e.e.{ 9.6.] e.{ ] ] ",
"( v b r.0.e.{ Q ( e.{ q ( ( ( ] e.{ { ] <.{ ( Z V ^ 3.4.4.3.2.] 6 6 F 2.F Q { { 4.3.2.Q Q 3.9.{ ] ( ( ] Q G S A ( 6.6.] ] ] ' A ",
"{ v v { 0.{ ] ] ( e.{ 6 W H H ] { { 4.{ { { ( ( V ( 3.3.4.9.9.4.V 6 F 2.V W ] ] { { 3.{ ' 0.0.3.] ] ] ] ' ( ( { 0.{ { { ] ] ] ( ",
"{ T L 6.9.[ _ R T <.{ 6 G l x T ( { -.{ ] ] ] ] V ] ] ] 3.4.a.s.V V ^ 8.Q Q ] ' { ] { { ] 3.9.9.] ] ' ' ( ] { 0.t.{ ] ( ' ( ] ] ",
"Q ( { a.e.{ R B b ` ( Z ( v a a ( ] ] ] ] ( ( Q V ] 3.] ] ] t.b.V ] t.w.i.( W { ] { ' Q Q Q [ 9.] ] ( T Q ( [ 0.] ( L ! ( L ! ` ",
"Q 6.6.{ Q Q ( ] B ` ( 6 Q v a a T Q G G Q ^ G V V ^ 2.Q 3.( ( ] 1.2.3.3.] Q G Q D Q ] e.e.{ ' 0.] ] ( ( W 6.6.] ] T ( ` ( e.e.e.",
"[ [ ' ( G W L v a A D 6 D S v a h h j D Q G D V V Q Q ( Q Q V V 1.2.2.2.] G W ( D G ] e.e.{ 6.0.] ` ] ] 6.6.{ ] ] ' ] ] ( { { { ",
"-.! G W A S h p t 6 6 6 6 S j p e p f g D D D V V F D Q D V V V W 1.2.Q Q G G Q Z S T <.3.4.3.6.[ -.5.r.6.[ ] ( ] ] [ ] ( ] ] ] ",
"&.Z 5 Z A 4 2 3 3 6 V q 6 p p 2 3 2 2 2 Z Z V F V D V V V V V V 5 9.9.V V V D V V f v ] ] ( ( { 0.d.u.d.{ ( T ! ] ] ] ] ] ] ` ] "
};
