/* XPM */
static char *minecraft_r4[] = {
/* columns rows colors chars-per-pixel */
"48 48 155 2 ",
"   c #3E2711",
".  c #303621",
"X  c #343B24",
"o  c #3D3C25",
"O  c #343434",
"+  c #3D3535",
"@  c #3D3C3C",
"#  c #452D14",
"$  c #40301E",
"%  c #573B1D",
"&  c #443421",
"*  c #4C3C27",
"=  c #513E2A",
"-  c #443B35",
";  c #4A3933",
":  c #443D3D",
">  c #503E38",
",  c #344026",
"<  c #3F4624",
"1  c #3A4826",
"2  c #3A4328",
"3  c #3F4D2B",
"4  c #3E403E",
"5  c #5C411F",
"6  c #58491E",
"7  c #68451E",
"8  c #4D4322",
"9  c #44492C",
"0  c #5D4021",
"q  c #524C24",
"w  c #5E4F21",
"e  c #54432F",
"r  c #5A462F",
"t  c #524D2A",
"y  c #5B482F",
"u  c #44542C",
"i  c #4A522C",
"p  c #555123",
"a  c #5B5325",
"s  c #5F5926",
"d  c #56542A",
"f  c #59532B",
"g  c #5D592E",
"h  c #4E4038",
"j  c #564431",
"k  c #5A4635",
"l  c #5D4A34",
"z  c #55443D",
"x  c #5D4B3A",
"c  c #4A5533",
"v  c #4E5C36",
"b  c #4F5C39",
"n  c #555936",
"m  c #5D5A31",
"M  c #6A4721",
"N  c #645629",
"B  c #635B2D",
"V  c #685E2D",
"C  c #785A28",
"Z  c #614D34",
"A  c #614E3C",
"S  c #635435",
"D  c #615C34",
"F  c #695C32",
"G  c #65523A",
"H  c #6A563D",
"J  c #6B583C",
"K  c #54633B",
"L  c #5A6039",
"P  c #6D662D",
"I  c #646136",
"U  c #696232",
"Y  c #6F6238",
"T  c #756C34",
"R  c #706239",
"E  c #736A3C",
"W  c #78713C",
"Q  c #444544",
"!  c #4B4444",
"~  c #4F4947",
"^  c #4B4B4B",
"/  c #5A4B43",
"(  c #554D4D",
")  c #5C534D",
"_  c #594F51",
"`  c #525252",
"'  c #5D5555",
"]  c #595959",
"[  c #635041",
"{  c #6A5646",
"}  c #6D5B44",
"|  c #61514A",
" . c #6F5E4D",
".. c #715D44",
"X. c #705C4C",
"o. c #685750",
"O. c #675850",
"+. c #6D5C55",
"@. c #655C5D",
"#. c #735F5B",
"$. c #7D6943",
"%. c #756249",
"&. c #78654D",
"*. c #7C694F",
"=. c #797147",
"-. c #776353",
";. c #796654",
":. c #7C6A51",
">. c #72615A",
",. c #7B6959",
"<. c #605F60",
"1. c #6A5F62",
"2. c #646364",
"3. c #686060",
"4. c #6C696C",
"5. c #7A6662",
"6. c #7A6963",
"7. c #716669",
"8. c #FF0600",
"9. c #FF1900",
"0. c #8C5D28",
"q. c #93602B",
"w. c #9A6933",
"e. c #837635",
"r. c #957232",
"t. c #A77A35",
"y. c #FF7600",
"u. c #836E42",
"i. c #816D4B",
"p. c #817544",
"a. c #837C46",
"s. c #83704C",
"d. c #8E794B",
"f. c #907B4E",
"g. c #806E55",
"h. c #826E59",
"j. c #857255",
"k. c #897553",
"l. c #8D7956",
"z. c #86745B",
"x. c #8B775E",
"c. c #847162",
"v. c #8D7A62",
"b. c #84716D",
"n. c #907B65",
"m. c #8E823D",
"M. c #91863E",
"N. c #FFD800",
"B. c #998456",
"V. c #B78D42",
"C. c #9D8762",
"Z. c #94806B",
"A. c #FBE571",
"S. c #FFF2AF",
"D. c #F9E4B3",
/* pixels */
"] ] ] ] ` ^ ^ ` ^ Q ^ Q ` ( _ ( ( @.< t d f g m p #.m m o.c n o ' 2.2.1.2.2.4.4.4.4.4.4.<.] ] @ ",
"` ` ^ ` ^ ` ` ` ` ` ` Q h ( ( ! +./ ) * f f D 8. .| | | | q q 8 1._ @.( ] ] <.@.<.` ] ] ] ` ` O ",
"` ^ Q Q ^ ^ ^ Q ^ ^ ^ ( ` ' ' o.#.o.| q g a B 8.} } B o.8 | q - #.' _ ' _ ] ] ] ` ] <.<.` ^ ^ O ",
"` ` ] <.` ] ` ` ] 2.' ' ' _ | ) h.X.{ X.w g.E y.;.,.-.X.-.{ t > 5.o._ O.<.<.] ` ] <.] ` ] Q Q O ",
"^ ` ` ^ ^ ^ ` ` ] 1.@.3.3.| o.X.h.{ B  .;.,.E c.z.E =.z.-. .-./ 5.| / ` _ ' @.] ] _ _ ] ` Q ^ O ",
"` <.` ` ` ` ` ] ' ( ( ~ | z { ;.-.#.F E z.h.j.,.W =.W E E z.,.m 6.| / o.' _ _ _ ` ] ] ^ Q ` ^ @ ",
"^ ` ` ] <.] ^ 3.1.( ( |  . . .X.-.&.E E :.h.:.E W W E E h.h.z.E %.o./ / / ~ ~ ~ ^ Q Q Q 4 Q Q @ ",
"Q ^ Q 4 ^ ^ ( ( ' ' | | [  . .,...&.%.R &.&.%.%.%.Y R R J &.&.&.*.../ > z z : : : : 4 @ 4 4 4 4 ",
"<.<.] ] 2.' ' 3.3.>. . . . .,.:.a.a.=.Z.Z.Z.v.%.v.Z.Z.Z.Z.=.a.a.Z.Z.n.b.6.6.+.: @.1.1.1.2.2.2.2.",
"` ] 2.] ] ' @.3.3.O. .-.;.c.z.z.W v.v.v.v.z.z.X.n.v.z.v.v.v.x.p.,.v.v.z.6.o.o.: 7.<._ ] ] ] ] ` ",
"Q ] ^ ] ` ( ~ ~ | o.{  .,.:.j.:.v.x.z.v.j.z.g.$.C.B.j.v.j.v.W z.v.z.z.v.g.>.| > 7.' _ <.` <.] ] ",
"] ] ] ] ' 3.@.O.o.|  .&.z.Z.z.Z.z.x.v.z.z.W s.u.9.l.l.j.z.z.E v.z.v.v.z.z.:.| z 5.~ _ ~ ] ] ] 2.",
"] ` ^ ` ' 3.' | | X.X...%.,.:.:.z.z.z.z.j.W l.p.y.m.M.x.v.z.z.j.z.z.z.z.h.h.X.; o./ ( _ ] ] ^ ` ",
"2.2.] ` ( ' ' | | { X.g.*.g.:.Z.j.h.,.j.W W d.y.N.M.f.j.,.z.z.,.,.j.:.j.:.&.-.> o.| _ ~ ^ ` ] ` ",
"] ^ ` ] ' ' O.O.o.X.:.g.v.v.v.v.:.:.E E W j.B.y.N.e.e.j.:.j.z.:.:.*.:.:.:.:.%./ / > ! ! Q Q Q Q ",
"] ] ] ) ' ' ) [ X.;.j.h.z.j.z.z.&.Y Y Y J -.e.N.N.y.T F &.&.Y Y &.&.&.&.&.&.} x ; ; > : 4 4 4 4 ",
"<.4.u n n L F m s ,.W W Z.=.a.Y Z.Z.Z.Z.Z.B.B.N.N.y.f.n.n.x.Z.:.Z.Z.x.Z.z.:.:.-.| z / ( ` ` ` ` ",
"4.] <.9 L b I d ;.$.:.j.j.W W E Z.z.z.z.:.l.y.N.S.N.p.,.g.z.z.%.z.z.:.z.,.z.g.*.| o.) h 4 ^ ` ^ ",
"4.<.] 9 n i D N  .%.T x.E z.W ..v.z.&.&.%.$.N.S.N.N.$.X.%.j.:.%.z.:.:.&.=.:.:.E | / / ' ` ` ` ` ",
"4.] ` ' 9 1.D { X.*.:.:.z.,.%.%.v.:.%.Z.Z.C.y.N.N.y.k.v. .v.,.%.z.z.v.Z.v.Z.,.:.>.#.o.' ] ^ ^ Q ",
"4.` u _ _ o.d X.X.P T :.h.:.z.%.Z.z.%.Z.v.l.B.A.D.d.j.%...v.j.%.j.z.z.:.g.h.g.X.+.>.#.@.3.^ ] ] ",
"] ` 9 c ' | | { N P P V E z.j.Y Z.z.%.Z.z.j.s.V.r.p.:.;.%.v.z. .z.v.z.z.z.z.i.i.+./ | ~ ` ^ ` 2.",
"` ^ 3 9 ~ | / a s P N U :.j.z.E v.;.%.v.z.:.F t.C s.&.%.&.Z.j. .,.x.z.n.n.x.%.g.>.) | ( ] ] ] ] ",
"Q Q 4 o ! / ; j y w 6 N F &.&.-.v.j.%.Z.:.} l r.5 -.%.;.%.Z.:.%.g.g.*.&.g.%.%.H o.o.| ( ^ ] ] ] ",
"K K c 7.7.5.+.k #.j.j.x.n.u.a.a.v.:.%.v.z.G e w.0 G [ &.%.Z.z.%.n.n.v.z.v.:.*.g.>.>.) ] ] ] ] ^ ",
"u <.<.@.@.o.o.k c.i...i.h.h.v.p.Z.:.%.v.,.[ Z 0.% G m  .%.n.,. .z.z.n.j.*.*.g.;.>.O.' 2.2.2.2.] ",
"<.] ] <.' o.| k h.X...i...g.C j.Z.z.&.Z.j.G Z M # j l ..%.v.j.%.*.z.g.g.%.R H A )  .` ] ] ` ^ ` ",
"] <.<.] ' f / k h.} %.....i.V g.Z.z.&.Z.:.k e q.# e x ..%.v.z.%.z.z.-.i.%.g.g.o.O.' ) ] 2.<.] 2.",
"] ] ] ] ` f | > -.F T %.i.%...&.v.z.:.&...j * 7   o k G  .v.j.%.z.X.%.R %.s.X.| ( ' ] Q Q ` Q ` ",
"` ` ^ ` u i | > -.U %.....%.&...,.j.Z.Z.:.{ { 7   { ..&.j.,.j. .j.z.%...J %.X.( ( ( ] ] ` ` ` 2.",
"Q Q 2 2 9 ^ | ; A q q } S H J J *.%.%.:...l k y e e G G ;.%.%.G i...R %.&.X.O.' ) ] ] ] <.2.<.<.",
"4 X X X X : - ; - 5 8 % Z Z 6 6 J Z Z y y e $ $ $ $ & l l x Z S %.%.%.%.X.o.( ` ' 2.2.] ] ` ` ` ",
"] <.] <.` ^ ^ ) / h G [ { ....J G ..k.i.G { G k = k G i...i.i.Z i.x.C V D I n n i 4.K K <.v v X ",
"` ` ^ ^ Q ^ ` ` ) ) ) x x / ..J H i.X.i.Z Z Z Z = Z Z { ..i.X.Z h...&.e I n L c 2.] ] ] ] u 3 2 ",
"` ^ 4 @ Q Q Q 4 ^ / / | { { { %.j...G G ..H H G Z = Z H G ..i.Z z.-.| t n i n i ` ] v <.3 ] 3 O ",
"` ` ] ] ` <.` ] 2.3.o.o.O.{ { { ..G i.z.Z ..G Z Z H r Z G ....Z h.o.| ' 9 @.n ` ] 2.] ` ] ` 1 @ ",
"^ ] ` ^ Q Q ^ Q ` 2.1.#.>.) ..X.h.+.{ %.*.G ..{ Z Z A Z ..{ [ > 5.| i _ _ ' u ] ] u b ] ` Q ^ O ",
"] 2.^ ^ ^ ^ ^ ^ ^ ^ ^ ! | / / +.X.[ [ [ [ { { x X.{ A { = > [ ; #._ 9 i ' ` ` ` u b u 3 2 ` ^ . ",
"` ` ^ ` ] ] Q ] ] ^ ` ` ' o.| | / z z x x [ x x A k > A > ; > ; ~ ! - < Q ^ Q 2 1 1 , 2 ^ ^ ` 1 ",
"^ ^ 4 @ Q 4 Q Q ` ^ ^ ` ` O._ ` > > ; ; > > ; > ; ; > ; > > : : : : + X @ @ @ O O . . . O 4 4 4 ",
"] ] ` Q ] ^ ^ ] ] ] ] ] ] ] ^ ~ 1.1.1.: ' ~ + + _ _ + _ 1.3.1.2.n n c <.2.2.` O ` <.<.<.1.c b b ",
"^ ^ ` ^ Q ^ <.] <.` ] 2.2.2.2.( _ _ ] : _ ~ : + ' ~ + ( _ ' _ ] 3 ] ] ] ] ` ` O <.` ^ ` ] ] ] c ",
"4 ^ 4 Q 4 Q 4 h ^ ` ^ ` ] ` ` ` <.] _ ' : ^ ! + ! : ` @.1.] 4 ` ] ` ` ] ` ^ Q O <.^ Q ] ^ ] 3 ] ",
"^ ^ ^ ^ Q ` ] ^ ` ` ` ` <.<.] 2.] ] ` ` + @ O + <.^ <.` ] Q ` ] ] <.<.] ] 3 4 @ 1.^ ` ` ] ] 3 <.",
"^ Q Q Q ^ ` Q Q ^ ` ` 4 4 ` ^ ^ ] ` ` Q 2.` ` O <.^ ] ] <.Q ` ] ] ] ] ] ` 3 ^ + ] c v ] <.] ` ` ",
"] ] ^ Q Q ^ Q Q Q Q ^ ^ ^ ^ ` 2.` ` ^ ] ` ^ ^ O ` ^ ] ` <.4 ` ` ` ` Q ` u 3 ^ @ ] v ` ` ` ] ] ` ",
"] ^ Q ^ ^ ^ ^ ^ ^ ^ ^ ^ ] <.2.2.^ ^ ` ^ ^ ^ ^ O Q @ ^ ` ^ 4 4 Q ^ ^ 3 3 u ` ` @ ^ 2 2 ` ^ ` ` Q ",
"] ] ` ^ ^ ^ Q Q ^ ] ] ^ ^ ^ ] ] Q Q Q Q Q @ O O O + Q Q Q Q Q Q Q O 2 o X Q O O @ X X 2 Q Q 2 O "
};
