/* XPM */
static char *minecraft_d6[] = {
/* columns rows colors chars-per-pixel */
"48 48 126 2 ",
"   c #160F07",
".  c #1A120A",
"X  c #1D150C",
"o  c gray10",
"O  c gray11",
"+  c #1D1D1D",
"@  c gray12",
"#  c #2A2013",
"$  c #322617",
"%  c #3F311F",
"&  c gray13",
"*  c gray14",
"=  c #252625",
"-  c gray16",
";  c #2C2C2C",
":  c #2E2D2E",
">  c #2F302F",
",  c gray19",
"<  c #323332",
"1  c #333233",
"2  c #343434",
"3  c #353535",
"4  c #363536",
"5  c #373537",
"6  c #373737",
"7  c #393939",
"8  c #3A383A",
"9  c #3B3A3B",
"0  c #3E3C3E",
"q  c #3E3D3E",
"w  c #3E3E3E",
"e  c #3F3F3F",
"r  c #422F18",
"t  c #384027",
"y  c #394027",
"u  c #394028",
"i  c #3E4B2C",
"p  c #3E4B2D",
"a  c #3E403E",
"s  c #44542C",
"d  c #44542D",
"f  c #4F5C38",
"g  c #4F5C39",
"h  c #6A4922",
"j  c #7A582E",
"k  c #7E5E34",
"l  c #54633A",
"z  c #54633B",
"x  c #413E41",
"c  c #414041",
"v  c #434043",
"b  c #434543",
"n  c #464346",
"m  c #444444",
"M  c #454445",
"N  c gray28",
"B  c #484848",
"V  c #494B49",
"C  c #4C494C",
"Z  c #4D4B4D",
"A  c #4C4C4C",
"S  c #4E4D4E",
"D  c #504D50",
"F  c #504E50",
"G  c #4D5F54",
"H  c #4D5B5E",
"J  c #505050",
"K  c #535153",
"L  c gray32",
"P  c #535154",
"I  c #545154",
"U  c #545354",
"Y  c #585858",
"T  c #595859",
"R  c gray36",
"E  c #5F5C5F",
"W  c #4F6557",
"Q  c #4F6558",
"!  c #536A57",
"~  c #536A58",
"^  c #596F5E",
"/  c #5C725F",
"(  c #4F5E61",
")  c #605F60",
"_  c #605F61",
"`  c #615F61",
"'  c #536265",
"]  c #556266",
"[  c #556367",
"{  c #566567",
"}  c #586569",
"|  c #5A686B",
" . c #5B696D",
".. c #5E6C70",
"X. c #5A7075",
"o. c #5C7277",
"O. c gray39",
"+. c #656265",
"@. c DimGray",
"#. c #6C696C",
"$. c #627074",
"%. c #637074",
"&. c #647276",
"*. c #60777B",
"=. c #69777B",
"-. c #6A777B",
";. c #62797D",
":. c #647B7F",
">. c gray44",
",. c #805E34",
"<. c #937245",
"1. c #678573",
"2. c #708E7C",
"3. c #677C81",
"4. c #697E84",
"5. c #6F8389",
"6. c #6C8B8A",
"7. c #678990",
"8. c #6C8D94",
"9. c #778B90",
"0. c #7E9197",
"q. c #769399",
"w. c #78959B",
"e. c #77989F",
"r. c #8BB3BB",
"t. c gray69",
/* pixels */
"w ) ) ) #.7.#.#.#.#.#.#.#.#.#.r.u z g ) z 8.#.d g z z g g d #.) Y Y Y 7.J J N J Y e.L Y O.O.O.O.",
"w ) ) Y Y ;.Y ) ) ) ) ) Y ) #.#.p d d Y Y  .Y ) d z g z p ) Y #.Y Y J { N Y Y Y  .Y Y Y Y J Y Y ",
"w Y Y Y ) :.Y Y Y Y Y Y Y ) ) #.w d Y p O.^  .Y d g d g p Y ) #.Y Y Y Y  .L K J { J J J V S Y Y ",
"w K K Y  .w.) Y Y Y Y Y ) Y Y #.w p K Y K Y &.Y K g ) p Y Y Y #.J J Y q.Y Y O.O. .Y O.Y O.O.Y Y ",
"w Y Y K ....K Y Y ) ) K K V K #.w Y K Y K Y ! Y Y s Y K K s K #.Y Y J &.O.O.O.Y  .Y J J Y Y Y J ",
"w K Y { K  .Y Y K K K K Y V K ) y K Y p p g ^ d K K Y K d p K ) O.K N | V J J Y  .Y Y Y Y Y Y Y ",
"w V V { V { V V V V V V V V V V p K Y K p p ~ d p K K V p p K K Y Y Y  .J J J O.&.J O.O.Y Y Y J ",
"m m ' m m ' m w w w m m w w m m m m m y y u 6.w w w m m y w m m Y Y Y | J J Y Y q.J V J V N J J ",
"#.#.=.#.#.#.=.) w w #.#.#.#.#.#.z z g #.#.#.=.w w w #.#.#.f z z J Y Y  .Y Y O.O.O. .Y O.Y O.O.O.",
"Y ..) ) ) Y %.) w Y Y ) ) ) ) K g ) ) ) ) Y ) %.w Y Y ) ) ) ) s Y O.O.&.O.Y O.O.O. .Y Y Y O.Y Y ",
"..Y ) ) ) K Y =.w K Y Y ) Y Y ) Y d ) K ) K Y =.w Y Y Y ) Y Y ) J J K | Y K Y J A { J J Y J Y V ",
") Y Y Y K Y Y =.w V K Y Y ) ) Y Y i Y Y K Y Y =.w V s Y Y ) ) Y O.Y &.Y Y Y Y Y Y %.O.Y Y Y Y Y ",
"K K Y Y Y K K %.w K Y K Y Y Y Y K K Y ) Y z g %.w K d K Y Y Y Y J A | N N Y Y J Y &.O.Y J J Y Y ",
"K K Y K K K Y %.w K V V K V K K K Y Y K K Y z %.w K d d K V K K J P | J Y Y J K F ..Y F Y Y O.O.",
"V V V V V V V { w V V V V V V V V K K V I p p  .w Y I d p p V V O.%.O.O.Y Y Y Y Y ..Y Y F J Y Y ",
"m m m m m m w ( w w m m m m m m y y m m u u u w ( w m u u u y m Y | J Y Y O.Y Y P Y ..Y Y Y Y Y ",
"Y Y Y Y J J N | Y J J Y O.O.O.O.V #.) #.#.O.@.#.#.%.) #.#.#.#.#.t / g ] l l #.s f z ^ f g d #.) ",
"J Y F V N Y Y Y o.Y Y J Y J Y Y w Y Y Y Y V V Y Y Y ..V Y Y Y #.Q s s Y T T Y ) s f f / p Y Y #.",
"Y Y Y Y Y F J | V | K J m A J Y w V K V m m m >.t.w ( w m m Y ) ( s Y p ` f Y Y d f d ^ p Y ) #.",
"J J U Y Y Y &.O.Y Y %.Y O.O.Y Y w K ) m @.O.#.>.@.Y %.#.#.w V ) ( p K Y U Y ) Y F f ) Q K Y Y #.",
"Y Y J J O.O.&.O.J Y Y | S Y Y J w Y ) m V Y Y @.@.P } Y #.w Y =.a Y V Y R g d R T d I  .P d K #.",
"O.J m J A F | Y Y Y Y Y %.U O.Y w Y ) m K Y S <.h w ] I +.w Y =.t Y Y p i d d d I I Y Y W p K ) ",
"Y Y Y Y F F ] ^ O.J O.O.O.%.Y J w K #.m V I S k % , m } ) w V %.p K L U i i d d d F I V Q p K K ",
"Y Y Y K F D T %.J J A J N V | J w V #.w K m F ,.# - 9 Z =.w ..) b b N t t t % w 0 0 m m G w m m ",
"J Y Y Y Y Y O.&.O.O.Y O.Y O.O.&.w K #.w V 9 e j $ & 9 P o.w { ) z z f #.#.#.) w w ) #.#.-.f l l ",
"Y Y O.O.O.Y Y &.O.O.Y Y Y O.U %.w K #.w m e 5 h # 9 , A ) ' { #.f E ) ) ) Y ) #.w Y Y ) %.` ` s ",
"J J J Y Y U Y | V N J J Y J Y { w K E w m , , r X 4 6 S #.o.Y #.Y s ) U ) I Y #.w Y Y ) %.Y E ] ",
"O.Y O.O.Y Y Y  .Y Y O.Y Y Y Y  .w Y O.m m , = h . : < N #.o.Y #.E s Y Y F Y U #.w V Y Y %.` O.Y ",
"J N J J A Y %.J J Y O.Y J J S &.w K ^ x c * @ %   o : 4 H { Y #.K K Y ] T z g _ w K s U  .Y Y Y ",
"O.O.J J Y  .J J J Y Y J J Y O.&.H K T ` U c c %   x m D +.4.) ] U Y Y K D T z _ w K s | K B U P ",
"R O.&.&. .Y Y Y Y Y Y Y Y J } Y H V C Z e 4 : : : : , w Y ;.I ) V L L V F d d 8 q Y s ! p A A A ",
"J %.J Y Y O.O.Y J J Y Y Y Y  .Y ] q q 8 , : O O O @ # , e H ( V t t N N % 3 3 d q q m G u u , s ",
"W l f E z z #.d g z z z f ~ #.) 0 %.) Y _ F D 5 n m C n #.-...b U Y Y Y J J V Y Y J Y  .O.O.O.O.",
"i s s Y Y Y Y Y d z f z W ) Y #.w ..) Y T x m 5 x x m 8 Y  ...A I Y S A Y Y Y Y Y Y  .J Y U Y Y ",
"w s Y i ) g Y Y s g s g Q Y ) #.w ..Y m T Z C Y [ T Y m m ] Y =.Y Y Y Y Y J J J N J { K A K Y Y ",
"w p K K I Y ) U Y g ) W Y I I #.d I } m n n Y Y Y T Y e =.) m  .J J J Y Y O.O.Y Y Y &.Y O.Y Y Y ",
"w Y A S P g f s Y s X.Y P d K 0.w V K  .b K Y K Y F b )  .P Y =.Y Y J O.O.O.O.Y K Y | J L Y Y K ",
"2 K F d p d s s K  .K Y d p K 5.w K w m | K K N V Z K P  .K F O.&.J A K V J J Y Y Y | Y Y Y Y Y ",
"s Y Y U p d s s W A U A p p V 5.w m b V | S I A V A K [ V V V I  .Y Y Y A J J O.J J %.O.Y Y J J ",
"s x x 6 < y W H w a m m % w m 3.m m m b { m m w x w b ' m w m m  .Y Y U J Y Y Y J J V | N V J J ",
"l l g #.-.-.#.) w ' #.#.#.f l 2.#.#.#.#.%.0 ) ) d m P %.m #.#.#.| Y Y Y Y Y O.O.O.Y Y &.Y O.O.O.",
"f ` ] %.) Y Y #.w Y Y Y O.E ) 1._ Y _ _ P ' m P 0 V  .Y O.Y ) Y Y &.O.O.O.Y Y O.O.O.R  .Y O.Y Y ",
"T s O.} ) I P #.w K U Y ) Y Y 9.Y m b _ _ E { P 0 0 ' b I Y ) ) J J | Y Y J Y J A V K | Y Y Y V ",
"E s P %.P Y F #.w V d Y Y ) ) Y Y Y m Y Y _  .@.x 0 { w Y Y Y Y O.Y &.O.Y Y Y Y L O.%.Y Y Y Y L ",
"D F @.E Y z g O.e U s s K Y Y Y P P v _ Y Y Y 3.x ) &.#.V Y Y Y J J J | Y Y J J K  .Y J K K J Y ",
"D $.Y P P Y z ' e U s s K A V K F e e ' P Y Z P ( Y  .Y V P V P O.O.J | Y Y J J  .Y Y J Y Y O.O.",
"{ P P V P p p w a a K p i s V V V e e V P V B e ( ( I I V I V V O.O.O.%.Y Y Y  .Y Y Y Y Y J Y Y ",
"G u b b t t t w w a N y % y y b b M M M M M e e e ..n n m m m m Y Y J Y X.&.&.Y J L Y Y Y Y Y Y "
};
