/* XPM */
static char *minecraft_r2[] = {
/* columns rows colors chars-per-pixel */
"48 48 172 2 ",
"   c #303621",
".  c #333A24",
"X  c #3D3C25",
"o  c #343434",
"O  c #3C3434",
"+  c #3C3C3C",
"@  c #442D14",
"#  c #493117",
"$  c #4C341A",
"%  c #453422",
"&  c #4A3A26",
"*  c #4D3D2A",
"=  c #583E20",
"-  c #513F2A",
";  c #483732",
":  c #423933",
">  c #4A3A34",
",  c #443C3C",
"<  c #4F3F38",
"1  c #503E38",
"2  c #3F4624",
"3  c #3A4826",
"4  c #374328",
"5  c #3A4328",
"6  c #3E4C2A",
"7  c #3E403E",
"8  c #4D401F",
"9  c #5A4B1F",
"0  c #4A4525",
"q  c #44492C",
"w  c #5D4121",
"e  c #524C24",
"r  c #5E4F21",
"t  c #53422C",
"y  c #524D2A",
"u  c #44542C",
"i  c #4A522C",
"p  c #595225",
"a  c #5F5926",
"s  c #56542A",
"d  c #47413F",
"f  c #554432",
"g  c #5A4635",
"h  c #5D4A34",
"j  c #55453E",
"k  c #5D4B3A",
"l  c #4A5533",
"z  c #4E5C36",
"x  c #4F5C39",
"c  c #595530",
"v  c #555936",
"b  c #5D5A31",
"n  c #654927",
"m  c #6D4A23",
"M  c #665D25",
"N  c #645629",
"B  c #625A2D",
"V  c #685E2D",
"C  c #624D34",
"Z  c #614E3E",
"A  c #645135",
"S  c #615C34",
"D  c #6B5D32",
"F  c #65523B",
"G  c #69553C",
"H  c #6B583D",
"J  c #54633B",
"K  c #5A6039",
"L  c #6D662D",
"P  c #70662F",
"I  c #7A692E",
"U  c #646136",
"Y  c #696232",
"T  c #6F6439",
"R  c #756C34",
"E  c #716339",
"W  c #736A3C",
"Q  c #7F6D3F",
"!  c #7A723C",
"~  c #444444",
"^  c #4B4444",
"/  c #474947",
"(  c #4F4947",
")  c #4B4B4B",
"_  c #5B4B44",
"`  c #504749",
"'  c #554D4D",
"]  c #5D4F48",
"[  c #5A504B",
"{  c #514F51",
"}  c #594F51",
"|  c #535253",
" . c #5D5555",
".. c #595959",
"X. c #655242",
"o. c #6A5645",
"O. c #6E5A43",
"+. c #62514A",
"@. c #6B5748",
"#. c #6E5A4B",
"$. c #715D44",
"%. c #715D4C",
"&. c #685750",
"*. c #675850",
"=. c #6D5B55",
"-. c #645B5C",
";. c #735F5B",
":. c #746146",
">. c #756249",
",. c #78654D",
"<. c #7C694F",
"1. c #797147",
"2. c #776353",
"3. c #7A6653",
"4. c #7C6A51",
"5. c #72615A",
"6. c #7C6959",
"7. c #615F60",
"8. c #6A5F62",
"9. c #636263",
"0. c #686060",
"q. c #6C696C",
"w. c #7A6662",
"e. c #7A6963",
"r. c #716669",
"t. c #FF1C00",
"y. c #90612C",
"u. c #8F6C31",
"i. c #806C3F",
"p. c #976530",
"a. c #9C6C36",
"s. c #847330",
"d. c #877A34",
"f. c #87723F",
"g. c #8F783B",
"h. c #9F713A",
"j. c #FF7600",
"k. c #FF7900",
"l. c #836F45",
"z. c #807745",
"x. c #837C46",
"c. c #86734A",
"v. c #89754A",
"b. c #8E7A4C",
"n. c #937D4D",
"m. c #816E55",
"M. c #826E59",
"N. c #857256",
"B. c #897553",
"V. c #8D7A55",
"C. c #86735A",
"Z. c #89765C",
"A. c #8F7B5E",
"S. c #937E52",
"D. c #8D7A62",
"F. c #847168",
"G. c #927D65",
"H. c #917D68",
"J. c #92853B",
"K. c #94893C",
"L. c #B58A3F",
"P. c #FFD800",
"I. c #97824E",
"U. c #9C8653",
"Y. c #998357",
"T. c #A28B5D",
"R. c #AB9354",
"E. c #9A8565",
"W. c #94806B",
"Q. c #FBE46D",
"!. c #FFF2AF",
"~. c #F9E3B2",
/* pixels */
"......7.| / ) | / ~ / / | [ } ( } -.2 y s s s c e ;.b b &.l v X  .9.9.9.9.9.q.q.q.q.q.q.7.....o ",
"| | ) | ) | | | | | | ~ ^ ` } ~ =._ [ & c y b y *.[ +.+.+.y e 0 8.}  .} ....7.7.7...| ....| { o ",
"| ) ~ ~ / ) / ~ ) ) ) '  . . .@.;.&.+.e B p B p o.o.B &.0 +.e ; ;. .}  .} ..........7.7.{ ) ) o ",
"| | ....| ..| | ..9. . . .' +.+.M.%.@.%.p 6.T =.2.6.2.%.2.o.y < w.&.} -.8.-...{ ..7...| ../ / o ",
") | | ) / ) | { ..0.0.0.0.[ *.#.M.@.V %.2.6.W M.e.W 1.6.2.#.3.( w.+._ { }  .-...| | | ..| ~ ) o ",
"| ..| | | | | .. .' ' ( +._ @.3.2.;.S W C.M.M.m.! z.! W W N.6.A e.+._ @. .} }  .| ....) ~ | { o ",
") | | ......{ 0.0.' ' +.*.%.%.%.2.,.W W 4.M.c.t.J.! Q W M.N.C.W >.*._ _ _ ( ` ` ` ~ ~ ~ ~ ~ ~ + ",
") / ~ ~ ) / ' '  . .+.+.o.#.#.6.$.,.>.E ,.c.l.k.f.s.E E T ,.,.,.,.$._ < j j , , , , + 7 + 7 7 7 ",
"....7...9. . .0.0.5.@.#.%.%.6.4.1.I.1.W.W.E.k.P.I.T.E.W.W.1.I.1.W.W.D.F.e.e.=., -.8.8.9.9.9.9.9.",
"....9..... .0.0.0.*.#.6.4.e.Z.Z.! D.D.D.A.I.I.f.T.U.V.D.D.Z.Y.1.6.D.D.Z.e.&.&., r.8.} ........| ",
"~ ..{ ..{ ' ( / +.*.o.#.4.4.4.4.Z.C.C.Z.Z.V.n.g.R.I.b.Y.1.W.! 6.D.C.C.D.6.5.@.< r. .} 7.| 7...| ",
"........ .0.0.#.*.*.#.3.Z.W.Z.W.6.Y.D.C.Z.! v.f.t.I.I.B.V.Z.R W.C.D.D.C.C.4.+.< w.` } ` ......9.",
"..) ) |  .0. .+.+.%.%.$.>.6.4.6.Z.W.1.Z.N.! n.f.k.J.K.V.Y.Z.6.C.C.C.C.C.N.m.%.< &.] ` } ....| | ",
"9.9...| [  . .+.+.o.%.m.4.m.N.D.6.6.4.C.! ! n.k.P.K.I.B.N.C.Z.4.N.6.4.N.4.>.2.< &.+.} ` ) | | | ",
"..) |  . . .*.*.&.%.4.m.D.D.D.D.4.4.W W ! N.I.k.P.d.d.B.4.N.C.4.4.4.4.4.4.4.>._ j j ^ ^ / ~ ~ ~ ",
"......|  . .] +.#.3.N.M.C.N.C.C.,.T T T T l.l.P.P.j.I Y ,.,.T T ,.,.,.,.,.,.O.k > > 1 , 7 7 7 7 ",
"-.q.u v v K S S N M.! 1.D.z.x.E W.H.H.H.W.S.Y.P.P.j.S.D.D.D.H.4.W.Z.W.W.1.6.,.3.[ j _ ( | | { | ",
"q...7.q K v U y 2.>.l.m.N.! ! W H.N.C.6.<.n.j.P.!.P.z.6.6.N.C.>.C.Z.4.C.4.Z.N.4.&.&.+.^ ~ / | / ",
"q.7...q v i S a #.>.R C.W C.! %.Z.6.,.>.:.i.P.!.P.P.:.:.,.M.4.>.C.6.,.1.C.4.4.$.+.+.] ' | | | | ",
"q...|  .q 8.S @.%.<.<.m.C.M.W :.Z.4.O.W.W.Y.k.P.P.j.Z.D.#.D.M.:.Z.C.D.W.Z.W.6.1.5.5.&. .../ / / ",
"q.| u | } @.s %.%.M R M.M.<.C.%.W.6.$.W.1.I.b.Q.~.x.6.2.:.D.N.:.4.Z.C.6.m.m.m.:.@.5.5.8.9.{ ....",
"7.{ 6 i  .+.+.@.a P L V W C.M.E W.C.O.W.6.6.! L.u.,.4.3.:.D.C.%.N.W.C.C.C.Z.<.<.&.] +.^ { / { 9.",
"{ ) 6 q ( +._ p a L N V m.M.C.W Z.4.$.6.4.4.k h.N 3.4.>.,.W.N.%.N.C.C.D.D.Z.>.m.5.+.+.} ....| ..",
"~ ~ 7 X ^ j 1 g f 9 r N V ,.,.,.Z.4.$.W.6.U f h.= 3.,.4.>.W.4.>.6.6.4.4.N.>.:.$.&.&.+.' { ......",
"J J x q.r.w.=.g %.C.C.A.Z.l.z.x.Z.,.O.F.6.X.f a.n G O.>.>.W.6.>.G.D.D.C.W.<.4.4.5.5. .........{ ",
"u 7.7.-.-.&.&.g M.m.$.m.m.m.A.c.W.,.:.C.<.F F y.w X.X.$.>.W.6.>.C.C.D.C.<.<.4.3.5.#. .9.9.9.9...",
"7.....7. .&.+.g M.%.$.l.$.M.P N.W.6.$.H.<.F F m $ C Z :.>.D.N.>.<.N.m.<.>.$.H F [ #.) ....) { ) ",
"..7.7... .s _ g M.@.,.$.i.%.D m.W.1.>.D.,.h g p.# t F #.,.D.C.>.C.N.<.m.>.4.m.@.@.......9.9...9.",
"..| ..| } s +.1 2.D R >.l.>.$.,.D.N.>.>.O.y * m @ & h X.O.W.e.>.C.,.$.$.>.m.%.+.|  .../ / { / { ",
"| { / { q i +.1 2.Y :.$.$.>.:.:.6.6.W.D.6.O.O.m @ o.$.3.6.1.N.,.N.N.,.H E >.%.' ' ' ....{ { { 9.",
"~ ~ 4 4 6 ) +.> X.e e G F $.H H <.>.:.4.#.F h h h h F F 4.$.>.S <.$.$.,.,.%.*. . ... ...9.9.9.7.",
"+   .   . + : ; > 8 8 = C C 9 9 H A h f f t t % % & & h F A C C :.,.$.>.#.@.' {  .9.7.....{ { | ",
"........) / / ] j < Z k o.#.:.$.G $.N.m.G $.o.G = C X.%.$.l.m.C l.Z.m Y S U K v u q.J J 7.x z . ",
"| | / ) ~ / { | [ _ ] f g X.$.H H ,.$.$.n G G F C C C $.$.m.$.C M.$.2.y S v K l 7.........u 6 4 ",
"| ) + + ~ ~ ~ 7 ~ _ j ] X.X.X.>.N.$.A C $.o.G G G - G G G $.$.C C.2.&.y v i v i ....x 7.6 ..6 + ",
"| | ....| ..) ..7...+.+.+.X.X.o.$.A ,.M.C $.G G G G g C G $.$.C M.&.+. .q 8.v | ......| ..| 3 o ",
"{ ..| / ~ ~ ) ~ { ....=.=.+.#.#.6.#.X.$.<.C $.O.F A F n %.@.F g w.+.i  .}  .u ....u ( ..{ ~ ) o ",
"..9.) ) ) ) ) ) / / ) ^ _ j [ @.@.X.X.X.X.@.@.k %.o.Z o.- 1 X.> ;.} q i  .| | | u J u 6 3 | )   ",
"{ | ) ......~ ..| / ) ) } @.[ +._ 1 j k g X.k k C _ 1 Z 1 > 1 > ` ^ & 5 ~ ) ~ 5 3 3 . 5 { ) | 4 ",
"/ ) + + ~ + ~ ~ ( | ) { ) ' ' ' < > ; > 1 1 > > ; > > > 1 , , , , , O . 7 7 O o o       . 7 7 7 ",
"..| | / ..) ) ........| ..| ) ( 8.8.7.,  .d O O ` ' o } 8.8.8.8.v v l 9.9.9.| o ....7.7.9.l z z ",
"{ ) | ~ / ) ......{ ..7.7.7.7.' ' ' } d ' ` , O  .` O ^ ' } } -.6 ........| ) o 7.| ) | ......l ",
"+ ) ~ ~ ~ ~ 7 ~ ) { / ) ..) ) { 7.| ' .., ` ^ o ^ , } -.-.| 7 { ..{ | ..| ) / o ..) / ..) ..6 ..",
") ) ) / ~ { | ) | | { { ..7...9.| ..) { o O o o -./ 7.| ..7 ......7.7.....6 ~ o 9.{ | | | ..6 7.",
") / ~ ~ / { / ~ / | | ~ 7 ) ~ ) ..| { 7 7.{ { o ..) | ..7.~ { ..........| 6 ) + ..l z ..7...{ { ",
"..| ) / / / / ~ / ~ ) ) / | | 9.{ { ) ..| ) ~ o { ~ ..{ 7.7 { { { | / { u 6 ) + ..x { | | ....| ",
"..~ ~ ) ) ) / ) ) ) / ) ..9.9.9.) ) { ) { / ) o / 7 ) { / 7 7 / ) ) 6 6 u { { o ) 4 5 ..) | { ) ",
"....| ) ) ) ~ ~ ) ....) ) / ....~ ~ ~ ~ ~ + o o o O ~ ~ ~ ~ ~ ~ ~ X 4 . . 7 + + + . . . ~ ~ 4 X "
};
