/* XPM */
static char *minecraft_s7[] = {
/* columns rows colors chars-per-pixel */
"64 64 150 2 ",
"   c #160F07",
".  c #171008",
"X  c #1C140B",
"o  c #1E1B18",
"O  c #261C11",
"+  c #211E1C",
"@  c #2B2114",
"#  c #27231E",
"$  c #2C251D",
"%  c #322617",
"&  c #382B1B",
"*  c #3F311F",
"=  c #242423",
"-  c #292622",
";  c #2D2C2C",
":  c #322C25",
">  c #322E2B",
",  c #3C3224",
"<  c #3B3B24",
"1  c #35342B",
"2  c #3D362E",
"3  c #373C2B",
"4  c #3B3F2F",
"5  c #343334",
"6  c #3C3D34",
"7  c #383738",
"8  c #3E3D3E",
"9  c #422F18",
"0  c #433627",
"q  c #4D3920",
"w  c #42382D",
"e  c #413D36",
"r  c #384027",
"t  c #3B4329",
"y  c #3E4B2D",
"u  c #3E4432",
"i  c #3E423B",
"p  c #5D401F",
"a  c #46412D",
"s  c #414C2C",
"d  c #44542D",
"f  c #414536",
"g  c #4C4134",
"h  c #414B34",
"j  c #42453B",
"k  c #464D3B",
"l  c #494D3E",
"z  c #534739",
"x  c #465234",
"c  c #485632",
"v  c #4C5A34",
"b  c #475238",
"n  c #4A543B",
"m  c #4E5B3A",
"M  c #515E39",
"N  c #6C4B23",
"B  c #7A582E",
"V  c #7F5E34",
"C  c #54623B",
"Z  c #413E41",
"A  c #444444",
"S  c #474A45",
"D  c #4B4D45",
"F  c #484748",
"G  c #464A4B",
"H  c #4B4C4C",
"J  c #4D5344",
"K  c #4F5D43",
"L  c #4E534A",
"P  c #4B5F4A",
"I  c #505342",
"U  c #5F5346",
"Y  c #535C43",
"T  c #51554B",
"R  c #555B4D",
"E  c #4A4F50",
"W  c #504F50",
"Q  c #4C5354",
"!  c #4E5C55",
"~  c #4D5658",
"^  c #4E5A5A",
"/  c #545354",
"(  c #5D5652",
")  c #555953",
"_  c #5A5C54",
"`  c #545758",
"'  c #585758",
"]  c #545A5C",
"[  c #5A5A5A",
"{  c #605447",
"}  c #65594B",
"|  c #4D614A",
" . c #556244",
".. c #586147",
"X. c #54634C",
"o. c #5A634D",
"O. c #54684E",
"+. c #4F6557",
"@. c #4F6558",
"#. c #536256",
"$. c #5D6254",
"%. c #566952",
"&. c #586B52",
"*. c #54645A",
"=. c #59645D",
"-. c #566C5F",
";. c #5A6E5E",
":. c #62645B",
">. c #4F5E61",
",. c #555E61",
"<. c #5A5F60",
"1. c #605F60",
"2. c #556265",
"3. c #5B6264",
"4. c #5B6C63",
"5. c #566569",
"6. c #5D6669",
"7. c #5C696C",
"8. c #5E6C70",
"9. c #5C7176",
"0. c #636364",
"q. c #636966",
"w. c #636669",
"e. c #686668",
"r. c #626A6C",
"t. c #6C696C",
"y. c #60726E",
"u. c #636D71",
"i. c #6B6E71",
"p. c #637175",
"a. c #697377",
"s. c #647579",
"d. c #6A767A",
"f. c #647A7E",
"g. c #68787B",
"h. c gray44",
"j. c #805E34",
"k. c #85653A",
"l. c #937245",
"z. c #647E83",
"x. c #697E82",
"c. c #768286",
"v. c #678990",
"b. c #6C8D94",
"n. c #769399",
"m. c #78959B",
"M. c #77989F",
"N. c #818181",
"B. c #8BB3BB",
"V. c gray69",
/* pixels */
"8 / 0.1.1.e.a.v.t.t.t.t.t.t.t.t.t.t.t.t.B.*.h C m $.$.C b.d.:.d M C C C m m v d t.1.1.' ' [ 6.v./ W H F / / u.M./ ' [ 0.0.w.0.0.",
"8 / 1.1.[ <.r.z.1.1.0.0.e.0.0.0.1.0.e.t.c.Y s v c R ' R s.6.' R c M C M C c n R <.0.1.' ' ' ] 9.D W / / ) [ 6.u./ ' [ [ ' [ [ [ ",
"8 / [ [ ' [ 6.s.' [ 1.[ [ 1.1.[ ' [ 0.e.t.L h d n J T [ 4.2.<.[ d v M v C d n [ [ e.0.' ' / ) 2.Q / ' / / 3.3./ / / / / / / ' ' ",
"8 / [ [ [ [ w.z.' [ ' ' [ ' ' ' ' 1.[ 1.t.H u d [ l n q.;.7.6.' d v v d m x l [ 1.e.e.' ' ' [ ' 6.] / / Q ,.,.W / Q H D T ) ' ' ",
"8 H / / ' 3.f.m.1.[ ' ' ' [ ' ' 1.[ ' ' t.H i y / / / / [ r.r.' / I Y 1.y L ' ' [ e.1.W T / r.m.' ' [ 0.0.7.2.) q.[ [ w.0.[ [ ' ",
"8 H ' / / 5.8.f.' ' ' ' 1.[ [ / ' / / / t.H A L / / / / [ =.-.' / n Y [ D / T n / 1.0.' ' / 3.g.1.3.1.0.[ 6.6.' ' / / [ [ [ ' / ",
"e E ' ' ' ,.6.8./ ' ' ' 1.[ [ / / H H / e.D A ( / T L H R #.%.T ' J J [ / L n d / 1.0.[ / / ] 9.[ [ 1.[ [ 6.3.' / / / _ ' ' / / ",
"Z H / [ 5.' ] 8.' ' ' W W / / W [ W H / :.j f / [ n y y m %.X.d / / / [ W n s y / [ 0.0./ S ~ 7.A H / T ' 7.5.[ ' ' [ ' ' ' ' [ ",
"Z A G H 5.Q Q 5.D D G S S S H S D H F G D f k / [ / J y y | | d y D / W H h y y / / / ' ) ' 3.8./ W W T 0.u.6.Q 0.0.[ [ [ ) / / ",
"Z A H ^ L G H 2.F A Z A A A A G Z j A F S A A F H j u t t ;.;.i i j F H A f t j F F E ' [ ' [ 7.H W / ' [ d.s.L / ) / / H / / W ",
"Q / ] 6.E / ' 6.~ H A Z e H / / H W W / Q D D n l l l l D y.7.8 8 8 A W W D l j D D T / ' ' ] 7./ / / [ [ d.s.' T / / H / / / / ",
"t.t.i.g.t.t.t.t.d.w./ Z Z [ t.t.t.t.t.t.t.o.C C M :.t.t.t.s.6.Z 8 Z H t.t.t.:.M C C Y W ' [ [ 7.' [ [ 0.0.q.r.7.' <.1.[ 0.0.0.0.",
"' 6.6.1.1.1.[ [ p.w./ 8 ] ' [ 1.1.1.1.1.W Y R <.1.1.1.1.' :.w.u.8 W [ [ <.1.1.1.1.m n [ 0.0.r.p.0.[ [ 0.0.0.w.7.' ' ' [ 0.[ [ ' ",
"6.3.[ 1.0.0.[ ' <.r.<.8 / ' [ [ 0.[ [ [ [ ' Y m 1.' [ 1./ ' 3.a.8 W ) ' [ 1.:.[ [ _ R / / ' 3.7.[ ' [ [ ) / ' 5./ / / ' ' ' / L ",
"r.[ [ [ [ [ [ / ' r.6.8 W / ' ' 1.[ [ [ 1.[ T s [ ' ' [ / ' 3.d.8 H / T ' [ [ [ [ [ [ [ / ' 3.3.[ ) ' [ / / ] 7.[ / / [ / ) / H ",
"0.[ [ [ [ / / ' ' u.6.Z S W / ' [ [ 1.1.' ' T s ' ' ' / ' ' 3.d.8 S l d ' ' [ 0.1.[ [ 0.' r.6.[ ) ' ' ' ' / 3.p.0.[ ' [ / / [ [ ",
"/ / / [ ' [ / / / 6.3.8 / / ' / ' ' [ [ ' ' W / ' [ 1.' C M X.p.8 H J d / / ' [ ' ' ' E F ,.,.H F / [ ' / / 3.p.0.[ ' W / ' [ [ ",
"W / / ' / / ' W / 6.,.8 / / H H / / W / / W / ' ' ' ' / _ M O.p.8 H J x n T / H / / / / E ,.<.L / / / / E / [ 7.[ [ / / / [ 1.1.",
"E E W / W W W W / 6.] 8 H H D G E E H E W W W ' ' / W / T m R 8.8 E T n d n D S W W Q / <.3.3./ ' ' ) / / / [ 7.[ / / ' / [ [ 0.",
"D H H D H G D H G ] ^ Z D H G H D D F D H F E / W H W / y y J 7.e W ' W d s y s D D / 0.p.e.0.0.' ' ' [ ) [ 3.7.[ [ / W / / ' [ ",
"A A A A A A A A Z Q Q 8 8 A A A A A A A A t < t A A j t r r 6 e ,.G Z A < t 3 t 3 j H ' 7.' / [ ' =.1.' ' / / ' 7.<./ [ [ [ [ ' ",
"/ W / / W E H H A ] >.E D H H / ' [ ' [ ' H D [ ' [ [ [ R _ [ [ w.,.,.] _ _ _ _ _ [ ( j 4.X.P ,.....:.0.n m Y Y 4.X.Y Y n _ 0.[ ",
"/ ' ' / / W W / H ] 3.<.W / / ' [ 3.[ 0.:.H / 0.[ 0.0.e.[ [ 0.0.1.w.w.<.1.0.0.0.0.e.=.h O.m K ,.Y Y o.0.m n m C %.X.M b m _ 0.0.",
"/ / / W D F H ' ' ] <.9.' ] / L ' / / ' ' F F ' ' ' [ [ S H H ' [ [ <.8.H / ' [ [ 0.w.@.d d n ' [ [ [ ' 1.m c m m &.#.y ' ' 1.t.",
"' ' ' ' ' [ / W / ,.] S 7.] Q / S H W W ' S A D / H F A A A W h.V.e.F >.8 Z A A ' <.<.>.d T L y 1.Y I ' [ n c m d #.#.d [ [ 0.t.",
"/ / / / ' ' ' / 6.w.3./ [ 3.<./ [ [ [ / ' F A H [ E H <.' 1.e.h.N.<.] 7.[ <./ Z T [ <.,.s D / I ' R _ 1.' T n M R #.#.D ' [ 0.t.",
"/ / / / / [ [ [ p.r.1./ ' 3.6.] [ :.[ [ / F A / 1.H H 1.=.0.t.t.e.[ <.u.0.t.1.8 H 3.3.Q b H / ' / / R R [ ' T v [ =.*.W R / [ t.",
") ' / Q W 1.e.1.s.t.[ / [ [ [ 7.W / ' ' W A F ' 1.E F D [ [ [ e.t.[ ] 5.' 0.[ Z ) r.6.8 ' / Q ' ' Y v d 1.[ T x / 6.3./ d T [ t.",
"0./ H G T H H W 7.[ [ ' ' ' [ ' p.[ [ w.' A F ' 1.W F / ' W } l.N e E ,.W 1.' 8 ' r.3.r [ ' T y s s d d d I W / ' [ ] @.y D ' 0.",
"[ [ / / / E W W 2.4.3.1./ [ 1.0.w.r.6.[ / A F / e.W F W / W { k.q 2 8 E <.1./ 8 L 6.-.t / / T L y d d d d b J W / L Q @.y D / / ",
"[ ' ' _ ' W W W ,.4.3.[ T ' [ [ [ 3.3.[ T A A E t.W F H W W { j.& > 5 Z ,.<.<.8 ` 6.[ h E W H D y s s s h h j G D G L +.f S W H ",
"[ ' ' ' / W W W [ 7.6.T / D H E A G Q 6.W A A D t.H A W A H { j.O - ; 8 E w.6.8 7.6./ A A A u r 3 3 < 9 8 8 e 8 A A G +.e Z A A ",
"/ / ' [ ' ) ' ' 0.u.u.0.0.[ [ 0.' 1.0.0.p.E F / t.H A G 8 Z z j.% - - 8 W 6.,.Z 5.3.$.C C M Y t.t.t.e.1.Z Z Z 1.t.t.i.g.M C C C ",
"/ ' [ 1.<.0.[ [ [ r.u.0.0.[ [ [ ' 1.<.' u.E F W t.H Z A 8 Z q N O > 5 5 W <.,.~ 5.6.:.M $.R 1.0.0.1.1.1.<.F F 1.1.1.e.p.' $.R v ",
"/ ' ' [ 0.1.[ [ [ w.7.[ [ [ / ' ' [ [ ' 8.E F W e.H Z F 7 7 w q O > 7 5 W <.6.5.3.e.:.Y R 1.1.[ 1.' ( 1.t.H F ' ' 1.1.p.[ 0._ m ",
"T / E T ' ' / / ' 3.,.H D H W T ' / E ' 5.E F W <.D Z Z > 5 > 9 X > 7 7 W 1.u.9./ w.e.' d R ' / 1.' / [ t.H F ' ' 1.w.u.[ [ 1.1.",
"0.[ [ 0.0.[ [ ' ' 6.3.) [ <.1.' ' ' ' _ 7.E A ] 1.E A A ; ; , N X = ; 5 F <.i.9.' 0.q.;.y T ' ' W / ( W t.W A D ' ' 3.p.0.1.[ [ ",
"/ W / [ ' / / ' 7.<.` / ' 1.1.' / / / / p.E A / q.H Z A = = : q . o = 5 7 / 5.6.' e.0.[ H / [ 1.' R Y n e.I l W n T [ 7.[ [ [ [ ",
"/ / E W W W / ] 6./ E W ' =.[ ' L / / / p.~ H / =.W D F ; ; : ,   + ; 7 8 / ,.8.[ 0.<./ / ' [ <.' R Y M 1.D l W d T ] 3./ / ' ' ",
"q.0.[ / T / 2.6./ / H / ' [ / L / / [ 0.p.,.] W ' 1.<./ Z Z e 0 . > Z Z W <.u.x.1.3.] / ' ' ' W W W R C <.F F W c *.3./ F W / / ",
"[ 0.r.p.p.u.6.' ' ' ' [ ' ' ' ' ' / ` 5.' ^ ~ D H E F 8 7 ; ; ; ; ; ; 5 8 W 3.s./ [ ' D / W W D / l s d 8 8 A [ d P | d S S S S ",
"/ 0.w.] 3.[ 3.[ :.[ / / / ) [ [ ' / ] 6.' ,.~ A A Z e 7 > ; = = = = = - 5 Z Q 5.] ~ D i f S D F j t t t 8 8 Z F f Q L t u u j D ",
"Q -.#.I [ _ _ $.0._ T I T R R R R _ =.7.[ ] Q E F A A Z 7 5 ; = - ; > > 7 F / 5.5.L A j j S H D f f f f A A A A H ^ ~ k k l S H ",
"#. .C M [ ..C C t.K v m C C C C m O.4.t.<.G E u.1.[ [ 1.E W Z 7 F Z F H F <.i.g.8.Q H ' ' ' ' [ W W E D ' ' / W ' 7.7.q.0.0.0.0.",
"y d d d [ ' ' ' ' ' T d C M M C *.<.[ ' t.H E r.1.[ ' ' A A Z 7 Z Z Z Z 8 H ,.8.8.~ H / [ / H A ' ' ' ' ' ' [ [ 7.] / ' / / [ ' ",
"i d b T n ) _ Y [ ' T d M v v M *.[ [ 1.t.E E 7.[ W W [ G D F W / W W W A F / 5.[ 6.6./ ' ' / / ' / / / / E H / 6.) Q H / / ' ' ",
"8 s n / k / _ Y [ [ T n v m K K ] ` ' <.t.H G 6.<.H F W H H W ' 1.[ ' ' A E ` <./ 7.7./ / / / [ [ / ) ) / L H / 8.] / / / ) ' ' ",
"8 u k / / / / / 1.[ / ' M _ =.@.) / / / t.H F W 8.E A A A W ' [ ' ' ' [ 8 6.u.1.A ] 3.W / / / [ ) 0.0.0.' ' [ ' p.3.[ 0.[ _ ' ' ",
"8 W / H H / T M m c n ) d -.5.' / n b / t.H A S W 6.,.A W [ ' W ' W W A <.r.6.W [ r.r.[ [ / / 0.0.0.0.0.[ / / ' 7.` / [ [ / / / ",
"7 H / W b k b d c d n / *.] ] ' n x k / [ F A W A E / ] W ' W W W W H W ' 6.<.W / 3.r.7./ H W ' / / / / [ / ' ' 7.] / ) ' [ [ / ",
"u H / / n h s d d d v ) 2./ / / d y j E / A A W Z A Q 8.W W E D H D W W ] ,.] E W ' 3.u./ H W / H H / / [ [ / / 7.3.[ ' ' ' / ) ",
"d T ' ' / b s d d d n +.S / / H y s j D W A Z A A F ~ 6.G W W D D H W W 5.E D G S W ' 7.' [ [ [ W L / H 0.' / W p.q.0.' ' / E / ",
"d f e Z 7 7 1 t *.^ Q 8 Z A A A 9 6 A A A A A A A A E 2.A A A 8 Z 8 Z A 5.E Z Z A A Q r.' ' / / W / [ [ [ / T W H ] ] D F L / H ",
"m m n n [ <.3.3.q.<.~ 8 ^ ] 1.[ ( I n m M _ [ 1.<.[ <.8.Z W ' / Z Z F E u.E H [ 1.1.3.7.[ [ [ / / [ [ [ 0.[ [ ' / 6.6./ ' [ 1.[ ",
"C  ...Y i.u.u.u.w.0.' 8 ,.0.0.0.e._ ....M :.e.0.e.e.e.7.G ~ / [ Z A H ,.r./ / 1.e.e.0.3.3.[ [ [ [ [ [ 0.0.0.=.[ ' 7.6.) 0.0.0.[ ",
"v _ 1.1.u.w.[ ' [ 0.[ 8 ' [ [ [ 0.1.1.[ d _ [ ' 1.1.[ / 2.E F / 8 F / 7.' 1.<./ 1.[ ' ' s.q.0.0.0.[ [ [ 0.0.0.0.' 3.6.' 0.[ [ [ ",
"[ n m 1.6.0.[ W / 1.[ Z / / / [ 1.[ ' ' 1.' / A A ' 1.1.1.<.,./ 8 8 G 2.Z W [ ' ;.=.[ W / ,.3.[ ' / / [ Q H H D / 2.5.' ' ' / D ",
"[ m n ' 8.<.' / / 0.[ 8 H J J ' [ <.1.1.[ ' ' W A W [ [ 1.6.6.1.Z Z G 5.8 E ' [ =.[ [ 1./ 6.r.<.' ' / [ / / / [ 6.<.[ ' [ ' ' / ",
"[ L L ] u.[ _ R R <.[ 8 L b b T ' [ [ <.' ' ' ' A / ' ' <.<.r.i.Z S ~ 5.H / / ' ' [ ' <.' <.6.6.' ' ' / / / ] w.6.] / / / / ' ' ",
"W W <.p.1.[ ) C m _ ~ Z / b d d / / ' ' [ / W / A ' <.' [ [ 3.z.Z ` w.7.t./ L ' ' ' ' W T W ' 6._ ' / W / / ] 7.[ / / T / / Q ' ",
"W <.,.[ W W / ' C *.~ Z / n d d W H H H / / H 8 e ' [ W ' / E W >.] <.7.' / H / D E ' 1.0./ ' 7.' ' ` L H 3.3.' ' / T ' / =.0.0.",
",.] [ W E / T l c S A i A J m d n n n D u.' F 8 8 E W ' L H H A >.,.] ] / E W W D H / e.3.=.3.7.' ' [ / 2.2.[ ' ' ' ) ' / [ [ [ ",
"2.T F H G S k t y i 8 Z 8 F S s y y h j z.] A Z Z F H W G A A 8 E >.] E E D H H F G / 1.,.<.3.r.3.3.3.3.6.' / ) ' ' ' ' / ' [ [ ",
"*.w 0 F A u r r r 6 8 8 8 A e 9 1 3 r 3 z.~ A A A A A A A Z 8 Z 8 ,.<.A A A A A A A D [ ' / Q ' 8.p.p.p.' / / / ' ' ' ' ' ' [ ' "
};
