/* XPM */
static char *minecraft_l1[] = {
/* columns rows colors chars-per-pixel */
"48 48 88 1 ",
"  c #100B0B",
". c #110B0B",
"X c #16110C",
"o c #1B120B",
"O c #19110C",
"+ c #1E170D",
"@ c #160D13",
"# c #160E14",
"$ c #180D13",
"% c #1C1314",
"& c #1E1314",
"* c #1C1414",
"= c #1E1414",
"- c #1D1913",
"; c #1B1814",
": c #21180C",
"> c #301303",
", c #341303",
"< c #351904",
"1 c #391904",
"2 c #3D1A04",
"3 c #3B1F06",
"4 c #3F1F06",
"5 c #221513",
"6 c #231612",
"7 c #201514",
"8 c #231A15",
"9 c #251A15",
"0 c #211D14",
"q c #231E14",
"w c #261F14",
"e c #281F13",
"r c #291B14",
"t c #2A2012",
"y c #282315",
"u c #292415",
"i c #2E2514",
"p c #2D2816",
"a c #302613",
"s c #221F26",
"d c #252025",
"f c #2E2623",
"g c #2B2525",
"h c #282426",
"j c #2E2A26",
"k c #302722",
"l c #322821",
"z c #342B23",
"x c #362C22",
"c c #312B25",
"v c #342F26",
"b c #332E2F",
"n c #363025",
"m c #3D3222",
"M c #37302E",
"N c #3D322B",
"B c #3D352E",
"V c #3E382F",
"C c #2A2831",
"Z c #2F2D31",
"A c #353231",
"S c #3B3731",
"D c #36343A",
"F c #3B3638",
"G c #3B383A",
"H c #422006",
"J c #5D320A",
"K c #60360B",
"L c #66370B",
"P c #6C390A",
"I c #6F3E0B",
"U c #6A3C0C",
"Y c #703A0A",
"T c #733F0B",
"R c #42392E",
"E c #453A2C",
"W c #473D35",
"Q c #403A38",
"! c #494136",
"~ c #454139",
"^ c #9E690C",
"/ c #A3690B",
"( c #A46B0C",
") c #AE700B",
"_ c #AA710C",
"` c #B0750D",
"' c #BEAB2F",
"] c #C2AD2D",
/* pixels */
"h0q%=Oh9+0hZh,>ds;;@# s# ;sCs;#sDDCDDDCDDCDDDCCs",
"0h^K1h88hlfMZh<@;ss;ss##sssCCs #DCsCCDsCssCsCss ",
"O^qq0=80l)]NZ-=X #;;;##;ssCCC;# CsDCCsss;sCDCCs#",
"Juhhh0=hZNP]t=uX;;sss;#sCCCD;#; DDsCCssCCssCsC;#",
"0hhZZC;*hGWtJ=0<;hdCCC;#sDD;##; DDCs;s;sCsCs;s;s",
"ZZZZDd-;**Z*<0.<ZZCCDd;;##C# ;  DsDDCCCs;sCDCCss",
"hZGDd -,;*0X<f8yjZDDd ;#;#;  s#;CCsCCssCCssCsC;s",
"dd;# ,Jdd;8fA08ujh;@  ;ss;;sC##;CDsDCCs;DCC;s;;#",
"ss;##%dCd#/KHi8uhh;##;sCs# ##;#;DDCDsC;;CCs;d;C.",
";;@%86=0=>$8fh01y-;#;##;# #;ss;#CCsCsDCCs;;ssdC#",
"@;;hY`o=hMZZZZhL=fhs#  #;CCCCCs DCDCCC;s;#CC;CC=",
";hZZkt]ohhGGZhy(yfZCs;# ;sDDCs;;DsCsCssCs*Cs;#s%",
"dhZZZf)7t=hju-LtdhZCCs;#;#ss;##;DCsssdCdC;s;#ss$",
"CZZGhXOU-=*j912hZZCDs  ;;##s###sDdCC#;ddCssC#CC#",
"CDGh;XX1X0*08=0ZZDDd#  # ;#;##;CCdCs;h0--#@ssCs-",
";;d;XXX-*X00>00h;;d#   ;# ;;;;;sd-;yu---pp-;00#-",
"s;;## s;X;sCs;#sDDCDDDCDDCDDDCChh00==Xh88pnAh12h",
";ss;ss##dddCCs #DCsCCDsCssCsCshXyh^J1h9uxnmAAf1%",
" #;;;##;ddCCC;# CsDCCsss;sCDCZh%O^u00=uin`]RBu%X",
"#;sss;#sCCCD;#; DDsCCssCCssCdZ-%J0hhh0yvVET]aruO",
";ssCCC;#sDD;##; DDCs;s;sCsCs;h0h0fhZZZuun~!aT9u1",
"CCCCDs;;@#C# ;  DsDDCCCs;sCDCZhhZZZZGd6e88Ae2yq4",
"sCDDs ;#;#;  s#;CCsCCssCCssCdC0hhZGDd.-,0=0X3xyy",
"ss;#  ;ss;;sC##;CDsDCCs;DCC;s;;*hh-#.1Khl0yhAqqu",
"ss;##;sCs# ##;#;DDCDsC;;CCs;s;C dd;%=0hMj9^K2y8u",
";;##;##;# #;ss;#CCsCsDCCs;;sssC#;;;*y=&0=390jju1",
"#sss#  #;CCCCCs DCDCCC;s;#CC;CC;#0;hP)O6hZAZAAfJ",
";sCCs;# ;sDDCs;;DsCsCssCs;Cs;#s;;hZZfe]OhhGDZh-^",
"ssCCCs;#;#ss;##;DCssssCsC;s;#ss#dhZZZf)6u%ss0=Ly",
"CCCDs  ;;##s###sDsCC#;ssCssC#CC#CCZGhXOPy@@s=11h",
"CDDs#  # ;#;##;CCsCs;d;;;@#ssCs*CDDh=XX1 ;@;==0Z",
";;s#   ;# ;;;;;ss;y-00#;0-8;;;#;;;d@ . ;# ;->t0d",
"DDCDDDCDDCDDDCCsd00==Xh%X9hZh11dDDCDDDCDDCDDFCZh",
"DCsCCDsCssCsCss 0h^K1h88hclbZh1=DCdCCDsCssCsCss ",
"CsDCCsss;sCDCCs*O^000-8yk`]NN0%XZsDCCsss;sCDCCs#",
"DDsCCssCCssCdC;%K0fhh08jZNP]t=0XGDsCCssCCssCsC;#",
"DDCs;s;sCsCs;d;h0fhZZZy=hFGtK=y<GFCs;s;sCsCs;s;s",
"DsDDCCCs;sCDCChhZZZZGs-u99A=1u+2GsDDCCCs;sCDCCss",
"CCsCCssCCssCdC;hhZGGjOq<y9y:Hl0yZCsCCssCCssCsC;s",
"CDsDCCs;DCC;d;;@hh09X2Lfh0qcR990ZGsDCCs;DCC;s;;#",
"DDCDsC;;CCs;s;C ss0%9uzZd6(UHw=0FFCDsC;;CCd;d;C ",
"CCsCsDCCs;;sssC#;;;8yr9uq19uch01bZsCsDCCs;*sssC#",
"DCDCCC;s;#CC;CC;#;yjI_:9jSSAZZfJGMDCCC;s;#CC;CC;",
"DsCsCssCs;Cs;#s;;sAAci':cv~GZfw(GhCsCssCs;Cs;#s;",
"DCssssCsC;s;#ss#ssZAAx_rirjh0=LuGCssssCsC;s;#ss@",
"DsCC@;ssCssC#CC@CCZGj+:Uq79h=12jGdCC@;ssCssC@CC@",
"CsCs;s;;;@@ssCs;CDDh=XX2O0#0**-CCsCs;s;;;@@ssCs;",
"s;;;;;@;;;;;;;@;;;s#XXX0= ;*>;;ss;;;;;@;;;;;;;@;"
};
