/* XPM */
static char *minecraft_e1[] = {
/* columns rows colors chars-per-pixel */
"64 64 220 2 ",
"   c #3E2711",
".  c #303623",
"X  c #343B24",
"o  c #393A29",
"O  c #343434",
"+  c #3D3C3C",
"@  c #3A3B35",
"#  c #432C13",
"$  c #563B1D",
"%  c #46331E",
"&  c #473623",
"*  c #493724",
"=  c #4B3A25",
"-  c #4C3D2A",
";  c #443D27",
":  c #513D29",
">  c #4B3A34",
",  c #433D3C",
"<  c #473B37",
"1  c #503E33",
"2  c #503E38",
"3  c #394127",
"4  c #3A4826",
"5  c #3A442A",
"6  c #3E4B2B",
"7  c #374026",
"8  c #3E403D",
"9  c #3D4432",
"0  c #68451E",
"q  c #4D432E",
"w  c #424D2C",
"e  c #4C4C2A",
"r  c #494527",
"t  c #54432E",
"y  c #534C2B",
"u  c #5D4C2B",
"i  c #584925",
"p  c #44542C",
"a  c #56532A",
"s  c #5A562E",
"d  c #5A572C",
"f  c #434B35",
"g  c #484E37",
"h  c #42453C",
"j  c #4E413B",
"k  c #454C3B",
"l  c #474838",
"z  c #544531",
"x  c #594634",
"c  c #534A31",
"v  c #5C4934",
"b  c #54443C",
"n  c #5B4B3C",
"m  c #574A3C",
"M  c #4A5533",
"N  c #47503A",
"B  c #4A523B",
"V  c #4F5B3A",
"C  c #4A5635",
"Z  c #5A5332",
"A  c #5D5C33",
"S  c #565737",
"D  c #6A4E2D",
"F  c #644A29",
"G  c #685E2C",
"H  c #65572C",
"J  c #614D34",
"K  c #614E3B",
"L  c #645136",
"P  c #6D5232",
"I  c #615B35",
"U  c #65523B",
"Y  c #69553C",
"T  c #635B3B",
"R  c #6C593D",
"E  c #6A5B34",
"W  c #725B3D",
"Q  c #725635",
"!  c #755528",
"~  c #53623A",
"^  c #6D662D",
"/  c #70682F",
"(  c #646136",
")  c #6D6434",
"_  c #6E633B",
"`  c #71643B",
"'  c #736B3C",
"]  c #766935",
"[  c #79723D",
"{  c #7E7237",
"}  c #444544",
"|  c #4B4443",
" . c #474846",
".. c #4C4C45",
"X. c #4B4B4B",
"o. c #4D4748",
"O. c #544642",
"+. c #534846",
"@. c #5B4B43",
"#. c #534D4C",
"$. c #5B4E4B",
"%. c #504748",
"&. c #4D5344",
"*. c #535A42",
"=. c #52554C",
"-. c #5B514D",
";. c #555A4D",
":. c #5B5643",
">. c #594F51",
",. c #535353",
"<. c #5B5454",
"1. c #5A5C54",
"2. c #595758",
"3. c #5A5A5A",
"4. c #575953",
"5. c #614F45",
"6. c #645242",
"7. c #695644",
"8. c #6D5A43",
"9. c #63524B",
"0. c #685649",
"q. c #6C5A4B",
"w. c #645947",
"e. c #715D44",
"r. c #705C4C",
"t. c #615553",
"y. c #685750",
"u. c #6C5B53",
"i. c #605758",
"p. c #635B5C",
"a. c #675C57",
"s. c #715E52",
"d. c #725E5A",
"f. c #5D6156",
"g. c #586247",
"h. c #746345",
"j. c #756944",
"k. c #7B6B45",
"l. c #75634B",
"z. c #79664D",
"x. c #7B6A4D",
"c. c #796645",
"v. c #7E7345",
"b. c #7F714D",
"n. c #756252",
"m. c #796653",
"M. c #7D6B53",
"N. c #74625B",
"B. c #79665A",
"V. c #7D6A59",
"C. c #77694A",
"Z. c #605F60",
"A. c #6A5F62",
"S. c #636263",
"D. c #696162",
"F. c #6C696C",
"G. c #686668",
"H. c #7A6662",
"J. c #786864",
"K. c #FF1900",
"L. c #FF3800",
"P. c #D53817",
"I. c #815626",
"U. c #B45F29",
"Y. c #92612B",
"T. c #877C37",
"R. c #9F713A",
"E. c #9A6933",
"W. c #AD7331",
"Q. c #FF5700",
"!. c #D67617",
"~. c #FF7600",
"^. c #C37B31",
"/. c #836F44",
"(. c #827B45",
"). c #82744C",
"_. c #887747",
"`. c #907D4B",
"'. c #816E55",
"]. c #826E59",
"[. c #837155",
"{. c #8E7A55",
"}. c #85735B",
"|. c #89765D",
" X c #8C7A5C",
".X c #8B7751",
"XX c #917E52",
"oX c #937F58",
"OX c #A97B43",
"+X c #816E60",
"@X c #8A7660",
"#X c #8D7A63",
"$X c #8B7768",
"%X c #917D66",
"&X c #927E68",
"*X c #A68E1F",
"=X c #B69B33",
"-X c #BBA039",
";X c #D88D1C",
":X c #DD901D",
">X c #FF9700",
",X c #D6B618",
"<X c #FFAF13",
"1X c #D09B24",
"2X c #E89B23",
"3X c #FFD800",
"4X c #FDDC31",
"5X c #FFE13A",
"6X c #8C8142",
"7X c #958156",
"8X c #988359",
"9X c #93824B",
"0X c #A08A5F",
"qX c #B38846",
"wX c #BAA45F",
"eX c #94806B",
"rX c #B9A475",
"tX c #FBE571",
"yX c #FFF2AF",
"uX c #F9E4B3",
/* pixels */
"3.3.3.3.3.,.,.X.X.X.,.X.<  .X.X.,.,.,.,.X.,.i.p.5 e y y a a d Z e w.q.A A w.:.C S r l p.A.A.A.A.Z.A.G.F.F.F.F.F.F.F.G.Z.3.3.,.+ ",
",.,.,.X.,.,.X.,.,.,.,.X.X.#.X.} } X.X.#.| <.t.#.m q r a a d s a U 0.9.6.n w.@.a e w g A.<.i.i.<.Z.3.Z.S.S.S.S.Z.3.Z.Z.3.,.,.X.O ",
",.,.X.X.X.X.X.,.X.X.,.,.#.,.X.} X.X.#.,.%.t.t.$.9.z r d a d d i y.0.w.:.9.@.m a w r O.A.<.<.,.,.2.2.3.3.Z.3.3.3.,.3.3.2.,.X.} O ",
",.X.X.} }  .X.X.X. .} X.X.X.X.,.3.<.t.i.2.d.d.t.9.y e s e d d a 0.0.Y A y.c q 9.i q O.A.3.>.>.<.,.2.3.3.3.3.3.3.Z.Z.3.>.X.X.} O ",
",.,.,.3.Z.,.,.3.,.,.,.3.S.3.3.2.3.,.,.#.9.d.N.y.9.9.w.H V.j._ z.n.V.m.0.7.q.q.7.y z $.H.<.<.>.t.Z.Z.Z.2.,.2.3.Z.3.,.,.3.} } 8 O ",
"X.X.,.,.,.,.X.,.,.,.,.3.S.S.p.p.p.2.$.9.9.N.N.y.R 8.l.C.V.j.j.V.V.h.j._ n.r.q.7.w.v 6.B.t.$.#.>.<.2.3.Z.2.2.2.2.,.2.2.,.}  .} O ",
"X.,.,.,.X.X.X.X.,.,.2.<.3.p.p.2.i.,.-.9.a.N.N.u.) j.m.V.J.x.x.J.M.j.' ' C.l.8.q.r.v K B.9.+.$.>.>.<.<.3.,.2.,.,.,.2.,.X.X.X.} O ",
",.3.2.,.,.,.,.,.,.2.3.<.,.=.+.| #.@.$.$.N.H.B.m.' [ v.}.}.V.V.|.[ v.v.[ ' _ h.V.q.v Z d.9.@.$.y.<.<.>.>.,.,.,.3.3.X. .} ,.X.} + ",
"X.,.,.,.3.3.3.2. .3.S.p.,.=.-.,.t.q.y.t.N.V.M.V.' ' j.M.}.M.k.' [ [ [ ' ' x.}.}.V.E u 6.6.@.@.@.%.%.%.%.%.o.X.} } } } } } } } + ",
"X.X.X. .X.X.X.X.,.2.2.3.2.-.-.$.9.u.u.n.m.V.M.M.h.` h.z.M.z.l.e.j.' ' _ ` j.k.M.s.8.U J K n x b | %.| < | } 8 8 8 } + } } + + + ",
"X.,.,. .X.,.,.X.,.,.3.i.i.t.9.9.w.9.u.m.V.M.x.k.k.k.x.].V.M.z.e.M.x.C.k.x.x.k.x.M.l.8.e.7.7.6.6.$.$.#.O., } o.o.X.X.X.X.X.X. .X.",
"3.Z.3.3.3.Z.Z.3.2.Z.A.D.D.a.y.y.q.N.n.V.M.).(.(.(.}.%XeX$X#X}.l. X$X$XeX&X&X#Xk.7X(.b.$X].].].'.H.H.H.Z., >.Z.A.S.S.G.F.A.G.Z.Z.",
"2.3.3.S.3.3.3.2.p.A.p.A.0.q.a.N.J.$XeX&X|.v.).#X#X#X#X X{..X`._.0X8X X}.#X#X#X#XeX).v.V.J.B.d.n.d.u.y.y., A.A.Z.,.2.3.3.2.2.2.,.",
"X.,.3.3.3.2.,.=.#.-.<.<.q.9.t.N.V.V.@X}.b.[.|.}.#X#X X|.7XXXE.P.0X8X{.}.#X}.}.&X).v.M.}.M.V.B.n.s.y.y.9., i.A.3.,.3.3.,.Z.2.2.,.",
"X.,.2.,.3.,.,.<.,.$.#.<.q.y.u.B.}.}.}.M.}.}.#X|.|.|.#X}.9X`.U.L.0X8XoX[.|.].].%X] b.}.#X}.V.V.M.r.q.9.5., Z.A.2.>.2.3.,.3.3.3.3.",
"3.2.3.3.3.3.i.A.p.i.2.2.q.u.n.M. X&X&X|.eX#X|.#X#X|.}.}.6X(.W.~.0X8X{.}.'.V.V.}.] {.#X}.#X|. XM.r.q.7.@., i.Z.#.>.X.X.3.,.2.3.S.",
"3.X.X.X.,.,.Z.S.t.,.-.9.y.s.n.m.z.M.'.M.M.}.}.}.}.}.}.}.T.!.>X3XK.U.6X(.}.%X%X}.V.V.'.}.}.}.}.'.r.r.0.9.2 $.<.#.#.>.,.3.3.,.,.,.",
"Z.Z.Z.,.,.,.4.2.<.<.-.9.9.n.V.}.M.'.M.M.@X}.[.].M.}.M.k.6XW.1X3XQ.W.6X.X[.[.}. X{.[.}.'.}.'.M.M.z.q.6.0.2 $.t.#.#.#.#.,.,.,.,.,.",
"Z.Z.3.,.,.<.,.,.t.9.9.9.t.n.}.}.}.}.[.'.&X}.M.].x.x.k.' 6X6X=X3X~.*X_..X}.M.M.[.oX[.'.'.M.V.M.z.'.7.6.7.2 @.$.%.%.%.%. .X.,.,.X.",
"3.,.X.X.3.2.<.2.q.0.q.y.u.V.[.}.#X#X#X#X#X'.M.M.' ' ' [ 6X7X-X3X~.W.{ ' }.M.V.V.V.V.M.M.x.x.M.l.e.7.K 5.2 b 2 , , | | } } } } 8 ",
"3.3.3.3.3.3.2.2.-.-.9.0.}.}.}.}.}.}.|.}.}.M.h._ _ _ ) ) v.!.>X3X3X*X/ ) ( j.z.z.) _ ` z.z.z.z.V.e.P x b 2 > > , , , , 8 8 8 8 8 ",
"3.S.f.B *.S S :.T T T T +Xb..X7X#X[.).(.j.}.|.}.|.}.}.}.7X!.>X3X3X=X_.).M.}.}.}.}.M.M.}.#X}.}.#Xz.7.7.6.9.@.+.2 | |  .X.X.X.X.X.",
"S.S.f.*.C S A ( ( A A _ }.x.).7X|.).v.v.` }.&X%XeX#X#X#X7X:X<X5X3X1XOX].}.}.@X#X#X'.'.|.%X#X|.%X'.r.e.7.q.9.9.@.#.o.o.#.,.,.,.X.",
"F.S.3.S.6 V A A ( Z T V.k.x.M.}.}.v.[ [ '  X%X}.}.}.}.b.8X,X5XyX3X>X!.k.M.V.].|.}.x.M.}.|.'.'.|.m.z.l.r.r.y.y.y.#.o.| , X.X.,.X.",
"F.S.Z.2.6 M s a I s I M.k.k.v.#X' b.M.' l.[.@X}.M.z.l.q.v.,X5XyXyX5X,Xe.e.e.e.'.M.l.m.}.'.M.M.M.x.h.` e.K 5.9.9.#.$.#.#.,.,.,.,.",
"F.S.3.,.=.M S 0.A U w.M.[.b.[.}.b.}.[.' l.}.}.M.l.}.@X@X7X;X<X5X5X<X;X[.].'.'.@XV.l.z.}.}.|.}.|.M.x.z.r.q.q.s.s.,.<.-.<.X.#.X.X.",
"F.3.,.&.2...@.u.A 6.0.x.v.b.M.}.}.}.b.k.l.}.#Xb.l.@X&X&X8X^.2X4X5X2XW.].}.e.'.#X].n.z.}.}.|.#X|.z.z.l.e.q.r.d.d.t.p.p.i.X.,.,.,.",
"F.3...6 ,.,.<.0.a w.q.M.^ ' v.}.M.M.V.}.l.@X#X}.r.@X&X#X.X7XwXtXuXrXoX].e.e.'.@X}.z.z.'.}.}.}.M.r.e.e.e.7.r.r.d.p.p.A.A.,.,.2.3.",
"S.2.&.4 C =.<.9.9.5.Y ^ ] / / ' ' b.}.]._ |.eX}.r.|.%X}.M.x..XqXT./.e.'.'.z.'. XB.z.m.|.#X|.}.}.'.z.c.z.r.r.q.9.9.%.%.#.}  .,.S.",
",.,.&.6 w ..$.9.@.m A ^ / ) ) ' b.}.}.}.' }.#XM.e.}.#X|.M.e.Y.R.! e.z.'.z.r.'.#X}.z.z.[.|.|.}.}.}.'.z.e.s.n.s.9.9.$.$.<.,.,.3.3.",
"X.X. .9 4 k +.@.@.c y H G ^ ^ ` x.M.[.M.j.[.|.M.e.}.@X].z.U W R.F 8.z.e.e.'.'.&X[.z.z.'.}.].].'.'.z.c.e.r.n.s.9.9.$.=.<.2.3.3.3.",
"} } } 8 X 8 h j b > 1 u i H H ) _ h.z.z.l.}.#X}.l.@X$XV.8.J Q R.$ Y r.r.'.r.].&Xx.z.z.'.'.V.z.e.z.Q P e.7.r.q.t.9.$.#.=.3.2.2.3.",
"-.V ~ V F.F.F.F.r.n n z.}.}.}.|.%X.X_._._. X}.z.s.]. X].7.1 D E.0 J 6.5.e./.'.&XV.l.M. X#X|.'.z.'.k.h.e.'.M.m.N.9.t.3.3.3.3.2.,.",
"B ;.1.1.S.S.A.p.y.O.6.B.[.x.'.}.}. X X X(. X@X'.r.}.}.'.U J P Y.$ J U U r.r.].&XV.l.x.|.'.}.[.l.z.z.z.z.V.m.n.u.u.p.p.Z.f.Z.3.,.",
"B 1.Z.3.f.Z.1.3.t.O.5.].'.e.l.}.'.].|.[.). X#X'.'.}.@X'.U K D I.$ : U K r.e.'.$X].m.z.V.z.m.z.z.e.e.c.z.r.r.q.y.9.a.p.p.Z.3.3.,.",
"S.3.3.3.Z.3.3.3.<.b @.H.r.e.h.x.r.m.).[ }.%X#X|.r. X@X'.U J F 0 # = x K 7.e.'.|.}.x.e.e.l.e.W z.Y R R K K 7.0.y.-.<.2.3.,.,.,.X.",
"3.3.S.S.3.2.=.p %.| +.H.9.q.l.e.c.'.c.G |.%X%X}.'.@X@X'.x x D Y.  = z A 8.r.'.#X}.c.h.'.c.z.z.l.z.'.].'.r.q.y.y.t.3.3.S.Z.Z.3.Z.",
"3.3.3.3.3.,.&.p >.| %.d.T _ h.h./.z.h.h.'.#X#X}.'.'.'.r.x : i ! # % : v Y e.'.#Xx.8.8.k.W e.e.e.z.z.m.n.7.9.9.q.t.,.X.,.,.X.,.,.",
",.3.,.,.2.=.&.p <.| %.A.A E ` r.m.l.e.z.z.}.$X@X].}.'.r.J x u 0 # * : K 7.r.m.}.c.R R k.e.h.e.W c.r.n.r.7.9.9.9.2.#.X. .,.X.X.3.",
",.,.,.X.,.N p p %.| %.A.A w.r.c.e.e.c.c.r.'.[.#X&X&X@X'.8.7.U 0 # x 7.e.z.'.'.'.z.T R '.'.z.c.e.e.e.r.r.7.0.9.9.3.3.,.,.,.,.3.S.",
"} } h 5 5 6 f X.,., , %.= r y 6.J P R R R z.M.l.m.M.z.l.x x z t : t x K U r.e.R R K R c.e.e.e.z.8.l.q.8.t.q.y.a.2.3.3.Z.S.S.S.Z.",
"8 9 o X X 7 9 } 8 + + , o ; ; q v J H u u E 8.Y e.Y R R x = * = & * & = t J Y J D J Y e.c.l.r.r.q.q.q.w.9.t.3.f.Z.3.3.Z.3.3.2.2.",
" .h 8 f 9 9 9 } } + 8 , ; - q q n n L F F L E Y e.e.Y J J t = = * & = = J L J J Y Y R z./.e.W R 8.e.w.:.:.=.4.G.f.f.4.3.=.=.&. .",
"3.3.3.S.2.,.,.X.X.,.#.%.> O.o.@.-.0.0.8.e.Y 7.e.}.].z.K e.7.K J : v J J [.r.e.e.'.Q Q '.}.W H ^ ) ( ( ( V M *.F.~ ~ g.f.V V f X ",
",.,.X.X.X.X.X.X.,.,.,.,.,.,.%.b b O.5.7.R Y W /.'.e.e.D J J J J : z J J 0.0.r.'.e.Y 7.].r.s.0.i ( A I ( p f.3.3.3.3.3.2.6 6 6 5 ",
",.X.X.} } }  .}  . .X.X.X.X.#.+.$.$.5.9.w.z.x.h.e.8.Y Y U U J J x t : D 6.7.e./.e.J 8.].s.s.8.i A s d A 6 =.3.3.*.3.;.N *.6 9 8 ",
",.X.X. . .X.X.X. .X.,.,.,.=.>.>.>.$.$.9.0.n.z.R e.e.8.Q 7.P U J J u u D K Y W /.e.L 8.].s.r.7.v Z A A A N ,.3.3.*.4.;.N 3.N 5 + ",
",.,.,.3.3.,.,.2.,.2.3.Z.S.i.<.t.t.,.$.9.9.7.U J '.}.r.D r.6.K J J Y K x J U Y e.e.Y 8.].r.0.9.0.a t.1.V ,.,.f.Z.3.,.,.3.,.9 5 O ",
",.3.,.,.X.} } } X. .X.,.S.G.S.S.A.<.>.<.u.d.B.r.0.q.s.[.U Y e.7.J J J J J 0.q.7.5.x 6.].9.Z Z 9.>.2.=.p 3.3.=.6 V ;.3.,.}  .} O ",
"2.3.3.X.X.X.X. .,.X. .X.,.,.2.X.<.#.%.>.p.a.y.5.6.7.7.8.7.7.7.J 7.7.K K 6.J J b K b O.N.9.m y B 2.,.=.&.4.&.N &.M C N 9 X.X.} . ",
"3.3.2.X.X.X.X.,.X.,.X.,. .,.X. .>.>.#.#.i.t.$.O.5.5.K K 7.6.5.2 7.7.5.K 6.1 1 2 K 2 b a.@.q r 6 ,.,.,.X.&.f 6 k 6 4 6 k ,.X.} X ",
",.,.X.X.,.3.3.3.} X.,.3.} X.,.X.3.<.>.#.>.%.O.b 2 b 2 > 5.@.x x J K b 2 K K > > 2 > 2 @.} - r 3 } X. .} 5 4 4 4 7 7 9 ,.X.#.&.4 ",
"X.X.} + + } } 8 } }  .,.,.,.,.,.,.2.,.#.,.o., + , > > 2 2 > > > > > > > > 2 2 2 2 < , , 8 8 9 X + + + + O O O . . . . . 8 8 8 8 ",
"3.,.,.X.} X.X.}  .X.,.3.,.3.3.,.,.2.2.,.o.>.<.2.t.%.j $.| < < < O.O., < +.>.t.t.t.t.-.m V 8  .;.,.3.,.X.O 8 X.X.&.X.;.;.f N N N ",
"2.,.,.,.} X.,.X.,.,.,.3.3.3.3.3.Z.3.Z.2.#.2.Z.Z.p.%.%.>.%.< , + >.>.| < >.<.p.p.p.p.1.M *.&.;.S.Z.Z.3.,.O X.2.3.,.Z.Z.Z.*.V V V ",
"X.X.X.,.} } } X.Z.Z.Z.Z.,.,.3.Z.Z.Z.Z.Z.,.,.,.,.>.#.%.#.#.| , , i.%., , %.$.<.2.,.,.=.6 3.4.3.3.3.3.,.X.O ,.3.,.X.,.2.2.3.3.;.M ",
"+  . .8 X.} 8  .+ + } X.,.X.X.,.3.,.,.,.X.3.3.3.,.2.#., X.o.} O | , } >.A.Z.3.3.+  .,.3.,.,.,.3.,.X. .} O ,.2.X.} ,.,.X.f.B B f.",
" . .X. .}  .X.X.,.X.X.X.,.X.,.,.3.3.3.,.3.3.3.3.,.,.X.+ } + O O 2.%.#.3.2.3.2.o.,.,.2.3.3.3.3.3.2...f  .O ,.3.X.X.,.,.,.3.8 8 Z.",
"X. . .X.}  .X.,.,.X. .,.,.,.,.X.,.3.3.,.3.3.3.3.,.X.X.o.} + + + Z.,.,.Z.2.3.,.} 2.2.2.4.3.Z.3.3.4.k f X.O ,.3...=.,.2.3.4.&.*.Z.",
"X. .} } } }  .,.} }  .X.,.,.,.8 + X.,.X.X.,.3.3.,. .,.F.,.2.X.O Z.,.#.2.3.Z.2.} ,.2.,.,.3.3.3.,.,.N 9 X.+ #.;.C V ;.3.Z.3.,.,.,.",
"3.,.,.X.} }  .X.X. .} } }  .X.X.X.,.,.,.Z.2.,.,.} ,.,.,.X.o.+ O >.o.X.2.,.2.,.+ ,.,.,.,.,.,.X.,.p 6 f X.+ ,.=.V ,.,.,.,.3.3.,.,.",
"3.,.X. .X. . .X.X. .X. . .X.X.X.X.3.3.Z.G.,.X.,.X.,.,.X.} } } O o.} } ,.,.,.X.+ } X.X.#.X.k f N p k &.#.+ X. .6 8 &.=.X.,.,.,.,.",
"3.X.X. .X.X.X.X. .X.X.X.X.,.X.X.X.3.3.Z.Z.,.X. .X.X. . .} } + O + + }  .X.X.} + } } } X.h 9 6 4 6  . . .+ 8 h 7 7 f  . .X.&.} 8 ",
"3.3.3.,.X.X.X.=.8 }  .X.3.3.,.X.X.X.,.2.2.X.} } } } } } } O O O O O + } } } } } } } } } o 7 7 X 4 8 8 O O @ @ X X X @ }  .9 7 7 "
};
