/* XPM */
static char *minecraft_w1[] = {
/* columns rows colors chars-per-pixel */
"64 64 149 2 ",
"   c #110C0C",
".  c #1B0E0C",
"X  c #16110C",
"o  c #1A130D",
"O  c #1F190F",
"+  c #160E13",
"@  c #180D13",
"#  c #171212",
"$  c #1A1414",
"%  c #1C1814",
"&  c #1B151A",
"*  c #1E1A1B",
"=  c #200F0E",
"-  c #2B1506",
";  c #25150D",
":  c #2C1509",
">  c #24190E",
",  c #2B1B0E",
"<  c #311403",
"1  c #351904",
"2  c #3A1A04",
"3  c #301709",
"4  c #331B0B",
"5  c #391E0A",
"6  c #211612",
"7  c #231C14",
"8  c #2B1C13",
"9  c #221D1C",
"0  c #291E19",
"q  c #331E13",
"w  c #2E200F",
"e  c #32220F",
"r  c #3B220D",
"t  c #262115",
"y  c #292314",
"u  c #2D2816",
"i  c #26211C",
"p  c #2B231C",
"a  c #2E281F",
"s  c #342212",
"d  c #3B2513",
"f  c #3D2A12",
"g  c #32251A",
"h  c #322A1D",
"j  c #3C2C1C",
"k  c #3F3019",
"l  c #1E1A20",
"z  c #221E24",
"x  c #252125",
"c  c #292525",
"v  c #2D2924",
"b  c #26232B",
"n  c #29262C",
"m  c #2C2A2D",
"M  c #332621",
"N  c #322A23",
"B  c #3A2D23",
"V  c #322D2B",
"C  c #363025",
"Z  c #3B3123",
"A  c #36312E",
"S  c #3A322B",
"D  c #3F382D",
"F  c #292730",
"G  c #2C2A32",
"H  c #312E33",
"J  c #333136",
"K  c #3A3633",
"L  c #3D3933",
"P  c #36343A",
"I  c #3A3639",
"U  c #3B383A",
"Y  c #442106",
"T  c #4B2507",
"R  c #46260B",
"E  c #462A0D",
"W  c #4A2C0E",
"Q  c #542C08",
"!  c #582D09",
"~  c #4E320D",
"^  c #54340F",
"/  c #5D320A",
"(  c #442C12",
")  c #4B2D13",
"_  c #4B2F1A",
"`  c #4B3412",
"'  c #4F3A12",
"]  c #43311C",
"[  c #553414",
"{  c #5C3715",
"}  c #533C12",
"|  c #52341A",
" . c #63370B",
".. c #653C0E",
"X. c #6C3B0B",
"o. c #733F0B",
"O. c #4D3420",
"+. c #483C26",
"@. c #40382E",
"#. c #4B3C2A",
"$. c #433D33",
"%. c #534616",
"&. c #5C431B",
"*. c #5C4F1B",
"=. c #75470B",
"-. c #734B0D",
";. c #7B480B",
":. c #75500F",
">. c #7C510D",
",. c #664510",
"<. c #6A4310",
"1. c #654019",
"2. c #664A1D",
"3. c #6A4C1B",
"4. c #714D1B",
"5. c #675A1D",
"6. c #775215",
"7. c #79651E",
"8. c #564223",
"9. c #5E4D22",
"0. c #534829",
"q. c #494136",
"w. c #454139",
"e. c #694E22",
"r. c #695B2C",
"t. c #6D602E",
"y. c #766828",
"u. c #81550F",
"i. c #88570B",
"p. c #83590F",
"a. c #8D580B",
"s. c #985E0B",
"d. c #835A13",
"f. c #9E690C",
"g. c #8B6216",
"h. c #866D1C",
"j. c #8A681C",
"k. c #936C1A",
"l. c #A46B0C",
"z. c #AD700B",
"x. c #B0750D",
"c. c #836B21",
"v. c #8A7220",
"b. c #947B26",
"n. c #B58416",
"m. c #94822B",
"M. c #A58621",
"N. c #BB9922",
"B. c #C2AD2D",
/* pixels */
"c i 7 7 $ $ o o c 0 7 o 7 i n V c 4 < < z z z $ % # + +   & l +   # * z F F l % + l F P P G G P P P P F P P J F P P P P G F b b ",
"9 i k :.E 5 8 0 9 7 0 9 a c N H m c q < & * * z * * $ l l l + + l l z l F F b l   # l P G F F G G P G b G F F b G F F G b b l # ",
"O k &.:.W r 8 x 7 7 9 c { e.0.S G c 8 : + # $ l * * * l l # # & z z b b F F b l   + * J F F F F F G F z b z z z G F F G b z l   ",
"X -.:.t t 7 % % 7 7 0 M x.N.m.S H i % $ X     @ % % % % + + # % z z b F F F b % +   & F b G J F F b z b z * * b F J J F F b l + ",
"/ f y c c b i 7 6 z n V S { g.B.y 7 6 y X % % % x x l b % # & l F F F F P z % # % # & P P b b F F F z z F F b z z F F z F l % # ",
"e p c c m m m c $ 7 9 n I #.8.*.W 8 6 t - O % x x b F F x * & & F F P J x * # # %   * P P F F b z l z * b F n b b b z * b * & l ",
"i c m m G H G n $ 7 7 z H K V 7 Q , $ O 1 t c c b F F G F l $ # l b F J # #   # #   * P G H F F l x b l z x x z F F b l b * l z ",
"H m H m H J H x % $ $ $ $ c c $ 1 , O   1 c G V F F H P z * % % + + l F +   + %     * P b G P P F F F F z l * z F J H F F b b z ",
"c m J U I n &   % : 3 $ $ 7 $ o 1 g 0 7 t c m J P P G x   # # + $ & # %     & l # & * F F b b F F b z z F G F l z F b z G 9 * z ",
"x b c i z & @ : W s 0 z $ 7 9 0 h p 0 7 y c c b x z * #   # % l l % # % l l l & + & z F J F b J F F b z z G G F F z z l * * % * ",
"x x z $ @   . : ) M b z $ d ` j B p 7 7 y c v c $ # +   X & l b l * # # l l l # # # 9 H P F F P n F b z & n J F b * * b % * *   ",
"x z l $ @ @ @ 6 z n n z + -.a. .Y s y 7 y a c c % # # # % l b F x & #   + # # % # % z P P J G P z n b % % x F F z * * b % b z   ",
"% % $ + $ 7 6 6 @ 7 6 6 < = @ 7 v c i 7 2 , 7 7 % # # % + + # % # +   # % l z z % # * F F b b F z H P F F b * % % l z z z F z   ",
"# $ $ $ 9 ) ..u.o 7 7 z h c c n V m m i ! s 7 z x * l #     + # # l z b b b F b l # * J F G G F b G n z b z % # b b b * F F b # ",
"# % * x n _ <.d.%.s 7 b V H J J J m c c ;.( 7 M n b z & #   +   & x F G G G F F l % * P F G G F b b b * b * & # F F z % x b z % ",
"% i m G G v a 8 B.%.6 b c H I $.G c c t l.' p v H G b z % #     % l F P P G F z & % z P z F F z G b z z F b l % F b l % # l z # ",
"x b m J m H m v z.~ 7 y $ 0 c N y 7 q  .8 p x c G G G F x * % + & # l l l * & + + # x P F b x l b z b F x n b $ x * # + z z l @ ",
"n n G G K m c % ~ ~ E % & 7 z N 7 , 5 T p n m m G J G b # # # # % # # & x & # + + * b P b b F n & % z b x n b z z x l + F F z + ",
"F G J J J c % o o R R $ 7 $ 7 c 7 , 3 3 c m H H G G n *       # # # # + l & + + # z F J x n F n # % * z 9 x x * l x z l F n z + ",
"F J I U c * $ X X - - X 7 $ $ 7 7 7 7 7 H H H P P F l #       +   # & + % # # # $ b F F z F F x % z i 7 % % $ + + l z z F b z * ",
"% % * b % o X X X $ % $ X % 7 % < > 7 7 c * % % b & #         % +   X $ % % % % % * x x % % % y u 7 % 7 % y u u % % % 7 7 $ # % ",
"* * % * # # X   9 % % o % * x b 7 * % # b c m G b F F b b b b G F b b m m G F x b c b x t % % 7 % % $ p 7 7 y u v v v i 3 : , x ",
"z * l * # & & # l & $ $ % x b F b z & + l G P J b G J J P F F J G F F J G J G n F x i x i f ( 4 > 6 % z 7 8 a h Z A V m 4 5 5 z ",
"% z l x % l x l + + & x x x n F n b *   # n J F b b F F P n b F x x b F z n n z c $ O y c 6.p./ 2 p c 7 y h N C Z A J J M 5 3 $ ",
"  # # % % % # # # # * x x n F F F 9 $ +   z b z P G G F z b z z % l b F P G G J b 7 # o f.} t 7 t % % t s N 2.x.B.t.@.D y 7 # X ",
"  # % l l z l % + & z F n F F P 9 & # $   b J G F F F G z z b b b x z b G F F G 0 $ 8 R ` h a x i * t u N C +.e.g.b.y.h 8 7 7 X ",
"& % l z b b z z # * z b G J G F & # # %   b P P b b n b z z b b F b z b F x x m 7 % y E 7 c c m m c i y a S L $.1.c.7.( 6 y , ; ",
"% l x z F F F G & # & z P P G * + + # %   F P P F b * % z * * z F b b F z * * c 7 x i t v c c G G m v y u h S $.q.k ( =.8 t w 2 ",
"F F F F G J G z % % # # # z l #   # #     n G x P P P F F F b z % z b F P G G H c c m G V H H G U m 9 6 8 7 7 7 A p w 2 y t , r ",
"b F G J J G z + % # # % + l *     & * + # x F F F G G F b F b b b z z b G F n m i i c b G J J P m * # 7 : 8 7 7 a 7 > 2 h p w e ",
"l b F G F l &   % & & * # & # # & * & + % x F J z F G F b l b b G n b b x b x x 7 9 x b m V V F 7 o : s , 8 9 % 7 % 7 d a y t y ",
"z b l % #       % l z z % % * x F & + + % b G P z H J F F b l % P G F F % * z % % $ * c c 9 $ +   - R / c N p t y i m A t 7 t y ",
"z z l % + # # & z F F l +     # # % # # % F P P F J H z F * % % F F n z % * z % F & # b x * % $ 6 7 9 c V V c 7 l.=.Q 2 t 7 7 y ",
"* * * # + # # # & l l & +   # % l l * # # b H G b F F z J F x b b z * * z z z * F * # * * % $ $ 7 7 & 7 i 0 8 4 ' d d g a y y e ",
"# * l & & & #   + # # # # l l l b b z * + b G G n b F b J F b F z & % z b z z b F l # $ % % % 9 d W f $ 7 7 0 d p p c V V a s Y ",
"# l l b l & #     + # & F F F F F b n z   F P b P H F F F z l l % # * F n l z b F * $ + 7 % 9 c X.f.;.. 6 x n G J H V J V m ( / ",
"% l b F F b z % +   # # z G P P F b l % % G H z F b b b x x b F z * z b z * # # z * & % c m G H c y *.B.o 9 x c U P J H c 7 ` f.",
"l z b G F F b * # # # % & z F F z & & # % F J n b b b b l n b b n l l b * % & l z & & z c m H V m M &.n.6 7 0 9 n n c 9 9 f ` ` ",
"b b b F G F b % # # # % + & z z & # # + * G J F b b l l l b b z n z * z z & & b b & & c c G H J m c ( >.d s 7 # l z z 6 ; R ) p ",
"F F G F P F &     # % % # + & z + + + + b G G l F F b + % z z x G b b z b & l F F l l F F G H U c % X o X.r 7 # + l z 6 2 2 4 x ",
"F P P P z &             % # # % + + # % b F b z F x l % c * % % % # # # z x x F x * * F P P H c $ # X X 2 X   # + # $ $ $ 7 i G ",
"* z x F & #       # # + # # % % # & % % b b b * a 9 * % 9 % $ % % % $ % * * * l & & % z 0 n b &   X     > # # # $ $ > - 8 7 i c ",
"z x x b l * & * & z z l # l z x x 9 9 z z z z % t 7 $ 7 % % & $ % % % i z 9 7 > = 7 9 x z z z z * * % & i z l & x x p q p a x x ",
"P P J n P P P P F J P P F J P P P G F G z x i % 7 6 6 $ X 9 i # X 7 9 c H c p 2 2 p c P P H G I P P J n P P J F I P I I F G m c ",
"P G F b F F G P z F F z l F F z F b z z   % i c f.=.Q 2 c 9 7 7 c N N M V H n c 2 6 z I G b b G F P G x F b z z G b b F z l l   ",
"G b F G F G F F z b l * b F F G F F b x # # f 6.' f y , 7 7 7 t c 3.j.m.A A N i ; o 9 H b G G F F F b z b z * z F G G F n x l + ",
"H F F H F F F z z b z z z F F J F F b 9 $ w E :.p 7 9 i * 7 0 p N 3.k.M.r.+.p 7 7 o 7 H b G G G F b z z b z z z F G G F F x l + ",
"P P H z G F F z z F F F z l b F x n x % $ E E 7 c c c x 7 7 i v G S O.X.B.2.7 6 7 # 9 I I n b F F b z x F F F z z F F z F l # + ",
"P P P F b & * z * z b F z b n z % z i % x i i v c m H m V a 7 $ c H U U y W W $ 0 4 q U P H b z & l l % z n b z F b l % z * * z ",
"P G F J G F b b b z z l z F G G x b b i c n m m m m H I b i 7 t 0 p N J 6 5 r t 7 3 ( U F H H H b n b b z z z z F G F b F z z z ",
"J F F G P F F b b b b z l b G J b F F 9 x n m V J J J K 9 % 6 y 7 7 p V 6 4 5 p O : g I z G P J F n F b n z z z F G G b G x z z ",
"F F F z F F b b z n b F b b b G x F x % c c n H U U J v X 7 , 1 y 8 7 y > 2 R N 7 t c J G z z G F b z x F b n b b b F b G * * z ",
"F P G b P G F F b * x P F F b % x * & % # l c b 7 t 7 X 2 ! [ M b 9 7 7 V S Z 6 7 7 i G U n n P F F F z % m J F G * * b % % # # ",
"H P J F P F F F % % 9 G F b l % x * * b + * x b % % $ > 8 ( B m x 0 f >.[ ) d 7 7 7 a I U G G P b F b * % b G F b * * z % z *   ",
"P J G F J b b G 9 9 z b b l * * b l x F   & l l 7 % 7 7 y g c v 9 8 E :.^ E s i $ 8 p J P G F P z F F l 9 b b z * * l x & b b   ",
"F F F l F b F P F F F z % % * b l x x F # # % % % % t y 8 7 8 y 7 4 4 7 y c N c 7 4 s V H b z F z H J F F b z % % z z z z b b + ",
"P G G P F F F F % z * % # z F G % x F F % # # % t v ] o.z.~ > 7 v S L L A G H G v ) | U A J J F F F b % z * # + F F b % F F b % ",
"P F F G b F F b l b b l % z F b % & l b % & * l V V Z ] %.7.5.> v A S w.K J m v y <.4.U v H G b G b z l F z * % F n z % & z z % ",
"P G b F z b b z b b b b % z b l & & l z # * l x A A A V u v.h.> v h B L J m c a f ,.2.U b n n z b b b b n b l % n z l % & z z # ",
"P G F z z z z z F b b F % z l % + l z z # l x l m J J A B d.u.7 u 8 p c c i % $ ..f N U G z z z z z b F z b b % z * # # z z & # ",
"P F b F F l # % z z b F z z b F + z F F + b F F G I J v o > r X.7 7 7 8 c 7 6 2 2 h V U b F G b # # * b b b F z z F z # F G z # ",
"H F b F b * & l * * * l & & l b l n F b # b G J K G c i X o , T o 7 $ # i % 6 ; > c m G z b b b & & * * * * * & & l z l F b l & ",
"F z z z l % * l % % % % # # # z l x z * % z n m H x * $ X X > 3 . $ $ # 7 6 6 $ % z n n z z z z % * * % % % # # # l l l b l l % ",
"z % % * % % % &   % % % % % % % % % $ + % % % $ z & X X X X o 7 7   X $ $ : : $ % z z z % % % % % % # + % % % & % % % % % # # % "
};
