/* XPM */
static char *minecraft_n1[] = {
/* columns rows colors chars-per-pixel */
"64 64 187 2 ",
"   c #3A5859",
".  c #3D5E60",
"X  c #1A6B6E",
"o  c #1B777A",
"O  c #1E7B7E",
"+  c #1C7476",
"@  c #2C6465",
"#  c #2E6A6C",
"$  c #386364",
"%  c #3F6A6C",
"&  c #33696B",
"*  c #356F70",
"=  c #277B7E",
"-  c #397678",
";  c #357A7C",
":  c #3D7A7B",
">  c #367476",
",  c #4C4C4C",
"<  c #4E4F50",
"1  c #4F5151",
"2  c #4D5758",
"3  c #415E5F",
"4  c #545454",
"5  c #545758",
"6  c #565959",
"7  c #5A5B5B",
"8  c #56605E",
"9  c #5B5F60",
"0  c #456364",
"q  c #4E6263",
"w  c #4E6A66",
"e  c #446C6D",
"r  c #4B6B6B",
"t  c #536565",
"y  c #5D6263",
"u  c #5D6668",
"i  c #556D6C",
"p  c #5B6B6B",
"a  c #4F736C",
"s  c #56726D",
"d  c #5A716F",
"f  c #486F70",
"g  c #446E70",
"h  c #5B6E70",
"j  c #4C7274",
"k  c #487877",
"l  c #557474",
"z  c #5D7573",
"x  c #567A77",
"c  c #5A7874",
"v  c #5C7779",
"b  c #55797A",
"n  c #5C7C7B",
"m  c #636363",
"M  c #646768",
"N  c #656A6B",
"B  c #696C6D",
"V  c #656E70",
"C  c #6A6F70",
"Z  c #657274",
"A  c #6C7274",
"S  c #647679",
"D  c #6B7678",
"F  c #657B7C",
"G  c #6C7A7C",
"H  c #727374",
"J  c #717778",
"K  c #737B7C",
"L  c #797D7E",
"P  c #5D807B",
"I  c #53887F",
"U  c #51867C",
"Y  c #63807E",
"T  c #1F7E81",
"R  c #2C7E81",
"E  c #387D80",
"W  c #417E80",
"Q  c #577F81",
"!  c #6B7C80",
"~  c #787F81",
"^  c #198C8F",
"/  c #1C8589",
"(  c #1E8E92",
")  c #1C9195",
"_  c #169398",
"`  c #17989C",
"'  c #1B979B",
"]  c #208285",
"[  c #2B8689",
"{  c #328585",
"}  c #348689",
"|  c #318A8D",
" . c #388688",
".. c #209496",
"X. c #2A9090",
"o. c #349495",
"O. c #359499",
"+. c #35999D",
"@. c #399798",
"#. c #3AA09F",
"$. c #189CA0",
"%. c #19A4A9",
"&. c #1BAAAE",
"*. c #19A0A4",
"=. c #1DB1B6",
"-. c #30A8A7",
";. c #3BA7A7",
":. c #448283",
">. c #498386",
",. c #42898C",
"<. c #558184",
"1. c #548A84",
"2. c #588F86",
"3. c #548689",
"4. c #5A8386",
"5. c #42918B",
"6. c #4A938E",
"7. c #599087",
"8. c #5C948C",
"9. c #4F8C90",
"0. c #598D92",
"q. c #548D92",
"w. c #4B9090",
"e. c #469B93",
"r. c #509195",
"t. c #55999D",
"y. c #668384",
"u. c #6D8285",
"i. c #6A8488",
"p. c #638C8C",
"a. c #6D898C",
"s. c #668884",
"d. c #738384",
"f. c #7A8183",
"g. c #718588",
"h. c #72898C",
"j. c #7E8D8C",
"k. c #60978E",
"l. c #6F8B90",
"z. c #718E93",
"x. c #699690",
"c. c #629B93",
"v. c #6E9D97",
"b. c #619C9A",
"n. c #6B9E9E",
"m. c #739296",
"M. c #789894",
"N. c #759499",
"B. c #749A99",
"V. c #4AA29A",
"C. c #58A799",
"Z. c #5AAB9E",
"A. c #63A39C",
"S. c #68A098",
"D. c #7EA19D",
"F. c #4BACA5",
"G. c #45A7A8",
"H. c #46A9A1",
"J. c #5DAFA2",
"K. c #5BAEA9",
"L. c #4AB2AC",
"P. c #5FB2A5",
"I. c #57B1AC",
"U. c #4BB5B3",
"Y. c #6AAEA9",
"T. c #73A9A5",
"R. c #63B8AC",
"E. c #61B5A9",
"W. c #74B6AC",
"Q. c #68BFB4",
"!. c #66BDB1",
"~. c #79BCB3",
"^. c #79BDBC",
"/. c #76BBBA",
"(. c #7DC1B8",
"). c #80A39E",
"_. c #8AA09E",
"`. c #8EA5A3",
"'. c #90A7A5",
"]. c #95ACAA",
"[. c #8EBEB7",
"{. c #9FBDB9",
"}. c #8FC0BA",
"|. c #90C1BA",
" X c #93C6C0",
".X c #A6C6C2",
"XX c #A9C9C6",
/* pixels */
"m 7 7 6 m 7 4 4 < 4 6 < , , < < 6 B K J M M M m m m m 7 < < 4 4 4 , , 4 < 4 7 4 7 7 7 m m m m m 7 4 4 , 4 4 4 , , , 4 7 4 7 4 7 ",
"7 7 6 4 y 4 4 7 7 9 9 m 4 6 4 4 4 7 y N M m 8 7 6 7 7 4 4 4 4 7 7 < 4 4 , < < 4 4 7 4 7 7 7 4 7 4 4 4 4 4 4 4 4 4 , , , 7 4 4 4 ",
"7 4 4 4 7 0 0 m m 7 9 9 7 7 6 1 c r q m N y 7 4 < < 4 4 4 4 4 4 4 4 4 4 < , < 7 4 4 4 4 7 4 , 4 , 4 4 4 4 4 4 4 4 4 , 4 4 4 4 4 ",
"6 4 4 , , [ } M 7 < < , 4 5 4 , R.o.> M N y 6 4 , , , < 4 < , , < < < 4 4 4 7 4 7 7 7 7 7 , , , 4 4 4 4 , 4 , 4 4 4 4 4 7 7 7 4 ",
"m M B B y G u.H 4 2.e.O l.K C V M.~ H M 7 4 4 4 m m 7 7 m 7 4 4 m m 7 7 7 7 4 4 4 4 4 4 4 7 m m 4 m m 4 4 m m m 4 4 7 4 4 , 4 , ",
"6 7 7 y N Z Z N 4 F p.0.G V N V Y B M 7 7 4 4 4 7 6 4 4 4 7 7 4 7 m m 7 7 7 7 < 4 4 4 4 7 7 4 7 4 4 7 4 4 4 m m m 7 m m 4 4 4 4 ",
"4 7 7 y N N Z d.c Z G h.N K g.y.C m 7 7 7 4 7 7 7 4 4 4 4 4 7 4 4 7 7 7 7 7 7 , 4 4 4 4 7 4 4 4 4 4 4 4 4 4 7 7 m 4 7 7 , 4 7 7 ",
"7 M B m N u d.XX(.P u A M '.}.E.7 4 < < m 7 7 m 4 7 4 4 4 7 4 4 4 4 4 4 , , , , 4 7 m 7 m 7 4 7 4 4 4 7 4 7 4 4 4 , , 4 , , 4 m ",
"6 7 y C XX}.U.=.=._  .N.N | ) T 8 7 7 7 7 < 4 4 7 7 m m m 4 7 m m 7 4 < < 4 7 7 7 7 4 4 4 4 7 7 m m 7 4 m m 7 4 , 4 4 4 4 7 7 4 ",
"M 7 6 9 j.B.n.b.t.9.<.Z y l Q Q 7 7 m M m 7 4 < < < 4 7 4 < < 4 7 4 4 < < 4 4 4 4 7 4 < 4 , 4 4 4 4 4 , 4 7 7 4 4 , 4 4 7 4 7 7 ",
"m p r % F u.g.~ F G G d.c Z V J 7 7 m B m 7 7 7 4 < < 4 , < 4 7 7 4 7 4 4 4 4 7 7 4 4 7 7 4 4 , 7 4 4 4 7 7 7 7 4 4 4 4 4 7 4 4 ",
"4 2.H.$.a.G N y 7 4 G .XE.Y y 7 7 7 7 m < 7 m m m 7 7 m 7 7 7 m m m m 7 7 7 4 7 4 4 4 m m m 7 7 m 7 7 4 m m m m 7 4 7 4 7 4 4 4 ",
"y F u.~ y 1 1 7 6 8.L.&.T /  .u.m B C C 4 7 7 7 m 7 7 4 7 7 m m m 7 4 7 m m m m m 7 4 7 4 m 7 7 4 7 7 m m m 7 7 7 7 m m m m 7 7 ",
"1 u N y t > > 9 4 Z p.t.0.4.v u 4 6 7 7 4 , 4 4 7 4 4 4 4 4 4 < 4 7 7 4 7 7 7 4 7 4 4 4 4 4 7 4 4 4 4 4 4 4 7 4 4 7 7 7 7 4 4 4 ",
"< 9 y 6 y U :.M 6 M Z h.h.K Z c   1 7 4 4 < 4 4 4 4 4 4 7 4 4 , 4 4 4 4 7 7 7 4 4 4 4 , 7 4 4 7 4 7 4 , , 4 4 4 4 4 7 7 4 4 4 4 ",
"9 y y u y N C H B B A K N u n R.= y m m 4 7 4 7 7 4 4 7 m m 7 4 4 7 7 4 7 7 m m 4 m 7 7 7 4 4 4 4 7 m m 7 4 7 7 4 7 7 m m 7 7 m ",
"9 7 y A 4 4 7 C H 7 N P.XX}.L.&.' o @ m 4 6 4 < 4 < 4 4 m 7 4 4 4 4 4 7 , , , 4 4 4 4 4 4 4 , 4 4 7 m 4 , 4 4 4 7 , , , , 4 4 , ",
"9 M C ! 8.: % 7 m 7 N Y 5.#.;.w.>.r q 7 4 7 m 7 4 4 4 4 7 7 4 4 4 4 4 4 , 4 , 4 7 7 7 m 7 4 4 4 4 7 7 7 4 4 4 4 7 4 4 , 4 4 7 7 ",
"m 9 N S A.>.e 6 7 m m B * { 5.S p y 6 4 7 7 m 7 4 4 4 4 6 4 7 4 4 4 4 7 4 4 7 4 m m m 7 7 7 4 4 4 7 4 7 4 4 4 4 7 4 7 4 7 m m m ",
"5 4 1 1 y.Z N M m 7 7 4 m V p 7 1 1 1 4 7 4 7 7 < 4 4 7 7 4 4 4 4 4 7 4 7 m m m m m m 7 4 4 4 4 4 4 7 4 4 4 7 7 4 7 7 m m m m m ",
"7 7 6 7 7 7 6 6 < 7 m 4 7 4 4 7 7 7 7 m m 7 7 7 7 6 4 7 4 4 4 1 7 7 m m 4 4 4 4 7 4 4 7 7 4 7 7 7 7 4 , 4 4 7 m m 7 7 4 4 4 4 7 ",
"7 7 9 m 7 7 4 4 4 7 7 4 < 4 4 4 4 7 7 7 7 7 7 7 7 7 7 8 4 4 1 4 4 4 4 4 4 4 4 7 7 m 7 m m 7 7 m 4 4 4 4 4 4 4 4 7 4 4 4 4 4 4 7 ",
"m 9 7 7 7 7 4 4 4 7 7 4 < < , , 4 4 7 7 4 7 7 7 4 7 7 5 6 6 7 7 4 4 4 4 4 4 4 7 7 7 m 7 m 7 7 7 4 4 4 4 7 4 4 , 4 4 , 4 4 7 7 4 ",
"7 7 4 4 6 4 4 4 4 4 4 4 4 4 4 , , 4 4 7 < 4 7 7 4 6 5 , m M N m m 7 4 7 4 , , , 4 4 7 7 7 4 4 4 4 4 4 7 7 4 4 4 4 , , , 7 4 4 4 ",
"4 4 4 , , , < < 4 , , < 4 4 4 7 4 4 4 7 4 7 4 4 , , 3 ) u 7 6 , 4 4 < 4 , U  .X 7 7 7 4 4 4 , , 4 4 4 4 , , 4 4 4 4 4 7 4 7 4 7 ",
"7 7 7 4 7 4 7 7 4 4 7 7 7 7 4 4 7 4 < 4 4 7 7 7 7 4 u 4.B 7 t I 4 m B M 6 F Y w 4 4 4 7 4 4 7 7 4 7 4 4 4 7 7 7 4 4 4 4 4 4 4 4 ",
"4 7 7 7 7 7 7 7 7 4 7 7 m 7 7 7 7 4 < 4 < 7 7 m m 9 m A M 7 p 8.t A H B y A A m 4 4 4 4 7 7 m 7 4 7 7 4 4 7 7 m 7 7 7 7 4 4 4 4 ",
"< 4 4 7 < 4 < 4 4 4 4 4 m m m m m 4 < 7 7 4 4 7 4 7 8 m 7 6 u J Y H m 7 y N N 5 7 4 4 4 4 4 4 4 , 4 4 4 4 4 7 m m m m m 4 4 4 4 ",
"7 7 7 7 7 4 4 4 7 4 4 7 4 < , , 4 , , 4 m 7 7 m 7 7 6 5 .X~.8.5 M m Y {.P.a 2 , 4 7 7 4 m 7 4 7 7 4 4 4 4 7 4 4 4 , , 4 , , 4 m ",
"< 7 7 7 m 7 m 7 4 7 m m < 4 < , 4 4 4 4 7 7 7 7 7 _.M.7.U.;.o.# F N v G.{ r 6 4 4 7 7 4 7 7 7 7 7 m 7 4 m 7 7 4 , , 4 4 4 4 4 7 ",
"< 4 4 < 7 7 7 7 4 4 m 7 4 < < 4 4 7 7 4 7 7 4 4 m _.M.c.+.#.o.E S u i | : t 7 7 7 m 4 4 4 4 4 4 7 7 7 4 7 m 7 4 4 4 4 4 4 7 7 4 ",
"< < < , , , , , < 4 4 4 4 4 < < < 4 4 7 4 m 7 4 , m A g.~ i.l.z.5 1 7 M Y M 7 m H H m , 4 , , , 4 , , 4 4 4 4 4 4 , 4 4 4 4 7 7 ",
"m m m m 7 7 m 4 7 m m m m 7 4 7 7 4 7 6 < , w Z.$.9.G B y y 6 < {.W.8.1 4 5 5 5 m 4 7 m m m m 7 m 7 4 7 m m m m 7 4 4 7 4 4 4 4 ",
"7 7 7 m 4 7 7 7 7 m m m 7 7 7 m m m 7 m 4 4 p a.9.v u 4 7 8 i 2.G.o.; @ A u M N B m 4 7 7 m 7 7 7 7 7 m m m m 7 4 m 7 m m 7 7 4 ",
"4 4 7 7 7 4 4 4 7 7 7 7 7 4 7 7 7 7 7 7 4 4 t A Z u q $ 7 6 p c.O. .- > C u y M m 7 4 < 7 7 7 4 4 4 4 7 7 7 7 7 4 7 m m 7 7 7 4 ",
", 4 4 4 7 4 < 4 , , , , 7 4 4 7 7 4 4 1 1 , 1 5 1 6 e _ 4 4 7 A a.a.! J < , < 4 , < , , 4 4 4 7 < < , , , , 4 4 4 4 7 4 4 < 4 4 ",
"4 7 4 4 4 4 7 m m 7 4 7 7 4 7 4 m m m 4 M 7 6 7 M N N m B B A H K u 9 5 P.{ * B m 7 7 7 4 7 4 4 7 m m m 4 7 7 4 4 4 4 m m 7 7 m ",
"7 4 4 4 4 4 m m 7 4 4 4 7 4 4 , < 4 4 4 7 7 y y J N M 7 M N M m S.`.B.8.-...] * m 7 < 7 4 4 4 4 7 7 m 7 4 < 4 4 7 4 4 4 7 4 4 4 ",
"7 7 4 4 < 4 4 m 4 4 < < 4 7 4 , , , 4 4 7 m N N f.Y x e 7 m m 7 S.T.Y.L.+.O.{ * 7 7 4 7 7 4 4 < 4 7 7 4 < 4 4 4 7 4 , , < 4 7 4 ",
"m m m 4 < 4 4 7 4 4 < < < 4 7 7 4 , 7 M B B A K m.Y.F.] < 4 7 9 L : / *.i.! S M 7 7 7 m m 7 4 4 < 4 7 7 4 < , 4 7 4 4 4 < m m m ",
"7 4 4 4 7 4 7 7 7 7 4 7 4 7 7 7 m m m m m m 8 7 M y.h.H H B B M 6 M Z i.M 7 4 < < 4 7 7 4 < 4 6 7 4 4 4 4 4 4 7 7 4 7 m m m m m ",
"7 7 7 4 4 7 7 4 4 4 4 7 7 7 7 7 7 4 7 7 7 7 7 7 9 N N M 9 7 7 m 6 7 y M 7 7 4 4 7 m 7 4 7 7 6 4 7 7 4 4 4 7 7 7 m 7 7 7 7 7 7 7 ",
"7 7 7 7 7 7 4 4 < 4 4 4 7 7 7 4 7 4 4 7 7 7 7 7 7 7 7 7 4 1 4 9 4 4 4 4 4 4 6 6 m m m 7 7 7 7 7 4 4 4 4 4 4 7 7 7 4 4 4 4 4 4 7 ",
"m m m m m 7 4 4 < 4 7 4 , < 4 < 4 7 6 4 6 9 m 7 7 7 m 5 1 1 4 6 , , , 4 1 4 6 7 M m m M m m m m 4 4 4 4 4 7 , , 4 4 4 7 7 7 4 7 ",
"7 4 4 4 7 4 4 4 7 4 7 4 4 4 4 , , 4 4 7 < 4 7 7 , 4 4 , M M M m m 7 6 7 < , , , 4 4 4 7 6 4 4 7 4 4 4 4 4 7 4 4 4 , , , 4 4 4 4 ",
"4 4 4 , , 4 , 4 < < < < 4 4 < 4 4 4 7 7 4 4 4 4 , , 3 R B M 7 1 4 4 4 4 , a k @ 7 7 7 6 4 , , < 4 4 4 4 , 4 4 4 4 4 < 4 4 7 4 4 ",
"7 4 4 4 4 4 4 7 4 < < 4 7 4 4 7 4 4 4 4 4 7 7 4 < 4 r o.B 8 8 w   6 y 7 4 P 1.& 6 7 6 6 4 4 4 4 4 4 7 4 , 4 4 7 4 4 7 4 4 4 4 4 ",
"7 7 7 7 m 7 7 m 4 7 7 m m 7 4 7 4 4 < 4 4 7 m m 9 M D N.B 7 s C.X x K N m J D M 4 4 4 7 4 7 m m 4 m 7 4 4 m m m 4 4 4 4 4 4 4 4 ",
"4 4 4 7 4 4 , 4 4 4 4 4 m m m m m 4 4 4 7 4 4 4 M B B 7 7 4 6 N y.N u 8 M B m 4 7 7 4 , 4 4 4 , 4 4 4 7 4 4 7 m m m m m 4 4 4 7 ",
"4 7 m 4 4 4 4 4 7 4 4 7 7 4 4 4 7 < , 4 7 7 7 m M B M y `.x.b 6 S M J _.k.S 7 < 4 7 7 4 m 7 7 4 4 4 4 4 4 4 4 7 7 4 4 7 , , 7 7 ",
"4 m 7 4 7 7 7 7 4 4 7 7 4 , , , 4 < < 4 m 7 7 7 H Y u.P ^.I.5.. F N y./.V.x 7 4 4 7 7 4 m 7 7 7 7 7 7 4 7 7 4 , 4 , , 4 , 4 4 m ",
", 4 4 7 m m m m 4 7 m m 4 4 , 4 4 7 7 7 4 < , 4 H ].|.!.&.%.' T m.G 3.=.] j m m 4 7 4 4 4 4 7 m m m 7 4 m m m 4 , 4 4 4 7 7 4 7 ",
"4 , , , , , , , 4 , 4 7 4 4 , 4 < 4 7 4 6 M M 1 < N ! a.~ g.z.m.y 7 p f._.m m m H H m 4 4 , , , 4 , , 4 4 4 4 4 , 4 4 4 4 7 4 7 ",
"7 m 7 7 4 7 7 4 4 7 7 m m 4 4 4 6 7 7 6 4 7 i 8.{ Q ! G C N u u `.v.4.N H B m 7 m m 7 7 7 7 4 4 7 4 4 4 7 7 m m 4 4 4 4 7 4 4 4 ",
"m m m m 4 7 7 4 7 7 m m m 7 7 7 7 7 7 7 6 4 p A.O.<.Z M M 7 t i ^.K.w.e H m m m m 7 7 m 7 m m 4 m 7 4 7 m m m m 7 7 7 7 7 7 7 4 ",
"4 4 7 m 7 7 7 7 m m m m 4 7 7 m m m m m 7 m C g.a.V 9 < 9 7 s C.*...] ] L H H L H m 7 4 7 m 7 7 4 7 7 m m m m 4 4 m m m m m m 4 ",
", 4 4 4 7 4 4 4 , , , , 7 4 4 7 4 4 4 4 < < 7 m 6 9 g ` 5 4 9 C m.a.d.J 6 2 5 6 7 7 4 , 4 4 4 4 4 4 , , , , 4 7 4 4 4 7 4 4 4 , ",
"4 4 4 4 7 4 4 7 7 4 4 4 4 4 7 4 m 7 7 4 7 7 7 m u u h Q B N C A d.D N 7 8.U e N m 7 7 4 7 4 7 4 4 7 7 7 4 4 4 4 4 7 7 7 7 4 4 m ",
"4 4 4 4 4 4 7 m 7 4 4 4 7 4 4 4 4 7 7 4 7 7 7 m N N u N A J H C a.d.Y d F.X.= c H m 7 7 4 4 4 4 4 7 m 7 4 4 4 7 4 4 4 7 7 7 4 m ",
"7 4 , 4 4 4 7 m 7 4 4 4 4 4 4 , , , < < 4 7 7 7 H M 9 9 C K H 9 J.}.|.E.` ` ^ + H 7 4 4 4 4 4 , 4 m m 4 4 4 4 4 4 4 , , 4 , 4 , ",
"m m 7 7 4 , 4 7 7 4 4 4 4 4 7 4 < 4 4 m m M B B l.Y.e.T 9 9 m M ~ : / $.~ ! S M 4 7 7 m m 7 4 4 4 4 7 7 4 4 4 4 7 7 4 4 4 7 m m ",
"7 7 7 4 4 4 4 7 4 4 4 4 4 7 7 7 7 m m m m 9 7 7 u p.p.b B B N M N i j >.u 9 7 6 4 4 7 7 7 4 4 4 4 4 7 4 4 4 4 4 4 4 7 7 7 m m m ",
"7 7 4 4 4 7 4 7 4 4 7 4 7 7 7 4 7 7 m 7 m 7 6 4 6 N Z N N N M m 7 m y h 5 4 4 4 4 7 7 4 4 4 4 4 7 4 4 4 4 4 7 7 7 7 7 m 7 m 7 7 ",
"4 4 7 7 7 4 7 4 4 4 4 7 m m 7 7 4 4 4 7 4 4 6 6 6 6 5 5 6 1 6 M 6 5 5 5 5 6 6 4 m m m 7 7 4 7 7 7 7 4 4 4 4 7 m m 7 4 4 4 4 4 7 "
};
