/* XPM */
static char *minecraft_d7[] = {
/* columns rows colors chars-per-pixel */
"48 48 121 2 ",
"   c #160F07",
".  c #1A120A",
"X  c #1D150C",
"o  c gray10",
"O  c gray11",
"+  c #1D1D1D",
"@  c gray12",
"#  c #2A2013",
"$  c #322617",
"%  c #3F311F",
"&  c gray13",
"*  c gray14",
"=  c #252625",
"-  c gray16",
";  c #2C2C2C",
":  c #2E2D2E",
">  c #2F302F",
",  c gray19",
"<  c #323332",
"1  c #333233",
"2  c #343434",
"3  c #353535",
"4  c #363536",
"5  c #373537",
"6  c #373737",
"7  c #393939",
"8  c #3A383A",
"9  c #3B3A3B",
"0  c #3E3C3E",
"q  c #3E3D3E",
"w  c #3E3E3E",
"e  c #3F3F3F",
"r  c #422F18",
"t  c #384027",
"y  c #394027",
"u  c #394028",
"i  c #3E4B2C",
"p  c #3E4B2D",
"a  c #3E403E",
"s  c #44542C",
"d  c #44542D",
"f  c #4F5C38",
"g  c #4F5C39",
"h  c #6A4922",
"j  c #7A582E",
"k  c #7E5E34",
"l  c #54633A",
"z  c #54633B",
"x  c #413E41",
"c  c #414041",
"v  c #434043",
"b  c #434543",
"n  c #464346",
"m  c #444444",
"M  c #454445",
"N  c #474647",
"B  c gray28",
"V  c #494B49",
"C  c #4D4B4D",
"Z  c #4C4C4C",
"A  c #4E4D4E",
"S  c #504D50",
"D  c #504E50",
"F  c #4D5F54",
"G  c #4D5B5E",
"H  c #505050",
"J  c #535153",
"K  c gray32",
"L  c #535154",
"P  c #545154",
"I  c #545354",
"U  c #585858",
"Y  c #595859",
"T  c gray36",
"R  c #5F5C5F",
"E  c #4F6557",
"W  c #4F6558",
"Q  c #536A57",
"!  c #536A58",
"~  c #596F5E",
"^  c #5C725F",
"/  c #4F5E61",
"(  c #605F60",
")  c #605F61",
"_  c #615F61",
"`  c #536265",
"'  c #556266",
"]  c #556367",
"[  c #566567",
"{  c #586569",
"}  c #5A686B",
"|  c #5B696D",
" . c #5E6C70",
".. c #5A7075",
"X. c #5C7277",
"o. c gray39",
"O. c #656265",
"+. c DimGray",
"@. c #6C696C",
"#. c #627074",
"$. c #637074",
"%. c #647276",
"&. c #60777B",
"*. c #69777B",
"=. c #6A777B",
"-. c #62797D",
";. c #647B7F",
":. c gray44",
">. c #805E34",
",. c #937245",
"<. c #697E84",
"1. c #6A8083",
"2. c #6C8B8A",
"3. c #678990",
"4. c #6C8D94",
"5. c #739096",
"6. c #769399",
"7. c #78959B",
"8. c #77989F",
"9. c #8BB3BB",
"0. c gray69",
/* pixels */
"w ( ( ( @.3.@.@.@.@.@.@.@.@.@.9.u z g ( z 4.@.d g z z g g d @.( U U U 3.H H B H U 8.I U o.o.o.o.",
"w ( ( U U -.U ( ( ( ( ( U ( @.@.p d d U U | U ( d z g z p ( U @.U U H [ B U U U | U U U U H U U ",
"w U U U ( ;.U U U U U U U ( ( @.w d U p o.~ | U d g d g p U ( @.U U U U | J H H [ H H H B H U U ",
"w J J U | 7.( U U U U U ( U U @.w p J U J U %.U J g ( p U U U @.H H U 6.U U o.o.| U o.U o.o.U U ",
"w U U J  . .J U U ( ( J J V J @.w U J U J U Q U U s U J J s J @.U U H %.o.o.o.U } U H H U U U H ",
"w J U [ J | U U J J J J U V J ( y J U p p g ~ d J J U J d p J ( o.H V } B H H U ..U U U U U U U ",
"w V V [ V [ V V V V V V V V V V p J U J p p ! d p J J V p p J J U U U  .H H H o.%.H o.o.U U U H ",
"m m ` m m ` m w w w m m w w m m m m m y y u 2.w w w m m y w m m U U U } H H U U 5.H Z H V B H H ",
"@.@.*.@.@.@.*.( w w @.@.@.@.@.@.z z g @.@.@.*.w w w @.@.@.f z z H U U | U U o.o.o. .U o.U o.o.o.",
"U  .( ( ( U $.( w U U ( ( ( ( J g ( ( ( ( U ( $.w U U ( ( ( ( s U o.o.%.o.U o.o.o.| U U U o.U U ",
" .U ( ( ( J U *.w J U U ( U U ( U d ( J ( J U *.w U U U ( U U ( H H J } U I U H Z [ J H U J U B ",
"( U U U J U U *.w V J U U ( ( U U i U U J U U *.w V s U U ( ( U o.U %.U U U U U U $.o.U U I U U ",
"J J U U U J J $.w J U J U U U U J J U ( U z g $.w J d J U U U U H B } Z B U U H U %.o.U D J U U ",
"J J U J J J U $.w J V V J V J J J U U J J U z $.w J d d J V J J H J } H U U H H H | U L U U o.o.",
"V V V V V V V [ w V V V V V V V V J J V P p p | w U P d p p V V o.%.o.o.U U U U U  .U U S D U U ",
"m m m m m m w / w w m m m m m m y y m m u u u w / w m u u u y m U | H U U o.U U J U | U U U U U ",
"U U U U H H B } U H H U o.o.o.o.V @.( @.@.o.+.@.@.$.( @.@.@.@.@.t ^ g ` z l @.d g z ~ f g d @.R ",
"H U D V B U U U X.U U H U H U U w U U U U V V U U U  .V U U U @.W s s U U U U ( d g f ^ p U U @.",
"U U U U U D H } V } H H B Z H U w V J V m m m :.0.w / w m m U ( / s U i ( g U U s f s } d U ( @.",
"H H I U U U %.o.U U $.U o.o.U U w J ( m +.o.@.:.+.U $.@.@.w V ( / p J U L U ( U J f ( Q D U U @.",
"U U H H O.o.%.o.J U U } A U U H w U ( m V U U +.+.L { U @.w U *.w U Z U U g d R U s P | I s I @.",
"o.H B H V D } U U U U U $.I o.U w U ( m J U A ,.h w ' P O.w U *.u U U i i d d d J I U U W p P ( ",
"U U U U D D ' ~ o.H o.o.o.%.U H w J @.m V P A k % , m { ( w V $.i L I I i d d d s D D V W p I D ",
"U U U H D S Y $.H H V H m V } H w V @.w J m D >.# - 9 C *.w  .( b b b t t y % 0 9 w m m F w m m ",
"H U U U U U o.%.o.o.U o.U o.o.%.w J @.w V 9 e j $ & 9 L X.w [ ( z z g @.@.@.( x 0 ( @.@.=.f z z ",
"U U o.o.o.U U %.o.o.U U U o.I $.w J @.w m e 5 h # 9 , Z ( ` [ @.g ( ( ( R U ( @.0 U U ( $.( o.s ",
"H H H U U P U | V B H H U H U [ w J R w m , , r X 4 6 A @.X.U @.U d R J ( D T @.0 U U ( $.U ( ( ",
"o.U o.o.U U U | U U o.U U U U | w U o.m m , = h . : < B @.X.U @.~ p U U S U D @.0 V U U $.( ( U ",
"H B H H Z U $.H H U o.U H H A %.w J ~ x c * @ %   o : 4 G [ U @.J J U o.U z g o.d L d L } Y Y U ",
"o.o.H H U } H H H U U H H U o.%.G J Y _ I c c %   x m S O.<.( ' J U U J P P z R 0 L d | I B I I ",
"T o.%.%.| U U U U U U U U H { U G V C C e 4 : : : : , w U -.P ( V L L V L p d 9 0 U d W s B V V ",
"H $.H U U o.o.U H H U U U U | U ' 0 0 8 , : O O O @ # , e G / V u u m m u u y 0 0 0 m G y y y m ",
"E l f R z z @.d g z z z f ! @.( w $.( U ( D D 4 m m C N @.=. .m U U U U H H V U U H U  .o.o.o.o.",
"i s s U U U U U d z f z E ( U @.w  .( U U m m 4 x x x 9 U |  .V L U J m U U U U U U | H U J U U ",
"w s U i ( g U U s g s g W U ( @.w  .U m U C V U ( U U m m ' U *.U U U U U H H H B H } H V H U U ",
"w i J J P U ( I U g ( E U P P @.w J | m m m U U U U U x *.( m | H H J U U o.o.U U U %.U o.U U U ",
"w U Z A L g f s U s ..U L d J @.w V J  .m J U J U P m (  .J U *.U U H o.o.o.o.U J U } H U U U H ",
"4 J D d i d s s J | J U d p J J w J w m | J J V V V J J | J J ( $.H B J B H H U U U | U U U U U ",
"s U U I i d d s E Z I Z p p V J w m m V | V J V V V P [ V V V J | U U U H H H o.H H $.o.U U H H ",
"s x x 6 < u E G w a m m % w m m m m m m ` m m w x w m ` m w m m  .U U J H U U U H H Z [ V B H H ",
"z z f @.=.=.@._ w ` @.@.@.f l l +.@.@.@.$.w ( ( e m P $.m @.@.@.} U U U U U o.o.o.U U %.U o.o.o.",
"f ( ( $.( U Y @.w U U U o.R ( s o.U ( ( J ` m J w V  .U ( P _ Y U %.o.o.o.U U o.o.o.U | U o.U U ",
"U s ( } ( D P @.w J I U ( U U ( U m b R ( ( ` J w w ` x U U ~ _ H H } U U H U H Z V J } U U U V ",
"R s I $.I Y I @.w V d U U ( ( U U U m U U (  .@.m w ' 0 U U U U o.U %.o.U U U U I o.$.U U U U U ",
"D P #._ U z g ' e I s s J U U U L J m R U U U ;.w o. .@.V U U U H H H } U U H H J | U H H H H U ",
"S } U D L U z ] e I s s J Z V J L w w o.P U D L / U | U Z J V J o.o.H } U U H H | U U H U U o.o.",
"[ I D D L i i w a w I s s s V 1.V w e V P V V w / / L P V J V Z o.' o.$.U U U | U U U U U H U U ",
"W r m m t t t w w w b % < y t ;.m m m m m m w a e  .m m b b b m Y U H U ..%.%.U H J U U U U U U "
};
