/* XPM */
static char *minecraft_r3[] = {
/* columns rows colors chars-per-pixel */
"48 48 160 2 ",
"   c #3E2711",
".  c #3F2F1D",
"X  c #303621",
"o  c #343B24",
"O  c #3A3924",
"+  c #343434",
"@  c #3E3636",
"#  c #3D3C3C",
"$  c #452D14",
"%  c #41311E",
"&  c #573C1E",
"*  c #433321",
"=  c #463B22",
"-  c #4C3C27",
";  c #503E27",
":  c #523E2A",
">  c #4A3933",
",  c #443D3D",
"<  c #503E38",
"1  c #3C4326",
"2  c #3A4826",
"3  c #3A4328",
"4  c #3E4C2B",
"5  c #3E403E",
"6  c #58491E",
"7  c #68451E",
"8  c #454022",
"9  c #4A4524",
"0  c #444A2A",
"q  c #5D4021",
"w  c #514C24",
"e  c #5E4F20",
"r  c #54432F",
"t  c #5A462F",
"y  c #524D2A",
"u  c #5B482F",
"i  c #44542C",
"p  c #5B5325",
"a  c #5F5926",
"s  c #56542A",
"d  c #4E4038",
"f  c #564431",
"g  c #594635",
"h  c #5D4A34",
"j  c #54443D",
"k  c #5E4B3B",
"l  c #4A5533",
"z  c #4E5C36",
"x  c #4F5C39",
"c  c #595530",
"v  c #555935",
"b  c #5D5A31",
"n  c #6A4721",
"m  c #675F25",
"M  c #645629",
"N  c #625A2D",
"B  c #685E2D",
"V  c #614D34",
"C  c #624F3D",
"Z  c #645237",
"A  c #695737",
"S  c #605B34",
"D  c #6B5D34",
"F  c #65513B",
"G  c #6A563D",
"H  c #6B583C",
"J  c #54633B",
"K  c #5A6039",
"L  c #6D662D",
"P  c #7A692E",
"I  c #646136",
"U  c #696233",
"Y  c #6E633A",
"T  c #746537",
"R  c #746C33",
"E  c #706239",
"W  c #736A3C",
"Q  c #7A723C",
"!  c #444544",
"~  c #4B4343",
"^  c #4F4947",
"/  c #4B4B4B",
"(  c #5A4A43",
")  c #554D4D",
"_  c #5B514B",
"`  c #594F51",
"'  c #525252",
"]  c #5D5555",
"[  c #595959",
"{  c #645041",
"}  c #6A5646",
"|  c #6D5A44",
" . c #62504A",
".. c #6B5949",
"X. c #715D43",
"o. c #705C4C",
"O. c #685750",
"+. c #6F5D57",
"@. c #655B5D",
"#. c #725E5A",
"$. c #776447",
"%. c #796543",
"&. c #7F6B43",
"*. c #756249",
"=. c #78654D",
"-. c #7D694F",
";. c #776253",
":. c #796655",
">. c #7C6A52",
",. c #73625B",
"<. c #7C6959",
"1. c #605F60",
"2. c #6A5F62",
"3. c #646364",
"4. c #686060",
"5. c #6C696C",
"6. c #7A6662",
"7. c #7C6A64",
"8. c #716669",
"9. c #FF0D00",
"0. c #FF1900",
"q. c #8C5D28",
"w. c #93602B",
"e. c #9A6933",
"r. c #847A37",
"t. c #807739",
"y. c #957232",
"u. c #9F7039",
"i. c #A57737",
"p. c #FF7500",
"a. c #846F42",
"s. c #817644",
"d. c #847C45",
"f. c #8A7648",
"g. c #8E794B",
"h. c #907B4E",
"j. c #816E55",
"k. c #826E59",
"l. c #867353",
"z. c #897553",
"x. c #8D7954",
"c. c #86745B",
"v. c #8A775C",
"b. c #8F7B5E",
"n. c #937E52",
"m. c #816E60",
"M. c #8D7A62",
"N. c #8B7669",
"B. c #8E823D",
"V. c #91863E",
"C. c #FFD800",
"Z. c #998456",
"A. c #9A8459",
"S. c #B78D42",
"D. c #A08A5F",
"F. c #9D8762",
"G. c #94806B",
"H. c #FBE571",
"J. c #FFF2AF",
"K. c #F9E4B3",
/* pixels */
"[ [ [ [ ' / / ' / ! / / ' ' ' / ' @.8 y s s s c w ,.b b O.l v O @.2.2.1.1.3.5.5.5.5.5.5.1.[ [ @ ",
"' ' / ' / ' ' ' ' ' ' 5 d / ' ~ @.^  .8 c y b w O. . . . .w 0 8 2.) ] ' [ [ 1.1.1.[ [ [ [ ' ' + ",
"' / ! ! / / / ! / / / ' ' ] ] ] ,.O. .9 c w M a ..| N O.9  .y > 2.] ) @.` [ [ [ [ [ 1.1.' / / + ",
"' ' [ 1.' [ ' ' [ 3.[ ] [ ` )  .7.O. .O.b <.T $.9.j.o.| ..} y d 6.] ` ` 1.1.[ ` [ 1.[ ' [ / / + ",
"/ ' ' / / / ' ' [ 3.@.@.4.' O.O.7.O.U ;.<.m.Q c.9.R Q <.o.k o.h 7. .^ ` ` ] 1.[ [ / ' [ ' ! / + ",
"' [ ' ' ' ' ' [ [ ' _ ^ _ ( _ ,.6.#.W Q c.k.l.p.p.d.t.W %.<...w o. .( @.] ` ` ` ' [ [ / ! ' / + ",
"/ ' ' [ [ [ / 3.4.) ) _ O.O.O.,.k.-.W W >.c.-.Q t.t.W W k.k.<.p C { ( ( ^ ^ ^ ^ / ! ! ! ! ! ! # ",
"/ / ! ! / ! ' ' ] ] ' _  .O.,.l.=.-.*.E =.=.*.*.$.T E Y Y =.X...k C g < j ~ , , # 5 5 5 # 5 5 # ",
"[ 1.[ [ 3.[ [ 4.4.4.O.O.O.,.>.>.Q Z.&.G.G.G.M.$.b.G.M.G.G.s.d.s.N.k.m.k.m.6.@., 2.1.1.2.3.3.3.3.",
"[ [ 3.[ [ [ @.4.4...O.,.7.v.G.c.Q M.M.M.M.c.x.&.F.b.v.M.M.M.M.s.>.m.#.o.#.O.O., 5.2.' [ [ [ [ ' ",
"! [ ' [ ' ) ^ ^ ` O._ ,.>.>.>.>.v.<.c.M.c.x.h.a.D.n.l.M.<.M.Q c.M.j.<.;.o.O. ., 8.] ` 1.' 1.[ [ ",
"[ [ [ [ [ 4.@.] ] ..+.j.G.G.v.G.z.G.M.c.c.r.f.0.D.h.v.j.c.c.W M.c.M.c.j.o.} ( , 8.) ` / [ [ [ 1.",
"[ / / ' [ 3.] '  .O.;.:.=.j.>.>.<.G.>.Z.k.r.h.p.0.B.d.c.M.c.c.<.v.c.c.j.o.o. .< ] ^ ) ' [ [ ' ' ",
"3.3.[ ' ' _ ]  . ._ k.c.<.j.>.b.z.<.>.<.Q t.h.C.p.V.v.j.l.c.c.c.k.j.>.>.=.{ } < O.` ) ) / ' [ ' ",
"[ ' / [ ] ] ....O.+.j.c.G.G.M.G.>.>.W W Q g.Z.C.p.r.W c.>.c.>.>.>.>.>.=.=.C { < ~ , ~ , ! ! ! ! ",
"[ [ [ [ ] ] _  .O.k.v.c.l.>.c.c.=.Y Y I Y s.p.C.C.P D D =.=.E Y =.=.=.=.X.C V < > , , , 5 5 5 5 ",
"1.5.i x v K I S U M.d.&.M.&.d.Y G.G.G.G.M.A.p.C.C.A.c.M.M.G.G.-.M.M.M.M.l.} } O. .j ^ ^ ` ' ' ' ",
"5.[ 1.4 K S I s >.>.>.c.v.Q Q W G.c.c.c.>.Z.C.J.C.p.=.>.<.c.c.*.c.c.c.c.>.*.o.o...O.` , d ^ ' ! ",
"5.1.[ 4 v s S s -.>.Q G.W c.W *.G.<.=.=.*.s.C.J.J.C.%.o.$.<.>.*.c.j.:.>.>.X.E {  ._ ` ` ' ' ' ' ",
"5.[ ' [ 0 #.S  .>.>.>.c.c.<.W *.G.>.*.G.G.A.p.C.C.p.x.M.*.M.>.*.c.v.M.M.<.-.*.o.:.#.] ] [ / / ! ",
"5.' 0 ' ` ..s O.-.L Q v.k.>.c.*.G.>.*.G.G.Z.Z.H.K.Z.>.*.X.c.c.*.k.c.c.j.=.X.%.} ..,.@.4.4.' [ [ ",
"1.' 4 i ]  . . .L R L W W c.k.E G.z.| G.<.&.s.S.y.s.>.>.o.G.<.*.c.M.c.c.j.X.=.o.o. . .^ ) / ' 3.",
"' / 4 4 ^  .( y L L L W k.k.c.W G.>.X.G.v.>.I i.m =.>.*.=.G.<.$.j.c.c.b.j.j.| ;.:. . .) ] [ [ [ ",
"! ! 5 + ~ ~ d > u e M Y E =.=.=.G.>.X.G.<.| y u.; =.*.>.*.G.>.$.j.j.-.X.X.A X.} o.O. .) ) ] [ ' ",
"J J x 5.5.8.+.< ;.l.M.b.N.f.s.d.M.>.o.M.c.F r e.q F F *.o.G.<.*.M.M.c.-.j.X.X.j.>.,...] [ [ [ / ",
"i 3.1.1.1.] O.< k.j.X.k.k.b.M.s.G.-.=.M.>.{ V q.& F F *.*.G.<.*.l.=.l.=.=.%.j.:.>.O.O.4.1.3.3.[ ",
"[ [ [ 3.[ ] ` < 6.o.H j.=.l.Q c.G.c.=.G.c.F h n $ g V | o.M.c.*.| j.H =.X.X.F C } O._ ] [ ' / ' ",
"[ 3.[ [ ] i ^ , 6.} X.X.X.j.B M.G.c.=.G.>.g r w.$ : h | =.M.c.A j.%.=.$.X.j.:.o.O.O...[ 3.1.[ 3.",
"[ [ [ [ ' i ' , 1.S R =.-.$.=.=.G.l.>.=.| f - 7   * g F X.G.*.Z X.E X.X.*.<...} _ O.] / / ' ! ' ",
"' ' / ' i i ' , 2.K o.X.X.$.$.=.>.G.G.G.>...} 7   } | =.c.>.=.c j.j.X.X.X.o.o.} _  .[ ] / ' ' 3.",
"! ! 3 3 0 / ' , ^ O 9 { V | H H j.=.<.>.*.h f t t f F F =.H H V $.X.X.$...o.o...O.O.' [ 3.3.3.[ ",
"5 o o o o 5 @ + > O = = g V 6 6 H V Z b Z f * . . . % ; u u V V $.=.$.o.o.o._ _ [ 3.3.[ [ ' ' ' ",
"[ [ 1.[ ' / / ' / ~ ^ (  .} X.X.F X.v.j.V } G V & k F j.o.a.j.V j.l.n D D I I x i 5.J J 3.x z o ",
"' ' / / ! / ' ' ' ) ) ~ j ( } F G o.a.o.V V V g : g n } { j.X.g j.o.;.e I S I i 1.[ ' [ [ i 4 3 ",
"' / 5 5 ! ! ! ! / / ^ ) )  . .o.l.a.F F X.{ V C V : C { F a.a.V k.#.o.y S s S i [ [ x 3.4 [ 4 # ",
"' ' [ [ ' [ ' [ 3.3.] ] ] )  . .} Z j.k.V a.C V V G t V F X.} g k.o. .O.y @.x ' [ [ [ ' [ ' 2 + ",
"' [ ' / ! ! / ! ' 3.3.4.4.) ] O.m.o.} o.j.F X.{ g F F V o.} { g m. .y  .` [ i [ [ i ^ [ ' ! / + ",
"[ 1./ / / / / / / / ' ! ) ^ ) @.O.( { { C } } k o.} C } < : { > #. .y l [ ' ' ' i J i 4 3 ' / X ",
"/ ' / [ [ [ ! [ [ ! / ' [ ] ) ` ^ ~ j j < { g k V k < C < > < > ( ~ = 3 ! / ! 3 2 2 o 3 / / ' 2 ",
"/ / 5 5 ! # ! ! / ' ' ' ' ] ) ' , , > , < < > > > > > > > < < , , , # o # # # + + X X o o 5 5 5 ",
"[ [ ' ! [ / / [ 1.[ [ ' [ [ ' ^ 2.2.2., @.~ @ @ ` ` + ` 2.2.2.2.v x l 3.3.3.' + ' 1.[ 1.3.l x x ",
"/ / ' / / / [ [ 1.' [ 3.3.3.3.' ' ' [ ~ ` ^ , , ] ^ , ^ ` ] ` [ 0 [ [ [ [ ' / + 1.' ' ' [ [ [ l ",
"5 / 5 ! 5 ! 5 ! / ' / ' [ ' ' ' 1.[ ' [ , / ~ + ~ , ` @.1.[ # ' [ ' ' [ ' ' ! + 1./ ! [ / [ 4 [ ",
"/ / / / ! ' [ / ' ' ' ' [ 1.[ 1.[ ' ' ' @ # + # 1./ 1.[ [ ! [ [ [ 1.[ [ [ 4 ! # 3./ ' ' [ [ 4 1.",
"/ ! ! ! / ' ! ! / ' ' 5 5 ' ! ' ' [ ' ! 2.' ' + 1./ [ [ 1.! ' [ [ [ [ [ ' 4 / + [ l x [ 1.[ ' ' ",
"[ [ / ! ! / ! ! ! l ' / / ' ' 3.' ' / [ ' / / + ` ! [ ' 1.# ' ' ' ' ! ' i 4 / # [ x ' ' ' [ [ ' ",
"[ ! ! / / / ! / / / / / [ 1.1.3./ / ' / ' ! / + ! # / ' / 5 5 / / / 4 4 i ' ' # / 3 3 ' / ' ' / ",
"[ [ ' / / / ! ! / [ [ / / / [ [ ! ! ! ! ! 5 + + + @ ! ! ! ! ! ! ! 1 + 3 o # # + # o o 3 ! ! o O "
};
