/* XPM */
static char *minecraft_u1[] = {
/* columns rows colors chars-per-pixel */
"48 48 92 1 ",
"  c #196769",
". c #1A6B6E",
"X c #1B7072",
"o c #1C7476",
"O c #1D777A",
"+ c #1E7B7E",
"@ c gray28",
"# c #484848",
"$ c #494949",
"% c #494B4B",
"& c gray29",
"* c #4C4E4F",
"= c #4F5152",
"- c #505050",
"; c #515151",
": c #515555",
"> c #535454",
", c #565656",
"< c #535758",
"1 c #565858",
"2 c #555A5B",
"3 c #575D5E",
"4 c #585858",
"5 c #585B5C",
"6 c #5B5C5C",
"7 c #585F60",
"8 c #5A6162",
"9 c #5E6061",
"0 c #5D6162",
"q c #5F6466",
"w c gray38",
"e c gray39",
"r c #606464",
"t c #656666",
"y c #616768",
"u c #636768",
"i c #666768",
"p c #656A6C",
"a c #646B6D",
"s c #696C6C",
"d c #686E6F",
"f c #6C6F70",
"g c #6A7072",
"h c #6B7374",
"j c #6F7374",
"k c #61777A",
"l c #647B7F",
"z c gray44",
"x c #737475",
"c c #717778",
"v c #767979",
"b c #747A7B",
"n c #767D7E",
"m c #797D7E",
"M c #1F7E81",
"N c #787F81",
"B c #169398",
"V c #17989C",
"C c #208184",
"Z c #208487",
"A c #189CA0",
"S c #19A0A4",
"D c #19A3A8",
"F c #1AA7AB",
"G c #1BAAAE",
"H c #1DB1B6",
"J c #678084",
"K c #6A8488",
"L c #6D888C",
"P c #798183",
"I c #7C8182",
"U c #6F8B90",
"Y c #718F93",
"T c #739296",
"R c #759499",
"E c #77979C",
"W c #55A395",
"Q c #58A799",
"! c #5AAB9E",
"~ c #5DAFA2",
"^ c #5FB2A5",
"/ c #61B5A9",
"( c #63B8AC",
") c #66BDB1",
"_ c #68BFB4",
"` c #858D8F",
"' c #9FBDB9",
"] c #A2C0BC",
"[ c #A4C3BF",
"{ c #A6C6C2",
"} c #A8C8C5",
"| c #AACAC7",
/* pixels */
"e44e4--4=#=*1bcireee6--,>#>;,,44eeee4;;4;$;;4444",
"44>9%eeei96>>>9a64-4>,,,,,,&&,,>44;4;,,4,,,$&,,;",
"4>**Vi4**><*(Cia6>%%---&;;;,,,6,44$$;;;$;;;,,44,",
"eisrLj>!+UjaYbq1>>ee,e,,ee,,,;;;4,ww4e,,ee,44;;;",
"-47da8>PRgqgv764>46-->4>,ewee;,,;,,;;;,;4eewe;,,",
"6sra8|_7hq}^6==e,e,,,,,,,;;&;$;e,e444,,,4;;$;$;e",
"46g|)HHCRaA+7444-,4eee-ee>--4444-,,wee;ee;;-,444",
"s;>gT`UU81gP4ezz--%#-#--,,;;;444;;$$;$;;4,;;;,44",
";~ALg96>{(q644e-eee4e44eee4444,;eee4e44eee4444,;",
"qKN0%61/GMCKezz444e4,4eee44eeee444e444eee44eeee,",
"#q<8A8=sTEN1%---&,;,;;$$;4;44;;;$,;,;;$$;,;44;;;",
"98qqsxssba8(Oee444,,4ee,,4,4we,e44,,4ew4,44,we,w",
"91j>>dx>~}(GV e-4;;;,e4;;,4$$;;;4;;;,e,;;,6$$;;;",
"edL^+>19xoSKkr44ee,;;44;;;44;;eeee4;;44;;;4,;;ee",
"1--Jdti11ek4---444;,44,,4444eewe4,;,44,,4444eeee",
"144411=e114444te444,44;;4ee,,;4,444444;;4ee4,;,4",
"eeee,--6-%--4444e44e7;;<-#*=<eeeeeee4;;4;$;;4444",
"6,;,>,,,,,,%#44-44;6%rpee47=%%-444;4;,,4,,,$&4,;",
",4#&--;&;--44>44,;$&Br6%-==%W.644,$$;;;&;;;,4,44",
"44we,e,4ee444---eee6Nf>QXNjqNi>-4,we4e,,ee,4,;;;",
";,4;;;,;,eeee-44;,46w42cKi28g<<<;,,;;;,;,eewe;,,",
",e44,,446--#-#-e6t66<{/<q9'~<%*t,e444,,,4;;$;$;e",
"-,4eee;ee;--4444;,s'!FFoKqAO6444-,,eee;ee;;;,444",
"--#$-#-;,,---444t;-fLnLY<=yN4ezz--$$;$;;4,;;;,44",
"eee4e44eee44444-%!AKs97;'^=><1r-eee4e,4eee444,,;",
"4,e4,4eee44eeee4<PK9%63!AOXPyjx144e444eee44eeee,",
"$4;4;;$$-4-44---%2;6B>=jLLj**>*-&,;,;;$&;,;44;;;",
"44,,,ee,444,ee,t23idedsxb81^Xse444,,4ee,,44,we,e",
"4;--4e4;-44%#-->9qb87rs1^{/DVXe-4;;;,e,;;,6$&;;;",
"ee,;;4,---44--tssbT)Z-19m+SKJt4,ee4;;44;;;4,;;ee",
"44;444444444eeet91qTxjst4sKe,--44,;,44,,4444eeee",
"44444,;;4ee4<-1166666,*r4444,,et444444;;4ee4,;,4",
"eeee,>-4;$;-,444e44e4--4-#--<0qeeeee,;;4>#;;4444",
"44;4-,,4,,,$&44;44-4%iiee44-%%>144-4;,,,,,,&&,,;",
"4,#&;;;$;;-44,4,4-@%Bs7%%=>%W.664>%%;>;$;;;,,44,",
"4,ww4e,,ee,4,;;;er0iRs;Q.NseNi>>4>ee,e,,ee,,4;;;",
";44;;-4;,ewee;,4-4yf05*sJq8yg>64->4->-4>,eeee;,,",
",e4,4,,,4-;$;$;e1esq8}~*aq]^8%*e,t4,,,,,,;;$;&;e",
";,4eee-ee;--4444*>f|)GDMTgHCy94,-,4eee-ee;--4444",
"--$$;$--44--;444f==cLILT82PT9ixz--%#-%--4,-;;444",
"eee4e4,eee44444>=^SJjy1>}(7ae4e-eee4e4,eee4444,;",
"44e444eee44eeee6rLLq*01QDZCJsmv444e444eee44eeee4",
"$,;4;;$$;4;44;;-;r50V1=fYUc2<46<&,;,;;$$;4;4,;;;",
"4,,4,ee,,,44we,e5eyascccbe;/Oxsw444,,ee4,444ee,e",
"4;;-4e4-;4,$$--;66x78gn9~{/VVox;4;;;,e4;;,,&$;-;",
"ee,-;44;-;44-;eeisU^C70iPOANlt,,ee,;;44;;;44;;ee",
"44>,4444,444eeee4>1Ljjjq6ik<;-;44,;,44,,4444eeew",
"44444,;;4ee4,;,,444111-t4<<<44ee4,,644;;4ee,,;,,"
};
