/* XPM */
static char *minecraft_d2[] = {
/* columns rows colors chars-per-pixel */
"48 48 123 2 ",
"   c #160F07",
".  c #1A120A",
"X  c #1D150C",
"o  c gray10",
"O  c gray11",
"+  c #1D1D1D",
"@  c gray12",
"#  c #2A2013",
"$  c #322617",
"%  c #3F311F",
"&  c gray13",
"*  c gray14",
"=  c #252625",
"-  c gray16",
";  c #2C2C2C",
":  c #2E2D2E",
">  c #2F302F",
",  c gray19",
"<  c #323332",
"1  c #333233",
"2  c #343434",
"3  c #353535",
"4  c #363536",
"5  c #373537",
"6  c #373737",
"7  c #393939",
"8  c #3A383A",
"9  c #3B3A3B",
"0  c #3E3C3E",
"q  c #3E3D3E",
"w  c #3E3E3E",
"e  c #3F3F3F",
"r  c #422F18",
"t  c #394027",
"y  c #394028",
"u  c #3E4B2C",
"i  c #3E4B2D",
"p  c #3E403E",
"a  c #44542C",
"s  c #44542D",
"d  c #4F5C38",
"f  c #4F5C39",
"g  c #6A4922",
"h  c #7A582E",
"j  c #7E5E34",
"k  c #54633A",
"l  c #54633B",
"z  c #413E41",
"x  c #414041",
"c  c #434043",
"v  c gray26",
"b  c #434543",
"n  c #464346",
"m  c #444444",
"M  c #454445",
"N  c #474647",
"B  c gray28",
"V  c #484848",
"C  c #494B49",
"Z  c #4C494C",
"A  c #4D4B4D",
"S  c #4C4C4C",
"D  c #4E4D4E",
"F  c #504D50",
"G  c #504E50",
"H  c #4D5F54",
"J  c #4D5B5E",
"K  c #505050",
"L  c #535153",
"P  c gray32",
"I  c #535154",
"U  c #545154",
"Y  c #545354",
"T  c #585858",
"R  c #595859",
"E  c gray36",
"W  c #5F5C5F",
"Q  c #4F6557",
"!  c #4F6558",
"~  c #536A57",
"^  c #536A58",
"/  c #596F5E",
"(  c #5C725F",
")  c #4F5E61",
"_  c #605F60",
"`  c #605F61",
"'  c #615F61",
"]  c #536265",
"[  c #556266",
"{  c #556367",
"}  c #566567",
"|  c #586569",
" . c #5A686B",
".. c #5B696D",
"X. c #5E6C70",
"o. c #5A7075",
"O. c #5C7277",
"+. c gray39",
"@. c #656265",
"#. c DimGray",
"$. c #6C696C",
"%. c #627074",
"&. c #637074",
"*. c #647276",
"=. c #60777B",
"-. c #69777B",
";. c #6A777B",
":. c #62797D",
">. c #647B7F",
",. c gray44",
"<. c #805E34",
"1. c #937245",
"2. c #697E84",
"3. c #6C8B8A",
"4. c #678990",
"5. c #6C8D94",
"6. c #739096",
"7. c #7E9197",
"8. c #769399",
"9. c #78959B",
"0. c #77989F",
"q. c #8BB3BB",
"w. c gray69",
/* pixels */
"w _ _ _ $.4.$.$.$.$.$.$.$.$.$.q.y l f _ l 5.$.s f l l f f s $._ T T T 4.K K B K T 0.P T +.+.+.+.",
"w _ _ T T :.T _ _ _ _ _ T _ $.$.i s s T T ..T _ s l f l i _ T $.T T K } B T T T ..T T T T K T T ",
"w T T T _ >.T T T T T T T _ _ 7.w s T i +./ ..T s f s f i T _ $.T T T T ..L K K } K K K C K T T ",
"w L L T ..9._ T T T T T _ T T 7.w i L T L T *.T L f _ i T T T $.K K T 8.T T +.+...T +.T +.+.T T ",
"w T T L X.X.L T T _ _ L L C L 7.w T L T L T ~ T T a T L L a L $.T T K &.+.+.+.T ..T K K T T T K ",
"w L T } L ..T T L L L L T C L _ t L T i i f / s L L T L s i L _ +.K S  .S K K T o.T T T T T T T ",
"w C C } C } C C C C C C C C C C i L T L i i ^ s i L L C i i L L T T T  .K K K +.*.K +.+.T Y T K ",
"m m ] m m ] m w w w m m w w m m m m m t t y 3.w w w m m t w m m T T T  .K K T T 6.K C K C C P G ",
"$.$.-.$.$.$.-._ w w $.$.$.$.$.$.l l f $.$.$.-.w w w $.$.$.d l l K T T ..E T +.+.+...T +.T +.+.+.",
"T X._ _ _ T &._ w T T _ _ _ _ L f _ _ _ _ T _ &.w T T _ _ _ _ a T +.+.*.+.T +.+.+...T T T +.T Y ",
"X.T _ _ _ L T -.w L T T _ T T _ T s _ L _ L T -.w T T T _ T T _ K K P ..T K T K S } K K T L T C ",
"_ T T T L T T -.w C L T T _ _ T T u T T L T T -.w C a T T _ _ T +.T *.T T T T T T *.+.T T T T T ",
"L L T T T L L &.w L T L T T T T L L T _ T l f &.w L s L T T T T K B  .B B T T K T *.+.T K K T T ",
"L L T L L L T &.w L C C L C L L L T T L L T l &.w L s s L C L L K L  .L T T K L G ..T U T T +.+.",
"C C C C C C C } w C C C C C C C C L L C U i i ..w T U s i i C C +.*.+.+.T T T T T X.T T K K T T ",
"m m m m m m w ) w w m m m m m m t t m m y y y w ) w m y y y t m T  .K T T +.T T U T ..T T T T T ",
"T T T T K K B  .T K K T +.+.+.+.C $._ $.$.+.#.$.$.&._ $.$.$.$.$.3 ( k +.k k $.a f k ( d f s $._ ",
"K T G C B T T T O.T T K T K T T w T T T T C C T T T X.C T T T $.! s a T T P T _ s f f ( i T T $.",
"T T T T T G K  .C  .L K m S K T w C L C m m m ,.w.w ) w m m T _ ) s T u +.d Y T a f a / i T _ $.",
"K K Y T T T *.+.T T &.T +.+.T T w L _ m #.+.$.,.#.T &.$.$.w C _ ! u P T L T +.T I f W Q L T T $.",
"T T K K +.+.*.+.K T T  .D T T K w T _ m C T T #.#.I | T $.w T -.p T C T T f a T T a I ..I s L $.",
"+.K m K S G  .T T T T T &.Y +.T w T _ m L T D 1.g w [ U @.w T -.3 T T u a s a a L L T T Q i L _ ",
"T T T T G G [ / +.K +.+.+.&.T K w L $.m C U D j % , m | _ w C &.i P P Y i s s s i L L C Q i L L ",
"T T T L G F R &.K K S K B C  .K w C $.w L m G <.# - 9 A -.w X._ b b B y y % t q p w b b H w m m ",
"K T T T T T +.*.+.+.T +.T +.+.*.w L $.w C 9 e h $ & 9 I O.w } _ l l d $.$.$._ q 0 _ $.$.;.d k f ",
"T T +.+.+.T T *.+.+.T T T +.Y &.w L $.w m e 5 g # 9 , S _ ] } $.f _ _ _ _ T _ $.q T T ' &.' [ a ",
"K K K T T Y T  .C B K K T K T } w L W w m , , r X 4 6 D $.O.T $.U s _ Y _ U T $.q R T W &.R W ( ",
"+.T +.+.T T T ..T T +.T T T T ..w T +.m m , = g . : < B $.O.T $.W a T T G T Y $.q C R R &.' +.T ",
"K B K K S T &.K K T +.T K K D *.w L / z x * @ %   o : 4 J } T $.P P T [ T l f W s U s U ..T T T ",
"+.+.K K T ..K K K T T K K T +.*.J L R ' Y x x %   z m F @.2._ [ P T T I L T l | 0 F s ..L C P I ",
"E +.*.*...T T T T T T T T K | T J C Z A e 4 : : : : , w T :.U _ C Y K S L a p 0 q T s ! u C C S ",
"K &.K T T +.+.T K K T T T T ..T [ q q 8 , : O O O @ # , e J ) C y 6 B s % 4 % s z z z J t t t b ",
"Q k d W l l $.s f l l l d ^ $._ w *._ T _ G G 4 x N D N $.-.X.m T T T T K K S T T L T X.+.+.+.+.",
"u a a T T T T T s l d l Q _ T $.w X._ T T m m 5 z x x 9 T X.X.C L U L C T T P T T T ..K T L T T ",
"w a T u _ f T T a f a f ! T _ $.w X.T m T A C T _ T T B m ] T -.T T T T T K K K C K  .K C K T T ",
"w i L L U T _ Y T f _ Q T U U $.w U ..m m m T T T T T w -._ m ..K D L T T +.+.T T T &.T +.T T T ",
"w T S D I f d a T a o.T I s L $.q S Y ..n U R G T G m _ X.I T -.T T D +.+.+.+.T K T  .K T T T P ",
"2 L G s i s a a L ..L T s i L L q G w m X.U A Z C C U U ..I L _ &.K S K C K K T T T ..T P T T T ",
"a T T Y i s a a Q S Y S i i C L w m m C ..Z Y Z C C G } C C C I ..T T T D K K +.K K &.+.T T L K ",
"a z z 6 < t Q J w p m m % w m m m m m m [ m z z w w m | m w m m X.T T L K T T T K K C  .B S K K ",
"l l d $.;.;.$._ w ] $.$.$.d k k $.$.$.$.&.q _ ' s s G %.m $.$.$...T T T T T +.+.+.T T &.T +.+.+.",
"d +._ &._ T T $.w T T T +.W _ a _ T _ _ Y ] a G 0 C %.T _ T _ T T *.+.+.+.T T +.+.+.E ..T +.T T ",
"Y a +. ._ P Y $.w L Y T _ T T _ T m n [ _ _ ] Y 0 0 ] m T T W [ L K  .E T K T K S b L  .T T T C ",
"_ a T  .Y T P $.w C s T T _ _ T T T n T T _ &.#.z 0 ] q T T R R +.T O.+.T T T T T +.&.T T T T T ",
"G U X.@.T k d _ e I a a L T T T I I m W R R U 2.z ' O.$.C R R R K K K  .T T K K P ..T K K K K T ",
"G ..T G K T k _ 0 I a a L S C L I 0 0 [ F R U I ) R ..R C I C I +.+.K  .T T K K ..T T K T T +.+.",
"} P U C P a i w 0 0 L a u a C C C 0 e C U Z n z ) ) U U C I N Z +.+.+...T T E ..E T T T T K T T ",
"~ 3 m m t 3 5 w e 0 a t 4 t t b m m m m m n 0 0 8 2.z z n n z s T T L T ..&.&.T K K T T T T T T "
};
