/* XPM */
static char *minecraft_u3[] = {
/* columns rows colors chars-per-pixel */
"48 48 105 2 ",
"   c #196769",
".  c #1A6B6E",
"X  c #1C7476",
"o  c #1D777A",
"O  c #1E7B7E",
"+  c gray28",
"@  c #494949",
"#  c #494B4B",
"$  c gray29",
"%  c gray31",
"&  c #505050",
"*  c #515151",
"=  c #535454",
"-  c gray34",
";  c #535758",
":  c #565858",
">  c #555A5B",
",  c #575D5E",
"<  c #585858",
"1  c #5B5C5C",
"2  c #5B5E5F",
"3  c #585F60",
"4  c #5A6162",
"5  c #5D6162",
"6  c #5C6466",
"7  c #5F6466",
"8  c #5F6769",
"9  c #5F696A",
"0  c gray38",
"q  c gray39",
"w  c #656666",
"e  c #636768",
"r  c #666768",
"t  c #63696B",
"y  c #656A6C",
"u  c #626C6D",
"i  c #666D6F",
"p  c #686E6F",
"a  c #676F71",
"s  c #6C6F70",
"d  c #687173",
"f  c #6B7374",
"g  c #6F7374",
"h  c #6B7476",
"j  c #6D7576",
"k  c #61777A",
"l  c #6C7678",
"z  c #6E7779",
"x  c #647B7F",
"c  c gray44",
"v  c #717778",
"b  c #70797B",
"n  c #747A7B",
"m  c #727C7E",
"M  c #787F81",
"N  c #169398",
"B  c #208487",
"V  c #22888C",
"C  c #228A8E",
"Z  c #249195",
"A  c #19A0A4",
"S  c #19A3A8",
"D  c #1BACB1",
"F  c #1CAFB4",
"G  c #1DB3B8",
"H  c #1DB5BA",
"J  c #1EB7BC",
"K  c #1FBABF",
"L  c #678084",
"P  c #6A8488",
"I  c #6D888C",
"U  c #7C8182",
"Y  c #7B8485",
"T  c #7D8688",
"R  c #7F898B",
"E  c #6F8B90",
"W  c #739296",
"Q  c #759499",
"!  c #77979C",
"~  c #79999E",
"^  c #55A395",
"/  c #58A799",
"(  c #7B9DA2",
")  c #7D9FA4",
"_  c #5FB2A5",
"`  c #65BBAF",
"'  c #66BDB1",
"]  c #68BFB4",
"[  c #69C1B6",
"{  c #6AC3B8",
"}  c #6CC5BA",
"|  c #6DC7BD",
" . c #6EC9BE",
".. c #818889",
"X. c #879091",
"o. c #909C9E",
"O. c #80A3A9",
"+. c #96B3AD",
"@. c #A2C0BC",
"#. c #A8C8C5",
"$. c #ADCECB",
"%. c #AFD0CD",
"&. c #B1D3D0",
"*. c #B2D4D1",
"=. c #B3D5D3",
/* pixels */
"q < < q < & & < % + = = 1 e q q q q q q < & & < & @ % & - - - < q q q q < * & < & $ % & - < < < ",
"< < & 1 # q q q 6 > 1 = # # = : : < & < & - < < - - - # # - < & < - * < * - - - - - - $ $ - - * ",
"< & # # N r 1 # + ; ; # ^ . > > - - # # & & & # & & & - - < < - - - @ $ & & * $ * & & - - - < - ",
"q q r 1 L v ; ^   M z 9 M 6 = & - - 0 q - q - - q q < - - * * & - - 0 q - q - - q q - - - * * * ",
"& 1 y b d 4 > v M 9 9 d v - < < % : < & & & < & < q q q q & < - & - < * * * < & - q q q q & - - ",
"< v z h u %.' > > 9 #.` e + & q - q < - < < < - < & & $ & $ & q - q < < - - < - < * * $ % $ & q ",
"= 5 T &.| J F X M 9 D B y > < < & - - q q q % q q & & & < < - < & - - q q q & q q & & & - < < < ",
"r # , T ~ X.P I , - v E - q c c & & @ + & @ & & < - & & & < < < & & + + % $ & % < - & & & < < < ",
"# ^ N P s 1 1 3 #.` 5 1 - - q & q q q < q < - q q q < < < < - & q q q < q - - q q q < < < - - & ",
"1 x x 1 # 1 3 ' D B O k q g c - < - q < - - q q q < < q q q q < < - q - < < q q q < < q q q q < ",
"# 1 = 1 N = # g Q ! v = = & & & $ - & - & * $ $ & < & < - & & * $ - & - * & $ $ & - % < < * & * ",
"1 1 1 1 1 r r r v 7 , ' o g q < < - - - < q q < - - < < q q < q < < - - < q q - - < - - q q - q ",
"1 = r # # 1 r = _ @.' D A o q & < & & & < q - & & < - $ @ & & * - & * & - q < & & - < $ $ & & & ",
"q r x ^ . # = 1 c o S I I q < < q q < * & < < & & & < - & & q q q q < * & < < * * * < - & & q q ",
"< & = x r r r < < q k < % & & < < - & < < < - < < < - - q q q q < - * - < < - - < - < < q q q q ",
"< < < < < < & q < < < < < < q q < < < < < < & & < q q - - & - < < < < < < < & & < q q < - & - < ",
"q q q q < & * < * + % * < < < < q < < q > % % > & @ & & > q q q q q q q < * & < & $ % & - < < < ",
"< - % - * - - - - - - $ # - < & < < & < + 6 q w r < 1 = # + % : < - * < * - - - - - - $ $ - - * ",
"< - @ @ * % & $ & & & < - - < < < & + + N q 1 # # & * # ^ . < < - - @ $ & & * $ * & & - - - < - ",
"< - q q - q - - q q - < - % & % q q q 1 M b > ^ . M 9 1 M r & & - - 0 q - q - - q q - - - * * * ",
"* - - * % * - * < q q q q % - - & < y a a 6 > m M 1 - 1 8 = ; > & - < * * * < & - q q q q & - - ",
"- q < < - - < - - & & $ * # * q < v a a y $.[ 1 4 & +.^ & # % q - q < < - - < - < * * $ % $ & q ",
"* - < q q q * q q * & & - < < < & q v $.[ H K o ( m N . 1 - > - & - - q q q & q q & & & - < < < ",
"% % $ + % # % % - < & & * < < - r $ < n W ..I ) 9 6 Y x 1 q c c & & + + % $ & % < - & & & < < < ",
"q q q - q < < q q q - < < < - * + ^ N x r 1 & t &.] 9 > , > q % q q q < q - - q q q < < < - - & ",
"< - q - - < q q q < < q q q q - 1 x x 1 # 1 > / G C . M 9 d p > < - q - < < q q q < < q q q q < ",
"$ - * - * % $ $ * - * < < * % * # 1 - 1 N - & p L M M 3 $ * % * $ - & - * & $ $ & - % < < * & * ",
"- < - - - q q - - < - - q q - w 1 1 1 1 < w r r m d , ` B q q - < < - - < q q - - < - - q q - q ",
"- * & * - q - * * - < # # % % - 1 * r % # 1 r 5 ` %.{ D D   q * - & * & - q < & & - < $ $ & & & ",
"q q < * * < < & % * < < * % q w t t x ^ . # < y M O H Q k q < - q q < * & < < * * * < - & & q q ",
"- - * - < < - - < < < - q q w q < - * x r r r < r c k < % * * - < - * - < < - - < - < < q q q q ",
"< < < < < < % * - q q - - % < < < < < < < - * w < < < 1 1 < q q < < < < < < & & < q q < - & - < ",
"q q q q < * * < * $ * % - - < < q < < q < & * 1 - # = = > t 6 q q q q q < * & < & # & & - - < < ",
"< < * < * - - - - - - $ $ - - * < < & < # w r r w 1 1 = # + = - > - & < & - < < - - - $ $ - - * ",
"- - $ $ * % % $ % % * - - - < - - % # # N r 1 # # = = # ^ . 1 1 - - # # & & & $ % & & - - - < - ",
"- - 0 q - q - - q q - - - * * * q q w 1 x t # ^ . x U j M r = = - - 0 0 - q - - q q - < - * * * ",
"* - - * * * < * - q q q q % - - & < 1 1 z t # r x j a h U = 1 < & - < & & * < & < q q q q & - - ",
"- q - - - - - - < * % $ * $ * q < w 1 j u =. .# 1 y $.} u # & q - q - - - < < - < & & $ & $ & q ",
"% - - q q q * q q * % * < < - < & - t =.| K K . x t H C e : < < & - - q q q & q q & & & < < < < ",
"% * # + % + % * - - * % * < < < r # # y ) o.x x # = c I e q c c & & # + & + & & < - & & & < < < ",
"q q q < q - - q q q < < < < - * # ^ N x w 1 = # +.^ 1 t 1 - q * q q q < q < - q q q < < < < - & ",
"< - q - - - q q q < < q q q q - 1 x x 1 # 1 = ^ N . . x r c c < < - q < - - q q q < < q q q q < ",
"$ - * - * * $ $ * - * < < % * * # 1 = 1 N = # r x O...$ $ = * % $ - & - * * $ @ & < & < < & & * ",
"< - - - - q q - - - - < q q - q 1 1 z z 1 t r r ..f t } . r q - < - - - - q q < - - < < q q - q ",
"< * % * - q - * * - - $ $ % * * > i Y 5 8 1 w <  .&. .K N . q * < & & & - q - & & - - $ $ & & * ",
"q q - * * < < * * * < < % * q q q U ~ ] V # & 1 U Z K I x q < < q q < * * < < * * * < < % & q q ",
"< - * - < < - - - < - - q q q q < & t ( w r r - 1 c I > * % * < < - * - < < - - < < - - q q q q ",
"< < < < < < % * < q q - - % - - < < < < 1 1 - t < < - - < - q q < < < < < < & & < q q - - & - - "
};
