/* XPM */
static char *minecraft_s2[] = {
/* columns rows colors chars-per-pixel */
"64 64 155 2 ",
"   c #160F07",
".  c #171008",
"X  c #1C140B",
"o  c #1E1B18",
"O  c #261C11",
"+  c #211E1C",
"@  c #2B2114",
"#  c #27231E",
"$  c #2C251D",
"%  c #322617",
"&  c #382B1B",
"*  c #3F311F",
"=  c #242423",
"-  c #292622",
";  c #2C2C2C",
":  c #322C25",
">  c #312E2B",
",  c #3D3523",
"<  c #35342B",
"1  c #3E362C",
"2  c #393D2D",
"3  c #343434",
"4  c #3D3D32",
"5  c #383738",
"6  c #3E3D3E",
"7  c #422F18",
"8  c #4D3920",
"9  c #433A2E",
"0  c #433B33",
"q  c #403D39",
"w  c #394027",
"e  c #3A4229",
"r  c #3E4B2D",
"t  c #3E4432",
"y  c #3F4933",
"u  c #3E413B",
"i  c #5D401F",
"p  c #404D2C",
"a  c #44542D",
"s  c #424636",
"d  c #4C4134",
"f  c #424C33",
"g  c #42453B",
"h  c #464D3B",
"j  c #494D3E",
"k  c #534739",
"l  c #455134",
"z  c #485632",
"x  c #4C5A35",
"c  c #475238",
"v  c #4A543B",
"b  c #4E5B3A",
"n  c #515E39",
"m  c #6C4B23",
"M  c #7A582E",
"N  c #7F5E34",
"B  c #53623B",
"V  c #413E41",
"C  c #3E4641",
"Z  c #444444",
"A  c #474945",
"S  c #4A4D44",
"D  c #484748",
"F  c #454A4B",
"G  c #4C4C4C",
"H  c #4D5344",
"J  c #4F5F43",
"K  c #47554B",
"L  c #4F524B",
"P  c #4A5C4B",
"I  c #505342",
"U  c #5F5346",
"Y  c #535C43",
"T  c #51554B",
"R  c #555B4D",
"E  c #595F4E",
"W  c #4B4F50",
"Q  c #504E50",
"!  c #4D5353",
"~  c #4E5C55",
"^  c #4D5658",
"/  c #4F5A5B",
"(  c #545354",
")  c #5D5652",
"_  c #555A53",
"`  c #5A5C54",
"'  c #545758",
"]  c #585758",
"[  c #545A5C",
"{  c #5A5A5A",
"}  c #605447",
"|  c #65594B",
" . c #4D614A",
".. c #556344",
"X. c #586147",
"o. c #53644D",
"O. c #5A644B",
"+. c #54684E",
"@. c #4F6557",
"#. c #4F6459",
"$. c #546355",
"%. c #5D6154",
"&. c #546954",
"*. c #586B52",
"=. c #54635B",
"-. c #5A645D",
";. c #566C5F",
":. c #5A6C5E",
">. c #5C725F",
",. c #606357",
"<. c #62635C",
"1. c #4F5E61",
"2. c #555E61",
"3. c #5A5F61",
"4. c #605F60",
"5. c #566265",
"6. c #5B6264",
"7. c #5B6C63",
"8. c #566669",
"9. c #5C6669",
"0. c #5C696C",
"q. c #5E6C70",
"w. c #5C7277",
"e. c #636364",
"r. c #626865",
"t. c #636769",
"y. c #686668",
"u. c #626A6C",
"i. c #6C696C",
"p. c #60726E",
"a. c #636D71",
"s. c #6B6E71",
"d. c #637175",
"f. c #697275",
"g. c #647579",
"h. c #6A767A",
"j. c #64797E",
"k. c #68787B",
"l. c gray44",
"z. c #72767A",
"x. c #805E34",
"c. c #85653A",
"v. c #937245",
"b. c #647E83",
"n. c #697D83",
"m. c #758186",
"M. c #678990",
"N. c #6C8D94",
"B. c #7E9197",
"V. c #769399",
"C. c #78959B",
"Z. c #77989F",
"A. c #818181",
"S. c #8BB3BB",
"D. c gray69",
/* pixels */
"6 ( e.4.e.y.h.M.i.i.i.i.i.i.i.i.i.i.i.i.S.=.a B b ` %.B N.h.%.a n B B B n b x a i.e.4.] ] ] 0.M.T G G D L ( a.Z.( ( { e.e.e.e.e.",
"6 ( 4.4.{ { t.b.3.e.e.e.e.e.e.e.4.e.y.i.m.Y r x z R ` R g.9.{ E z b B n B z v _ 4.e.4.] { ( [ w.G ( ( ( ( 6.9.a.( { { { ] { { { ",
"6 ( { { ' { 6.g.] { 4.{ { 4.4.4.] { e.y.z.L f a v H ( { 0.6.{ { a x B x B l v { { y.e.] { ( ] 5.! ( ( ] ( 6.6.( ] ( ( ( ( ] { ] ",
"6 ( { { { { u.n.] ] ] { ] ] ] ] { { 4.4.B.[ u a [ v v e.>.7.9.[ a x z a x l j ] 4.y.e.] ] ] ] ] 9.[ ( ( ! [ 5.L ! T W G T ( ` ] ",
"6 G ( Q { 6.b.V.4.{ ] ] ] { ] ] 4.{ ] ] B.[ u r ( ( ] ( { u.u.` ( T Y 4.r L ( { ] e.4.Q ( ( u.V.[ ] { e.e.0.6.[ e.{ { e.e.{ { ] ",
"6 G ] ( ( 6.q.n.] ] { ] 4.{ { ( ] Q ( ( B.[ g T ( ] ( ( ] -.=.] ( b I { H ( T v ] e.y.] ( ( 6.n.4.4.e.e.{ 9.6.] ] ( ( -.{ { ( ( ",
"6 W ] { [ 3.9.q.( ] ] ] 4.{ { ( ( T G Q m.! Z ( ( T L S R $.$.T ] H H { Q T v a Q 4.e.{ ( ( [ u.{ { { { ] 6.9.] ( ( ( ] ] ] ' ( ",
"q G ( { 8.' [ 9.] ] ] Q Q ( Q ( ] G Q ( 4.h s ( ] j r r b &.+.a ( ( ( ] ( v p r ( { e.r.L G ! 0.G Q ( T ] 0.0.] { ` ] ] ] { ] { ",
"C Z A G 5.! ! 8.S G A G A A F F A G A G A s h ( { ( H r r  . .a r S ( ( A s p r ( ( ( ] ] ` { 0.Q Q ! T e.a.9.Q e.e.4.{ ( ' ( ( ",
"Z Z G / W A ! 5.Z Z Z Z Z Z A A Z Z Z A A Z g G G g t e e ;.7.u u g A D Z s r u D D G ] ] ] 5.0.T Q ( ] { k.f.! ( ( ( L G ( ( Q ",
"W Q [ 0.( Q ] 9.( G A 6 q G ( Q G G Q ( T G S j S j v j S p.0.6 q 6 Z Q ( S j g j S L ( ] ] [ 0.( ( ] { { k.d.' L ( ( G ( ( ( ] ",
"i.i.s.h.i.i.i.i.k.t.( 6 V { i.i.i.i.i.i.i.O.B B b <.i.i.i.f.9.V V V G i.i.i.<.n B B Y ( ] [ 3.9.{ ] { e.e.e.r.0.[ 4.<.] e.e.e.e.",
"] 9.t.3.4.4.4.] d.t.( V ] { { 4.4.4.4.4.( I Y e.-.4.4.4.{ { t.a.V G ] ] -.<.4.4.<.v v ] e.e.u.f.e.{ { e.e.e.r.0.] { { ` e.{ ] ( ",
"9.6.3.4.4.4.{ ( 3.u.2.u ( ' { { e.{ { { { ` R v 4.{ { 4.( ] e.h.6 ! ] ] { 4.4.{ { ` _ ( ] ] 3.q.{ ] { { [ ( [ 8.( ( ( ] ] ] ( L ",
"u.{ { 4.4.{ { ( { u.6.6 Q ( ] ] 4.{ { { { { T p 4.] ] { ( ' e.k.6 G ( T ] { { { { { { { T [ { 6.] ( ( { ( L [ 0.( ( ( ] ( ] ( L ",
"4.{ ] ] ] ( ( ' { a.6.6 G Q ( { { { 4.4.{ { I r ] { ] Q { ] 6.k.6 A j a ] { { e.e.{ { e.[ u.u.[ ] ] { { ] ] 6.f.e.{ ] ] ] ] [ { ",
"( ( ( { ] { ( ( ( 9.=.6 ( ( ( ( { ] ] ] ] ( ( ( { 4.{ ] B n o.a.6 Q H a Q ' ] ] { ] ( ( A 2.2.D A ( ] ] T ( 6.d.e.{ ( ( ( ( { { ",
"( Q ( { ( ( ( ( ] 0.2.V Q ( L F ( ( ( ( ( ( ( ( ] ] ] ( ` n +.d.q G S a v T ( T ( ( ( W W 2.2.G ( ] _ ( ( ( { q.{ ] ] ( ( { e.{ ",
"Q G Q ( Q G Q Q ] 6.[ 6 Q G A G G G G G Q ( ( ( ] Q Q ( T v X.q.V G T v a S S g Q Q ( ( { 9.6.] { _ ( ( ( ( [ 0.{ ] ( ( ] { <.3.",
"G G G A F A G G F / / 6 G G G A G G A G G F G ( ( G G ( p p H 0.q W ] ( a p p p A G ( e.f.t.e.e.[ ] ] ] ] ] 6.0.{ ' ( ( ( ( ] { ",
"Z Z Z Z A Z Z Z 6 ! ^ 6 6 Z Z Z Z Z Z A Z t 2 w A Z g w w w t V 2.F V Z e e e w w g G ] 0.' ( ] ] <.<.] { ( ( { 0.-.] [ ] { ( { ",
"Q ( T ( ( G G G Z [ [ ! G G G ( { ] ] ] ] S S ` ] { { { R ` ] { t.3.2.' ` ` { { ` { ( Z 7.o.Y e.Y X.%.e.v I I X.7.O.I Y v %.e.{ ",
"( { ] ( ( Q Q ( G [ 5.6.( ( ( ( 3.{ { <.4.Q T e.{ e.y.e.{ { e.e.e.t.9.e.{ e.e.e.e.i.{ Z +.n Y 4.X.Y O.e.b x x B *.+.Y z b { e.e.",
"( ( ( Q G A G ] { ( 6.w.{ ( ( ( { ( ( ] ] D A ] ] ] ] { G F G ] { ' 3.q.G ( { ] { e.r.@.a a b [ ] ( ( { 4.H z n b *.o.r ] { 4.i.",
"( { [ ] ] { ( Q ( 2.2.G 0.[ ( L A G G Q ] A V G Q G G Z Z Z ( l.D.e.Z 1.V Z Z Z { { 6.1.a T T r e.Y I ( { v z b a o. .y { { e.i.",
"( ( ( ( { ] ] ( 9.r.{ ( { 9.3.( ] { { ( ] A Z Q { W Q { { { e.l.A.4.[ 0.3.{ ( V G { -.=.p H T L { R ` -.{ T H n R $.~ S ] { e.i.",
"( ( ( ( ] { 4.{ f.t.-.( ] 6.9.[ { 4.{ { ( A D ( e.G G 4.<.e.y.i.i.{ 3.a.e.i.{ V G 6.5.! h L ( ] ( ( E ` ] ( T z { =.[ ( Y ( { i.",
"] ] ( T Q { e.4.f.u.{ ( { { { 0.Q ( { { Q Z D ] 4.G Z G ] ] 4.y.i.{ ' 8.{ e.{ V { u.7.u { G G { { Y z a ] { T a ( 6.6.( z T { i.",
"e.( F A T G G Q 8.3.] ] ] ] { { d.{ { e.{ A A ] 4.G D ( ] Q | v.m d F 5.( 4.] V ] u.6.5 ] { T p a a a a a H ( Q ] ] [ @.r G ] 4.",
"{ { ( ( ( Q Q Q 8.5.6.4.( { { e.u.t.9.{ ( Z A ( y.Q A G ] Q } c.8 1 6 W 2.3.( 6 L 0.5.e ( Q T H p a a a a l S ( ( ( L #.r S ( ( ",
"{ ] ] ] ] ( Q Q 5.7.-.{ T { { { { 3.5.{ G Z Z W i.Q A Q Q Q U N & > 3 V 2.6.{ V ' 6.[ t W Q G S r p p p f y u G L G K @.t A Q G ",
"{ ] ] ] ( Q Q Q ] u.9.T ( G G ( A G ! 9.( Z Z A i.G Z Q Z G } x.O = ; 6 G 0.6.V 0.r.] Z Z A s w 2 , * w V u u 6 Z Z S ~ 6 Z Z A ",
"( ( { ] { { ] ] e.u.u.e.y.{ { e.] 4.e.e.d.W Z ( i.G C G q q k x.% - - 6 Q 9.2.V 8.6.` B B n E i.i.i.y.4.V q D 4.i.i.s.n.b B n x ",
"( ] { e.{ <.{ ] -.u.d.e.e.{ { { { 4.3.{ d.W Z ( i.G V Z V q 9 m @ > 3 3 W 3.2.^ 6.t.<.n %.%.<.e.e.4.4.4.{ D D { 4.4.y.d.{ ` R z ",
"( ( ] { e.e.{ ] ] 0.0.{ { ] ( ] ] { { ( a.W Z Q y.G V A 6 3 9 8 O > 5 3 Q { 9.8.3.t.e.Y R { 4.{ 4.{ ] { i.G A ] { { 4.d.4.6.$.b ",
"( ( W T { ( ] ( ] 6.[ G D L Q T { ( ( { 5.F Z ( 4.D V Z 3 > : 7 X > 3 5 Q 4.a.w.{ e.4.Q a R { ] 4.] ( { i.G D ' ] 3.y.d.] { -.>.",
"e.{ { e.e.{ { [ ] 6.6.[ ] -.4.] [ ] ] ] q.F D ' 4.Q Z Z 3 ; : m X = ; 3 D 4.a.q.] e.y.4.a T ] ] Q ( ] Q i.Q Z G ] { 6.d.4.e.e.] ",
"( T ( ' ( ( ( { u.{ ' ( ] e.4.] ( ( ( T a.W D ( 7.G V Z = = : 8 . o = 3 6 ! 5.q.] t.e.] H ( { 2.( R Y Y 4.I j Q v T [ q.{ { { ] ",
"] ( Q ( L Q ( { 9.' L ( ] { { ( ( ( ( ( d.^ G ( -.( D A ; ; > 1   + ; 3 V Q 5.q.{ e.6.T ( ] [ 2.] E n n 4.G j Q l R { 6.( ( ( { ",
"e.e.{ G ( ( 6.0.Q W ( G ] { [ T G ( { e.d.5.^ ( ] { 4.( V V 0 7   > V Z Q 3.a.n.4.6.[ ( ] ] ] Q ( ( E B 9.F Z Q a $.6.( F G ( ( ",
"{ e.u.d.d.a.6.{ { [ ] ] ] ] ] ] { ( ' 9.[ [ ^ A D G D V 3 3 ; ; ; ; ; 3 6 Q 6.g.( { { G ( Q G G Q v f 6 6 V A ] a P P p G A G G ",
"( 9.0.[ 6.{ { -.<.{ ( ( ( ] ] ] { ( [ 9.] [ ^ Z Z V q 3 3 = = = = = = - 3 V ! 8.[ ! S u V A S v 9 4 2 9 s g V D g ! K e t t g A ",
"_ =.%.T { ` ` ,.e.` T T T Y ` E R ] -.0.{ ' ^ W G Z Z V 5 3 ; = - ; > : 5 D ' 5.5.L A s Z G S b 9 q q 9 v A D D A ' ~ h h h S G ",
"@...B x 4.X.B B i.Y a b B B B B n o.:.i.3.A W d.4.{ { 4.Q Q V 3 V D D Q D 3.s.k.q.! F ] ' { ] ( Q ( T G ] ] ] Q [ 9.9.e.e.e.e.e.",
"r a a a ] ] ] ] ] { T a B n n B =.3.{ ] s.G G q.4.{ { ] D V V 3 V V q Z 5 W 3.q.q.^ G ( ( ( ( G { { ] T ( { ] ' 0.[ ( [ ( ] ] ] ",
"u f z T v ( ` Y { ] T a n x z n $.{ { 3.i.Q W q.{ Q Q { G D D Q ] Q ( Q Z D ! 8.{ 9.6.] ] ] ( ( ] ( ( Q ( ( T ( 0.[ G L Q ( ] ] ",
"6 f v ( f ( ` Y { ] T b n v b J =.] ] 4.i.Q F 3.{ W G Q D Q Q ] 3.{ ] ] Z W [ 6.( 9.0.( ( ] ] ] { ( ( ] ( W T ( 0.[ ( T ( ] ] ] ",
"u t h ( ( ( ( ] 4.] ( { n ` -.@.[ ( ( Q i.W Z ( 0.W Z V D Q ] ] ] ] ] { q 9.a.4.A 2.6.G G Q ( ] { 4.e.e.] ] ] { a.6.{ e.] ] ` ] ",
"6 Q ( G G ( T b x z v { a =.0.[ ( c v Q i.G V Q ( 6.2.Z ( ] ( Q { Q G Z 3.t.9.Q { u.a.( ' ( ( e.e.e.e.e.] ( ( ] 0.' ( ] ] ] _ ( ",
"5 G ( G c h c z z a v ( $.[ [ ] v l h ( { A Z Q Z G ' 2.( ( Q Q Q G G Q { 9.3.( ( 6.u.u.( L ( ( ( ( ] ] ] ] ( { 0.[ ] ( ] ] ] ( ",
"4 S ( ( c f r a a a v ~ 2.' ( ( a r h W Q Z V G V Z W q.Q Q G G G D G Q ' 2.[ W Q ] 6.a.( Q L ( G G L L { ] ' ( 0.6.] ( ] ] ] _ ",
"a T { ] ( v p a a a x @.G T ( G r r s G ( D V Z Z D ^ 0.G Q Q G G G W Q 9.W F A G Q [ 0.] ] ] ] G Q ( W e.] Q T f.u.-.] ] ( Q T ",
"a g V V 5 3 < e @./ ! V 6 Z Z Z 7 q V Z Z Z Z Z Z Z W 2.Z V V V 6 6 6 A 9.W Z V Z Z ! u.] ] ] ( ( ( { { ] ( ( Q F [ [ A G ( ( G ",
"x b v v { 3.-.6.r.6.! V ^ { { 3.) I v b v ` 4.4.4.3.9.q.V Q ( ] f f h G q.! G { 4.{ 6.0.{ { ] ] ( ] { { 4.-.{ ( ( 9.9.( { { { { ",
"B ..X.Y i.a.a.a.e.e.] q 2.e.y.e.i.E Y X.n ,.y.e.y.y.e.t.F L _ { f f H ' t.' ( e.y.e.e.9.6.{ { { { { { e.e.e.<.{ { 0.0.] e.e.e.e.",
"n %.e.4.a.t.4.] { e.{ 6 ' { ] { e.4.4.4.a R { ] 4.4.{ ( 5.H v ! V A ^ a.{ { 4.{ 4.{ { ] f.u.e.e.e.{ { { e.e.e.e.{ 9.6.] e.{ ( { ",
"( v Y e.0.9.{ ( ( e.{ Z ( ( ( ( e.{ { { 4.{ ( Z V ^ 3.4.4.3.2.] 6 6 F 1.D Q { { 4.3.2.Q Q 6.9.{ ] ( ( [ ( G G Z ( 6.6.{ ] ] ( S ",
"{ b v { 0.{ ] ( ( e.{ 6 G H H { { { { 4.{ { ( ( V ] 3.3.4.9.9.4.V 6 F 5.V W ' { { { 3.{ ' 9.0.4.] ] ( { ( ( ( ' 9.-.{ ] ] ] ] ( ",
"{ H T { 9.{ ( E T 4.{ V F v z T ( { { { ] ] ] ] V ] ] ] 3.4.a.s.V D W 8.G Q ( { ] { { { ( 2.9.9.] ] { ( ( ] { r.t.{ ( ( ( ' ' ] ",
"( ( [ a.e.{ R B n ` ( q ( v a a ( { { { { ( ( Q V ] 3.] ] ] t.n.V ( t.w.i.] W { { { ] Q Q ( ' 0.] ] ( Q L ( [ 0.] ( ( ! ( L ( ] ",
"G 6.6.' Q Q ( ] B %.( 6 ( v a a ( G G A ( Q F V V ^ 2.Q ] ] ( ] 1.2.3.3.{ Q G Q G G ] e.e.] ' 0.` ] ] L ( 5.6.{ ] ( ( ] ] -.e.e.",
"2.[ ' ( G Q T v l A Z 6 Z S v a j f j G W W D 6 V W Q Q ( Q V V 1.2.2.2.] G Q Q D G ( e.e.{ 6.0.] ] ] [ 5.6.{ [ ] _ ] ] ( ] { { ",
"5.! G Q A A g r r 6 V 6 q S j p e p p g D D D V V D D Q D V V V W 1.2.Q Q G G Q Z S L e.<.{ 6.6.{ 6.6.e.6.{ ] ( ] ] ] ] ( ( { ] ",
"&.Z 5 Z Z t 2 5 5 5 V V q p p 2 5 2 2 2 Z Z V D D D V V V V V V 5 8.0.V V V D V V f v { { ( ( { 0.0.d.d.( ( ( T [ _ ] { { { ` ] "
};
