/* XPM */
static char *minecraft_s1[] = {
/* columns rows colors chars-per-pixel */
"64 64 153 2 ",
"   c #160F07",
".  c #171008",
"X  c #1C140B",
"o  c #1E1B18",
"O  c #261C11",
"+  c #211E1C",
"@  c #2B2114",
"#  c #27231E",
"$  c #2C251D",
"%  c #322617",
"&  c #382B1B",
"*  c #3F311F",
"=  c #242423",
"-  c #292622",
";  c #2C2C2C",
":  c #322C25",
">  c #312E2B",
",  c #3D3523",
"<  c #35342B",
"1  c #3E362C",
"2  c #393D2D",
"3  c #343434",
"4  c #3D3D32",
"5  c #383738",
"6  c #3E3D3E",
"7  c #422F18",
"8  c #4D3920",
"9  c #433A2E",
"0  c #433B33",
"q  c #403D39",
"w  c #394027",
"e  c #3A4229",
"r  c #3E4B2D",
"t  c #3E4432",
"y  c #3F4933",
"u  c #3E413B",
"i  c #5D401F",
"p  c #404D2C",
"a  c #44542D",
"s  c #424636",
"d  c #4C4134",
"f  c #424C33",
"g  c #42453B",
"h  c #464D3B",
"j  c #494D3E",
"k  c #534739",
"l  c #455134",
"z  c #485632",
"x  c #4C5A35",
"c  c #475238",
"v  c #4A543B",
"b  c #4E5B3A",
"n  c #515E39",
"m  c #6C4B23",
"M  c #7A582E",
"N  c #7F5E34",
"B  c #53623B",
"V  c #413E41",
"C  c #3E4641",
"Z  c #444444",
"A  c #474945",
"S  c #4A4D44",
"D  c #484748",
"F  c #454A4B",
"G  c #4C4C4C",
"H  c #4D5344",
"J  c #4F5F43",
"K  c #47554B",
"L  c #4E524B",
"P  c #4A5C4B",
"I  c #505342",
"U  c #5F5346",
"Y  c #535C43",
"T  c #51554B",
"R  c #555B4D",
"E  c #595F4E",
"W  c #4B4F50",
"Q  c #504E50",
"!  c #4C5354",
"~  c #4E5C55",
"^  c #4D5658",
"/  c #4F5A5B",
"(  c #545354",
")  c #5D5652",
"_  c #555A53",
"`  c #5A5C54",
"'  c #545758",
"]  c #585758",
"[  c #545A5C",
"{  c #5A5A5A",
"}  c #605447",
"|  c #65594B",
" . c #4D614A",
".. c #556344",
"X. c #586147",
"o. c #53644D",
"O. c #5A644B",
"+. c #54684E",
"@. c #4F6557",
"#. c #4F6459",
"$. c #546355",
"%. c #5D6154",
"&. c #546954",
"*. c #586B52",
"=. c #54635B",
"-. c #5A645D",
";. c #566C5F",
":. c #5A6C5E",
">. c #5C725F",
",. c #606357",
"<. c #62635C",
"1. c #4F5E61",
"2. c #555E61",
"3. c #5A5F61",
"4. c #605F60",
"5. c #566265",
"6. c #5B6264",
"7. c #5B6C63",
"8. c #566669",
"9. c #5C6669",
"0. c #5C696C",
"q. c #5E6C70",
"w. c #5C7277",
"e. c #636364",
"r. c #626865",
"t. c #636769",
"y. c #686668",
"u. c #626A6C",
"i. c #6C696C",
"p. c #60726E",
"a. c #636D71",
"s. c #6B6E71",
"d. c #637175",
"f. c #697275",
"g. c #647579",
"h. c #6A767A",
"j. c #64797E",
"k. c #68787B",
"l. c gray44",
"z. c #805E34",
"x. c #85653A",
"c. c #937245",
"v. c #647E83",
"b. c #697D83",
"n. c #768286",
"m. c #678990",
"M. c #6C8D94",
"N. c #769399",
"B. c #78959B",
"V. c #77989F",
"C. c #818181",
"Z. c #8BB3BB",
"A. c gray69",
/* pixels */
"6 ( e.4.e.y.h.m.i.i.i.i.i.i.i.i.i.i.i.i.Z.-.p B b ` %.B M.h.%.a b B B B b b x a i.e.4.{ ] ] 0.m.T Q G A T ( a.V.( ( { e.e.e.e.e.",
"6 ( 4.4.{ { t.v.3.e.e.e.e.e.e.e.4.e.e.i.n.T a z z R ] R g.7.{ ` z b B B B a v R 4.e.4.{ ] ( [ w.G Q ( ( ( 6.9.a.( { { { ' { { { ",
"6 ( { { ' { 6.g.] { 4.{ { 4.4.4.{ { e.y.i.H f a v H R { 9.-.6.{ a x B b B l v { { e.e.] ] ( ] 6.! ( ( ( ( 6.6.( ( ( ( ( T ] { { ",
"6 ( { { { { u.b.] ] ] { ] ] ] ] { { 4.4.i.L u a { c H e.>.9.9.{ a x z a b f v { 4.i.e.] ] { ] ] 0.' ( ( G 5.[ ! ( ! T G Q ( ] ] ",
"6 G ( Q { 6.v.N.4.{ ] ] ] { ] ] 4.{ ] ] i.G u r ( ( ] ( { 0.u.' ( I Y 4.r L ] ] ] e.4.Q ( ( u.N.{ { { e.e.u.6.{ e.{ { e.e.{ { { ",
"6 G ] ( ( 6.q.b.] ] { ] 4.{ { ( ] ( T ( i.G g T ( ( ( ( { -.-._ _ b I { H T T v ] e.e.] ( ( 6.b.4.3.e.e.{ 9.6.{ { ( _ { { { ( ( ",
"6 W ] { [ 3.9.q.( ] ] ] 4.{ { ( ( G Q Q y.G Z ( ( T L S R $.$.T ' I H { ( L v p ( 4.e.{ ( ( ' q.{ { 4.{ ] 9.8.' ( ( ( { ] ] ] ( ",
"q G ( { 8.' [ 9.] ] ] Q Q ( Q ( ] Q G ( 4.h s ( { j r r b *.o.a Q ( ( ] Q v a y ( { 4.e.! L / 0.G Q T Q { 9.9.' ( { { ( { { _ { ",
"6 A F F 5.! ! 8.S G A G A A F F A G A G A s h ( ] ( S p r  . .a f G ( ( G f r r ( ( ( ] ] ] { 0.G ( ( T e.a.9.G e.e.4.] ( ( ( ( ",
"Z A G / W A ! 5.Z Z Z Z Z Z A A Z Z Z A A g g G G g s e e ;.7.g u g A A A s e u D D G ] { ' { 0.( G ( ] { k.g.( ( ( ( T W ( ( Q ",
"Q ( ' 0.( Q ] 9.( G A 6 q G ( Q G Q G ( ( S S S j j j j v w.0.6 6 q Z Q Q S j g j S L ( ] { [ 0.( ( ] { { h.g.' L ( ( G ( ( ] ( ",
"i.y.s.h.i.i.i.i.k.t.( 6 V { i.i.i.i.i.i.i.O.B B n <.i.i.i.f.9.6 6 6 Q i.i.i.<.n B B Y ( ] _ 6.9.{ { { e.e.e.9.0.{ 6.<.] e.e.e.e.",
"{ 6.9.4.4.4.4.] d.t.( V ] { { 4.4.4.4.4.( I Y 4.e.e.4.4.] <.r.d.V W ] { <.6.<.4.<.b b ] e.e.u.d.e.{ -.e.e.e.t.0.] ] ] ] e.{ ] ( ",
"9.6.3.4.4.4.{ ( 3.u.2.u ( ' { { e.4.{ { { ` T b { { { 4.( ] 6.f.6 Q ] ' { 4.4.{ { _ ( Q ( ] 3.q.{ ( ] { _ ( ' 9.( ( ( ] { ] ( L ",
"u.{ { 4.4.{ { ( { u.6.6 Q ( ] ] { { { { { { T p { ] ] { ( ] 6.h.q G ( L ] { { { { 3.{ ] ( ' -.6.] ( ] ] ( T ' 0._ ( ( { ( ' ( L ",
"e.{ ] ] ] ( ( ' { a.6.6 G Q ( { { { 4.e.{ { T p ] ] ] ( ] ] 6.h.V A j a ] ] { e.4.{ 4.e.] u.u.{ { ] ] ] ] ] 6.g.e.{ ] { ] { ] { ",
"( ( ( { ] { ] ( ( 0.-.6 ( ] ] ( ] ] ] ] ] ( ( ( ] { 4.] B n o.d.q G L a ( ( ] ] ' { ( L D 2.[ A A ( ] ] ( ( 6.d.e.{ ( ( Q ] ] ] ",
"( Q ( ( ( ( ( ( ( 0.2.6 Q Q L G ( ( ( ( ( ( ( ( ] ] ] ( ` n +.d.6 G H a v T ( G ( ( ( ( G 2.3.Q ( ( _ ( Q ( { q.{ ] ] ( ( { 6.<.",
"W Q Q ( ( Q Q Q ( 9.[ 6 Q G A F G F G G Q G ( ] ] Q Q Q T b R q.6 W T v a j S j Q Q ( ( 3.6.6.] ] ] _ ( ( ( { 0.{ ( ( ] ] { 4.4.",
"G A G G A A G A F [ / 6 G G G A G G S G G G G ( ( G Q ] p r H 0.V Q ' ( a p p p G G ( e.d.t.e.e.] ] ] { ' { 3.0.{ { ' Q T ( ] ] ",
"Z Z Z Z A Z Z Z 6 ! ! 6 6 Z Z A Z Z Z A Z t 2 w Z Z g e w e 4 q 2.F V Z 2 w w w 2 g G ] 0.' ( ] ] <.<.] ] ( ] ] 0.{ ] ] { { { ] ",
"Q T ( ( Q G G G Z [ 1.! G G G ( { ] ] { ] S S ` { { { ` R _ { { t.3.[ ' ` { ` ` ` { ( g 7.o.E 3.X.X.%.y.b I Y Y 7.$.Y Y v ` e.{ ",
"( ] ] ( ( W Q ( G [ 6.6.( ( ( ( { 4.{ e.4.G T e.{ e.y.e.{ { e.e.e.t.9.e.4.e.e.e.e.i.{ Z o.B Y -.Y ..E e.b b x n *.+.n z b ` e.e.",
"( ( ( Q G A G { { ( 3.w.{ ( ( W { ( ( ] ] A D ] ] ] ] { F G L ] ] ' 3.q.G ( { ' { e.r.@.a a b { ' ( ( ] 3.b z b b *.$.r ] { 4.i.",
"] ' { ] { ] ( Q ( 2.[ F 0.[ ( ( Z G F T ] A Z G Q G G Z Z Z ( l.A.e.F 1.V Z Z Z ' 3.3.1.z L H r e.Y Y ( ] v z n a +. .r ] { e.i.",
"( ( ( ( ] ] ] ( 9.r.6.( { 6.3.( { { { ( ] D Z W { G Q { { 4.e.l.C.4.' 0.{ 3.( V L { { =.a H ( L ] _ _ %.] T H n R $.$.G { { e.i.",
"( ( ( ( ] { 4.{ g.y.4.( { 6.9.{ { 4.{ { ( A A ( e.G G 4.{ e.y.i.i.{ 3.q.e.i.{ 6 L 3.5.! j F ( ] ( ( E ` ] ( T z { =.[ ( T ( { i.",
"] ] ( T Q { e.4.g.y.{ T { ' 3.0.Q ( { ] Q Z D ] 4.G Z G ] { 4.y.i.{ [ 9.{ e.{ 6 ` u.9.u ' L L { { Y x a ] ] T a ( 3.5.( a T { i.",
"e.( G Z T G G Q 0.[ { ] { ] { ] d.{ { e.{ A A ' 4.G D ( ] Q | c.m 0 F 2.Q 4.{ 6 { u.6.5 ] ' L r a a a a a I ( ( ] ] ' @.p S ] 4.",
"{ { ( ( ( ( Q Q 5.7.-.<.( { 4.4.u.t.9.{ ( A D ( y.Q A G ] Q } x.8 5 V W 3.4.] 6 Q 9.5.e ( ( T L p a a a a f S ( ( Q ~ #.r S ( ] ",
"{ ] ] ] ' ( Q Q 2.7.9.{ ( { { { { 3.5.{ G Z Z G i.Q A G Q Q U z.& : 5 V 2.9.[ 6 ^ 6.[ y G T L S r e p p f y g G G F K @.s A Q G ",
"{ ' ] ] ( Q Q Q ] 0.9.Q G G Q T D G ! 9.Q A V G i.G Z ( Z G U z.O - ; 5 G u.6.6 a.6._ Z Z D u w w , 8 w 6 6 g 6 A Z S ~ 6 Z Z Z ",
"( ( { ] ] ] ' { e.u.u.e.e.{ { e.{ { e.e.d.W Z ] i.W Z A q V k M & # - 6 Q 9.2.6 5.6.%.B B n E i.i.i.y.4.V 6 D 4.i.i.s.b.b B n n ",
"( ' { e.<.e.{ { -.u.d.e.e.4.{ { { 4.4.' d.W Z Q i.G C D q q 0 m @ > 3 3 W 3.2.^ 9.t.%.n %.%.<.e.e.4.4.4.{ D D { 4.4.y.g.` { R a ",
"( ] ] { 3.4.%.] { 9.u.{ { ] ( ' { { { ] a.W Z ( y.G V D 5 5 9 i O > 5 3 W 3.t.8.6.e.e.I _ { 4.{ 4.] ] 4.i.Q A ] ] 4.e.d.4.6.$.b ",
"Q T Q T ] ] ] ( ] 6.[ G A G Q T ] ( ( ' 8.D Z ( 4.D V V 3 ; > 7 X : 5 5 Q 4.a.w.{ e.e.Q a E { ( 4.] ( ] i.G Z ] ] { 4.d.] { -.>.",
"e.{ { e.e.{ ] ] ] 6.6.' ] 3.4.] { ( { ] q.F A ' 4.Q Z Z ; ; , m X = 3 3 D 4.i.w.] e.y.4.a T ] ] Q ] ] ( i.G Z G ] ] 6.d.4.e.e.] ",
"' Q Q { ( ( ( ] u.[ ' ( _ e.4.] ( ( ( ( a.W D ( 6.G Z Z ; = - 8 . o = ; 6 W 2.0.{ e.e.] H ( { 2.( R Y Y 4.I j Q b T [ q.{ { { ] ",
"' ( ( Q ! Q ( 3.9.' ( L { { { ( T ( ( ( d.^ G Q -.( A D ; ; ; 7 . + ; 5 V ! 8.q.{ e.3.( ( _ [ 2.( R n n 4.S S Q l T { 6.( ( ( ] ",
"e.e.{ T ( ( 3.0.G ( G ( { { ( ( W ( { e.d.5.^ ( ] 4.{ ( V V q , . > V V Q 3.a.b.3.6.[ ( { { ( ( ( ] E B 9.F Z W a $.6.( F Q ( ( ",
"{ e.t.d.d.q.6.{ ] ] { _ { ] ( { { ( ' 8.' [ ^ A G G D V 3 3 ; ; ; ; ; ; V W 6.g.( { { G ( ( G G ( v p 6 6 6 D ] a P P r A A F G ",
"( 6.t.' 6.3.6.{ <.{ _ ( ( ( { { { ( [ 9.{ 2.^ Z V V 6 3 3 = = = = = - - 3 V ! 8.[ ! S u V A S c 9 0 4 1 s g V D g ! P e t s g A ",
"( ;.$.T ] ` ` ,.e.{ T I T R E R R _ -.t.{ ' ! W G Z Z V 5 3 - = - ; > > 5 A ( 8.5.L A s Z D S v 9 q q 9 b A D D A ' ~ g h g S T ",
"$...B n 4.X.B B i.Y z n B B B B n o.7.i.3.D W g.4.{ { 4.Q Q Z 5 V D D Q D 3.s.h.q.! F ] { ] { ] ( T Q G ] ] ] Q ' 0.u.e.e.e.e.e.",
"r a a a ] ' ] ] ] ] T a B b B B $.3.{ ] i.Q G q.4.{ ] { D V V 5 V V V Z 5 G 3.q.q.' G ( ( ( T G ' { ( ( { ' { ' 0.' ( _ ( ] ] ] ",
"u f x I v R ] Y ] { T a n x x b $.{ { 4.i.W W q.{ Q Q ] G D D Q ] Q Q ( Z G ! 8.6.6.6.] ( ] ( ( ] ( ( ( ( G T ( 0.' Q L T ] ] ] ",
"6 p v ] h R ` I { ] R v b b b J $.[ { 3.i.G D 6.3.G D Q D Q Q ] 4.{ ] ] Z W [ 6.( 9.0.( ( ] ] ] { ' ( ( ( ( L ( q.[ ( ( ( _ ] ] ",
"6 t g ( ( ( ( { 3.{ ( _ b ` 6.$.' ( ( Q i.W D Q q.W Z Z Z Q ] ] ] ] ] ] 6 6.a.4.Z [ 5.Q Q Q ( ] ] <.e.e.] ] ' { a.6.{ e.] ] ] ] ",
"6 L ( G G ( T b b z v ] a =.0.' ( c v ( i.G Z G ( 3.2.Z ( ] ] Q ] Q G Z 4.0.9.Q ] a.a.' ( ( ( e.e.e.e.e.{ ( ( ] 9.[ ( { { ] ' ( ",
"5 G ( W c h c a z a v ( $.[ [ { c l h ( { D V W D G ' 2.( Q Q G Q G Q Q ] 6.3.( ( 6.t.t.( Q ( ( ( ( ( _ { ( ( ] 0.[ ( ( _ ] { ( ",
"4 G ( Q v f r a a a x ~ 5.( ( ( a r j Q Q Z Z G V Z ! q.Q Q Q G G G G Q [ 2.' W Q ] 6.a.( ( T ( G Q ( T { { ' ( 0.6.{ ( ' ] ( ] ",
"a T ] { ( h a a a a x @.F ( ( G r r s D ( Z V Z Z D ^ 0.G Q Q G A G G W 6.! G G G Q [ 0.] _ ] ] G Q Q W e.( ( Q g.r.<.] ] ] Q T ",
"a g V V 5 3 < 2 @./ ! 6 g Z Z Z 7 0 C Z Z Z Z A Z Z W 2.Z V V V 6 6 q Z 8.W V V Z A W a.{ ] ] ( Q ( { { { ( ( L G 2.2.A G Q ( Q ",
"b n v v { 3.3.7.r.6.! 6 ^ { { 3.) I v b n ] 4.{ 3.3.3.q.V Q ( ] f f j G a.! G { 4.{ 3.0.{ { ] ( ( { { { <.{ { ( ( 9.6.( { { { { ",
"B ..X.Y i.s.a.a.e.e.] V 2.e.y.e.i.` Y X.x ,.y.y.y.y.e.t.F L ` { f f H [ u.' ] e.y.t.t.6.6.{ { { { { { e.e.e.e.{ ] 9.9.' e.<.e.e.",
"x %.e.4.a.t.{ { { e.{ 6 { ] ] ] e.4.4.4.a R { ] 4.4.{ ] 8.H c W V A ' q.] { 4.] 4.{ ] ] d.r.y.e.e.{ { { e.e.e.e.{ 6.6.{ e.{ ] ] ",
"( v J e.0.r.{ ( ( e.{ Z ( ( ( ] 4.{ ] { 4.{ ( Z V ' 3.4.4.2.2.] 6 6 F 1.Z ( { [ 4.3.2.Q ( 3.9.{ { ( ( { Q W A Z ( 6.9.' { ] ( A ",
"{ v b { 9.{ ] ( ( e.{ 6 G H H ] { 4.{ 4.{ { ( ( V ( 3.3.4.9.u.4.V 6 F 8.V W ] ] { { 3.{ ' 9.0.4.{ ( ( ] ( _ ( { 9.6.{ { ' { ] ( ",
"{ I T { 9.[ ] R T 4.{ V G c z T ( { 3.{ ] ] ] ( V ] ] ] 4.3.u.s.V Z W 8.G ( ( ] { ] { { ] 5.9.9.] ] ] ' ] ( { t.9.{ ( ( ( ( _ { ",
"Q ( 2.a.e.{ R B n ` ( q ( v a a ( ] { ( ] ( ( ( V ] 3.] ] ] t.b.V ] t.w.i.( Q ] ] { ] Q W Q ' 9.] ] ( L ( ( [ 0.] ( ( L ( Q ( ] ",
"Q 2.6.{ Q ( ( _ B %.( 6 ( v a a ( G G G ( Q F 6 V ' 1.Q 3.( Q { 1.' 2.0.{ W G ( G Q ] e.r.{ ' 9.] { ( ( ! 3.6.{ ] ( ( ] ] -.e.e.",
"2.[ ' ] G G L v z A Z 6 Z S v a h h v G G W D 6 V W ( Q ( Q V V 1.2.2.] ( Q Q Q A D ( e.e.{ 6.0.{ _ { _ 5.6.{ ' ] ( _ _ ( ] { { ",
"5.W D W A A j p e 6 6 6 6 S j p e r f g D D D V V D D Q D V V V W 1.2.Q Q G G Q Z S T 4.4.{ 3.9.{ 6.6.6.6.{ ] ( ] { ] { ( ] { { ",
"&.C 6 Z Z 4 2 3 5 6 V q 6 p p 2 3 2 e 2 Z Z D V D D V V V V V V 5 0.0.V V V V D Z s v { { ( ( ' q.a.a.a._ ( ( L { ] { ] ] ] ] ] "
};
