/* XPM */
static char *minecraft_r1[] = {
/* columns rows colors chars-per-pixel */
"48 48 149 2 ",
"   c #3E2711",
".  c #3F2F1D",
"X  c #303621",
"o  c #343B24",
"O  c #3A3924",
"+  c #343434",
"@  c #3E3636",
"#  c #3D3C3C",
"$  c #452D14",
"%  c #41311E",
"&  c #573C1E",
"*  c #463B22",
"=  c #4C3C27",
"-  c #503E27",
";  c #523E2A",
":  c #4A3933",
">  c #443D3D",
",  c #503E38",
"<  c #3C4326",
"1  c #3A4826",
"2  c #3A4328",
"3  c #3E4C2B",
"4  c #3E403E",
"5  c #58491E",
"6  c #68451E",
"7  c #454022",
"8  c #4A4524",
"9  c #444A2A",
"0  c #5D4021",
"q  c #514C24",
"w  c #5E4F20",
"e  c #54432F",
"r  c #524D2A",
"t  c #5B482F",
"y  c #44542C",
"u  c #595226",
"i  c #56542A",
"p  c #4E4038",
"a  c #564431",
"s  c #594635",
"d  c #5D4A34",
"f  c #54443D",
"g  c #5E4B3B",
"h  c #4A5533",
"j  c #4E5C36",
"k  c #4F5C39",
"l  c #595530",
"z  c #555935",
"x  c #5D5A31",
"c  c #6A4721",
"v  c #6B4E2B",
"b  c #645629",
"n  c #625A2D",
"m  c #685E2D",
"M  c #614D34",
"N  c #614F3C",
"B  c #645237",
"V  c #605B34",
"C  c #6B5D34",
"Z  c #65513B",
"A  c #6A563D",
"S  c #6B583C",
"D  c #54633B",
"F  c #5A6039",
"G  c #6D662D",
"H  c #7A692E",
"J  c #646136",
"K  c #6A6334",
"L  c #6E643A",
"P  c #756C34",
"I  c #706239",
"U  c #736A3C",
"Y  c #79723D",
"T  c #444544",
"R  c #4B4343",
"E  c #4F4947",
"W  c #4B4B4B",
"Q  c #5A4A43",
"!  c #554D4D",
"~  c #5B514B",
"^  c #594F51",
"/  c #525252",
"(  c #5D5555",
")  c #595959",
"_  c #645041",
"`  c #6A5646",
"'  c #6D5B44",
"]  c #62504A",
"[  c #6B5949",
"{  c #715D43",
"}  c #705C4C",
"|  c #685750",
" . c #6F5D57",
".. c #655B5D",
"X. c #725E5A",
"o. c #776447",
"O. c #796543",
"+. c #7C6A47",
"@. c #756249",
"#. c #78654D",
"$. c #7C694F",
"%. c #776253",
"&. c #796655",
"*. c #7C6A52",
"=. c #73625B",
"-. c #7C6959",
";. c #605F60",
":. c #6A5F62",
">. c #646364",
",. c #686060",
"<. c #6C696C",
"1. c #7A6662",
"2. c #7C6A64",
"3. c #716669",
"4. c #FF1900",
"5. c #8C5D28",
"6. c #93602B",
"7. c #9A6933",
"8. c #837635",
"9. c #877D35",
"0. c #9F713A",
"q. c #FF7600",
"w. c #836F41",
"e. c #817645",
"r. c #837C46",
"t. c #8A7648",
"y. c #907B4E",
"u. c #816E55",
"i. c #826E59",
"p. c #8D7956",
"a. c #86745B",
"s. c #8A775C",
"d. c #8F7B5E",
"f. c #937F51",
"g. c #816E60",
"h. c #867163",
"j. c #8D7A62",
"k. c #8B7669",
"l. c #8E823D",
"z. c #91863E",
"x. c #FFD800",
"c. c #998456",
"v. c #B38846",
"b. c #A08A5F",
"n. c #9D8762",
"m. c #94806B",
"M. c #FBE571",
"N. c #FFF2AF",
"B. c #F9E4B3",
/* pixels */
") ) ) ) / W W / W p W W / / / W ( ..< r r i l l q =.x x | h z O ..:.:.:.;.:.<.<.<.<.<.<.;.) ) # ",
"/ / W / W / / / / / / 4 4 W ! R ..E ] 7 i i x q | ] ] ] ] q 9 9 :.^ ( / ) ) ;.;.;.) / ) ) / / + ",
"/ W T T W W W T W W W / ) ( ( ( X.| ] 8 l q x u [ ` x | 7 ] q : :.) ! ( / ) ) ) ) ) ;.;.^ W W + ",
"/ / ) ;./ ) / / ) >.) ( ) / ! ] 1.| ] [ n -.L @.%.-.[ ` } ` r , 1.( ^ ( ;.;.) / ) ;.) / ) T T + ",
"W / / W W W / / ) >.,.,.,.! | | 1.| K %.-.g.U 2.g.K U &.} _ } s -.] E ^ ^ ( ;.) ) / / ) / T W + ",
"/ ) / / / / / ) ( / ! R ! Q ~ =.1.&.U Y a.i.-.a.Y e.Y U L -.[ q X.] Q | ( ^ ^ / / ) ) W T / W # ",
"W / / ) ) ) W >.;./ ~ / | | | =.i.*.U U *.a.*.U Y Y U U i.a.-.w _ _ Q Q E E E E W T T T T T T # ",
"W W T T W T / / ( ( ~ ] ] | &.-.&.#.@.I #.#.@.' @.L I I L #.} [ M N s , R R : > # # 4 4 # 4 # 4 ",
") ;.) ) >.) ) ,.,.,.| | [ =.*.*.r.r.r.k.m.k.d.o.d.k.m.m.m.+.c.Y k.i.i.i.1.1...> ;.:.>.:.<.:.>.;.",
") ) >.) ) ) ..,.,.[ | =.2.m.m.a.Y j.j.j.d.p.y.e.b.d.a.j.j.j.m.Y -.g.X.%.X.| | > 3.;./ ) ) ) ) / ",
"T ) / ) / ! E E ^ | ~ =.*.-.*.*.j.a.a.j.s.c.y.4.b.c.u.j.*.m.P *.j.*.-.%.} | ] > 3.) ^ ;./ ;.) ) ",
") ) ) ) ) ,...( ( [  .u.d.m.s.m.a.j.j.a.a.9.t.q.b.f.a.u.-.a.P m.a.j.s.u.} ' Q > 3.! ^ W ) / ) ;.",
") W W / ) >.( / ] | %.&.#.u.*.*.a.a.a.a.i.9.q.x.4.l.r.a.m.a.-.*.a.a.a.u.} } ] , ( ! ! / ) ) / / ",
">.>.) / / ~ ( ] ] ~ i.a.u.u.*.m.u.i.*.i.U 9.y.x.q.z.p.u.*.p.c.a.u.i.*.*.$._ ` , | ! ! ! W / ) / ",
") / W ) ( ( [ [ |  .u.a.j.j.j.j.*.*.U U Y f.c.x.q.8.U a.*.-.-.*.*.$.*.#.#.N _ , f > > R T T T 4 ",
") ) ) ) ( ( ~ ] | i.s.a.a.a.a.a.#.I I I C e.q.x.x.H K J #.#.L L #.#.#.*.{ M f , : > > > 4 4 4 4 ",
";.<.y k z F J V n h.Y c.j.+.r.L m.m.m.m.m.c.q.x.x.c.s.j.j.j.m.*.j.m.j.m.*.` ` | ] f E E / / / / ",
"<.) ;.3 F V J i -.+.*.a.a.Y Y U m.a.a.a.*.c.x.N.x.q.+.*.-.s.a.@.a.s.*.s.*.o.} } | | ! R p W / W ",
"<.;.) 3 z i V i *.+.Y j.U a.U @.j.a.#.#.} Y x.N.N.x.o.' o.*.*.@.a.u.*.*.*.L { N ] ] ! ! ! / / / ",
"<.) / ) 9 X.V ] $.a.u.u.a.a.U @.j.*.@.m.m.n.q.x.x.q.p.j.@.m.-.} a.a.j.j.*.*.@.} &.=.( ( ( W W W ",
"<./ 9 / ^ | i | $.G Y a.u.*.a.@.m.a.@.m.j.p.c.M.B.c.-.@.{ j.a.@.u.a.a.u.} { { ` } X...,.,./ ) ) ",
";./ 3 h ( ] ] ] G P G U U a.i.L m.a.} m.s.*.+.v.8.#.*.*.{ j.-.@.a.j.a.a.u.O.#.} } ] ] E ! T W >.",
"/ W 3 3 E ] Q q G G K U u.a.a.U j.*.{ j.a.*.g 0.v @.#.@.#.m.a.@.u.a.a.s.a.u.{ %.&.] ] ! ( ) ) ) ",
"T T 4 o T p f : t w b L I #.#.#.j.a.@.m.-.' t 0.& #.} *.@.m.*.@.u.u.&.{ #.v { ` } | ] ! ~ ) ) ) ",
"~ D j <.<.3.} p #.a.s.s.j.t.t.r.j.*.} j.a._ e 7.0 Z _ @.@.m.-.@.d.j.a.#.u.O.{ u.*.=.| ( ) ) ) / ",
"3 ;.;.;.;.) | p i.u.{ a.a.j.j.e.m.$.#.j.*.Z M 5.& Z Z } @.m.-.@.a.#.a.#.o.#.u.%.%.| | ,.>.>.;.) ",
">.) ) ;.) ( ( : 1.} { $.} u.Y a.m.a.#.m.u.Z d c $ a g ' @.s.a.@.{ #.S o.S S Z N ` | ~ ( ) / / W ",
") ;.;.) ) y E > 1.] #.{ O.u.m s.m.a.*.m.*.d e 6.  e l ' #.j.a.S u.O.#.#.#.u.u.} | | | ) >.;.) ;.",
") ) ) ) / y ( > ..V P @.u.{ #.#.m.a.*.*.} e = 6 $ % s Z } j.o.A O.S { S o.&.} ` ~ [ ( T T / T / ",
"/ / W / y y ! > :.z [ o.{ o.o.#.*.j.m.m.*.' ` 6   ` ' #.a.*.#.l u.u.o.{ { } } ` ] ] ) ) / / / >.",
"T T 2 2 3 W / @ E * 8 _ M S S S u.@.*.*.@.s a e e e N Z #.S S M o.{ { #.' } ' | | | ) ) ;.>.>.;.",
"4 o o o o 4 # + > O * * s M 5 5 S B B B B t % % % . % - t t M M @.o.o.} } } ~ ~ ) >.>.) ) / / / ",
") ) ;.) / W W / E p E Q ~ ` ' { Z { a.u.M { _ M ; M M u.{ { u.v u.a.v m C J J k y <.D D ;.k k o ",
"/ / W W W W / / / / / p f Q ` A A w.u.{ M M M M ; s M ` ` u.{ M i.} X.w J x J y ;.) ) ) ) 3 3 2 ",
"/ W 4 4 T T T T W W E ^ ^ ] ] [ a.{ A Z { A Z M M - v _ A w.{ M i.%.} q x i x 9 ) ) k ;.3 ) 3 # ",
"/ / ) ) / ) / ) ;.>.( ( ( ! ] ] ` M u.i.v } Z M M A s M A { { M g.} ] | r :.k / ) ;.) / ) / 1 + ",
"/ ) / W T T W T / >.>.,.:.! ( | 1.} ` } u.Z { ` M M M M } ` _ , i.] i ] ^ ) y ) ) y k ) / T W + ",
") ;.W W W W / W W W / T ! E ! ..| Q _ _ N ` ` s } ` N ` ; , _ : X.] 8 h ) / / / y W y 3 2 / W X ",
"/ / W / ) ) T / ) T / W ) ( ! ! E f f f , _ f N M Q , N , : , : Q R * 2 T W T 2 1 1 o 2 / W / 1 ",
"W W # # T 4 T T / / / / / ( ! / > > > : , , : : : : : : , , , > > > # o 4 4 # + + X X X o 4 4 4 ",
";.) / T ) W W / ) ) ) ) ) ) / E :.:.:.> ( R @ @ ^ ^ @ ^ :.:.:.:.z k h >.>.>./ + / ;.) >.>.h j j ",
"W W / T T W ;.;.;./ ) ;.;.>.>./ / / ( R ! ! > > ( R > E ^ ( / ) 3 ) ) ) ) ) W + ;./ W ) ) ) ) h ",
"# W 4 W 4 T # 4 W / W / ) / / W ;.) / ) > W R + R > ^ ..;.) # / ) / / ) / W T + ;.W T ) W ) 3 ) ",
"W W W T W / ) W / / / / ) >.) >.) ) / / @ # + # ;.W ;.) ) T ) ) ) ;.;.) ) 9 T + >.W / / ) ) 1 >.",
"W T T T T / T T W / ) 4 4 / W W ) ) / T <./ ) + ;.W ) ) ;.T / ) / ) ) ) / 3 W # ) h k ) ;.) / / ",
") ) W T T W W T T T W W W / / >./ / T ) / W T + ^ T ) / ;.# / / / / W / y 3 W # ) k / / / ) ) ^ ",
") T T W W W W W W W W W / >.>.>.W W / W W T W + T # W / W # 4 W W W 3 3 y W / # W 2 2 / W / / W ",
") ) / W W W h T W ) ) W W W ) ) T T T T T 4 + + + @ T T T T T T T O 2 o 2 T + + # o o o T T 2 o "
};
