/* XPM */
static char *minecraft_e2[] = {
/* columns rows colors chars-per-pixel */
"64 64 230 2 ",
"   c #303622",
".  c #333B24",
"X  c #393A2A",
"o  c #343434",
"O  c #3C3535",
"+  c #3D3C3C",
"@  c #3A3D34",
"#  c #452D14",
"$  c #4F361B",
"%  c #4D3D2A",
"&  c #4A3A24",
"*  c #533E25",
"=  c #4B3B35",
"-  c #443C3C",
";  c #4D3E39",
":  c #443734",
">  c #503E38",
",  c #503E31",
"<  c #3A4226",
"1  c #374328",
"2  c #3A442B",
"3  c #3D4A2A",
"4  c #384426",
"5  c #3D4233",
"6  c #3E403E",
"7  c #3F4831",
"8  c #5A4B1F",
"9  c #4D4424",
"0  c #444C2B",
"q  c #48462A",
"w  c #53432C",
"e  c #534D2A",
"r  c #5C4C2C",
"t  c #574926",
"y  c #4B522D",
"u  c #44542C",
"i  c #55532A",
"p  c #5B552D",
"a  c #5B5426",
"s  c #434C35",
"d  c #43433D",
"f  c #4B423D",
"g  c #454C3A",
"h  c #4C4E39",
"j  c #474935",
"k  c #544433",
"l  c #594634",
"z  c #5C4A34",
"x  c #54443C",
"c  c #5C4A3B",
"v  c #544B38",
"b  c #4C5433",
"n  c #4D5B35",
"m  c #475039",
"M  c #49523A",
"N  c #4E5A3B",
"B  c #455032",
"V  c #515533",
"C  c #555A36",
"Z  c #5C5A33",
"A  c #52533A",
"S  c #595737",
"D  c #644A27",
"F  c #664B25",
"G  c #645B2C",
"H  c #685E2D",
"J  c #645528",
"K  c #614D35",
"L  c #614E3D",
"P  c #684F33",
"I  c #655336",
"U  c #6D5234",
"Y  c #625C34",
"T  c #65523B",
"R  c #69553C",
"E  c #63583B",
"W  c #6C593D",
"Q  c #6A5C34",
"!  c #725838",
"~  c #77582A",
"^  c #55623A",
"/  c #6D652D",
"(  c #70662F",
")  c #7A692E",
"_  c #6E633A",
"`  c #666134",
"'  c #72643C",
"]  c #736A3C",
"[  c #796A39",
"{  c #7A723C",
"}  c #473F40",
"|  c #444444",
" . c #4B4444",
".. c #474947",
"X. c #4B4B45",
"o. c #4C4B4B",
"O. c #4A4748",
"+. c #554641",
"@. c #524A46",
"#. c #5C4C44",
"$. c #504749",
"%. c #544C4D",
"&. c #5B4E4A",
"*. c #4E5344",
"=. c #4F504F",
"-. c #555444",
";. c #5C5345",
":. c #53534C",
">. c #5C514C",
",. c #555A4C",
"<. c #555A42",
"1. c #514F51",
"2. c #594F51",
"3. c #545354",
"4. c #5B5454",
"5. c #5B5C53",
"6. c #5A5A5A",
"7. c #585856",
"8. c #614E42",
"9. c #604F48",
"0. c #645243",
"q. c #695644",
"w. c #6D5A43",
"e. c #63524B",
"r. c #6A5749",
"t. c #6D5A4B",
"y. c #645848",
"u. c #715D44",
"i. c #715D4C",
"p. c #635553",
"a. c #685750",
"s. c #665852",
"d. c #6C5B54",
"f. c #635A5B",
"g. c #675B5B",
"h. c #715F52",
"j. c #735F5B",
"k. c #5D6055",
"l. c #586247",
"z. c #746244",
"x. c #766A45",
"c. c #7A6C44",
"v. c #76634A",
"b. c #79664D",
"n. c #7B6A4D",
"m. c #78674A",
"M. c #7C7245",
"N. c #7D704C",
"B. c #766353",
"V. c #796653",
"C. c #7D6A52",
"Z. c #73615B",
"A. c #7C6A59",
"S. c #79675B",
"D. c #6E6051",
"F. c #605F60",
"G. c #6A5F61",
"H. c #646263",
"J. c #696061",
"K. c #6C696C",
"L. c #6C6669",
"P. c #7A6662",
"I. c #7C6A62",
"U. c #746667",
"Y. c #FF1C00",
"T. c #845929",
"R. c #856C3A",
"E. c #88763B",
"W. c #9F713A",
"Q. c #986732",
"!. c #A6783B",
"~. c #B97E34",
"^. c #B66A30",
"/. c #AE5631",
"(. c #FF5A00",
"). c #D47817",
"_. c #FF7900",
"`. c #CD772D",
"'. c #836F45",
"]. c #826D4A",
"[. c #8A7645",
"{. c #8C7946",
"}. c #84754C",
"|. c #8D7A4C",
" X c #827746",
".X c #927D4C",
"XX c #927F45",
"oX c #816E55",
"OX c #826E59",
"+X c #847255",
"@X c #8A7654",
"#X c #8C7955",
"$X c #85735A",
"%X c #89765C",
"&X c #8B795E",
"*X c #877854",
"=X c #927D52",
"-X c #947F59",
";X c #AA7C44",
":X c #8A7761",
">X c #8D7A63",
",X c #847168",
"<X c #917D66",
"1X c #927E68",
"2X c #816E63",
"3X c #92863C",
"4X c #AE9628",
"5X c #B68F31",
"6X c #B5A026",
"7X c #D88D1B",
"8X c #FF9700",
"9X c #FF9900",
"0X c #E59A1D",
"qX c #D3B416",
"wX c #FFB10A",
"eX c #D29C27",
"rX c #E39923",
"tX c #FFD800",
"yX c #FDDC30",
"uX c #FFE13A",
"iX c #97824E",
"pX c #948740",
"aX c #998456",
"sX c #A99359",
"dX c #94806B",
"fX c #9C8663",
"gX c #AA9E6A",
"hX c #FBE46D",
"jX c #FFF2AF",
"kX c #F9E3B2",
/* pixels */
"6.6.6.6.H.7.=...o.1.=...| ......3.&.4.2. .%.4.f.q q e i a i i Z e y.t.Z Z y.;.b V 0 j 4.H.H.H.H.H.H.H.K.K.K.K.K.K.K.L.F.6.6.o.o ",
"3.3.3.=.3.=.=.=.1.1.1.=.o.=.o.| o.$.%.2. .4.s.>.h k e i e p i i ;.e.e.;.E e.;.y e q v f.4.6.4.4.6.F.H.H.G.F.H.F.6.F.6.6.3.3.O.o ",
"3.3.o.O.=.o.o.=.=.=.=.1.1.1.o.O.$.%.%.4.@.s.a.9.>.k w p e p i i r.e.y.0.e.;.c V e 9 v G.4.4.2.4.4.6.6.F.6.F.6.6.6.6.6.6.1.1.| o ",
"3.o.O.| | | o.o...| ..o.o.o.1.1.p.4.4.4.r.h.j.e.e.e i G i G p a q.q.E G r.v w e.t = +.j.4.4.2.p.2.3.6.6.6.6.6.6.F.F.6.1.o.o.| o ",
"3.3.3.6.6.3.3.6.3.3.3.6.F.6.4.4.4.2.&.e.e.V.V.i.r.i.w.a A.z.w.d.B.A.C.B.i.B.h.q.i k #.P.s.p.4.f.G.F.f.6.1.3.6.F.6.3.3.6.| | 6 o ",
"=.=.3.3.1.=.=.1.3.3.3.6.G.F.f.G.f.4.>.s.t.V.V.r.Q w.t.w.C.x.x.A.S.b.m.x.V.B.i.i.w.#.>.P.e.&.&.3.4.f.f.6.7.3.7.7.3.3.6.3.| o.| o ",
"o.3.3.1.=.=.o.=.3.1.3.6.f.f.f.f.g.e.9.t.h.V.V.d.Y _ b.C.A.n.n.+XA.x.M.M.n.b.b.h.V.e.e.P.9.&.#.>.2.4.p.f.6.7.1.3.6.3.1.1.o.o.| o ",
"3.7.7.3.1.3.1.1.3.3.4.4.%.%.%. .e.#.9.r.V.B.B.Z.Y _ c.$XA.+XA.+X{ M.M.{ ] ] c.+XC.w.t.I.9.9.9.t.4.2.2.2.4.2.7.6.6.=.| | 1.1.o.o ",
"o.=.3.1.6.6.6.6.1.f.G.G.%.%.&.e.s.t.i.i.i.B.B.b.] ] x.oXoX+X/.Y.3X{ { E.] n.+X*X$Xc.z.z.s.#.#.#.#.$.$.$.$.$.$.} | | } | | | 6 + ",
"o.o.o...o.=.:.o.%.4.4.6.4.>.>.e.q.t.t.i.B.v.v.b.z.' z.V.].'.W.(.E.E.{ ] _ x.m.n.C.b.m.b.w.e.+.x +.+.+.} } } } } 6 6 | 6 6 | | + ",
"=.=.=.1.o.=.3.o.2.4.4.f.g.e.0.r.t.t.t.h.A.m.x.].m.c.OXOX=X!.).9XXXE.E.].N.c.n.n.N.n.n.A.C.h.y.;.9.e.&.+.} } } $.o.o.o.o.o.o.o.o.",
"7.6.6.F.7.F.F.4.4.f.J.J.Z.d.r.t.i.i.B.A.C.n.}.iXN.&X1X1XfX).8XtXiXfXaXfXdXdX&XM.iX}.*XdX1X1X>X,XI.P.j.g.} 2.G.G.F.F.F.F.H.H.H.F.",
"6.6.6.H.6.6.7.4.J.g.J.J.r.t.h.A.C.S.I.&X%X'.}.>X>X>X&X&XiXiX.X[.sXaXaX#X>X>X>X$XaX}.N.S.>X>X>X%XI.d.a.a.- f.G.G.3.6.6.6.6.6.3.3.",
"o.3.6.7.6.3.3.&.4.3.:.p.s.r.t.h.C.A.C.+XC.+X+X&X$X&X&X&X=X=XXXE.sXaX=X.XaX@X$X1X XN.A.:X%X%X%X>XP.Z.d.t.; f.G.G.2.6.6.3.6.6.6.3.",
"o.3.3.3.6.3.:.4.:.%.>.e.a.r.t.i.C.+X+XC.$X$X$X#X&X$X$X&X}.|.{.E.`.;X-X.X=X*X*X>X{ N.:X>X%X%X%X:XA.S.h.r.> g.G.2.2.6.3.3.F.6.6.3.",
"6.6.6.6.6.4.f.G.G.d.t.s.a.t.i.V.&X>X1X&XdX$XoXaX<X&X$X$X{ [.[.'.Y./.aXiX@X@X#X%X) &X>X$X>X>X&X+X$XC.v.e.> a.G.$.2.$.1.6.6.6.6.H.",
"6.=.o.o.1.7.f.G.4.p.e.e.i.i.i.u.u.V.C.C.A.$X>X1XM.+X%X+X{ {.|.E._.~.3X3X#X-X-X&XA.OX$X$X$X$X$X$X+X+XC.i.> e.e.&.$.%.4.7.6.7.1.3.",
"F.6.6.3.3.1.4.6.4.e.e.9.r.t.v.C.b.oXoX+X$XOX$X2Xn.+X+XM.{ {.!.).wX6X3XpX@X#X@X$X$XoX+X+XOXoXoX+XC.C.b.h.> &.e.e.&.%.1.=.3.3.1.3.",
"F.6.6.6.4.4.2.p.p.p.e.e.t.i.b.oXOX$X$X$X>XOXA.C.m.N.N.{ M.|.~._.tX6X3X3X@X+X+X$X%XC.C.oXC.C.C.oXC.b.v.B.x #.e.#.1.$.$.O.1.o.=.1.",
"6.=.o.3.4.4.4.4.a.a.s.r.i.b.C.oX>X>X>X>X>XOXC.C.] ] { { +XiX~._.tX4XE.E.@XoXC.+X$XoXC.C.C.V.C.C.n.C.b.v.#.+.x x  . . ...| | | | ",
"6.6.6.6.3.4.4.4.&.9.r.t.V.+X+X+X$X+X*X%X$XC.z._ _ _ ' _ M.N.5XtXtX9X).) ` m.m.b._ ' ' b.b.b.b.b.b.b.v.w.c k = = ; ; } 6 + 6 6 6 ",
"6.H.k.M -.A <.<.S E E R C.n.N.N.&X*X}.}.x.+X%X$X$X$X*X$X|.aX5XtXtX9X).[.C.+X$X$X$Xn.C.>X+X%X:X:Xn.C.b.v.t.#.+.x +. .| o.o.o.o.o.",
"J.H.f.N V C Z ^ Y Y Y Q C.c.'.N.&X}.{  X] %X1X>X>X:X:X>X=X;XeXtXuXwX7X|.%X:X%X>X>XC.C.dX%X:X>X<Xn.C.A.C.C.y.>.#.&.+.$.1.=.1.=.=.",
"K.F.6.F.0 S ^ S Y p S B.v.].].oX+XM.{ { ] $X>X+X$XOXA.]..X).9XtXjXuXqX XA.A.A.+X$Xn.n.$X%XoXC.$Xn.+X%X*XC.d.a.a.9.$.| | ..=.=...",
"K.H.6.6.q M V y Z G Y t.v.[ c.$X] C.+X{ i.oX$XA.v.v.v.z.R.qXuXjXtXtXqXi.u.m.V.oXoXv.b.$XA.V.b.M.$XC.C.C.w.r.e.e.9.&.3.3.3.3.3.3.",
"K.H.6.7.-.M A y.Y E w.i.b.m.n.+XN.+Xn.{ i.oX$XC.i.oX:X%XiX7XwXuXtXwX7XoX$XB.V.%XoXb.b.&XoX$X%X:X$X:X%XA.m.h.d.d.e.4.4.3.O.o.o.o.",
"K.F.3.*.4.X.-.g.Z W t.i.] x.n.oX+X+XC.M.v.+X%XC.t.$X<X>XaX`.rXtXuXrX^.$X%XB.V.>XOXm.b.$X$X%X>X:X$X>X:XA.x.B.h.Z.d.g.f.6.o.=.o.=.",
"K.6.*.u 3.2.e.q.i q.i.i.G ( [ oXOXC.C.$Xi.,X:XA.u.%X&XM.iX=XsXhXkXgX}.C.B.v.n.>X+Xm.v.C.&X$XOXOXC.+XC.+Xz.w.t.Z.Z.G.G.H.=.3.7.6.",
"F.7.X.3 y -.4.e.e.y.W a ( ( / H ] C.$XOX_ $X>X%Xw.%X>XS.A.n.E.sXQ.'.b.n.V.v.V.<X$Xb.B.+XdX&X$X$X$X$X+Xn.b.i.e.&.e.$.o.1...o.7.H.",
"7.=...3 0 *.>.e.8.S p J / / H H n.+X$X+X' *X%XC.u.C.OXC.C.w.' !.~ z.V.C.b.v.oX<X$XB.b.+X:X%X$X:X>X&X+Xb.oXB.d.e.9.%.1.7.3.3.7.6.",
"O.O.| 7 q f @.#.+.z r a G J J H c.C.C.OXx.+X+XC.u.A.OXC.m.E ! W.a u.V.n.b.v.oX1XoXb.b.OX$XoX$X$X%X+XC.v.V.j.d.e.e.&.2.3.6.3.7.6.",
"| | | 6 X d x x > k l k 8 8 a J H z.b.b.b.oX+XC.u.$X>XS.` v U !.* w.B.b.C.b.oX1XC.b.v.A.A.C.C.C.+Xb.v.z.u.t.s.a.e.&.1.1.6.6.7.6.",
"^ ^ ^ N K.L.U.P.d.8.L t.$X$X%X&X$X}.'. X X@XOXb.q.S.2XOX8.K U Q.F P R w.i.b.oX1XA.B.oX<X>X>X&X$X1XoXV.oXC.B.Z.Z.4.6.6.6.6.6.7.=.",
"n l.k.5.G.G.G.d.a.L 8.oXoXb.].@X+XoX}.#X X&X%Xb.u.OXOXV.L L ! Q.D K q.q.u.u.oX1XA.b.b.&X%X&X:X$X$XoX].b.C.B.j.t.4.6.F.H.6.F.6.7.",
"N 7.6.F.f.f.f.r.a.L 0.OXoXu.b.+XC.oX+X}.@X<X:XV.u.OXOX].T T U T.$ K L 8.u.u.oX1XOXb.b.oX$X%X+XoXb.b.b.u.v.d.a.i.4.6.H.6.6.6.6.3.",
"F.6.6.6.F.6.4.t.9.L 0.OXi.u.z.'.u.V.n.( +X>X>XA.u.%X,X].R T P F $ r K L u.u.oX>X+Xb.b.n.$XoXoX].v.u.u.w.T >.e.t.o.3.6.6.o.=.=.=.",
"6.6.F.H.6.4.,.i #.L 8.OXq.i.v.u.R.v.u.Q oX:X&Xc.u.$X$Xb.z z U Q.# & l T i.i.oX>X$Xb.b.$X+XoXoXoXu.V.C.oXr.r.y.6.6.6.6.H.H.6.6.H.",
"6.7.6.6.3.4.#.i 9.> 8.oXW ] x.u.'.z.z.W oX%X&XoXi.oXb.u.e w D ~ # & w K r.u.oX1X2XB.C.$X].v.u.b.v.].C.B.e.e.4.4.6.3.=.1.7.1.1.6.",
"6.3.3.3.1.%.A r e.x +.h.Q ( ] u.'.b.z.u.b.OX$XoXoXoXb.i.K r D F # * l I t.i.b.&XOXV.b.$XV.v.u.u.z.b.b.i.e.3.2.4.6.=.o.o.1.o.=.6.",
"3.=.o...1.h 0 w e.x +.oX` z.u.u.u.u.v.z.u.h.OXS.1X<X$XOXu.r.U F # K w.u.V.V.C.n.+Xb.oX+XOX].u.R ' z.u.i.%.%.%.%.6.6.3.1.1.1.6.F.",
"| | 6 1 1 3 7 o.e.x x 8.e t r R L R w.R W b.b.v.v.b.b.t.T K z z z z K L T v.b.u.v.Q w.n.u.u.u.b.b.v.t.s.4.4.6.6.7.7.k.H.H.H.H.F.",
"+ @ X . . 1 5 6 f = = k 9 9 * D L U P a D Q w.R T T c c l l w % % % * w K R q.R T I E m.v.u.u.b.i.t.e.>.3.4.6.H.6.6.6.6.6.7.7.7.",
"| 6 5 7 5 5 5 6 - ; ; ; 9 9 w t T L I P J R R R R R L c z l w w & % k w T R R W R I R x.oXu.W z.w.y.y.-.-.:.,.H.6.k.5.6.=.*.o...",
"6.6.6.6.6.=.O.....@.#.+.= c L c q.t.u.z.w.W R u.+X+Xb.R u.w.w.R * D L 8.i.u.z.'.oXW W '.&X~ J ` Y ` ` ^ C y <.K.^ ^ l.F.N n B . ",
"3.3.1...o...| ..1.1.2.&.#.#.c k z L q.u.R R u.b.u.u.R D R R R T P P K P u.u.v.oXu.U R OXu.v.w.i Y C C ^ M k.6.6.6.6.6.6.u 3 3 1 ",
"3.1...6 6 | | ........O.#.#.+.#.L L 0.q.z.b.b.z.T U U R q.R R T P l l U w.R u.v.u.R w.OXB.h.y.w C V C Z u ,.6.6.<.5.3.m ,.B 3 5 ",
"3.1.O...| ....o.....O.o.&.#.&.9.8.q.0.0.u.b.b.W R w.R w.q.q.R R R z z L T U w.u.u.U q.$Xh.a.e.A b A C C M ,.6.6.<.7.3.m 6.m 5 @ ",
"1.1.3.6.6.7.3.6.o.3.6.F.6.p.e.9.e.8.0.0.w.t.W I b.oXb.K u.R R R R R L z K I R u.u.T w.OXr.e.e.4.0 5.s.C 3.3.6.6.6.3.3.6.3.7 1 o ",
"1.6.3.1...| | | o.| o.1.6.6.6.f.d.e.r.t.t.B.B.t.0.q.v.b.K R u.u.T P P L F w.i.t.L K 8.P.e.v A 4.2.4.-.u 6.6.,.u X.3.7.1.| ..| o ",
"7.F.6.o.o.| ..o.o.o.| o.o.=.1.1.e.#.#.e.t.h.t.q.0.q.q.u.q.q.q.L r.q.0.L T K l x R x #.P.&.h b M 4.4.3.*.3.*.N n B m g 7 =.o.|   ",
"6.F.6.o.=.=.1.1.o.o.=.o...o.$.O.&.+.#.>.r.e.0.L 8.8.8.L r.q.L c r.q.8.c 0.> > = #.> x s.%.j 0 0 1.3.%.o.h B u n 0 3 3 j 3.=.|   ",
"o.1.o.o.6.6.6.6.| =.6.1...O.o.O.4.e.e.&.9.#.+.> x c c z 8.L K c K L 8.> 8.l = = > = ; $. .= & < | ..O.| 3 4 4 4 . 1 j =.O.=...1 ",
"..o.O.+ + 6 6 + | | | $.3.=.=.=.o.1.$.2.2.} ; = : = = > > = : = : = = = = > ; } - - - - - O X   + 6 + O o o o       . . 6 6 6 6 ",
"3.1.o.o.| 1.o.o...=.3.3.7.3.3.1.3.2.1.$.%.2.4.2.4.;  .&.; : : O > +.} O $.2.p.2.p.2.>.v A m h 3.7.7.1.o.o | o.O.=.*.=.,.g B M M ",
"6.1.1.3.| 1.3.o.=.7.6.6.3.6.6.7.6.6.7.1.%.p.f.F.4.$. .4. .- O O %.%.} O %.p.f.g.g.g.5.b -.*.,.6.F.F.6.=.o o.6.6.6.6.6.F.*.<.N n ",
"o.o.=.3.| | ....6.6.6.6.1.7.6.F.F.F.F.g.%.%.1.1.2.$. .%.$.} - O p.1.} O  .$.1.2.2.f.,.3 6.6.6.6.6.3.=.o.o 1.6.3.o.=.3.6.6.6.,.b ",
"+ | | | | | | | + | | o.1.o.o.o.6.=.o...1.6.6.3.1.7.1.} $.} 6 o } }  .2.G.f.4.3.6 o.3.6.1.1.7.6.=.=.o...o =.3.o...3.3.o.6.m m 6.",
"| o.o.o.| | O.o.o...o.1.1.1.=.o.6.6.6.3.6.6.3.6.1.1.O.o } + o o 4.$.$.6.7.6.7.| =.3.7.6.6.6.6.6.6.*.6 | o 1.6.=.=.3.3.=.6.m M 6.",
"o.o...o.| | o.1.=.o.o.1.3.1.1.o.=.3.3.3.6.6.3.6.1.O.O.} } + + o f.1.=.6.7.6.1.} 7.7.6.6.F.6.6.6.3.m 7 o.o 1.6.*.:.3.7.7.7.*.*.6.",
"o.o.| | | o...1...| | ..3.3.o.| 6 o...| o.3.6.1.1.} O.F.1.1.O.o 6.=.1.1.6.6.7.| =.3.6.6.6.6.6.6.3.m 7 o.6 =.,.b n ,.6.F.6.3.=.3.",
"6.3.=.o.| ....| ..| | ..| o.O.o...1.3.3.H.3.1.1.o.6.3.1.O...6 o 1...o.6.1.6.3.6 1.1.1.3.3.o.o.=.3 3 m *.+ 1.3.n 3.3.3.3.7.6.7.1.",
"6.o.o.| o...o.o.....o.......o.o.3.6.F.6.H.6.o.O.o.1.1.1...o.} o o.| | 1.1.1.o.6 | ..O.o.=.m 7 s u M o.=.@ ..*.7 j =.3.o.7.3.3.o.",
"6.=.o.| o.o.o.o.| o.o.o.=.o.o.o.3.3.6.F.F.1...o.o.o.o.o.| | 6 o 6 + } ..o...| 6 | | | X.| 7 4 3 3 | o.o.o 6 d . . g X.O.o.X.| | ",
"6.6.6.1.o.o.o.o.| | ..o.6.6.3.o.o.o.o.6.6.o.| | | | | | + o o o o o + | | | | | | | | | X 1 1 . . @ + + + + @ . . . @ | | 7 < X "
};
