/* XPM */
static char *minecraft_s3[] = {
/* columns rows colors chars-per-pixel */
"64 64 159 2 ",
"   c #160F07",
".  c #171008",
"X  c #1C140B",
"o  c #1E1B18",
"O  c #261C11",
"+  c #211E1C",
"@  c #2B2114",
"#  c #27231E",
"$  c #2C251D",
"%  c #322617",
"&  c #382B1B",
"*  c #3F311F",
"=  c #242423",
"-  c #292622",
";  c #2C2C2C",
":  c #322C25",
">  c #312E2B",
",  c #3D3523",
"<  c #35342B",
"1  c #3E362C",
"2  c #393D2D",
"3  c #343434",
"4  c #3D3D32",
"5  c #383738",
"6  c #3E3D3E",
"7  c #422F18",
"8  c #4D3920",
"9  c #433A2E",
"0  c #433B33",
"q  c #403D39",
"w  c #394027",
"e  c #3A4229",
"r  c #3E4B2D",
"t  c #3E4432",
"y  c #3F4933",
"u  c #3E413B",
"i  c #5D401F",
"p  c #404D2C",
"a  c #44542D",
"s  c #424636",
"d  c #4C4134",
"f  c #424C33",
"g  c #42453B",
"h  c #464D3B",
"j  c #494D3E",
"k  c #534739",
"l  c #455134",
"z  c #485632",
"x  c #4C5A35",
"c  c #475238",
"v  c #4A543B",
"b  c #4E5B3A",
"n  c #515E39",
"m  c #6C4B23",
"M  c #7A582E",
"N  c #7F5E34",
"B  c #53623B",
"V  c #413E41",
"C  c #3E4641",
"Z  c #444444",
"A  c #474945",
"S  c #4A4D44",
"D  c #484748",
"F  c #454A4B",
"G  c #4C4C4C",
"H  c #4D5344",
"J  c #4F5F43",
"K  c #47554B",
"L  c #4E524B",
"P  c #4A5C4B",
"I  c #505342",
"U  c #5F5346",
"Y  c #535C43",
"T  c #51554B",
"R  c #555B4D",
"E  c #595F4E",
"W  c #4B4F50",
"Q  c #504E50",
"!  c #4C5354",
"~  c #4E5C55",
"^  c #4D5658",
"/  c #4F5A5B",
"(  c #545354",
")  c #5D5652",
"_  c #555A54",
"`  c #5A5C54",
"'  c #545758",
"]  c #585758",
"[  c #545B5C",
"{  c #5A5A5A",
"}  c #605447",
"|  c #65594B",
" . c #4D614A",
".. c #556344",
"X. c #586147",
"o. c #53644D",
"O. c #58634B",
"+. c #54684E",
"@. c #4F6557",
"#. c #4F6459",
"$. c #546355",
"%. c #5D6154",
"&. c #546954",
"*. c #586A53",
"=. c #54635B",
"-. c #5A645D",
";. c #566C5F",
":. c #5A6C5E",
">. c #5C725F",
",. c #606357",
"<. c #62635C",
"1. c #62725A",
"2. c #4F5E61",
"3. c #555E61",
"4. c #5A5F61",
"5. c #605F60",
"6. c #566265",
"7. c #5B6264",
"8. c #5C6C63",
"9. c #566669",
"0. c #5C6669",
"q. c #5C696C",
"w. c #5E6C70",
"e. c #5C7277",
"r. c #636364",
"t. c #626865",
"y. c #636769",
"u. c #686668",
"i. c #626A6C",
"p. c #6C696C",
"a. c #60726E",
"s. c #636D71",
"d. c #6B6E71",
"f. c #637175",
"g. c #697275",
"h. c #647579",
"j. c #6A767A",
"k. c #64797E",
"l. c #68787B",
"z. c gray44",
"x. c #805E34",
"c. c #85653A",
"v. c #937245",
"b. c #647E83",
"n. c #697D83",
"m. c #6C8185",
"M. c #6F8389",
"N. c #768286",
"B. c #71868B",
"V. c #75898E",
"C. c #678990",
"Z. c #6C8D94",
"A. c #7E9197",
"S. c #769399",
"D. c #78959B",
"F. c #77989F",
"G. c #818181",
"H. c #8BB3BB",
"J. c gray69",
/* pixels */
"6 ( r.5.r.u.j.C.p.p.p.p.p.p.p.p.p.p.p.p.H.$.p B b ` %.B Z.j.%.a b B B B b b x a p.5.5.{ ] ] q.C.( L G D ! ( s.F.( ( { r.u.u.r.r.",
"6 ( 5.5.{ { i.n.4.5.r.r.r.r.r.r.5.r.u.p.N.T a z z R ` R h.0.{ O.z n B n B z v _ 5.r.5.{ { ( ] e.D ( ( ( ( 4.0.s.( { { { ( { { { ",
"6 ( { { ] { 7.h.] { 5.{ { 5.5.5.{ { r.u.p.H f a v H ( { 0.7.7.{ a x n x B a v { { u.r.] ] ( ( 6.! ( ( ( ( 7.7.( _ ( ( ( ( ( { ] ",
"6 ( { { { { i.b.] ] ] { ] ] ] ] ] 5.{ 5.p.G g a { j v t.:.8.0.` a x x a b l j { 5.u.r.] ] { { { q.] ( ( L 6.[ ! ( Q T F L _ ] ] ",
"6 G ( Q { 7.b.S.<.{ ] ] ] ] ] ] 5.{ { ] p.G u r ( ( ( ( { i.q.] ( H Y 5.r L ] ] ] r.5.Q T ( i.S.] ] { r.r.q.7.] t.{ { r.r.{ { { ",
"6 G ] ( ( 7.w.n.] ] ] ] 5.{ { ] ] ( ( ( p.G A T ( ( ( ( ] -.-.] ( b Y { S ( T x ] r.u.] ( ( 7.n.-.7.r.r.{ 0.7.] ] ( ] { { { ( ( ",
"6 W ] { [ 4.0.w.( ] ] ] { { ] ( ( G G ( r.G g ] ( T L G R $.&.T ] H I ] ( L v p ( 5.r.{ ' Q [ w.{ { 5.{ ] 7.8.{ ( ( _ ] ] ] ' ( ",
"q G ( { 9.' [ 0.] ] ] ( ( Q ( ( ) Q G Q 5.h s Q { v r r b &.o.a Q ( ( ' ( c a y Q { r.r.( G ^ 0.G Q ( Q ] q.q.' ] ] ] ] ] ] ] { ",
"6 F D F 9.! ! 9.D G D G A A G F A D D F A f h ( ] ( S p r  . .a p S ( ( A f r r ( ( ( ] ` ] -.q.( Q Q T r.i.0.Q r.t.5.] ( ' ( ( ",
"C Z L [ L D W 6.A Z Z Z Z Z A A Z Z A A A A A A G g s e e ;.8.u u Z A D A s e u D D G { ] ] 3.0.Q Q ( ( { j.h.! T ( ( T G ( ( Q ",
"Q Q [ 0.( W ' 0.! G A 6 q G ! Q Q G G ( [ L S S j j j j v e.q.C 6 q Z Q ( S j g j S L ( ] ] [ 0.( ( ] -.{ j.f.[ T ( ( G ( ( ] ( ",
"p.p.d.j.p.p.p.p.j.y.( 6 6 { p.p.p.p.p.p.A.1.B B n <.p.p.p.g.0.6 6 V G p.p.p.<.n B B Y ( ] ] 7.q.{ { { r.r.r.t.q.] 4.5.{ r.r.r.r.",
"] 0.0.5.5.5.{ { s.y.( 6 { { { 5.r.5.5.5.M.*.Y 5.5.5.5.5.{ { u.s.6 Q { ( r.5.5.5.5.b v ] t.r.i.f.r.{ { u.r.r.0.q.] { { ( r.{ ] ( ",
"0.7.4.5.5.r.{ ] 7.i.7.6 ( ] { { r.{ { { V.t.T b 5.{ { 5.( { 7.j.6 Q { _ { { 5.{ { ) R ( ( ] 4.w.{ _ ] { _ ( ] 9.( ( ( { ] ] ( L ",
"i.{ { 5.{ { { ( ] i.7.6 Q ( ( { { { { { V.i.T p { ] ] { ( ( 7.l.6 G ( T { { { { { { { ] ( ] -.7.` ( ( { ( ( [ q.( ( ( { ( ] ( T ",
"5.{ ] ] { ( ( ] { s.0.u D Q ( { { { r.5.B.y.T p { ] ] ( { { 7.j.6 F j a { { { r.7.{ { u.] i.q.{ { ] ] ] ] ] -.f.u.{ ] ] { ' { ] ",
"( ( ( ] ] { ( ( ( 0.4.6 ( ] ' ( ] ] ( { B.7.( ( ] 5.{ ] n n O.s.6 G T a ( ( ] ] ] { ( Q A 3.[ D A ( ] ] Q ( 7.h.r.{ ( ( Q ] ] ] ",
"( Q ( ] ( _ ( ( _ q.3.6 ( Q L G ( ( ( ( B.7.( ] ] ] ] ] E Y +.f.6 G H a v T ( G ( ( ( ! G 6.3.Q ( ( _ ( Q ( { w.{ ] ] ( ( { 7.<.",
"Q ! Q ( Q Q Q Q ( 7.[ 6 Q G A S G G G W M.4.Q ] ] T Q Q T v X.w.6 G T v a S S j Q Q ( ( 4.7.7.] _ ] ' ( ( ( { q.{ ] ( ( ] { 5.5.",
"D G D G G S G D F [ / 6 D G G F D G G S m.[ G ( ( G Q ( r r H q.V Q ( ( a p p p G D ( r.f.u.r.r.] ] { ] { { 4.q.{ ' ( ( T ( ] ] ",
"Z Z Z Z Z Z Z Z u ! ! 6 6 Z Z A Z A Z A Z t 2 2 A Z g 2 w w 2 6 2.F V Z w e 2 w w g G ] q.[ ( { { 5.5.] ] ] ] ] q.[ ] ] { { { ] ",
"( Q T ( ( G G G Z [ 2.! D D G ( ( ] ] ] { S S E ] { { { R ) { 5.y.4.[ ' ` { ` ` ` { ( Z 8.O.Y 4.Y X.,.r.v b Y Y 8.o.Y Y v ` r.{ ",
"( ] ] ( ( ! G ( G [ 7.7.( ( ( ] 5.{ { r.5.G Q r.{ r.r.r.{ { r.r.r.y.y.r.4.r.r.u.t.u.{ C +.B Y -...Y O.r.b x x n *.+.n v b { u.r.",
"( ( ] Q A A G { ] ] 6.e.] ] ( W { ( ( { ] A A ] { ] { _ G G W ] { ' 4.w.S ( ] { ( u.t.=.a a v { ] ( ( { 5.H z n n *.o.r { { { p.",
"' ] ] ] ] ] ] Q T 3.3.D q.{ ( ( A D G ( ] A V D ( G D A Z Z ( z.J.r.F 2.6 Z Z Z { { 7.2.a T T r r...Y ( ' b a b a o. .y { { u.p.",
"( ( ( ( ] ] ] ( 0.y.7.( [ 7.4.( ] { { ( ] D Z Q { G W { { { r.z.G.5.[ q.{ 4.( V G [ -.=.r L T L ' _ ) { { T I b R $.~ S _ { 5.p.",
"( ( ( ( ( { { 5.h.u.{ ] { 7.0.4.{ -.{ { ( A D ( r.G Q 5.<.r.u.p.p.[ 4.w.r.p.{ q L 4.7.K h L ( ] ( ( R ` ] ( T x { -.[ ( T ( { p.",
"' { ( T Q 5.r.5.f.i.{ T ] { [ 0.Q ( ] { Q Z A ] 5.G A D { { { u.p.] ] 0.] r.4.6 ] s.0.u ] L G ] ] Y x a { { I a ( 7.6.( a T { p.",
"r.] G Z L G W Q 0.4.] ] ] ] ] { f.{ ] r.] A A ] 5.G D ( ] ( | v.m q F 9.( 5.] V ( s.7.3 ] { L r a a a a a L ( ( { ( [ @.p G ] 5.",
"{ ] ( ( ( ( Q Q 9.6.-.r.( { 5.5.u.i.0.{ ( A A ( u.Q D G ( Q } c.8 1 6 W 4.4.( V ( 0.-.t ( ( T L p a a a a l S ( ( ( P @.r H ( ] ",
"] ] ] ] ' Q Q Q [ 8.8.{ T ] { { { 7.7.[ T Z Z W p.( A G Q Q } N & > 3 V 3.7.{ 6 ! 7.=.t G W G S r p p p f y h D G G K $.t A G Q ",
"] ] ` { ( Q Q Q { i.0.Q ! G Q T D F ! 0.Q Z Z D p.G Z Q Z G } x.O - > 5 W i.7.6 w.r.] Z A A g w w , 7 w 6 6 6 6 Z A A ~ 6 Z Z Z ",
"( ( { ] { ] { ] r.s.i.r.r.5.{ r.{ 5.r.r.s.W D Q p.G Z F q V k M & + ; 5 ( 0.2.V 9.7.` B B n E p.p.p.u.5.V V D 5.p.p.d.n.b n B n ",
"( ] { 5.4.<.{ { { i.s.t.r.{ { { ( 5.5.{ h.W D ( p.G 6 D V q 0 m % : > 3 W 4.3.^ 6.t.,.n %.%.<.r.r.5.5.5.{ D D { 5.5.u.f.` ` R z ",
"( ] ' { 5.5.{ ] { 0.i.{ { ] ( ' { { ] ( w.W Z Q u.G V Z 5 5 9 i O > 5 3 Q 4.y.9.7.u.r.I R { r.{ 5.{ ] { p.G D { ] 5.y.f.-.7._ b ",
"L ( T Q { ] ] ( { 7.3.D A G T Q { ( ( ] 9.F A Q 5.D V V 3 > > 7 X : 5 5 Q 5.s.e.] u.r.Q a R { ( 5.] ] ] p.G A { ] { 5.f.{ { 7.>.",
"r.{ { u.r.{ { ] ] 0.0.] ] <.4.{ ] _ { ] w.F D ' r.G A Z ; ; , m . = 3 3 D 4.d.e.] r.u.5.a T ] ] Q ( ] ( p.Q V D { { 7.s.5.r.5.] ",
"( ( ( ( ( ( ( _ q.[ ' T ] r.5.] ( ( ( ( s.W F ( 8.G V Z ; = - 8 . o = ; 5 ( 3.0.{ r.r.] H ( { 3.( R Y I 5.H j Q v T 4.w.{ { { ] ",
"' ( G ( W ( _ [ 0.( Q Q ] { { _ T ( ( ( f.^ F Q -.( D D ; ; ; 7 . + ; 5 V ( 9.w.{ r.4.( ( _ { 3.] E n n 5.H j Q l L 3.4.( ( ] ( ",
"r.r.{ L ( ( 4.0.( Q Q ( { { ' L W ( { r.f.6.[ ( { 5.{ ( V V q , . > V V Q 4.s.n.4.7.[ ( { { ] Q ( ( E B 0.F Z W a $.7.( D T ( ( ",
"{ r.y.f.h.s.7.{ ] ] ] ] ] ] ] ] ] ( [ 9.] [ ^ F G G D V 3 > ; ; ; ; ; 3 6 Q 7.k.( { ] F ( Q W G ( v f 6 6 6 D ] a P P r S D G G ",
"( 0.y.[ 7.[ { 4.-.{ ] ( ( _ ] ] { ( [ 0.] [ ^ Z Z V 5 5 > ; = = = = = - 3 V ! 6.[ ! S s V A S c 9 4 2 9 f g V D g ! K w t t g A ",
"( -.*.H { ` %.%.u._ T I I R ` E R _ 7.i.{ ^ ! ! F D Z q 5 3 ; = ; > > > 5 D ' 9.6.L A g Z A H v 9 q q 9 v A D D F / ~ h h h S G ",
"@...B b 5.O.B B p.Y z n B B B B n o.-.p.5.F L f.5.{ { 5.Q Q V 5 V V D Q D 4.d.j.w.! G ] { ] { { Q ( Q G ] ] ] Q ] 0.i.r.r.r.r.t.",
"p a a a ] ] ] ] ] ] T a B n n B =.4.{ ] p.G W s.5.{ { { D V V 3 V V V V 6 W 4.w.w.^ G ( Q ( Q D ] ] _ ( ] ] ] ] q.[ ( { Q ] ] ] ",
"u f z T h _ ` Y ] { T a n x z b @.{ { 5.p.W F w.{ Q Q ] G D D Q ( Q Q T Z D ! 9.[ 0.7.' ] ] ( ( ] ( Q T ( W T ( q.] G L T ] ] ] ",
"6 f v ( h T ` Y { { T v n b J J $.] ] 5.p.G F 7.4.G D Q G G Q ] 4.{ ] ] Z W [ 7.( 0.i.( ( ] ] ] ] ] ] ' ( T W ( q.[ ( ( ( _ ] ] ",
"6 t j Q ( ( ( ] 5.{ ( { x ` -.#.] ( ( Q p.W Z ] q.W D D V Q ] ] { ] ] ] q 7.s.5.A [ 3.( Q Q ( ] ] 5.r.r.] { ] _ f.7.{ r.] ] ] ] ",
"6 T ( G G ! T b x z v ] a ;.9.] ( v c ( p.G Z G ( 4.3.D ( ] ( Q { Q G D 5.q.7.( ] s.i.{ ] ( ( u.r.r.t.<.` ( ( { 0.[ ( { ] ' ] ( ",
"5 D ( Q c c c z z a v ( $.[ [ ] v f h ( ] A V Q Z W ^ 3.( ( Q Q W G G Q ] 0.7.Q ( 4.i.q.( W L ( ( ( ( ] ] ] _ ] q.[ _ ( { ] ] ( ",
"4 G ( ( v y r a a a x ' 6.( ( ( a r h Q ( Z V G 6 Z W w.Q Q G G D G G Q ] 3.[ Q Q ] 7.s.( ( ( ( G Q ( Q { ] ( ( q.7.{ ( ] ] ( _ ",
"a T ] ] ( c a a a a x #.G ( ( G r y f D Q D V A Z D ' q.G Q Q G D D G W 0.W G F G Q ] q.{ ( ( { G W Q T r.( ( ( f.y.{ { { ( Q ( ",
"a g V V 5 3 < w @./ ! 6 u Z Z Z 7 q V Z Z A Z Z Z Z W 3.D V V V g 6 Z Z 7.W Z q A Z W s.{ { ( ( Q ( { ] ] ( ( G D =.[ A G T Q Q ",
"x b v v { [ 7.7.t.7.! V ^ [ 5.{ ) I v n b { { 5.5.4.4.s.V W ] ( f f j F w.! F 4.{ 5.7.q._ { { ( ] ] { 4.r.{ { ] ( 0.7.( { { 5.4.",
"B ..O.Y d.i.d.s.u.t.] 6 3.r.u.r.p.` Y Y x ,.u.u.u.u.y.i.F ( _ { f f H ' y.' ] r.u.y.r.7.7.{ { [ { { { <.r.<.5.{ { q.0.] r.r.5.5.",
"x %.r.5.f.u.{ { ] r.{ q ' ' { ] r.5.5.5.a E { ( 5.5.{ Q 9.v c Q 6 Z [ s.] { 5.] 5.{ { ' f.u.u.u.u.{ ] ] t.r.r.r.{ 0.7.] r.{ ] ] ",
"Q v J r.0.t.{ ( ( r.{ V ( ( ( ] r.{ { { 5.{ ( A V ^ 4.5.5.3.3.] 6 6 F 2.D Q { ] 5.4.3.Q Q 7.7.{ ] ( ( ] ( G F Z ( 7.7.] ] [ ( S ",
"4.v b { q.[ ] ( ( r.{ 6 G H H { { { { 5.{ { ( ( V ( 4.4.5.y.q.5.V 6 F 6.V W { ] { { 4.{ ' 0.q.5.] ] ( { ( ( ( { 0.4.{ ] ] ] _ ( ",
"{ I I 4.0.{ _ R T -.{ 6 G v z T ] { 5.[ ] ] ] ( V ] ] ] 4.5.i.d.V D W 9.G ( ( { { ] { { ( 4.0.0.] [ { ( ( ] { y.0.{ ( ( ( ( ( { ",
"Q Q [ s.y.{ E B n ) ] q ( v a a ( ( ] ] ] ( ( ( V ] ] 4.] ] y.n.V ] y.e.p.( W ] ] { ] Q Q ( ' q.] ] ( Q T ( [ q.{ ( ( ! ( ( ( { ",
"Q 4.3.{ ( G ( ] B ` ( 6 Q v a a ( G G S ( Q W 6 V ^ 3.Q 4.( ( ] 2.] 4.0.{ ( G ( G Q ] r.t.{ ] q.` { ( ( W 7.7.] { ( ( _ ( -.r.r.",
"4.3.] ] D ( L v a A D 6 Z G v a h c j G G G D V V Q Q ( Q Q V V 2.2.3.3.( G W Q A G ( r.r.{ 7.q.{ _ ] ' 7.4.4.' _ { ( ] ( { { { ",
"6.! D W A A j p t u 6 V q S h p e r f g D F Z V V D D Q D V V V W 2.3.Q Q G G Q Z A T 5.{ 5.4.7.[ 7.7.r.7.{ ] ( ] { ] ` ( ] { { ",
"&.C 5 D Z 4 2 3 3 6 6 6 q f p w 3 2 2 2 D V Z Z D D V V V V V V 5 q.0.V V V D V V f v { { ( ( { q.w.f.s.' ( T ( ] ' ] ] ] ] ] ] "
};
