/* XPM */
static char *minecraft_d5[] = {
/* columns rows colors chars-per-pixel */
"48 48 125 2 ",
"   c #160F07",
".  c #1A120A",
"X  c #1D150C",
"o  c gray10",
"O  c gray11",
"+  c #1D1D1D",
"@  c gray12",
"#  c #2A2013",
"$  c #322617",
"%  c #3F311F",
"&  c gray13",
"*  c gray14",
"=  c #252625",
"-  c gray16",
";  c #2C2C2C",
":  c #2E2D2E",
">  c #2F302F",
",  c gray19",
"<  c #323332",
"1  c #333233",
"2  c #343434",
"3  c #353535",
"4  c #363536",
"5  c #373537",
"6  c #373737",
"7  c #393939",
"8  c #3A383A",
"9  c #3B3A3B",
"0  c #3E3C3E",
"q  c #3E3D3E",
"w  c #3E3E3E",
"e  c #3F3F3F",
"r  c #422F18",
"t  c #394027",
"y  c #394028",
"u  c #3E4B2C",
"i  c #3E4B2D",
"p  c #3E403E",
"a  c #44542C",
"s  c #44542D",
"d  c #4F5C38",
"f  c #4F5C39",
"g  c #6A4922",
"h  c #7A582E",
"j  c #7E5E34",
"k  c #54633A",
"l  c #54633B",
"z  c #413E41",
"x  c #414041",
"c  c #434043",
"v  c gray26",
"b  c #434543",
"n  c #464346",
"m  c #444444",
"M  c #454445",
"N  c #474647",
"B  c gray28",
"V  c #484848",
"C  c #494B49",
"Z  c #4C494C",
"A  c #4D4B4D",
"S  c #4C4C4C",
"D  c #4E4D4E",
"F  c #504D50",
"G  c #504E50",
"H  c #4D5F54",
"J  c #4D5B5E",
"K  c #505050",
"L  c #535153",
"P  c gray32",
"I  c #535154",
"U  c #545154",
"Y  c #545354",
"T  c #585858",
"R  c #595859",
"E  c gray36",
"W  c #5F5C5F",
"Q  c #4F6557",
"!  c #4F6558",
"~  c #536A57",
"^  c #536A58",
"/  c #596F5E",
"(  c #5C725F",
")  c #4F5E61",
"_  c #605F60",
"`  c #605F61",
"'  c #615F61",
"]  c #536265",
"[  c #556266",
"{  c #556367",
"}  c #566567",
"|  c #586569",
" . c #5A686B",
".. c #5B696D",
"X. c #5E6C70",
"o. c #5A7075",
"O. c #5C7277",
"+. c gray39",
"@. c #656265",
"#. c DimGray",
"$. c #6C696C",
"%. c #627074",
"&. c #637074",
"*. c #647276",
"=. c #60777B",
"-. c #69777B",
";. c #6A777B",
":. c #62797D",
">. c #647B7F",
",. c gray44",
"<. c #805E34",
"1. c #937245",
"2. c #697E84",
"3. c #6C8B8A",
"4. c #72878C",
"5. c #678990",
"6. c #6C8D94",
"7. c #778B90",
"8. c #739096",
"9. c #7E9197",
"0. c #769399",
"q. c #78959B",
"w. c #77989F",
"e. c #8BB3BB",
"r. c gray69",
/* pixels */
"w _ _ _ $.5.$.$.$.$.$.$.$.$.$.e.y l f _ l 6.$.s f l l f f s $._ T T T 5.K K B K T w.K T +.+.+.+.",
"w _ _ T T :.T _ _ _ _ _ T _ $.$.i s s T T ..T _ s l f l i _ T $.T T K } B T T T X.T T T T K T T ",
"w T T T _ >.T T T T T T T _ _ $.w s T i +./ ..T s f s f i T _ $.T T T T  .P K K } K K K C K T T ",
"w L L T ..q._ T T T T T _ T T $.w i L T L T *.T L f _ i T T T $.K K T 0.T T +.+.X.T +.T +.+.T T ",
"w T T L X.X.L T T _ _ L L C L $.w T L T L T ~ T T a T L L a L $.T T K *.+.+.+.T  .T K K T T T K ",
"w L T } L ..T T L L L L T C L _ t L T i i f / s L L T L s i L _ +.K S  .S K K T X.T T T T T T T ",
"w C C } C } C C C C C C C C C C i L T L i i ^ s i L L C i i L L T T T  .K K K +.*.K +.+.T P T K ",
"m m ] m m ] m w w w m m w w m m m m m t t y 3.w w w m m t w m m T T T  .K K T T 8.K S K B C L K ",
"$.$.-.$.$.$.-._ w w $.$.$.$.$.$.l l f $.$.$.-.w w w $.$.$.d l l K T T ..T T +.+.+...T +.T +.+.+.",
"T X._ _ _ T &._ w T T _ _ _ _ L f _ _ _ _ T _ &.w T T _ _ _ _ a T +.+.*.+.T +.+.+...T T T +.T L ",
"X.T _ _ _ L T -.w L T T _ T T _ T s _ L _ L T -.w T T T _ T T _ K K P ..T L T K S } K K T L T C ",
"_ T T T L T T -.w C L T T _ _ T T u T T L T T -.w C a T T _ _ T +.T *.T T T T T T *.+.T T T T T ",
"L L T T T L L &.w L T L T T T T L L T _ T l f &.w L s L T T T T K B  .B B T T K T *.+.T K K T T ",
"L L T L L L T &.w L C C L C L L L T T L L T l &.w L s s L C L L K L  .L T T K L K ..T Y T T +.+.",
"C C C C C C C } w C C C C C C C C L L C U i i ..w T U s i i C C +.*.+.+.T T T T T X.T T G L T T ",
"m m m m m m w ) w w m m m m m m t t m m y y y w ) w m y y y t m T  .K T T +.T T I T ..T T T T T ",
"T T T T K L C  .T K K T +.+.+.+.C $._ $.$.+.#.$.$.&._ $.$.$.$.$.y / f +.l l $.a d k ( d d s $._ ",
"K T K C B T Y T O.T T K T K T T w T T T T C C T T T X.C T T T $.! a a T T Y R [ s f d ( i T T $.",
"T T T T T G L  .S  .K K B S K T w C L C m m m ,.r.w ) w m m T _ ) a T i +.f Y T s d s / i T _ $.",
"K K L T T T *.+.T T &.T +.+.T T w L _ m #.+.$.,.#.T &.$.$.w C _ ) i I T I T +.T U d _ Q U T T $.",
"T T K K +.+.*.+.K T T  .D T T K w T _ m C T T #.#.I | T $.w T -.p T C T T f a T T s I ..I a L #.",
"+.K B K C L | T T T T T &.Y +.T w T _ m L T D 1.g w [ U @.w T -.y T T i a a a a G P T T ! i L ` ",
"T T T T G G [ / +.K +.+.+.&.T K w L $.m C U D j % , m | _ w C &.i I I Y u s a a a G U Z ! i L L ",
"T T T K G F R %.K K C K m C  .L w C $.w L m G <.# - 9 A -.w X._ b M M y y % t q 0 0 m m H w M b ",
"K T T T T T +.*.+.+.T +.T +.+.*.w L $.w C 9 e h $ & 9 I O.w } _ k k d $.$.$._ q 0 _ $.$.;.f l f ",
"T T +.+.+.T T *.+.+.T T T +.Y &.w L $.w m e 5 g # 9 , S _ ] } $.d W _ _ W R _ $.w R R _ *._ _ a ",
"K K K T T Y T  .B C K K T K T [ w L W w m , , r X 4 6 D $.O.T $.R a _ U _ P R $.q T R W &.T _ / ",
"+.T +.+.T T T ..T T +.T T T T ..w T +.m m , = g . : < B $.O.T $.W a R R P R K $.q C R R &.' +.T ",
"K B K K S T %.K K T +.T K K K *.w L / z x * @ %   o : 4 J } T $.I I T [ Y k d _ q P s P ..T T T ",
"+.+.K K T ..K K K T T K K T +.q.J L R ' Y x x %   z m F @.2._ [ I T T I U R l [ q G s ..L C Y P ",
"E +.*.*...T T T T T T T T K | 4.J C Z A e 4 : : : : , w T :.U _ S H G S U s p w s R s ~ u C C C ",
"K %.K T T +.+.T K K T T T T ..4.[ q q 8 , : O O O @ # , e J ) C % 6 m s t 4 % z z q m H t t t m ",
"Q k d W l l $.s f l l l d ^ $.7.w &.` T W I F 2 M m D N $.-.X.M T T T T K K S T T L T ..+.+.+.+.",
"u a s Y T T T T s l d l Q _ T 9.w X.` T T x M 5 e x m 9 T X.X.C L L L S T T P T T T ..K R P T T ",
"w s T s _ f T T a f a f ! T _ $.w X.T m T S C T ` T T N x } T -.T T T T T K K K S K  .K S K T T ",
"w i I G U T _ Y T f _ Q T U U $.w I ..m M M T T T T T 0 -.` m ..K K K T T +.+.T T T %.T +.T T T ",
"w T C F I f d a T a o.T I s L $.e C I X.n U T F T F m +.X.G T -.T T D +.+.+.+.T P T  .K T T T P ",
"4 I F a i s a a L ..L T s i L L z G e m X.G F Z C C I U ..I L ` %.K C K C K K T T T ..T P T T T ",
"a T T L i s a a Q S Y S i i C L e m m C X.C U A C C G } C C C I ..T T T D K K +.K K %.+.T T K K ",
"a z z 8 < t Q J w p m m % w m m m m m m [ z z z w w m [ m e m m X.T T L K T T T K K C  .B S K K ",
"l l d $.;.;.$._ w ] $.$.$.d k k $.$.$.$.&.e _ _ a c Y ..c $.$.$...T T T T T +.+.+.T R *.T +.+.+.",
"d +._ &._ T T $.w T T T +.W _ a _ T _ _ L [ a L w C %.T _ R W R T *.+.+.+.T T +.+.+.R ..T +.T T ",
"P a +..._ P P $.w L Y T _ T T _ T m m [ _ ` ] L w 0 ] c R R / W P K | T T K T K C m P ..T T T S ",
"' a R ..P T P $.w C s T T _ _ T T T m T T ` %.#.q 0 ] 0 R R T T +.T =.+.T T T T T +.&.T T T T T ",
"G G X.@.T k d _ e I a a L T T T I I m W T T T -.c _ O.$.C T T T K K K  .T T P K P ..T K K K K T ",
"U ..T P K T k _ 0 I a a L S C L U w w _ L T U U ) R ..R C L C L +.+.K  .T T K K ..T T K T T +.+.",
"} U G S P a i w 0 0 L a u a C C C w w C U C B q ) ) U U S L S S +.+.+...T T R ..T T T T T K T T ",
"Q y c m t 3 5 w e 0 a t 4 t t b m m m m m m w w 0 O.n n m x b x T T Y T ..*.*.T K P T T T T T T "
};
