/* XPM */
static char *minecraft_u2[] = {
/* columns rows colors chars-per-pixel */
"48 48 119 2 ",
"   c #19696B",
".  c #1A6B6D",
"X  c #1A6D70",
"o  c #1B6F71",
"O  c #1B7173",
"+  c #1C7476",
"@  c #1D777A",
"#  c #1D787B",
"$  c #1E7B7E",
"%  c #1E7C7F",
"&  c gray28",
"*  c #484848",
"=  c #494949",
"-  c #494A4B",
";  c gray29",
":  c #4B4C4C",
">  c #4D4F4F",
",  c gray31",
"<  c #4E5051",
"1  c #4F5353",
"2  c #505050",
"3  c #515151",
"4  c #515252",
"5  c #505454",
"6  c #535454",
"7  c #515556",
"8  c #545556",
"9  c #565656",
"0  c gray34",
"q  c #535758",
"w  c #545959",
"e  c #565859",
"r  c #54595A",
"t  c #545A5A",
"y  c #565C5D",
"u  c #585858",
"i  c #585B5C",
"p  c #595C5D",
"a  c #5B5C5C",
"s  c #5C5E5E",
"d  c #5B5F60",
"f  c #5D5F60",
"g  c #5C6061",
"h  c #5D6162",
"j  c #5E6364",
"k  c gray38",
"l  c #606363",
"z  c gray39",
"x  c #606567",
"c  c #646565",
"v  c #666767",
"b  c #636768",
"n  c #676969",
"m  c #656A6C",
"M  c #666B6C",
"N  c #666C6D",
"B  c #676C6E",
"V  c #696B6B",
"C  c #6A6D6D",
"Z  c #6D7172",
"A  c #6F7374",
"S  c #6F7475",
"D  c #61777A",
"F  c #647B7F",
"G  c gray44",
"H  c #717272",
"J  c #737474",
"K  c #717677",
"L  c #757677",
"P  c #717778",
"I  c #73797A",
"U  c #747A7B",
"Y  c #7A7E7F",
"T  c #1F7D80",
"R  c #1F7E81",
"E  c #657D81",
"W  c #677F83",
"Q  c #169397",
"!  c #17979B",
"~  c #17999D",
"^  c #179B9F",
"/  c #19A0A4",
"(  c #19A2A6",
")  c #19A3A7",
"_  c #19A3A8",
"`  c #19A4A9",
"'  c #1AA5AA",
"]  c #1AA7AB",
"[  c #1AA7AC",
"{  c #1AA8AD",
"}  c #688185",
"|  c #698286",
" . c #6A8488",
".. c #6C878B",
"X. c #6D888C",
"o. c #6D898D",
"O. c #6E8A8E",
"+. c #7B8080",
"@. c #6F8C90",
"#. c #718E92",
"$. c #728F94",
"%. c #55A394",
"&. c #57A799",
"*. c #58A89A",
"=. c #5BAD9F",
"-. c #5DAFA2",
";. c #5FB3A6",
":. c #60B4A7",
">. c #61B5A9",
",. c #62B7AB",
"<. c #808687",
"1. c #9AB7B2",
"2. c #9DBBB7",
"3. c #A1C0BC",
"4. c #A2C0BC",
"5. c #A3C2BE",
"6. c #A4C3BF",
"7. c #A5C4C0",
"8. c #A6C5C2",
/* pixels */
"z u u z u 4 , u 4 & 4 4 u C C c z c z z 0 3 , u 3 * 3 , u u u u k z z z u 3 3 0 3 * , 3 u u u 0 ",
"u u 4 s - z z z c p p 6 1 4 r z 0 u 4 u 3 0 u u u 0 u * * u 0 3 u u 3 0 3 u u u 0 0 0 * * 0 u 3 ",
"u 4 : : ! c u , : 7 q : =.+ z h 0 0 - * , 3 3 * 3 , 3 u u 0 u u u u = * , 3 3 = , 3 , u u u u 0 ",
"z c n f | Z 1 &.O  .S b | C y 7 u 8 z z 0 z 0 8 k z 0 u u 3 , 3 u u k k u k u u z k u u u , 3 3 ",
"4 u x B x r 7 K X.n h n K 8 u u 4 u u 3 4 3 u 3 0 z z z z 3 0 u , u u 3 , 3 0 3 u z z k z 3 0 u ",
"u Z m j y 7.>.q j d 4.;.u , 4 z u z 0 0 0 0 u u u 3 , ; , * , z 0 k u u u u u 0 0 3 3 * 3 * 3 z ",
"8 p P 7.>.{ ] @ X.n / $ b u 0 u 3 8 0 z z z , z z 3 , 3 u u 0 u 3 0 u k z z 3 z z 3 , 3 u u u u ",
"n , 7 I #.<.....r 7 Z  .u z G G , 3 * * 3 * 3 , u 0 3 , 3 u u u , 3 = * , = , 3 u u 3 , 3 0 u u ",
", &.~  .C p p 8 4.;.s p u u z 3 z z k u z u u z z z u u u u u 3 z z z u k u u z z z u u u u 0 3 ",
"p | F p - a p :.] $ # E c C G u u u k u u u z z z u u z z z z 0 u 0 k u u u z z k u u z z z k 0 ",
"- h 8 h ! w , C O.#.K 7 , 4 3 4 = u 3 0 3 , - * 3 u 3 u 0 , , , = 0 3 u 3 3 * = 3 0 3 0 u 3 3 3 ",
"s s p h z V V V P f r :.+ V z 8 u u u u u z z u 0 u 0 u z z u z u u 0 0 u z z u u u u u k z 0 z ",
"s 8 C 3 1 z V 8 =.4.;.) ^ O z 3 u 3 , 3 0 z 0 , 3 0 u * * , 3 3 u 3 3 3 u k u , 3 u u = * 3 , 3 ",
"z V | *.O , 8 s H + /  .} z u u k z 0 3 3 u 0 3 , 3 u u 3 3 z z z k 0 3 3 u u 3 , 3 u u 3 3 z z ",
"8 3 4 F v V c 0 u z D u , 3 , u u u 3 u u u u 0 u u 0 0 z z z k u u 3 u 0 u u u u u u u k z k k ",
"u u u u r 8 3 z u u u u u u z z u u u u u 0 3 3 u z z u 0 3 u 0 u u 0 u u u , 3 u z k u u 3 u u ",
"z z z z u , 3 u 3 * , 3 u u u 0 z u u z u 4 4 u 4 * 4 3 u c z z k z z z u 3 3 0 3 * , 3 u u u 0 ",
"u 0 3 u 3 0 0 u 0 u u = = u u 3 u u 3 u - c c c c u u 8 - - 3 0 u u 3 0 3 u u u 0 0 0 * * 0 u 3 ",
"u u = = , 3 3 * 3 , 3 0 u u u u u , * * Q x a - - 8 6 - %.  0 u u u = * , 3 3 = , 3 , u u u u 0 ",
"u u k k 0 z u 0 z k 6 u 0 3 , 3 z z z a E Z 1 &.. E C s E c 4 3 u u k k u k u u z k u u u , 3 3 ",
"3 u u 3 , 3 0 3 u z z k z , u 0 3 0 s z j r q A | h u s V 8 u u , u u 3 , 3 0 3 u z z k z 3 0 u ",
"0 k u 0 0 0 u u u 3 , ; 3 = 3 z u C x h y 6.;.r c u 1.&.8 - 4 c 0 k u u u u u 0 0 3 3 * 3 * 3 z ",
"3 0 u k z z , z z 3 3 , 0 u u u 3 0 H 5.;.] ] + ..M ~ O a u 0 u 3 0 u k z z 3 z z 3 , 3 u u u u ",
", 3 * = 3 * 3 3 0 u , 3 3 u u 0 v 3 5 Z X.+. .#.r r K F u z G G , 3 = * , = , 3 u u 3 , 3 0 u u ",
"z z z 0 k u u z z z u u u u 0 3 - *.! } V s r r 6.:.g w r u c 3 z z z u k u 0 z z z u u u u 0 3 ",
"u u k 0 u u z z z u u z z z c u u F F s - a r *.] % . E V G G 0 u u k u u u z c k u u z z z k 0 ",
"= u 3 0 3 3 = = 3 0 3 u u 3 , 3 - s 7 a Q 4 , V }  .S 1 : 4 3 , * 0 3 u 3 3 * * 3 0 3 0 u 3 3 3 ",
"u u 0 0 0 k z u u u 0 0 k k u c a a h z s V V Z H j r ;.@ c z u u u 0 0 u z z u u u u u k z 0 z ",
"0 3 3 , u z u 3 3 0 u - - , 4 7 s p Z 7 4 s V 0 -.5.:.] /   c 3 u 3 3 3 u k u , 3 u u * * 3 , 3 ",
"z z 0 3 3 0 u , , 3 u u , , z V V V X.=.@ , 8 x Y @ ] X.F c u 0 z k 0 3 3 u u 3 , 3 u u 3 3 z z ",
"u u 3 0 u u u u u u u u z z z c s 7 u  .C C V s z C F s 4 3 3 0 u u 3 u 0 u u u u 0 u u k z k k ",
"u u u u u u , 3 u z z 0 8 3 u u u a u a u 0 , c u 0 u u 0 u z z u u 0 u u u , 3 u z z u u 3 u u ",
"z z z z 0 3 , u 3 * , 3 0 u u u z u u z 0 4 4 u 8 - 4 4 u c c z z z z z 0 3 , u 3 * 3 , u u u u ",
"u u 3 u 3 u u u u 0 0 = = u 0 3 0 0 4 0 - c c c c 0 u 4 - - 8 u u u 3 u 3 u u u u 6 0 * * u u 3 ",
"u u * = 3 , , * 3 , 3 u u 0 u u 0 4 * - Q V s - - 7 8 - %.. a a u 0 - - 3 , , - 3 , 3 u u 0 u u ",
"u u k k u k u 0 k k u u u 3 , 3 z z x z ..V ; %.. E H V F c 6 6 u 0 k k u k u 0 z k u u u 3 , 3 ",
"3 0 u 3 , 3 u 3 0 z z z k 3 0 u 4 0 f x h y 1 c E n h m S 7 a 0 3 0 u 3 , 3 u 3 0 z z z k 3 0 u ",
"u k u u u 0 u u u 3 , ; 3 * 3 k 0 x z j f 7.;., j j 7.;.h - 3 z 0 z 0 0 u 0 u 0 u 3 , ; 3 * 3 k ",
"3 0 u k z z , z z 3 , 3 u u 0 u 1 1 C 7.,.{ [ O  .n { R j p u u , u u z z z , z z 3 , 3 u u 0 u ",
", 3 * * 3 * 3 , u 0 3 , 3 u u u n < , A $.+.| | 7 4 K X.c x G G 3 , * * 3 * , 3 u 0 3 , 3 u u u ",
"z z k u z u u z z z u u u u u 3 > *.~ E C f 7 , 2.=.s x s 0 c 3 z z k u k u u z z z u u u u u 3 ",
"u u k u u u z z z u u z z z z 0 s | | s : f r %.^ + # E V L J u u u k u u u z z z u u z z z k 0 ",
"= u 3 0 3 , = = 3 u 3 u 0 3 3 , > h 8 h ! 7 , C  .#.U 4 , 8 8 3 * u 3 0 3 3 * ; 3 u 3 u 0 3 3 , ",
"u u u u u z z u 0 u 0 u k z u z p g v n z C C C U x r :.O V V a u u u u 0 z z u 0 u 0 u k k u z ",
"u 3 , 3 0 k u , 3 0 u = = , 3 , u d U r r x Z w :.6.,.] ! . V 3 u , 3 , 0 k u , 3 u u * * 3 3 3 ",
"k z u , 3 u u 3 , 3 u u 3 4 z z c K #.:.$ 7 0 c Y % ] | F z u u z z u 4 3 u u 3 , 3 u u 3 3 z z ",
"u u 3 u u u u 0 u u u u k z z z u 4 h X.C C V h s V | u 3 , 3 0 u u 3 u u u u 0 u u u u z z z k ",
"u u u u u 0 3 3 u z k u 0 3 u u u u u u a u 3 c u u u u u 0 z c u u u u u 0 3 3 u z k u 0 3 u 0 "
};
