/* XPM */
static char *minecraft_w2[] = {
/* columns rows colors chars-per-pixel */
"64 64 166 2 ",
"   c #120C0C",
".  c #16110C",
"X  c #1A130D",
"o  c #160E13",
"O  c #171213",
"+  c #1A1414",
"@  c #1C1814",
"#  c #1B151A",
"$  c #1E1A1B",
"%  c #2D1506",
"&  c #22150D",
"*  c #2B160D",
"=  c #24180E",
"-  c #2D1B0D",
";  c #341604",
":  c #381403",
">  c #351905",
",  c #3B1904",
"<  c #301609",
"1  c #331A0B",
"2  c #3A1D0A",
"3  c #221613",
"4  c #2C1710",
"5  c #231B14",
"6  c #291D13",
"7  c #201718",
"8  c #211D1D",
"9  c #2B1E19",
"0  c #321E11",
"q  c #2E200F",
"w  c #32220F",
"e  c #3C220D",
"r  c #262114",
"t  c #2B2314",
"y  c #2E2815",
"u  c #26211C",
"i  c #2B231C",
"p  c #2F291E",
"a  c #332412",
"s  c #3B2314",
"d  c #352814",
"f  c #3E2B14",
"g  c #31251B",
"h  c #382519",
"j  c #332A1D",
"k  c #392C1D",
"l  c #3D321E",
"z  c #1E1A20",
"x  c #221E24",
"c  c #252125",
"v  c #2A2525",
"b  c #2D2926",
"n  c #26232B",
"m  c #29262C",
"M  c #2C292D",
"N  c #312621",
"B  c #332B24",
"V  c #3A2D22",
"C  c #322D2C",
"Z  c #3D3126",
"A  c #35302E",
"S  c #3B322B",
"D  c #292730",
"F  c #2B2932",
"G  c #312E32",
"H  c #333135",
"J  c #3A3634",
"K  c #3F3836",
"L  c #36343A",
"P  c #393639",
"I  c #3D3A3A",
"U  c #431B04",
"Y  c #431D08",
"T  c #432106",
"R  c #4D2406",
"E  c #42240B",
"W  c #4B2709",
"Q  c #442A0F",
"!  c #4A2A0D",
"~  c #542506",
"^  c #532C0C",
"/  c #5E2F08",
"(  c #54330C",
")  c #59330D",
"_  c #5D3C0E",
"`  c #432C11",
"'  c #4C2D12",
"]  c #432D1B",
"[  c #502F14",
"{  c #473413",
"}  c #4C3313",
"|  c #4C341B",
" . c #533411",
".. c #5B3511",
"X. c #543B11",
"o. c #5B3A11",
"O. c #52351A",
"+. c #58381D",
"@. c #602F08",
"#. c #60330A",
"$. c #6A3709",
"%. c #6A390A",
"&. c #733B0A",
"*. c #7C3F0A",
"=. c #6A3B13",
"-. c #613B18",
";. c #453527",
":. c #4C3E24",
">. c #41352C",
",. c #453A2B",
"<. c #493C2D",
"1. c #553E29",
"2. c #413B36",
"3. c #4A3F34",
"4. c #5B4A14",
"5. c #5C411B",
"6. c #6D420D",
"7. c #6F480E",
"8. c #7D430B",
"9. c #774C0F",
"0. c #7A4E0D",
"q. c #7F540E",
"w. c #6B4915",
"e. c #6E4319",
"r. c #664B18",
"t. c #6D4E1F",
"y. c #734610",
"u. c #734D16",
"i. c #744F1A",
"p. c #66531B",
"a. c #685518",
"s. c #6F5D1A",
"d. c #5A4C26",
"f. c #4E4234",
"g. c #614620",
"h. c #745F28",
"j. c #746229",
"k. c #854C0A",
"l. c #83560D",
"z. c #89500B",
"x. c #8B5A0D",
"c. c #955C0A",
"v. c #845912",
"b. c #8F5F12",
"n. c #815519",
"m. c #826A1B",
"M. c #8D6F1F",
"N. c #996514",
"B. c #976816",
"V. c #966C18",
"C. c #93751B",
"Z. c #A4640B",
"A. c #A46C0C",
"S. c #AE700B",
"D. c #B4730A",
"F. c #BF780A",
"G. c #A17017",
"H. c #806D24",
"J. c #B68D1E",
"K. c #9E8726",
"L. c #A08022",
"P. c #A28A28",
"I. c #C08B15",
"U. c #C89E1F",
"Y. c #CDB22A",
"T. c #D1B429",
/* pixels */
"v u 6 r 3 3 3 X v 8 3 X 5 c v F x 0 : ; x x x @ @ o o o   z z o   O z x F n z $ o z D L L F F L L L L D L L L D L L L L F D D x ",
"u i } l.^ 2 4 8 8 5 5 8 i N B H C i 0 ; 7 8 7 x 8 # + x # # o o # z z x D D x z   O x L F D D F F L F n F D n n F D D F n n z O ",
"5 } w.x.( E 0 8 3 3 8 v 5.p.d.S H b 9 < o + @ 8 x @ @ x z # o O x x x n D F n x   o z H D F D D D F F x D x x x F D n D n x z   ",
"X l.l.r 6 5 5 @ # 5 u j D.U.P.;.C i 5 + .     o @ @ @ @ o o # @ x n n D D D n @ O   O D x F L D D n x n x $ $ x F L L D D n z O ",
"&.Q t b v c c 5 + 8 m G ;.=.N.T.w 4 5 t X @ @ @ x x x x # + # x F D F F L c O O @   $ L L n n F D n x n D D n x x D D x D z O O ",
"Q h p v M M M v # # 8 b 2.1.r.p.) a @ 5 < 5 @ x x n n D n $ # # n F H H c @ O O @   $ L L F n n z x x $ n D D x n n x $ n $ $ z ",
"u b b m G G F m @ + # x G >.Z 5 ) 1 3 X , 6 v c n D F H n $ + O z n F H O o o O O   z L F H F n z x x z x x n x F D n z n z z x ",
"F H M G F L G c @ 3 3 o 3 v v 3 , - @ X U k A F D D F L x $ @ @ o o # D O o   @     $ L n F L L F F F F x $ $ x D H H D D n x x ",
"x m G L L m #   5 < ; 5 + @ 3 X ; 9 x 3 t v b M L L F x   O O O @ O O $     O x o O z D D n n D D n x x D F D x x D D x F $ $ x ",
"c v c v 8 # & % ! s 9 x # 5 5 8 V 9 9 5 t c n n c x z O   O $ z z # O @ z z z # o # z F L n n H D D n x z F F D D x x x z $ @ # ",
"x v 8 5 # X & <  .V v x @ f } ] ] g 5 3 r v n c @ O o     @ z n x # O O z x z O o @ x F L F F L D D n x @ D F F n $ $ x @ z $   ",
"x x x @ 3 + @ 5 x C C x + 0.c.$.U w t 5 r u v v @ O o O @ $ n F x @ O   o O O $ O @ c L L F F L x n c @ @ n F D x $ $ x @ x x   ",
"5 5 @ o @ 6 6 5 5 6 5 3 : * 3 3 b x 8 5 U 6 5 @ O O O @ o o O O o o   O $ z x x @ O $ D F n n F x F L D D n $ @ @ x x x x n x O ",
"# @ 5 5 c ' 6.x.* = 8 x g b b b C M N b @.a 5 c x $ $ O   o o O O z x n n n n D z O $ H F F F D D D D x n x @ O c n n $ D D x # ",
"+ 7 8 p b O.9.x.4.a 9 v M G G J G C B g k.` 8 b n n x #       o @ x F F F D D D z O $ L n F H n D n c $ n z @ O D D x @ x n x $ ",
"@ 8 b H H V j w T.4.5 N x G I I G B g r D.o.i b D D D x @ O o   @ z m L L G n x @ @ c L x n n n D n x x D n z @ D n z @ O z z @ ",
"n v M H A H A k F._ - r @ u v c 5 6 E &.6 i v x F F F F x $ O O + o # x c # + o o @ c L D n z n x x n D x n n @ c $ + o n c z o ",
"m M M H K A b = ( ) Q 6 # 7 8 v 5 1 Y ~ v B C M F G G n O O O O @ # o # c # O o o $ n L n n D m $ $ z n n n n z x c z o n n x o ",
"D F H H J b @ X X R W @ + + 3 v 4 1 2 2 v G G F F G D $       O O O O o c + o o O z M H c M D n O $ $ x u c c z z n z # F D x + ",
"D H P I n # @ . . < <   6 @ 3 6 5 3 3 6 G G G L L D $ O       o   O + O + O O o @ n D F n M M c @ $ x @ @ @ @ O o z n c D x x + ",
"5 @ 5 n X .   .   @ @ + . @ r r , - 5 5 m 5 3 @ n # o       O @ O     @ @ @ @ @ @ 8 c c 5 @ 5 @ r r 5 + @ r r r @ @ @ @ 7 # o 5 ",
"u $ @ $ + o     $ # o . X $ c b g 5 @ + x M G M m m n m n x n F M n n M F M m n n c c c r 5 5 6 r @ 5 u @ @ = t i v v v 1 ; * x ",
"x $ # $ O # + O z # O @ $ 8 n F m 8 # o x G H H D F H H L F D F F F D H F H F m M c 8 x t { } E q - 5 i 5 5 u i B A C C 2 2 1 x ",
"@ c c n @ z x x o O # x c c n F D n #   o D H D c D D D L m n D n z n D c n M c n @ X 6 V v.c.%., d p @ 3 v b B k S J J V 2 ; + ",
"    o @ @ @ O O o O $ x x D D F D 8 + o   z n x L G D D n x x n @ z n D L F F G n # X X S.X.t y u 5 3 5 r i 5.F.Y.j.;.,.y 6 * . ",
"  @ + x z z $ @ o z x D n F F H 8 # O +   n G G F D F D x x n n c n x n F D m H u 5 a ^ o.f p i v 5 5 5 p C <.g.N.K.H.k r t r X ",
"+ + 8 x n n c 8 o z x n F G F F O # O @   n L L n D n n x x x D D n x n n n v C 5 5 h ( u i v m m v 8 5 p B S <.e.M.m.} 6 y w - ",
"@ x x n D F D D @ O # x L L F @ o o O @   D L L F x z @ x $ $ x D n n D c @ $ v r c i r b v M F A M v t 3 p Z 3.f.l } 8.6 y e U ",
"D D F F D H F x @ @ O O O x n o   O O     n G x L L H F D D n x @ z n M L F F F n v m C F G G D L M i 5 5 @ 5 r J p w E y t a e ",
"n D F H H F x o @ O # O o $ #     # $ o O n D D D F F D n n n D n x c n F M M F u c v m F G L G M $ @ @ < 5 5 r p t a E B y q w ",
"x n D M D z #   @ # # z O @ O O # $ # o @ n D G x D F F n x x x F D n n n c c n 5 5 x c m M M M $ X - a 1 6 u 5 t t a ` B i r r ",
"x x z @ o o     @ z x x @ @ z x D # o o @ c F L x G H F D n x # L F D D @ z u @ @ + # c n 5 @ o . % W #.b B v 5 y j Z ,.6 t r r ",
"x x z # o o O @ x n n x o   o O o @ O O @ F L L D H F x F $ @ O F D D x @ z z @ F # O x n 7 @ 7 3 5 u b G C p 6 A.k.$.E y r r t ",
"$ $ $ O o O # O # z z # o   O O z z $ O O n F H n F F x H D c n n c $ $ z c c z D # O $ $ @ @ @ 5 6 6 u i 8 9 ;  .} ` k j y r e ",
"O $ # # # # O   o O # O O # z x n n c $ O n F D D D D n H D n D $ $ + z n x x n D z + @ @ @ # 5 Q ( ` 5 5 5 9 s i p B V B p s R ",
"O z x n x O O     o o @ D D D D D D D z   n H D L F F D D 8 $ x @ O $ D F $ 8 D D 8 + o 5 @ 8 v *.Z.l.& 3 x b G H A C H J B ] $.",
"@ z n D F n z @ o o   @ x F L L D n z @ @ M F x D n n D x x n D x $ 8 D x $ O O x 8 # 3 v M G H B d a.T.& r b v I I H J j y o.A.",
"z x n D D D n z O O O @ # x D D z $ # O @ M H D n x n n c n n n D $ $ n $ @ # z x # # 8 v M G G A k w.J.= r u # M M b i 8 ! ( X.",
"n n n D F F c $ O O O @ o z z x # O o o $ F H D n n x z x c n z F x z n z o # n x z # n v G G H M b } x.E a 6 + z c 8 6 * R ' i ",
"D D F D L n $     O O @ o o # x o o o o n G F z D D n O @ 8 n n F n x x D z z D D # x D D G L 2.c + X X *.f @ o o $ x 3 U U e n ",
"D H L L c #       o o   O O O @ o o O @ D D n n D n u @ m 5 @ 5 @ O O O n c n D x # u D P P H x @ . . . > X . O o @ 5 3 3 5 v M ",
"8 x c n @ O       O O o . O @ @ + O @ @ n n c $ c 5 5 @ u # @ @ @ @ + + 5 # $ 8 # + @ x x m x 7 O . . . & . o o + 5 5 < 5 5 u m ",
"x c c n z z $ $ # $ c z O x x u c c 8 8 x x z @ 6 5 5 3 5 @ # @ @ 5 @ u u 7 7 * & 5 u c x x x x 7 8 $ @ c $ $ # n i i s v u u n ",
"L L H D L L L L D H L H D H L L L F D D x x x r 6 5 3 + . $ i 5 X @ $ c H M 9 , : t m L L F H L L L L D L L H D L L P K M M M c ",
"L F n n n F F L x D D n x n n n D n x x . @ u V D.k./ U m 5 5 5 b k B k S C C v U & x 2.D x x F D H F n D n x x D n n D x x $ . ",
"F n n H F D F n x x z z x D F F D D n c O X f v.X.' w - 5 7 5 r j u.N.K.>.S B 8 * X 8 A x G F F D D n x n z $ n D F F D n n z O ",
"L F F F D F n n x n x x x D D H m D m 8 @ - ( q.i t u 8 5 7 5 i V i.G.J.h.:.g 3 # X 5 G F F G F D n x n n x x z D F F D D c # o ",
"L L F x F F n x x D F D x x n F x M v 5 + ( ( r g b v v r 8 5 n H Z +.k.T.a.6 # 5 X 8 2.I m x F D n x x F D n c n D n n F z O o ",
"L L L D n z $ x # z n D c n n x @ 8 u 5 v r t b n b G H H i 5 @ v J 2.f.w )  .# 5 1 2 2.L G D x + $ z @ x D n x D n x @ x $ $ x ",
"L F F F F D n n n x x $ x D F H c n n c n M b M m M H H m u r 5 7 i B K r E e 5 5 1 ] I D F H F n n n n c z x x F F D n n x x x ",
"H D D F H F D D D n x x x n F L D D n v v M b G H H H G 8 5 6 q 5 6 u B 5 > 1 y 3 4 h P x G G H D D D n n x z x D F H D F c x x ",
"F F n n D F n x x n D D x x n D c D v @ v c M G K L A n . 5 - , r 6 6 t = > e V 5 r v G F x m D D n x c F F n x x n n x D x $ x ",
"D L H n L F F F c $ x L D D n O x $ @ @ + $ v n @ 5 @ X U / ..b b i r r V >.V @ @ @ c D P n n L D D D x @ M H F F z $ x @ @ @ O ",
"F L F n L D n F $ @ 8 F D D x @ x $ $ n   $ c c @ @ + + 1 s V C v u ` l.o.' s 6 3 5 i J I G G L n D n $ @ n F F n $ $ x @ z z   ",
"L H F D L n n F 8 8 x n n x z $ x z x F   $ z x @ @ @ 5 t i B B u 6 ! l.( ! s i 5 4 g J P F D H x F D x $ c n c z $ z x $ n x   ",
"D D D x D n n L D F D x @ @ $ x n z n D o + @ @ @ @ 5 r 4 5 6 r 5 1 < 6 q g b m r 2 E H C m n D x F H D F n x @ @ z n x x n x o ",
"L F F L D D D D @ x $ @ O x D D @ c D D @ O O O r u ] 8.D.( & 5 b C A S H H A A B ) -.f.C L J G D D x @ x $ O O F F n @ D D n @ ",
"L F D F n D n n $ n n $ @ n D n $ # z n $ O $ z b C B | 4.m.s.= B C A J K H C M a 9.n.f.m F D b D D x z D x $ @ D n x @ $ x z @ ",
"L F n n x n n n n n n n @ x n z O # # n O $ $ n F H A A w C.C.= p b b J H M b i Q 7.a.f.v m m x D n n n n n z @ D x $ O # z z @ ",
"L F n x n x x x D n n D @ x z @ # z z z O z x x M H A J ] b.x.r t 6 9 b n 5 6 5 &.Q B K F m x x x x n F x n n $ x $ @ O x x z o ",
"L D n D D $ O @ x x n D x x n D o n D D o n D F D H K b   & e $.r 3 3 5 b 8 < Y e s B L x n F D o O $ x x D n x x D x O D F n o ",
"F D n F n $ # z $ $ $ z # # z n z n D n O n F H H F m 5 X X % R @ @ 5 @ r 5 3 * q p M F c D D n O z z $ $ $ z O # x x z D n z O ",
"n x x n z $ $ z O @ @ @ O O O z z c x $ @ x m b F c $ @ X . & ; X @ @ 5 @ * 3 3 @ c D D $ c c z @ $ $ @ @ @ O O O $ z z n z z # ",
"x $ @ @ O @ @ @ O @ @ @ @ @ @ @ @ @ + o @ @ @ @ n + o . . . X 5 + . X @ @ < < r @ z x c @ @ @ # @ @ O O @ @ @ # @ @ @ @ @ O O @ "
};
