/* XPM */
static char *minecraft_e3[] = {
/* columns rows colors chars-per-pixel */
"64 64 221 2 ",
"   c #3E2711",
".  c #303623",
"X  c #343B24",
"o  c #3A3B24",
"O  c #373B2E",
"+  c #3D3C3B",
"@  c #363634",
"#  c #432C13",
"$  c #46331E",
"%  c #563B1D",
"&  c #493723",
"*  c #4A3925",
"=  c #4D3C2A",
"-  c #443C28",
";  c #513E29",
":  c #4B3A34",
">  c #443D3D",
",  c #4B3E3A",
"<  c #423735",
"1  c #503E38",
"2  c #503E34",
"3  c #394227",
"4  c #3B442B",
"5  c #3E4B2B",
"6  c #3A4826",
"7  c #3E403E",
"8  c #3E4533",
"9  c #68451E",
"0  c #424C2C",
"q  c #4C4C2A",
"w  c #494328",
"e  c #54422E",
"r  c #5B462E",
"t  c #534D2A",
"y  c #5D4C2A",
"u  c #594A23",
"i  c #44542C",
"p  c #56542A",
"a  c #5A552D",
"s  c #5C5528",
"d  c #404535",
"f  c #434B35",
"g  c #43453C",
"h  c #4E413C",
"j  c #454B3B",
"k  c #4C4635",
"l  c #554531",
"z  c #5A4633",
"x  c #554C32",
"c  c #5C4934",
"v  c #55443C",
"b  c #5D4B3B",
"n  c #57473B",
"m  c #4B5433",
"M  c #4D5B35",
"N  c #47503A",
"B  c #4A523B",
"V  c #4E5B3A",
"C  c #455033",
"Z  c #5A5332",
"A  c #5C5B33",
"S  c #565738",
"D  c #694B29",
"F  c #61522A",
"G  c #675A2C",
"H  c #614D34",
"J  c #624E3B",
"K  c #645136",
"L  c #625C35",
"P  c #65513B",
"I  c #69553C",
"U  c #645B3B",
"Y  c #6B593D",
"T  c #6B5833",
"R  c #725838",
"E  c #764E22",
"W  c #55623B",
"Q  c #6C652D",
"!  c #6F682F",
"~  c #656136",
"^  c #6E6633",
"/  c #6E633B",
"(  c #71643B",
")  c #736A3C",
"_  c #786C3D",
"`  c #766836",
"'  c #7B733B",
"]  c #766529",
"[  c #444544",
"{  c #4B4443",
"}  c #474845",
"|  c #4D4B45",
" . c #4B4B4B",
".. c #4F4748",
"X. c #554541",
"o. c #544846",
"O. c #5C4B43",
"+. c #534D4C",
"@. c #5B4E4A",
"#. c #544744",
"$. c #4D5344",
"%. c #4F514A",
"&. c #555445",
"*. c #525A42",
"=. c #53554C",
"-. c #5C524C",
";. c #55594D",
":. c #5C5743",
">. c #594F51",
",. c #535353",
"<. c #5B5454",
"1. c #5B5C54",
"2. c #5A5A5A",
"3. c #595856",
"4. c #614E45",
"5. c #655343",
"6. c #6A5644",
"7. c #6D5A44",
"8. c #63524B",
"9. c #6C594B",
"0. c #665846",
"q. c #715E43",
"w. c #705D4C",
"e. c #615553",
"r. c #685750",
"t. c #6C5B54",
"y. c #605758",
"u. c #635B5C",
"i. c #675A56",
"p. c #715D53",
"a. c #725E5A",
"s. c #5E6157",
"d. c #586149",
"f. c #756345",
"g. c #796545",
"h. c #766943",
"j. c #7C6C44",
"k. c #76634A",
"l. c #79654D",
"z. c #7C6A4D",
"x. c #7E7245",
"c. c #7F724A",
"v. c #756252",
"b. c #796654",
"n. c #7D6A53",
"m. c #75635C",
"M. c #7D6A59",
"N. c #78665B",
"B. c #615F60",
"V. c #6A5F62",
"C. c #636263",
"Z. c #686061",
"A. c #6C696C",
"S. c #6A6668",
"D. c #796661",
"F. c #786764",
"G. c #FF0D00",
"H. c #FF1900",
"J. c #FF3000",
"K. c #815626",
"L. c #AC552D",
"P. c #92612B",
"I. c #807739",
"U. c #84783A",
"Y. c #9A7136",
"T. c #8E6C37",
"R. c #AD7929",
"E. c #AB773A",
"W. c #B4792C",
"Q. c #FF5600",
"!. c #D67419",
"~. c #FF7500",
"^. c #C37B30",
"/. c #826E4B",
"(. c #846F42",
"). c #827544",
"_. c #837A44",
"`. c #83744B",
"'. c #8B7849",
"]. c #816E55",
"[. c #826E59",
"{. c #847254",
"}. c #8A7655",
"|. c #8D7A54",
" X c #85735B",
".X c #89765C",
"XX c #8C795C",
"oX c #877953",
"OX c #927F57",
"+X c #967542",
"@X c #A87A44",
"#X c #816E60",
"$X c #8A7760",
"%X c #8D7A62",
"&X c #8B7669",
"*X c #917D65",
"=X c #927E68",
"-X c #A68E1F",
";X c #B69734",
":X c #BBA039",
">X c #DA8E1C",
",X c #FF9600",
"<X c #D7B719",
"1X c #FFAF13",
"2X c #FFB700",
"3X c #D29D28",
"4X c #E89B23",
"5X c #FFD800",
"6X c #FDDC31",
"7X c #FFE13A",
"8X c #8C8042",
"9X c #988356",
"0X c #A08A5F",
"qX c #B78D42",
"wX c #BAA45F",
"eX c #94806B",
"rX c #9E8861",
"tX c #B9A475",
"yX c #FBE571",
"uX c #FFF2AF",
"iX c #F9E4B3",
/* pixels */
"2.2.2.2.2.,.,. . . .,. .[  . . .,.,.,.,. . .3.u.* q t p p p p Z q 0.w.A A 0.:.m S w d u.V.V.V.B.B.C.S.A.A.A.A.A.A.A.C.B.2.2. .@ ",
",.,.,. .,.,. .,.,.,.,. . . . .[ | .. .,.{ <.3.+.n q q a p p p p 5.8.8.:.5.5.:.q 0 w x V.<.<.<.3.2.2.B.C.C.C.C.B.B.B.B.2.,.2. .@ ",
",.,. . . . . .,. . .,.,. .,. .[ X...>.,.+.y.y.@.4.k q a q s a u 9.8.5.5.8.O.n Z q w n Z.>.<.<.<.,.3.2.B.2.2.2.2.2.2.2.2.,.,.[ @ ",
",. . .[ [ }  . . .} [  . . . .,.,.<.3.3.3.t.a.r.8.l t a u s G F 9.7.U G r.x t -.t k #.Z.<.>.<.u.,.3.2.2.2.2.2.2.B.B.2.,.[  .[ @ ",
",.,.,.3.B.3.,.2.,.,.,.2.C.2.2.2.2.<.+.+.8.m.m.r.8.8.0.A b.h.( g.G.L.n.w.7.9.9.6.t k O.D.<.e.>.>.B.B.u.2.>.,.2.C.2.,.,.2. . .[ @ ",
" . .,.,.,.,. .,.,.,.,.2.C.C.u.u.u.3.<.8.r.m.m.r.U 9.v.k.M.j.j.].G.L._ h.v.w.6.J 6.b 5.D.8.+.+.>.<.2.2.u.<.2.,.,.,.,.2.,.[  .[ @ ",
",.,.,.,. . . . .,.,.,.2.2.u.<.<.u.,.<.8.r.D.m.t.^ f.n.M.M.c.'.E.J.L.' ' l.k.w.6.9.H 5.N.8.o.+.<.>.<.<.B.<.<.,.,.,.2.,. . . .[ @ ",
",.,.3.,.,.,.,.,.,.,.2.2.,.>.+. .-.O.O.@.a.D.D.a.) ' x. X X XE.~.~.R._.I.) h.l.M.9.Z c 9.8.4.@.i.<.<.>.>.>.,.,.2.,.,.[ [ ,. .7 @ ",
" . .,.,.2.2.3.3. .2.C.V.+.+.@.-.r.r.r.r.m.M.].z.) ) h.n. X].z.' ' I.' ) ) z. XM.M.L a J 5.O.O.O........... . .[ [ [ [ [ [ [ 7 + ",
" . . .}  . . . .,.3.3.u.<.+.,.-.8.r.t.a.n.n.n.z.f.( h.l.z.z.l.g.h.) ` ( / h.h.n.k.6.P J 4.b v v X.{ { { > [ 7 + [ [ [ + 7 [ 7 + ",
",.,.,. . .,.,. .,.3.2.3.i.3.-.-.8.r.t.N.{.z.z.`.l.j.].[.].].n.q./.z.z.j.c.z.z.z.h.k.w.9.7.6.5.4.8.>.>...> {  . .[  . . . . . . .",
"2.2.2.2.2.B.B.2.2.u.V.V.V.i.r.r.r.t.N.n.n.j._.9Xj.XX=X=X=X*X[.q.XX=X*X%XeXeXXX)._._.`.&X[.#X[.].#XD.V.u.> y.V.B.B.C.C.C.C.C.C.C.",
"2.2.2.C.3.2.2.2.u.u.V.V.9.9.i.m.F..X%X=X Xx.`.*X%X%X%X%X.X}.}.(.rXeXXX.X%X%X%X%X%XoXc.n.F.M.p.9.a.t.r.r.> B.S.V.,.2.2.2.2.2.,.,.",
" .,.2.2.2.3.,.,.<.+.<.<.r.8.r.m.M.M.[. Xn.{.{.[..X%X%X.X}.}.'.(.0X9X|.}.%X X X%X`.`.oX.XM.M.N.v.p.r.r.8.> y.V.u.,.2.2.,.B.2.2.2.",
"} ,.2.,.3.,.,.3.+.+.@.<.9.8.r.N. X X{.]. X.X.X#X.X$X.X X'.'.+XL.0XOX|.}.$X[.[.$X' {.XX$X XM.M.b.w.9.8.4.> u.V.>.>.,.,.,.2.2.2.2.",
"2.2.2.2.2.2.u.Z.i.u.3.3.9.t.N.n.eX=X*XXXeXXXXX=X%X.X X XI.+XL.H.0X9X|.}.]. X.X X) {.$X X$XXX X{.w.9.4.O.> y.V.>.>. .,.2.2.2.2.B.",
"2. . . .,.,.2.C.y.<.=.8.r.p.N.b.k.n.n.n.n.M. XeXn.|.9XM.I.8XE.~.H.L.8X_..X$X$X.X.XM.[..X X X{.].w.w.9.4.1 @.>...+.>.,.2.2.,.,.,.",
"B.B.2.,.,.,.3.2.3.-.8.8.8.p.n. Xn.n.n.n. X{. X Xn. Xn.x.I.'.;X2XQ.W.8XoX{.{. X X X X X X].].].n.w.w.6.6.1 8.>.>.+.+.+.,.,.,.,.,.",
"B.B.2.,.,.,.,.<.e.8.8.8.8.N.M..X#X.X X X*X.X].n.h.n.h.' U.8X:X5X~.-X'.`. XM.{..X X].].n.].n.n.b./.6.4.6.1 #.>.+.o.+... . .,.,. .",
"2.,.,. .2.<.<.3.9.9.9.r.a.b.{. XeXeX=X%X=X[.n.n.) ) h.' '.9X:X5X~.W.' ) .Xc.n. Xn.n.n.n.n.n.b.l.w.6.J 4.1 { , > { > > [ [ [ [ [ ",
"3.2.2.2.2.<.y.3.<.8.8.r. X X.X XoXn.n..X Xn.f./ / ~ ~ / _.!.,X5X5X-X` T T h.l.b./ ( ( l.l.l.l.l.q.5.H H 1 2 : > > > > > 7 7 7 7 ",
"B.C.s.B *.*.:.:.A U U U .XoX`.`..X{.c._.h. XXX X X X XoX9X!.,X5X5X;X'.z.n. X.X$X Xz.n. X.X X[..X/.q.6.5.4.4.#.1 { {  . . . . . .",
"C.C.s.V m S A W ~ A L / .X{.`.c.XX`.x.x./ .X=X%X%X=X%XXX9X>X1X7X5X3X@X]..X.X$X%X%X].n.XX%X.X$XXX].w.w.9.r.r.4.O.+.{ #.o.,.,.,. .",
"A.B.1.B.5 S W L ~ a L n.n.n.M. X.X`.' ' ) XX=X.X.X X Xn.9X<X7XuX5X,X!.l.n.M.M..X.Xl.n..X X X X X].w.q.w.w.9.6.r.>.{ > ,  .,. .[ ",
"A.C.B.2.5 m p p A p U z.n.x.c.eX) {.c.) k..X&Xn.l.l.l.k.x.<X7XuXuX7X<Xq.9.w.l.[.n.w.z. X].n.n.n.M.q.q.( 5.4.8.@.>.>.>.,.,.,.,.,.",
"A.B.2.,.=.m S 9.A P 0.n.n.z.c.%Xc.M.n.) k.$X%XM.k.[.$X.XoX>X1X7X7X1X>X}.[./.b. Xn.l.n. X X.X.X Xn.n.g.q.9.t.p.p.<.<.3.2... . . .",
"A.2.,.| ,.&.O.p.A 5.9.n.h.z.`. X XM.n.h.k..X%Xn.l.$X=X=X9X>X4X6X7X4XW.{. Xl.l.$X].l.z. X XXX%X.Xn.v.g.g.9.w.p.a.y.y.u.2. .,. . .",
"A.2.$.0 ,.,.<.6.p 5.p.z.Q ` c.XX XM.n..Xk..X$Xz.k.$XeXeX9X9XwXyXiXtX|.n.q.w.g. X Xz.l.[. X X[.[.z.q.q.g.6.9.p.a.u.V.u.Z.,.3.2.3.",
"B.3.$.5 5 ;.<.8.-.8.6.Q ` ! ^ ) ) c. X]./ .X*X}.6. X&XM.j.(.+XqXY.U./.n.].l.[.=XM.p.z. X%X.X X.X].q.q.n.q.w.9.8.8.+...+. . .2.C.",
"3.,.} 5 i B @.8.O.b Z ! ! Q ^ ) c.M. X X( .X%Xn.q.$X*X Xz.h.I.E.] _ l.].l.w.[.=XM.l.z.[..X.X.XXX].n.g.w.p.b.p.4.8.@.+.<.,.3.2.2.",
" . .[ 8 4 [ o.O.v x t G Q Q Q ) n.M.].].) .X%Xn.q.$X%X Xl.U ` E.F Y b.z.l.w.[.=Xn.l.l.].[.[.[.{.z.l.g.9.w.p.p.8.8.@.>.,.3.2.2.3.",
"[ [ [ 7 @ 7 { { h : : y u F G ^ / f.l.l.l.$X%XM.q. X&XM.6.Z T Y.; Y l.q.].l.].=X/.l.l.].].].g.q.q.Y Y q.6.9.9.r.8.+.+.+.2.2.,.,.",
"W W W V A.A.A.F.t.O.4.p.{.XXXX*X&X}.'.)._.XX Xn.w.[.%X[.P c D Y.% H P P g.w.M.=XM.l.n.%X%X.X[./.].g.q.q.].M.b.m.9.<.2.2.3.3.,. .",
"i d.s.2.C.B.V.B.r.v 4.M.].n.n. X X}..XoX).XXXXz.l.[..X].5.J D P.% H J P k.q.[.eXM.l.l. X].[.].z.l.f.q.n.n.b.b.r.9.i.u.B.B.B.B.,.",
"B s.B.2.B.B.<.<.r.X.4.[.n.q.k.n.M.}..XoX`.*X*X].l..X$X].5.H K K.% D J J q.q.].=X[.v.l./.z.z.l.l.l.q.g.l.w.l.p.r.8.i.u.2.B.2.2.,.",
",.2.2.2.C.B.2.3.>.X.O.D.w.q.f.].l.].`.'  X*X*X Xv.$X=X XJ H D 9 # ; z H w.9.b.%X Xn.q.6.].q.q.l.q.q.7.P J 6.9.r.-.<.3.2.,. .,.,.",
"2.B.B.2.2.2.&.i .., o.F.9.7.q.7.q.b.j.G XX=X*X Xl.$X%Xn.z l D P.# * e c 7.w.].%X Xf.q.].g.l.v.g.q.z.].b.9.r.r.r.9.3.2.B.B.2.2.C.",
"2.s.2.2.2.,.&.i +.{ +.V.A / ) l.g.l.k.f.].&X*X[.n.].z.w.l e r E # $ = z I q.n.=Xl.7.U g.( f.q.q.q.b.n.w.6.r.8.r.e.,.,.,.,.,.,.2.",
",.,.2.,.3.%.B i ,.{  .B.A q.h.k.l.l.f.l.l. X%XXX[.[.n.w.b z r 9 # & z J 7.q.].%Xg.I Y f.g.q.q.q.q.b.p.9.6.8.8.8.3.=.,. .,. . .,.",
",.,.,. .,.B i C  .{ +.V.A 7.7.q.q.f.k.g.l.z. XeX=X=X%Xn.9.7.K 9 # z 6.6.l.].].n.z.U U ].[.f.q.q.q.w.w.w.6.8.@.8.2.3.,. .,.,.2.C.",
"[ [ 7 3 4 5 f  .,.{ >  .o - t 4.H I 7.Y Y g.M.g.M.n.n.k.c z e r ; z z J J w.f.Y Y K I g.q.q.q.g.9.9.k.9.9.9.e.i.,.3.s.C.C.C.B.2.",
"7 7 3 3 3 3 8 7 > + > , o - = e c H H y F Y q.I 7.U U Y z = * & & & & ; r H K H H H I l.g.f.q.w.9.9.9.8.-.1.s.C.u.2.2.2.2.2.3.3.",
"} 7 8 7 d 8 7 [ + + > > - : w w b J H F F P I P q.7.Y H c e = * $ & * = H H K K Y K I l.z.f.R q.f.7.0.:.&.&.1.C.s.s.1.2.=.=. .} ",
"2.2.s.B.2.,. . . .,.,. .{ ..o.#.8.5.7.q.q.I I q.XX[.g.H 6.6.I H % z J J [.v.g.(.[.Y Y ].{.R D ^ T ~ ~ ~ W i $.A.W W d.C.M M C X ",
",.,.,. . .[  . .,.,.,.,.+.+.+.{ 1 #.4.6.J I 7.w.(.q.7.J H H H 2 ; z D D 5.5.w.].q.J I ].w.p.7.u ~ A L ~ 5 s.s.2.,.,.2.2.i 5 5 5 ",
",. .} [ [ [ [ [  .} }  .+.+...o.+.O.4.8.6.l./.j.7.R 6.R P H H J r r r H 5.J R /.(.K 6.].p.p.6.u ~ A a L 5 ;.B.s.*.s.3.N ;.5 5 7 ",
",. . .}  . . . .}  .+.,.,.+.+.>.>.8.8.8.9.w.g.( 7.7.7.7.7.P J J H c z J J P R g.g.P Y [.p.9.6.b Z A A A N ;.2.,.*.s.3.N ,.N 4 + ",
",.,.,.3.3.,.,.3.,.3.B.C.C.2.<.y.<.>.@.8.8.6.6.P ]. Xw.H (.R J H H P K r H P 6.q.6.J 5.[.w.9.8.r.t 1.1.V ,.,.2.2.2.,.,.2.,.8 3 @ ",
",.3.,.,. .[ [ [  .[  .,.C.C.C.C.V.<.>.<.y.D.M.w.6.9.p.{.P R 7.4.z H P P H 5.9.9.5.c 5.#X8.S x 8.>.2.=.i 2.,.;.5 %.,.3.,.[ } 7 @ ",
"2.2.2. . . . . . . . . .,.,.2. .>.+.+.>.i.t.r.8.5.5.6.7.5.6.6.J 6.6.5.I I 4.n z 5.v O.D.8.x x S 3.,.=.$.3.*.V V m N j d ,. .[ . ",
"2.2.2. . . .,. . . . .,. . . . .>.+...>.y.e.@.X.b 4.J J 5.5.4.J 6.6.4.1 6.1 1 = b 1 v r.o.l 0 0 ,.,.+.,.$.8 5 M 5 5 5 8  .,.[ X ",
" . . . .2.2.2.2.[ ,.2.2.[  . .,.2.2.>. .>.+...{ 1 X.1 1 4.H v J H J J 1 P n : : 1 : , O.{ = w 3 7  .[ [ 3 6 5 3 X 3 8  . . .$.6 ",
" . .} 7 7 [ [ + [ [ [  .,.,.,.,.,.,.<.>.,.[ > > : > , 1 1 : < : : : : : : : : 1 1 > > > 7 + @ X + + + + @ @ @ . . X X X 7 7 7 7 ",
",.,.,. .[  . .[  .,.,.2.,.2.,. .,.2.2.>. .>.y.>.e.....>.h < < < #.#.h @ o.@.e.e.e.e.-.n V N $.=.3.3.,. .@ 7  . .$.%.%.,.j N B B ",
",.,.,.,.[ ,.,. . .,.2.C.,.2.2.2.B.2.2.2.>.>.2.B.V. ...y...> < < >.>...@ +.y.u.u.u.u.1.m *.$.;.B.B.B.2.,.@  .2.2.3.2.s.B.$.*.*.M ",
" . . .,. . . . .2.2.2.B.,.2.2.C.C.C.C.C.,.,.,.,.<.....>...{ > > >.>.{ > +.@.>.3.>.3.=.w 2.,.2.2.2.,. . .@  .2.,.,.,.,.2.2.3.=.M ",
"[ [ [ 7 [ [ [ [ 7 [ [  .,. . .,.2.,.,.,.,.2.B.2.,.,.>.>  .{ + @ { > { >.B.B.B.<.+  .,.2.,.,.,.2.,.,.,.[ @ ,.3. .[ ,.3. .2.N N s.",
"[  . .[  .[ [  .,. . .,.,.,.,.,.2.2.2.2.2.2.2.,.,.,...+ 7 + + + <.+.+.2.2.2.,. . .,.2.2.2.,.2.,.,.$.7 [ @ 3.2. . .,.,.,.2.7 N B.",
" . . . .[  . .,.,. . . .,.,. . .,.,.2.,.2.2.,.,.,. . ...[ [ + @ B.,.,.B.<.2.>.[ 2.2.2.2.B.2.2.2.3.N 8  .+ ,.1.$.%.;.3.2.2.$.$.2.",
" .[ [ [ [ [  .,.[ [ [  .,.,. .7 7  . .[ ,.,.,.2.,. . .V.,.,.[ @ B.,. .2.2.B.2.[ ,.,.2.,.2.2.2.2.,.8 8  .@  .=.m V ;.2.B.2.,.,.,.",
"2.2.,. .[ [ }  .[ [ [ [ N %.,. . .,.,.,.C.2.,.,. .,.2.,. . .[ @ >. . .2.,.2.,.+ ,.,.,.,.,.}  .;.i 5 5 ,.+ ,.=.V ,.,.,.,.2.2.,.,.",
"2. . .} [  . . .[ [  .} } %. . .,.2.2.2.C.,. . . .,. .,.[  .[ @  .[ 7 ,.,.,. .+ [  . .,. .$.8 7 i $.$.,.+  .} 0 8  .,.%.,.,.,. .",
"2. . . . . . . .[ }  . . .,. . .,.,.2.2.C.,. . . . . . .[ [ + @ + + 7  . . .[ [ 7 } }  .j 8 4 6 5 }  . .@ [ 7 4 3 8 }  . . .} [ ",
"2.2.,.,. . . . .[ [ }  .2.2.,. . . .,.2.2. .[ [ [ [ [ [ 7 @ @ @ @ @ + [ [ [ [ [ [ [ [ [ 6 @ O 6 3 @ + + @ + O X X 4 8 [ [ 4 X X "
};
