/* XPM */
static char *minecraft_w3[] = {
/* columns rows colors chars-per-pixel */
"64 64 156 2 ",
"   c #110C0C",
".  c #17110C",
"X  c #1B130D",
"o  c #1E190F",
"O  c #160E13",
"+  c #180E13",
"@  c #171213",
"#  c #1A1414",
"$  c #1C1814",
"%  c #1B151A",
"&  c #1D1A1B",
"*  c #2C1607",
"=  c #24150E",
"-  c #2C160B",
";  c #241A0E",
":  c #2D1B0C",
">  c #341303",
",  c #351904",
"<  c #3A1A04",
"1  c #301709",
"2  c #321C0B",
"3  c #3B1C09",
"4  c #221512",
"5  c #231C14",
"6  c #2A1E13",
"7  c #211D1C",
"8  c #2A1F1A",
"9  c #311E13",
"0  c #2D200F",
"q  c #33210D",
"w  c #3C230C",
"e  c #3E2B0F",
"r  c #262015",
"t  c #2A2214",
"y  c #2D2816",
"u  c #26211B",
"i  c #2A231C",
"p  c #2E291E",
"a  c #332413",
"s  c #3A2313",
"d  c #342B15",
"f  c #3D2A12",
"g  c #32241A",
"h  c #382519",
"j  c #322A1C",
"k  c #3B2D1C",
"l  c #1E1A20",
"z  c #221E24",
"x  c #252124",
"c  c #292425",
"v  c #2E2925",
"b  c #26232B",
"n  c #29262C",
"m  c #2C292D",
"M  c #312722",
"N  c #342B23",
"B  c #392D23",
"V  c #322D2D",
"C  c #363022",
"Z  c #3C3322",
"A  c #36312C",
"S  c #3B332B",
"D  c #292730",
"F  c #2C2932",
"G  c #312E33",
"H  c #333135",
"J  c #3A3633",
"K  c #3E3B36",
"L  c #36343A",
"P  c #3A3638",
"I  c #3B383A",
"U  c #411A04",
"Y  c #442206",
"T  c #4F2406",
"R  c #43250B",
"E  c #41290F",
"W  c #4B2C0B",
"Q  c #532D0B",
"!  c #5C2F08",
"~  c #4D300D",
"^  c #53320E",
"/  c #5B340B",
"(  c #412710",
")  c #432C12",
"_  c #492E14",
"`  c #453114",
"'  c #4C3312",
"]  c #43301D",
"[  c #4B3419",
"{  c #543612",
"}  c #5F3715",
"|  c #533B11",
" . c #513C1D",
".. c #60360B",
"X. c #653C0D",
"o. c #6B3B0B",
"O. c #703A0A",
"+. c #603A18",
"@. c #443A27",
"#. c #413528",
"$. c #44392B",
"%. c #4E3D2C",
"&. c #513922",
"*. c #443C34",
"=. c #413D39",
"-. c #5A4212",
";. c #584A17",
":. c #5B471C",
">. c #5B4E1C",
",. c #5C501C",
"<. c #6C420D",
"1. c #724A0F",
"2. c #7C490B",
"3. c #7C520D",
"4. c #694413",
"5. c #694815",
"6. c #65421B",
"7. c #6C4C1A",
"8. c #685B1D",
"9. c #7B5219",
"0. c #7B681E",
"q. c #584524",
"w. c #5B4B23",
"e. c #514729",
"r. c #4D4335",
"t. c #454139",
"y. c #654A21",
"u. c #6B5C2B",
"i. c #6D602D",
"p. c #786620",
"a. c #776928",
"s. c #804B0A",
"d. c #81550E",
"f. c #89570B",
"g. c #85580E",
"h. c #965D0B",
"j. c #805613",
"k. c #865913",
"l. c #96610C",
"z. c #8B6016",
"x. c #8B6619",
"c. c #896F1B",
"v. c #946C1A",
"b. c #8E741F",
"n. c #A46B0C",
"m. c #A96E0B",
"M. c #AA710C",
"N. c #B3740C",
"B. c #826B23",
"V. c #927B27",
"C. c #B18418",
"Z. c #95832A",
"A. c #A98821",
"S. c #B89722",
"D. c #BEAB2F",
"F. c #C3AE2D",
/* pixels */
"c u 6 5 4 4 # . c 7 # . 5 7 v G c 2 < < z z z # # # O +   % l O   @ & b F b l $ O l D L L F F L L L H F L L H D L L L L F D D z ",
"u i [ d.Q 3 : 7 7 4 5 7 c c v G V c 9 < 7 7 & z 7 # % l l % @ O l l l l D D z l   % l L F F D F F L F b F D D b F D F F b b l @ ",
"; ' 5.d.^ w 6 u # 5 7 c  .w.e.G V N t * = # 4 & 7 $ & z l % @ # l b b b F F b l     & L D b F F F F F b D z z z F D D D b b l   ",
"X 3.d.t 6 5 5 # # 4 7 z n.S.Z.S G i 5 $   . + O $ $ $ $ O @ @ % b l b D D F b $ O   % F b F G F D b z z z & & z D H H F D b l   ",
"o.E t c c x x 5 + z v V S +.k.F.6 5 4 t   # $ $ z x z z % @ % l D F F F L z @ @ $   & L L b b D F b z z F F D z z D D z D l @ @ ",
"( g c b m F n b # % z c P %.w.6.^ 9 5 6 * = % 7 z b b D b & % % b F H H z $ # @ $   & L L F b b l l z & z D D z D b z & b & & l ",
"i c v v G G F n # # # z V *.S 5 ! q 5 5 < 6 x b b D F G b l $ @ l b D H % @ @ @ @   % L F F F D l z z & z b x z D D b l b l l z ",
"F G G F G H G z 5 # # + # c c 4 < ; X   < B G F D F F L x % $ $ O O % F O     $     & L b H L L F F F F z l & z D G H D D b z z ",
"x D F L L c &   $ * * $ # $ # X , g u 5 t c c F L L H l   @ @ O % @ # $     % z O @ & F F b z D D b z z D F D z z D D z D & & z ",
"x c c c z 7 ; : W s u x 5 # 5 8 B i 8 5 6 c x b x l l @   @ % l l % # $ l l l % O % l F H b D H D D b z l F F b b z z z z $ $ & ",
"x b u 5 $ 5 : q { B v c $ f ` k B u 5 5 5 c c x $ @       $ l b b & @ @ l l l @ @ $ l F L F F L D D b z $ b H D D & & z $ & &   ",
"c x 7 # 5 5 5 t v H m c # 1.f./ 3 q 8 5 5 u c c $ @ @ @ $ z b F z %     O @ @ $ @ $ x L L F F L z D b $ $ b D F z & & z $ b z   ",
"$ r t 5 5 r t 6 5 t t 5 < - 4 t c c c t , : r $ O O @ % @ O @ $ O     @ $ l b z $ @ & F F b b F z G H D D b & $ $ l z z z b b @ ",
"# 5 5 8 i _ X.j.= 5 8 c M c c v m m v i Q a $ x l l % @   @ O @ # l z b b b b D l @ & H F F F D b F D z b z $ @ b D z & b D z @ ",
"$ 7 u p V [ <.g.;.d u N m G H H F V N i 2.( 7 b b b x %         $ z F F F F F b l @ l L b F F b D D z & b l $ @ D D z $ z b z $ ",
"5 u m A A V j a F.;.5 N c H I I V m i t M.| u x D F F l % @ O   $ l b L L F F z $ $ z L b b D b D b z z D b l $ D b z $ @ l l % ",
"c c v J H J S j N.| t r $ 7 c c 5 # 9 O.8 z c c F F F F l & @ @ $ O % z x & $ O O $ x L D b z z z z b D b b x $ b % % O l l l O ",
"m m m H L A v r ~ ^ E 5 # # 7 c 5 1 3 T u v m m F G F b @ @ @ # $ % O % z % @ O O % c L b b D b % & l b x b b l z x l @ F D l O ",
"F H H J H c r X X R e @ # 4 7 c 4 - 3 3 b V G G F G D &       @ @ @ O O z # O O @ l m L x n m n @ $ & l l x x l l b l % D b x @ ",
"H L J I c 7 $ . . * *   # # 4 t 4 4 4 8 V G G I L D l @       O   @ # O $ # O @ $ b F F c F m c $ z l $ $ $ # @ @ l b l D b x % ",
"5 $ 7 c #         $ @ @   $ 5 r U 2 t 5 b 7 $ $ z & O         $ O     $ $ $ $ $ $ x c c $ r r $ $ r 5 # 5 5 5 5 $ $ $ # $ @ # # ",
"x 5 5 & + +     % % @   . & x n g 5 5 # c v m m b F D b b z b D m b b m m D m n b c c c 5 6 5 5 r $ 5 7 $ $ o 5 u c c 7 2 - 4 z ",
"i u 7 & @ % # @ l @ O $ & z b D m u % # z F L H D F H L L F F H F D D H F H H m m x 7 x u ` ~ s t : r x # # 7 7 c V G V 3 3 1 z ",
"t x c z $ z z z O O % z z z b F D b %   + D H D z b D F L b b D x x b D x m m c c $ X r M j.h.o.w d i 4 # 8 c c M A J J N ( , O ",
"  O @ $ $ $ $ O O % & z z D D F D 7 $ O   z b z L G F D z z z z $ l b F L H F F c 7 # X m.^ t y d 6 5 # 5 x  .n.D.i.$.$.d y r X ",
". @ % l l l & $ O % z b D F F H 7 % @ #   x G G D D D F z z b D b x l b F D m H u 5 6 Q | k i p v 8 7 # u v #.y.x.V.a.k y y y ; ",
"@ $ 7 z b b z & O l z D G F F D % @ @ $   n L L b b b z z z z D F x l b n x x G r 5 g { u x v V v c u # x c V *.6.B.p.` t d d q ",
"$ z x z D F F D $ @ % z L L F $ O O @ $   n L L F b l $ z & & z F b D F z & & c $ x 7 $ c c c F H m c 5 4 7 V *.r.Z ` o.d d e W ",
"F F F F D H F b $ $ % O O z z O   @ #     b F b L L G F D F D z % l x m L H A F x c m F F H G D L m u 5 $ # 5 8 K j d W d t q Y ",
"b D F H H F z O $ @ @ $ O & l     % % O . b F F D F F F z b b D b z x b F m m F 5 x c c F G L H n 7 $ 5 1 ; 5 y C d d ~ Z d a q ",
"l b F m F l %   $ % % & @ % $ @ # l % O $ x F F z F F F b b z z F D b b b c c b $ 7 z x n m n D 7 X ; s t r r y d d k [ Z y t y ",
"b l l $ O       $ l z z $ $ $ z F % O O $ b F L z F L F D b l $ L F D D $ l & $ $ # % z x & $ @ . * Y / c c p y d Z $.t.t y t t ",
"z b l $ @ @ @ $ z F D l O     O @ $ # @ $ F L L F F F b D & $ $ F D b z & z & $ F % @ z z & $ # 4 5 i N G m c 5 n.s.X.R y t r t ",
"% & % @ O @ % @ % % l %   O @ # l l % # # b F F b F F l H F x c b x 7 & l z z l F % @ & & % $ $ 5 t r u i u t w { ' ` k C j d q ",
"$ % % l % % @ O   @ % @ % % l & b b z & O x F F b F D b H F b b & % % 7 b z z b D & # # 5 $ $ u f ~ ` 5 8 8 g ( i j B C S C d W ",
"O & l b l %       O @ # F F F F D D F l   D H F L F F F F & & z $ # % F D 7 7 F n 7 # + t $ u m <.l.3.; t c G A J J J J J C ] o.",
"$ l b F D b l $ O     % b F L L F b l $ $ m G z F b b D z z b D z & z D z & $ O z z # $ c V H H B y ,.D.; i c x K =.K J B y | n.",
"l z z D D D z z # @ @ $ @ b D b l % % @ & F G F b b l x x b b b b & & b & $ % l z % % x c V V G A v ;.C.; i 8 7 m m N j u ) { | ",
"z b D D F F z & @ @ # $ O % z z % @ O O l F G D b x b l z b c z F z l z l % % z z % % c v F G H A v [ 3.f y 5 # z x u 8 2 W W u ",
"F F F F L D &     @ $ $ @ @ % z O O O @ l G G l F D b $ 5 u b z F b z z D % l F F % z G F G G =.c $ o X o.f $ O O 7 z 4 3 < 9 x ",
"F H L L z %             $ @ @ $ O O @ $ F D b z m c x 5 c & $ $ $ @ @ O z z b F z & & F =.P H z $ X . . , . @ $ O # 5 # # 5 u F ",
"l z x b $ @       @ @ O   @ @ $ # # $ $ b b x u 7 7 $ 5 u 5 5 r r $ $ $ & 7 7 4 % % $ z z v c 7 . X . . ; @     $ 5 5 1 4 5 u n ",
"z x x b l l & & % & z l % l z x z z 7 & z z x r 5 $ $ 5 r 7 5 r r o & i 7 7 5 = = % 7 x z b c z 7 7 & & x 7 l % 7 x i s u u x c ",
"L L G F L L L L F H L L F H L L L F F F z x u 5 6 5 4 # . u c 5 o $ u c G v i < > 8 c L L G G L L L G F L L L F L L P P F G m c ",
"L F b z D D H L l F D b l b D x D b z x @ $ r v n.s.! < N z 5 5 v C j M V G m c < = z P n z z F D H F x F z z z F x b F x x %   ",
"F b D H F D D b l b l & b D F F F D c x @ o e j.| ~ s : u 5 5 t y 5.x.Z.S V n u = . 7 G b F F F D m b x b l l z F F F F D x l O ",
"F F F H D F D z b b x l l D D H D D m x # : ~ 3.i u u 7 5 5 5 u j 7.v.A.u.e.u $ 4 X % G m G F F D b z z b l z l D F F F F x % O ",
"L L F z D D b z l D F F b l b F z m c $ 4 Q ^ r M c c c 8 5 7 c H J  .o.F.6.5 $ 5 $ 7 P P n z F D b b z F D D b l D b z F l # O ",
"L L L F z l & z $ z b D z D b z $ x u $ c u u v c m G F V i 5 $ c H =.r.s ^ ^ 5 5 1 9 P P F D z % l l & z D b z D b 7 $ z & & z ",
"L F D L F D b D z z z z z b F G b m b u x v v m m F H J b 7 5 r 7 i B *.r E w u 4 , ( P F G G G x b b x z z z z D F F z D z z z ",
"H D D F L F D D D b z l z b D H b D m x b n m F A H H H & 5 5 2 8 6 y C 5 2 q y $ : h H z F H H F F D b b z z z D F F D F z z z ",
"D D D z D D b z z D F D z z b F x b v r c c n G I I J x X 5 2 < t t y y ; q s v 5 5 z D F n z D D z z b D D D z z D b b F & & z ",
"D L F b L F D F z & x L D D b $ x & $ $ # 7 c c $ $ # X < Q _ c V i y t C S A 5 # 5 u D L m n L F D b z $ F L D D l & b $ $ $ @ ",
"F L F D L F b F & $ z F D D z $ z & & b   z x c # $ # # ; s N V N u ` 3.{ ) a r 4 8 c L L F F L b D b & $ b F D b & & z $ z &   ",
"L L F b L b b F z & z b b z l & z 7 z D O % z 7 # 4 # $ 5 u c N c 6 ) 3.^ e g i 5 6 g L L G F H l F b l 7 x b c l & l z & b z   ",
"D D D z D b D L D D b z $ $ & z z z b D + # $ $ # # # $ t 5 t y # 2 q $ r v v N t 3 s V G c b F b F H F F b l $ $ z z z z D b   ",
"L F F L F D F D $ z z $ @ z D F $ z F F % % # # $ u k <.M.' $ ; N V G H A A H A c { +.*.G J L G F F z $ z & @ O D D b $ D F z $ ",
"L D D F b b D b z x b & @ x D b $ % l z $ $ # z b n A ] -.0.8.; m N A P I H V n t 1.9.*.v G G c D D z l D z & $ D D z $ & z z $ ",
"L F b D z b b z x b b b $ z b l # % l z @ % 7 x D F G v d b.c.; i c N H H m c u e <.7.=.m m m c D z z b b b z $ D z & @ % l l $ ",
"L F D z z z z z D b b D $ & z $ O l z z O l z z F F A H C k.3.r t 5 u N c u 5 4 o.E v I G c c c z z b F z D z % z & $   z b l   ",
"L D b D D & @ $ z z b D z z z F O z F F + z D D m L J c . . 2 / $ $ 5 6 c 7 - U w a N J c F F D O @ & z z D b z z D z O D D z O ",
"H b b D b & % l & & & l & % l b l b D b $ b F L H F c & . X * w X X 5 5 7 4 4 - 0 v G H c D D b % & l & & & & % % z z l D D z % ",
"b z z b l $ & z @ $ $ $ @ @ % l l z z % $ z c F G c 7 # . . X : X $ # 5 5 5 4 5 r c D m x x z l $ & & $ $ $ $ O @ l z l z z % $ ",
"z & $ $ $ $ $ @ @ $ $ $ $ $ $ $ $ $ $ O $ $ $ # z # #   . X X 5 # X X # t 2 1 r $ 7 x c $ $ $ $ $ $ $ O $ $ $ $ $ $ $ $ $ O @ $ "
};
