/* XPM */
static char *minecraft_n3[] = {
/* columns rows colors chars-per-pixel */
"64 64 185 2 ",
"   c #395657",
".  c #365B5C",
"X  c #295F61",
"o  c #1A6B6E",
"O  c #196769",
"+  c #1B787B",
"@  c #2C6365",
"#  c #336465",
"$  c #3B6264",
"%  c #346B6C",
"&  c #346E71",
"*  c #277B7E",
"=  c #2E7E7B",
"-  c #2A7376",
";  c #347073",
":  c #3B7375",
">  c #35797C",
",  c #3B7A7C",
"<  c gray28",
"1  c #4C4D4D",
"2  c #4F5151",
"3  c #405D5D",
"4  c #4F5E5F",
"5  c #425657",
"6  c #545454",
"7  c #545758",
"8  c #56595A",
"9  c #5A5B5B",
"0  c #425F60",
"q  c #565F60",
"w  c #5A5F60",
"e  c #446263",
"r  c #4B6462",
"t  c #4D6864",
"y  c #4B6969",
"u  c #536564",
"i  c #5D6263",
"p  c #536966",
"a  c #5E6867",
"s  c #5E6668",
"d  c #556C6A",
"f  c #5D6A6B",
"g  c #4F736D",
"h  c #57736F",
"j  c #436F70",
"k  c #5D6E70",
"l  c #4E7274",
"z  c #427975",
"x  c #4C7679",
"c  c #567173",
"v  c #5B7574",
"b  c #5A7A75",
"n  c #50777B",
"m  c #587779",
"M  c #557A7C",
"N  c #5B7C7B",
"B  c #636363",
"V  c #656768",
"C  c #646A6C",
"Z  c #696C6D",
"A  c #67716F",
"S  c #656F71",
"D  c #696F70",
"F  c #647274",
"G  c #6C7374",
"H  c #637977",
"J  c #637679",
"K  c #6C7779",
"L  c #647B7E",
"P  c #6C7B7D",
"I  c gray44",
"U  c #717778",
"Y  c #737B7D",
"T  c #787F7F",
"R  c #43817B",
"E  c #51867C",
"W  c #5D827D",
"Q  c #63817F",
"!  c #1F7E81",
"~  c #3D7F83",
"^  c #6B7D80",
"/  c #677F83",
"(  c #717F81",
")  c #787F81",
"_  c #1A868A",
"`  c #1E8E92",
"'  c #169398",
"]  c #208487",
"[  c #238A8E",
"{  c #34898C",
"}  c #378488",
"|  c #308B90",
" . c #388E92",
".. c #2C9191",
"X. c #379496",
"o. c #1D9FA3",
"O. c #229FA3",
"+. c #379DA2",
"@. c #1AA0A4",
"#. c #1BADB2",
"$. c #1DB6BB",
"%. c #1FBABF",
"&. c #36A2A5",
"*. c #3CA5A9",
"=. c #3BA5A6",
"-. c #39B7B7",
";. c #24A5A7",
":. c #4B8387",
">. c #418F86",
",. c #428B8F",
"<. c #568385",
"1. c #5D8481",
"2. c #538982",
"3. c #5F8886",
"4. c #54868A",
"5. c #55898C",
"6. c #419088",
"7. c #5C958C",
"8. c #498F90",
"9. c #479D99",
"0. c #519195",
"q. c #559499",
"w. c #6A8483",
"e. c #658A86",
"r. c #6D8589",
"t. c #6D888B",
"y. c #668586",
"u. c #758384",
"i. c #7C8283",
"p. c #758689",
"a. c #738A8C",
"s. c #7C8A8B",
"d. c #7B908E",
"f. c #619D95",
"g. c #649E9C",
"h. c #679493",
"j. c #739195",
"k. c #76959A",
"l. c #7A9B9C",
"z. c #769595",
"x. c #55A395",
"c. c #69A59E",
"v. c #64A29B",
"b. c #579CA1",
"n. c #7D9FA4",
"m. c #40A7A7",
"M. c #51ADA7",
"N. c #59B2A8",
"B. c #4DB7B1",
"V. c #50BEB9",
"C. c #6DA6A3",
"Z. c #6CA9A5",
"A. c #78AFAC",
"S. c #79A5A3",
"D. c #65BBAF",
"F. c #6DB2AC",
"G. c #6FB7B5",
"H. c #66BDB1",
"J. c #7ABEB5",
"K. c #53C2BC",
"L. c #6EC9BE",
"P. c #6DC7BD",
"I. c #4EBEC0",
"U. c #63C7C3",
"Y. c #7DC6C5",
"T. c #818889",
"R. c #899B9A",
"E. c #80989A",
"W. c #909C9E",
"Q. c #8EA0A0",
"!. c #86ABA8",
"~. c #88ADAA",
"^. c #90A8A7",
"/. c #96AEAD",
"(. c #8BB2AF",
"). c #96B3AD",
"_. c #98B1B0",
"`. c #80C6BD",
"'. c #92C4BE",
"]. c #A2C0BC",
"[. c #83CCC8",
"{. c #9BD0CB",
"}. c #ABCBC8",
"|. c #AFD0CD",
" X c #B1D3D0",
/* pixels */
"B 9 9 7 B 9 7 2 2 6 7 1 < 2 6 6 9 B V B B B B B B B 9 9 6 2 6 6 6 < 1 1 2 6 9 6 9 6 9 B B B B B 6 6 6 1 9 6 1 < 1 6 6 9 6 9 9 6 ",
"9 9 7 6 9 6 7 9 9 w i 9 6 7 7 6 2 6 7 9 9 9 9 9 9 9 9 6 6 6 6 9 6 6 6 6 1 1 2 9 6 6 9 9 9 9 9 9 6 6 6 6 9 6 6 6 6 1 1 1 9 6 6 6 ",
"9 6 6 1 8 e e B B 9 9 9 8 8 7 2 t . 5 7 7 7 9 6 1 6 2 2 6 6 6 6 6 6 6 6 1 6 6 6 9 6 6 9 6 6 1 6 6 6 6 6 6 6 6 6 6 6 1 1 9 6 6 6 ",
"6 6 2 < < * } C 9 6 < < 7 8 6 < x.> @ 7 8 7 7 9 1 < 1 2 1 6 1 1 6 1 6 1 6 6 6 9 6 9 6 6 9 1 < 1 1 1 6 6 < 1 6 6 1 6 6 9 6 9 6 9 ",
"B B B V 9 J P U 8 E >.O ) Y F f ) Z u 6 1 6 9 6 B B 9 9 B 9 9 6 B B 9 9 9 6 6 6 6 6 6 6 6 B B B 6 B 9 9 6 B B B 6 9 6 9 6 1 6 1 ",
"6 9 B C D G F V 8 H Q m F Z S Z Y V 9 7 6 6 6 9 9 6 6 2 9 6 6 6 9 B B B 9 B 9 2 6 6 6 6 6 9 9 6 6 6 6 9 6 9 9 B 9 B 9 B 6 6 6 6 ",
"6 w V D K G G p.b F F G V P a.e.I 9 6 6 9 6 6 9 9 6 6 6 6 6 6 6 9 9 9 9 9 9 9 1 6 9 9 6 9 9 6 6 6 6 6 9 6 6 9 9 9 9 9 9 1 6 9 9 ",
"9 Z U U G F d.|.H.b 8 8 f ^.'.D.B 6 < 6 B 9 9 B 6 9 6 9 6 9 9 6 9 2 2 1 1 1 1 1 1 9 B 6 B 9 9 6 6 6 9 6 6 6 6 6 6 6 1 1 < 6 6 B ",
"6 9 Z p.|.[.V.%.#._ , T V X.@._ Z w 8 9 6 6 6 6 6 B B B B 6 6 B B 6 2 2 1 6 9 9 6 6 6 6 6 6 9 B B B 9 1 B B B 1 1 6 6 6 9 9 6 9 ",
"i 7 9 V Q.!.C.g.0.5.m C 9 M 5.5.9 B B V V 9 2 6 1 6 6 6 6 1 6 9 9 9 6 1 6 1 6 6 9 9 6 1 6 1 1 6 6 6 6 1 6 9 6 6 6 1 1 6 6 9 9 6 ",
"w u y : p.p.p.) L L ^ Q b F G ^ 6 9 B Z B 9 6 9 6 1 2 6 1 6 6 6 9 9 9 6 6 6 6 9 9 6 6 9 6 6 6 1 9 1 6 6 6 9 B 9 6 6 6 6 9 9 6 6 ",
"< E 9.' r.K Z 9 9 9 u.}.D.N i 9 9 6 9 B 2 w B B B 9 9 B 9 6 9 B B B B 6 9 6 9 6 6 6 6 B B B B 6 B 9 6 9 B B B B 6 6 6 9 6 6 6 6 ",
"9 F / L 9 2 2 9 q f.B.#.] ! * J B G G I 6 9 9 6 B B 6 6 6 9 B B B 9 9 9 B B B B B 9 6 6 9 9 B 6 9 9 9 B B B B 6 6 B B B B B 9 9 ",
"6 w i q 9 : & 6 2 H h.b.7./ c q 9 9 9 9 6 1 6 9 6 6 6 6 6 6 6 6 6 9 6 6 9 9 9 9 9 6 6 6 6 9 9 6 6 6 1 6 6 6 6 6 6 9 9 9 6 9 6 6 ",
"2 9 8 7 9 , : 9 6 V K a.p.J S v . 8 9 9 6 1 6 6 6 6 6 6 9 6 6 1 6 6 6 6 9 9 6 6 6 6 6 1 9 6 6 9 6 6 6 6 1 6 6 6 6 6 9 9 6 6 6 9 ",
"9 9 9 9 9 9 i V V V Z U i i N H.- f I B 6 9 6 9 6 9 6 9 B B 9 9 6 9 9 6 6 B B B 6 B B 6 6 9 6 6 6 B B B 9 6 9 9 6 6 9 B B 9 9 B ",
"9 8 9 V 1 1 2 9 V 9 Z Z.].P.B.#.@._ ; B 2 6 9 2 2 2 6 9 B 9 6 2 1 6 9 6 < < < 1 1 6 6 6 1 1 6 1 6 B 9 9 6 1 6 6 6 1 < 1 6 1 6 1 ",
"w B V F E % . 2 9 9 B Q 8.9.=.0.0.l u 9 6 9 w 9 6 6 2 6 9 9 6 1 6 1 6 9 9 1 6 1 9 9 9 B B 9 6 1 6 9 9 6 1 6 6 6 9 6 6 1 1 9 9 9 ",
"B B i k 7., $ 6 9 9 B V : { ,.L H B 9 6 9 9 B 9 6 6 6 6 6 9 6 2 6 6 6 9 9 6 6 9 B B B 9 9 9 6 6 6 6 9 6 6 6 6 6 9 6 9 6 6 B B B ",
"6 6 2 6 L S V V B 9 9 6 B A f 8 2 2 2 2 6 9 6 9 2 7 6 8 9 6 9 9 6 9 6 9 9 9 B B B B B 6 9 6 6 6 9 9 6 9 9 6 6 6 6 9 9 B B B B B ",
"9 9 6 9 6 6 9 9 1 9 B 9 6 6 6 6 6 9 9 B B 9 9 6 7 9 6 9 9 6 1 6 9 9 B B 9 6 6 6 9 9 9 6 9 9 9 9 6 9 6 6 1 6 9 B B 9 9 6 6 6 9 9 ",
"9 9 B B B 9 7 6 6 9 6 6 6 6 6 6 9 9 9 9 9 B 9 9 9 w 9 9 6 1 6 7 1 6 6 9 6 6 9 9 B 9 9 B 9 B 9 B 9 6 6 6 6 6 6 6 6 6 6 6 6 6 9 6 ",
"B 9 9 9 w 9 6 2 6 6 6 6 1 1 6 1 6 6 9 6 6 9 9 9 6 9 9 6 6 6 9 9 9 6 1 6 6 6 9 9 9 9 B 9 9 9 B 9 6 6 6 6 6 6 6 6 6 1 6 6 9 9 6 6 ",
"9 9 6 1 9 6 6 6 9 6 9 6 9 6 6 1 1 6 6 9 6 6 6 9 2 6 6 < i i B C B 9 9 9 6 1 < < 1 6 9 9 9 6 6 9 6 6 6 6 6 9 6 6 9 1 1 < 6 6 6 6 ",
"6 9 6 < < 1 6 6 2 1 1 1 6 6 6 6 6 9 6 9 6 9 6 6 < < $ ` B 9 8 < < 6 2 2 1 E >.o 9 9 6 6 9 < < 1 6 1 1 6 < 6 1 6 1 6 9 6 9 9 9 6 ",
"9 6 9 9 9 6 6 9 6 6 6 9 9 6 6 6 6 6 6 6 6 9 9 9 9 6 p 4.G i p E 2 B Z w 6 H Q y 1 6 6 9 9 9 9 9 6 9 9 6 6 9 9 9 6 9 6 9 1 6 6 6 ",
"6 6 9 9 9 9 6 9 9 6 9 B B B 9 9 9 6 1 6 6 9 9 w B B V Y G i f 7.t F I w 9 G G B 6 6 6 6 6 9 9 9 6 9 9 9 6 9 B B 9 9 9 9 1 1 6 1 ",
"6 6 9 6 6 1 6 6 6 6 6 6 B B B B B 6 6 6 6 6 6 9 C Z D G s 8 f ( T B 9 9 9 i 9 6 6 9 6 6 9 6 9 1 1 6 6 6 6 6 9 B B B B B 6 6 9 9 ",
"6 B B 6 9 9 6 9 9 6 6 9 2 2 1 < 6 1 1 6 B 9 B I F S S C }.`.g.9 u 2 F ).x.t 2 1 1 9 B 6 B 9 6 9 6 9 6 9 9 6 6 6 1 1 1 1 < < 9 B ",
"6 9 9 6 B 9 B 9 6 9 9 B 2 2 6 1 6 6 6 6 9 6 9 Z G R.!.c.I.V.+.& a.J / 9.= r 6 6 9 9 6 6 9 9 9 9 B 9 9 6 9 B 9 1 6 6 1 6 6 9 9 9 ",
"1 6 6 6 9 9 9 9 6 9 9 B 6 1 2 1 6 6 9 6 9 6 9 9 Z R.(.F.*.*.+.} a.^ N  .& r 9 9 B 9 9 1 6 6 6 9 9 9 6 6 9 B 9 6 1 6 6 6 6 9 9 6 ",
"1 6 1 < < < 2 1 1 1 6 6 9 6 2 6 6 6 6 9 9 B 9 1 9 D u.j.s.a.j.n.f s S i./ f w B I I B 6 6 < < < 6 1 1 1 1 6 9 9 1 1 1 1 9 6 9 9 ",
"B B B B 6 B 9 9 6 B B B B 9 6 6 9 9 6 9 6 < r x.' :.F V 9 6 9 V  X`.g.C 8 8 q 8 B 9 7 B B B B 9 B 9 6 6 B B B B 6 9 9 6 6 9 6 6 ",
"9 9 9 B 9 9 9 6 B B B B 9 9 9 B 9 9 B w 6 6 u e.:.c i 6 9 7 p 7.I.m.{ & G C s f V 9 9 9 9 w 9 9 9 9 9 B B B B 9 9 9 B 9 B 9 9 6 ",
"6 9 9 9 6 6 6 6 6 9 9 9 6 6 9 B B 9 9 9 7 6 w v k i 8 # 9 7 d 7.+. .~ : K s w V B 9 6 6 6 9 9 6 6 6 6 9 9 9 9 6 6 9 B B 9 9 9 6 ",
"< 6 6 6 6 6 6 6 1 1 1 6 9 6 6 9 9 6 2 2 6 1 6 9 7 9 j ' 9 6 9 D y.( ) ) q 2 1 2 1 6 1 < 9 6 6 6 6 2 1 1 1 1 6 9 1 6 9 6 6 6 1 6 ",
"9 9 6 9 6 6 9 B B 9 6 9 9 6 9 6 B B 9 9 V w 9 9 9 9 9 7 V V V V ^ K C 8 H.X.> B B 9 6 9 9 6 9 6 9 9 B B 6 9 9 6 6 6 9 B B 9 9 B ",
"6 6 6 6 6 6 9 B 9 6 6 6 6 9 6 1 6 6 6 2 9 9 9 7 V 9 2 2 w B B B C.~.!.g.-.O.[ # B 9 6 9 6 6 6 6 6 B B 9 6 6 6 9 9 6 1 6 6 6 6 6 ",
"9 9 6 6 6 6 6 B 6 6 6 1 6 6 6 1 1 1 6 6 8 i i 8 Z d r   6 w B i c.A.G.V.&.+.{ @ B 6 6 9 6 6 6 1 6 9 9 6 1 6 2 6 6 6 1 1 1 6 9 6 ",
"B B 9 6 1 6 6 9 6 6 6 1 6 6 9 9 6 1 6 B V V V V L 7.,.o 1 6 w V i., ` $.k.w.F B 6 9 9 B B 9 6 6 6 6 9 9 6 1 2 2 9 6 6 6 1 B B B ",
"9 6 6 6 6 9 6 9 6 6 9 9 9 6 6 6 B B B B B 9 9 6 6 f F V V V B 9 V Z G J 9 6 1 6 2 6 9 6 6 6 6 6 9 6 9 6 6 9 6 6 9 6 9 B B B B B ",
"6 9 9 9 9 6 6 9 6 6 6 6 B B B 6 9 9 9 9 9 9 6 9 9 9 i 9 9 9 9 B 9 i i i 9 8 7 7 9 w 9 9 9 9 6 9 6 9 6 6 6 6 9 B B 9 9 9 6 9 9 B ",
"9 9 9 9 9 9 9 6 1 6 6 6 6 B 6 6 6 6 6 9 9 9 9 9 6 9 9 6 7 6 6 B 9 6 7 6 8 9 9 9 B B B 9 9 9 9 9 9 6 6 1 6 6 9 9 9 6 6 6 6 6 6 9 ",
"B B B B B 9 6 6 6 6 6 6 1 1 6 1 6 9 6 9 6 B 9 9 9 w B 9 6 2 6 9 7 2 1 6 6 7 i C i B B B B B B B 9 6 6 6 6 6 1 < 6 1 6 9 9 6 9 6 ",
"6 9 6 6 9 6 6 6 6 6 9 6 6 6 6 1 1 6 6 9 6 6 9 9 2 6 6 < B V V V B B 9 9 7 1 < < 7 6 7 8 6 6 6 6 6 6 6 9 9 6 9 6 6 1 1 < 6 6 6 6 ",
"9 6 6 1 1 6 1 6 6 1 1 6 6 6 2 6 2 6 9 9 6 6 6 2 1 2 $ * C B 9 6 6 6 7 7 1 g z X 9 9 9 9 7 6 1 2 1 6 6 6 1 6 6 6 6 6 6 6 6 9 9 6 ",
"6 9 6 1 6 6 6 6 6 6 6 6 6 6 6 9 6 6 6 6 6 9 9 6 6 2 e | V 9 4 t   4 i B 8 W 2.% 9 7 6 6 6 6 6 2 6 6 6 6 1 6 6 6 6 6 6 9 6 6 6 6 ",
"9 6 9 B B 9 9 B 6 6 9 B B 9 6 9 6 6 2 2 6 9 B B B w s / C 6 t x.O x P i.G T U V 6 6 6 9 6 w B B 6 B 9 6 6 B B B 9 6 6 6 6 6 6 6 ",
"6 6 6 6 6 1 6 6 6 6 6 9 B B B B B 6 6 6 9 2 2 9 9 9 B U C 7 6 Z L K G S G T G 6 9 9 6 6 9 6 6 1 6 1 6 9 6 6 9 B B B B B 6 6 6 9 ",
"6 9 9 9 9 6 6 6 9 6 6 6 6 6 6 6 6 2 2 6 9 9 9 B 9 B Z G _.S.1.2 i Z u./.Z.w.B 1 6 9 9 6 B 9 9 6 6 6 6 6 6 9 6 9 6 6 6 6 1 1 6 B ",
"6 B B 6 9 9 9 9 6 9 9 9 6 1 1 1 6 6 6 6 B 9 6 B w p.d.e.[.U.9.  f V t.Y.M.1.9 6 6 9 9 6 9 9 9 9 9 9 9 6 9 9 6 6 6 1 1 6 1 6 6 B ",
"1 6 6 6 B B B B 6 9 B B 6 1 6 6 6 9 6 6 9 2 6 6 C _.{.L.%.%.@.o L F :.$.[ x B 9 6 9 6 6 6 6 9 B B B 9 6 B B 9 1 1 6 6 6 9 6 9 6 ",
"1 6 1 1 < 1 1 < 1 6 6 6 6 6 6 1 6 6 6 9 7 B i < < i P n.W.p.L L < 2 w G T.I B B I I B 6 1 1 < < 6 < < 6 1 6 6 9 1 6 1 6 6 6 9 6 ",
"9 9 9 9 6 9 6 6 6 9 9 B 9 9 6 6 6 9 9 6 6 6 u E * n J P G V u 8 d.e.b B I B 9 9 B B 9 9 9 9 9 6 9 6 6 6 B 9 B 9 6 6 6 6 9 9 6 6 ",
"B B B B 6 9 B 9 9 B B B 9 9 9 9 9 9 9 9 6 2 u 7.| M f 9 9 7 7 t Z.0.R e I B B B B 6 9 B B B B 9 B 9 9 9 B B B B 9 9 9 B 9 9 9 6 ",
"6 9 6 B 9 6 6 6 B B B B 9 9 9 B B B B B 7 9 V L / i 7 1 9 7 d x.' + o O I B I I I B 9 6 6 B 9 6 9 6 9 B B B 9 9 6 B B B B B 9 9 ",
"1 6 6 6 6 6 1 6 < 1 1 6 6 6 6 9 9 6 1 6 6 < 2 9 6 9 j ' 6 2 6 V Q k.R.T.1 < 2 6 6 6 1 < 6 6 6 9 1 6 1 1 1 1 6 9 6 6 9 6 6 1 6 1 ",
"6 6 6 6 9 6 9 9 9 6 6 6 9 6 6 6 B 9 9 6 9 9 9 9 C S k j i w w V p.p.Q I f.: . B 9 6 6 6 9 6 6 6 6 9 9 6 6 6 6 6 6 6 9 B 9 9 9 9 ",
"6 6 6 6 6 6 9 B B 6 6 6 6 9 6 6 9 9 9 6 9 9 w B Y G Z w B V B B l.E.d.e.K...- p B 9 6 6 6 6 6 6 9 B B B 6 6 6 9 9 6 9 9 9 6 9 9 ",
"9 6 1 6 6 6 9 B 6 6 6 1 9 6 6 1 < 1 1 6 6 6 w Z i.Z i s 9 B B 9 L.{.{.P.%.@._ o B 9 6 9 6 1 6 1 9 9 B 6 6 1 6 6 6 1 < < 6 6 1 6 ",
"B B B 6 1 6 6 9 9 6 6 1 1 6 9 9 2 2 6 B B B Z i.n.F.M._ 1 1 6 9 i.,.O.%.t./ F B 6 9 9 B B 9 9 1 1 6 9 9 6 6 1 6 9 9 6 1 1 9 B B ",
"9 9 9 6 6 6 9 6 6 6 6 6 9 6 9 6 9 9 B B B B 9 9 J k.h.l w w 9 9 V m 4.q.f u 9 7 6 9 9 9 9 6 6 6 6 9 9 6 6 6 6 6 6 6 9 9 9 B B B ",
"9 6 6 6 6 9 6 9 6 6 6 9 9 9 9 6 w B 9 B w 9 6 6 i P ^ B B B i 9 9 B D K 7 6 6 6 6 9 9 9 9 6 6 6 9 6 6 6 6 6 9 9 9 9 9 B 9 B B 9 ",
"9 9 6 9 9 6 9 9 6 1 6 9 B B B 6 6 6 6 6 6 9 9 9 7 9 9 9 9 9 9 V 7 9 6 9 6 9 7 7 B B 9 9 6 9 9 9 6 9 9 1 6 6 9 B B 9 6 9 1 6 6 9 "
};
