/* XPM */
static char *_c44c88cb6d74f6fa38fe26c508ab7cfr8Jeuwjoz0szfHFX[] = {
/* columns rows colors chars-per-pixel */
"128 128 2 1 ",
"  c black",
". c #F800F8",
/* pixels */
"................                ................                ................                ................                ",
"................                ................                ................                ................                ",
"................                ................                ................                ................                ",
"................                ................                ................                ................                ",
"................                ................                ................                ................                ",
"................                ................                ................                ................                ",
"................                ................                ................                ................                ",
"................                ................                ................                ................                ",
"................                ................                ................                ................                ",
"................                ................                ................                ................                ",
"................                ................                ................                ................                ",
"................                ................                ................                ................                ",
"................                ................                ................                ................                ",
"................                ................                ................                ................                ",
"................                ................                ................                ................                ",
"................                ................                ................                ................                ",
"                ................                ................                ................                ................",
"                ................                ................                ................                ................",
"                ................                ................                ................                ................",
"                ................                ................                ................                ................",
"                ................                ................                ................                ................",
"                ................                ................                ................                ................",
"                ................                ................                ................                ................",
"                ................                ................                ................                ................",
"                ................                ................                ................                ................",
"                ................                ................                ................                ................",
"                ................                ................                ................                ................",
"                ................                ................                ................                ................",
"                ................                ................                ................                ................",
"                ................                ................                ................                ................",
"                ................                ................                ................                ................",
"                ................                ................                ................                ................",
"................                ................                ................                ................                ",
"................                ................                ................                ................                ",
"................                ................                ................                ................                ",
"................                ................                ................                ................                ",
"................                ................                ................                ................                ",
"................                ................                ................                ................                ",
"................                ................                ................                ................                ",
"................                ................                ................                ................                ",
"................                ................                ................                ................                ",
"................                ................                ................                ................                ",
"................                ................                ................                ................                ",
"................                ................                ................                ................                ",
"................                ................                ................                ................                ",
"................                ................                ................                ................                ",
"................                ................                ................                ................                ",
"................                ................                ................                ................                ",
"                ................                ................                ................                ................",
"                ................                ................                ................                ................",
"                ................                ................                ................                ................",
"                ................                ................                ................                ................",
"                ................                ................                ................                ................",
"                ................                ................                ................                ................",
"                ................                ................                ................                ................",
"                ................                ................                ................                ................",
"                ................                ................                ................                ................",
"                ................                ................                ................                ................",
"                ................                ................                ................                ................",
"                ................                ................                ................                ................",
"                ................                ................                ................                ................",
"                ................                ................                ................                ................",
"                ................                ................                ................                ................",
"                ................                ................                ................                ................",
"................                ................                ................                ................                ",
"................                ................                ................                ................                ",
"................                ................                ................                ................                ",
"................                ................                ................                ................                ",
"................                ................                ................                ................                ",
"................                ................                ................                ................                ",
"................                ................                ................                ................                ",
"................                ................                ................                ................                ",
"................                ................                ................                ................                ",
"................                ................                ................                ................                ",
"................                ................                ................                ................                ",
"................                ................                ................                ................                ",
"................                ................                ................                ................                ",
"................                ................                ................                ................                ",
"................                ................                ................                ................                ",
"................                ................                ................                ................                ",
"                ................                ................                ................                ................",
"                ................                ................                ................                ................",
"                ................                ................                ................                ................",
"                ................                ................                ................                ................",
"                ................                ................                ................                ................",
"                ................                ................                ................                ................",
"                ................                ................                ................                ................",
"                ................                ................                ................                ................",
"                ................                ................                ................                ................",
"                ................                ................                ................                ................",
"                ................                ................                ................                ................",
"                ................                ................                ................                ................",
"                ................                ................                ................                ................",
"                ................                ................                ................                ................",
"                ................                ................                ................                ................",
"                ................                ................                ................                ................",
"................                ................                ................                ................                ",
"................                ................                ................                ................                ",
"................                ................                ................                ................                ",
"................                ................                ................                ................                ",
"................                ................                ................                ................                ",
"................                ................                ................                ................                ",
"................                ................                ................                ................                ",
"................                ................                ................                ................                ",
"................                ................                ................                ................                ",
"................                ................                ................                ................                ",
"................                ................                ................                ................                ",
"................                ................                ................                ................                ",
"................                ................                ................                ................                ",
"................                ................                ................                ................                ",
"................                ................                ................                ................                ",
"................                ................                ................                ................                ",
"                ................                ................                ................                ................",
"                ................                ................                ................                ................",
"                ................                ................                ................                ................",
"                ................                ................                ................                ................",
"                ................                ................                ................                ................",
"                ................                ................                ................                ................",
"                ................                ................                ................                ................",
"                ................                ................                ................                ................",
"                ................                ................                ................                ................",
"                ................                ................                ................                ................",
"                ................                ................                ................                ................",
"                ................                ................                ................                ................",
"                ................                ................                ................                ................",
"                ................                ................                ................                ................",
"                ................                ................                ................                ................",
"                ................                ................                ................                ................"
};
